G75*
%MOIN*%
%OFA0B0*%
%FSLAX25Y25*%
%IPPOS*%
%LPD*%
%AMOC8*
5,1,8,0,0,1.08239X$1,22.5*
%
%ADD10C,0.00000*%
%ADD11OC8,0.05200*%
%ADD12C,0.05200*%
%ADD13R,0.09843X0.04724*%
%ADD14C,0.06000*%
%ADD15R,0.04724X0.09843*%
%ADD16C,0.06600*%
%ADD17C,0.01600*%
%ADD18C,0.04000*%
%ADD19C,0.03200*%
%ADD20R,0.05315X0.05315*%
D10*
X0016800Y0011800D02*
X0016800Y0271761D01*
X0410501Y0271761D01*
X0410501Y0011800D01*
X0016800Y0011800D01*
X0020501Y0021800D02*
X0020503Y0021958D01*
X0020509Y0022116D01*
X0020519Y0022274D01*
X0020533Y0022432D01*
X0020551Y0022589D01*
X0020572Y0022746D01*
X0020598Y0022902D01*
X0020628Y0023058D01*
X0020661Y0023213D01*
X0020699Y0023366D01*
X0020740Y0023519D01*
X0020785Y0023671D01*
X0020834Y0023822D01*
X0020887Y0023971D01*
X0020943Y0024119D01*
X0021003Y0024265D01*
X0021067Y0024410D01*
X0021135Y0024553D01*
X0021206Y0024695D01*
X0021280Y0024835D01*
X0021358Y0024972D01*
X0021440Y0025108D01*
X0021524Y0025242D01*
X0021613Y0025373D01*
X0021704Y0025502D01*
X0021799Y0025629D01*
X0021896Y0025754D01*
X0021997Y0025876D01*
X0022101Y0025995D01*
X0022208Y0026112D01*
X0022318Y0026226D01*
X0022431Y0026337D01*
X0022546Y0026446D01*
X0022664Y0026551D01*
X0022785Y0026653D01*
X0022908Y0026753D01*
X0023034Y0026849D01*
X0023162Y0026942D01*
X0023292Y0027032D01*
X0023425Y0027118D01*
X0023560Y0027202D01*
X0023696Y0027281D01*
X0023835Y0027358D01*
X0023976Y0027430D01*
X0024118Y0027500D01*
X0024262Y0027565D01*
X0024408Y0027627D01*
X0024555Y0027685D01*
X0024704Y0027740D01*
X0024854Y0027791D01*
X0025005Y0027838D01*
X0025157Y0027881D01*
X0025310Y0027920D01*
X0025465Y0027956D01*
X0025620Y0027987D01*
X0025776Y0028015D01*
X0025932Y0028039D01*
X0026089Y0028059D01*
X0026247Y0028075D01*
X0026404Y0028087D01*
X0026563Y0028095D01*
X0026721Y0028099D01*
X0026879Y0028099D01*
X0027037Y0028095D01*
X0027196Y0028087D01*
X0027353Y0028075D01*
X0027511Y0028059D01*
X0027668Y0028039D01*
X0027824Y0028015D01*
X0027980Y0027987D01*
X0028135Y0027956D01*
X0028290Y0027920D01*
X0028443Y0027881D01*
X0028595Y0027838D01*
X0028746Y0027791D01*
X0028896Y0027740D01*
X0029045Y0027685D01*
X0029192Y0027627D01*
X0029338Y0027565D01*
X0029482Y0027500D01*
X0029624Y0027430D01*
X0029765Y0027358D01*
X0029904Y0027281D01*
X0030040Y0027202D01*
X0030175Y0027118D01*
X0030308Y0027032D01*
X0030438Y0026942D01*
X0030566Y0026849D01*
X0030692Y0026753D01*
X0030815Y0026653D01*
X0030936Y0026551D01*
X0031054Y0026446D01*
X0031169Y0026337D01*
X0031282Y0026226D01*
X0031392Y0026112D01*
X0031499Y0025995D01*
X0031603Y0025876D01*
X0031704Y0025754D01*
X0031801Y0025629D01*
X0031896Y0025502D01*
X0031987Y0025373D01*
X0032076Y0025242D01*
X0032160Y0025108D01*
X0032242Y0024972D01*
X0032320Y0024835D01*
X0032394Y0024695D01*
X0032465Y0024553D01*
X0032533Y0024410D01*
X0032597Y0024265D01*
X0032657Y0024119D01*
X0032713Y0023971D01*
X0032766Y0023822D01*
X0032815Y0023671D01*
X0032860Y0023519D01*
X0032901Y0023366D01*
X0032939Y0023213D01*
X0032972Y0023058D01*
X0033002Y0022902D01*
X0033028Y0022746D01*
X0033049Y0022589D01*
X0033067Y0022432D01*
X0033081Y0022274D01*
X0033091Y0022116D01*
X0033097Y0021958D01*
X0033099Y0021800D01*
X0033097Y0021642D01*
X0033091Y0021484D01*
X0033081Y0021326D01*
X0033067Y0021168D01*
X0033049Y0021011D01*
X0033028Y0020854D01*
X0033002Y0020698D01*
X0032972Y0020542D01*
X0032939Y0020387D01*
X0032901Y0020234D01*
X0032860Y0020081D01*
X0032815Y0019929D01*
X0032766Y0019778D01*
X0032713Y0019629D01*
X0032657Y0019481D01*
X0032597Y0019335D01*
X0032533Y0019190D01*
X0032465Y0019047D01*
X0032394Y0018905D01*
X0032320Y0018765D01*
X0032242Y0018628D01*
X0032160Y0018492D01*
X0032076Y0018358D01*
X0031987Y0018227D01*
X0031896Y0018098D01*
X0031801Y0017971D01*
X0031704Y0017846D01*
X0031603Y0017724D01*
X0031499Y0017605D01*
X0031392Y0017488D01*
X0031282Y0017374D01*
X0031169Y0017263D01*
X0031054Y0017154D01*
X0030936Y0017049D01*
X0030815Y0016947D01*
X0030692Y0016847D01*
X0030566Y0016751D01*
X0030438Y0016658D01*
X0030308Y0016568D01*
X0030175Y0016482D01*
X0030040Y0016398D01*
X0029904Y0016319D01*
X0029765Y0016242D01*
X0029624Y0016170D01*
X0029482Y0016100D01*
X0029338Y0016035D01*
X0029192Y0015973D01*
X0029045Y0015915D01*
X0028896Y0015860D01*
X0028746Y0015809D01*
X0028595Y0015762D01*
X0028443Y0015719D01*
X0028290Y0015680D01*
X0028135Y0015644D01*
X0027980Y0015613D01*
X0027824Y0015585D01*
X0027668Y0015561D01*
X0027511Y0015541D01*
X0027353Y0015525D01*
X0027196Y0015513D01*
X0027037Y0015505D01*
X0026879Y0015501D01*
X0026721Y0015501D01*
X0026563Y0015505D01*
X0026404Y0015513D01*
X0026247Y0015525D01*
X0026089Y0015541D01*
X0025932Y0015561D01*
X0025776Y0015585D01*
X0025620Y0015613D01*
X0025465Y0015644D01*
X0025310Y0015680D01*
X0025157Y0015719D01*
X0025005Y0015762D01*
X0024854Y0015809D01*
X0024704Y0015860D01*
X0024555Y0015915D01*
X0024408Y0015973D01*
X0024262Y0016035D01*
X0024118Y0016100D01*
X0023976Y0016170D01*
X0023835Y0016242D01*
X0023696Y0016319D01*
X0023560Y0016398D01*
X0023425Y0016482D01*
X0023292Y0016568D01*
X0023162Y0016658D01*
X0023034Y0016751D01*
X0022908Y0016847D01*
X0022785Y0016947D01*
X0022664Y0017049D01*
X0022546Y0017154D01*
X0022431Y0017263D01*
X0022318Y0017374D01*
X0022208Y0017488D01*
X0022101Y0017605D01*
X0021997Y0017724D01*
X0021896Y0017846D01*
X0021799Y0017971D01*
X0021704Y0018098D01*
X0021613Y0018227D01*
X0021524Y0018358D01*
X0021440Y0018492D01*
X0021358Y0018628D01*
X0021280Y0018765D01*
X0021206Y0018905D01*
X0021135Y0019047D01*
X0021067Y0019190D01*
X0021003Y0019335D01*
X0020943Y0019481D01*
X0020887Y0019629D01*
X0020834Y0019778D01*
X0020785Y0019929D01*
X0020740Y0020081D01*
X0020699Y0020234D01*
X0020661Y0020387D01*
X0020628Y0020542D01*
X0020598Y0020698D01*
X0020572Y0020854D01*
X0020551Y0021011D01*
X0020533Y0021168D01*
X0020519Y0021326D01*
X0020509Y0021484D01*
X0020503Y0021642D01*
X0020501Y0021800D01*
X0044438Y0187942D02*
X0044440Y0188039D01*
X0044446Y0188136D01*
X0044456Y0188232D01*
X0044470Y0188328D01*
X0044488Y0188424D01*
X0044509Y0188518D01*
X0044535Y0188612D01*
X0044564Y0188704D01*
X0044598Y0188795D01*
X0044634Y0188885D01*
X0044675Y0188973D01*
X0044719Y0189059D01*
X0044767Y0189144D01*
X0044818Y0189226D01*
X0044872Y0189307D01*
X0044930Y0189385D01*
X0044991Y0189460D01*
X0045054Y0189533D01*
X0045121Y0189604D01*
X0045191Y0189671D01*
X0045263Y0189736D01*
X0045338Y0189797D01*
X0045416Y0189856D01*
X0045495Y0189911D01*
X0045577Y0189963D01*
X0045661Y0190011D01*
X0045747Y0190056D01*
X0045835Y0190098D01*
X0045924Y0190136D01*
X0046015Y0190170D01*
X0046107Y0190200D01*
X0046200Y0190227D01*
X0046295Y0190249D01*
X0046390Y0190268D01*
X0046486Y0190283D01*
X0046582Y0190294D01*
X0046679Y0190301D01*
X0046776Y0190304D01*
X0046873Y0190303D01*
X0046970Y0190298D01*
X0047066Y0190289D01*
X0047162Y0190276D01*
X0047258Y0190259D01*
X0047353Y0190238D01*
X0047446Y0190214D01*
X0047539Y0190185D01*
X0047631Y0190153D01*
X0047721Y0190117D01*
X0047809Y0190078D01*
X0047896Y0190034D01*
X0047981Y0189988D01*
X0048064Y0189937D01*
X0048145Y0189884D01*
X0048223Y0189827D01*
X0048300Y0189767D01*
X0048373Y0189704D01*
X0048444Y0189638D01*
X0048512Y0189569D01*
X0048578Y0189497D01*
X0048640Y0189423D01*
X0048699Y0189346D01*
X0048755Y0189267D01*
X0048808Y0189185D01*
X0048858Y0189102D01*
X0048903Y0189016D01*
X0048946Y0188929D01*
X0048985Y0188840D01*
X0049020Y0188750D01*
X0049051Y0188658D01*
X0049078Y0188565D01*
X0049102Y0188471D01*
X0049122Y0188376D01*
X0049138Y0188280D01*
X0049150Y0188184D01*
X0049158Y0188087D01*
X0049162Y0187990D01*
X0049162Y0187894D01*
X0049158Y0187797D01*
X0049150Y0187700D01*
X0049138Y0187604D01*
X0049122Y0187508D01*
X0049102Y0187413D01*
X0049078Y0187319D01*
X0049051Y0187226D01*
X0049020Y0187134D01*
X0048985Y0187044D01*
X0048946Y0186955D01*
X0048903Y0186868D01*
X0048858Y0186782D01*
X0048808Y0186699D01*
X0048755Y0186617D01*
X0048699Y0186538D01*
X0048640Y0186461D01*
X0048578Y0186387D01*
X0048512Y0186315D01*
X0048444Y0186246D01*
X0048373Y0186180D01*
X0048300Y0186117D01*
X0048223Y0186057D01*
X0048145Y0186000D01*
X0048064Y0185947D01*
X0047981Y0185896D01*
X0047896Y0185850D01*
X0047809Y0185806D01*
X0047721Y0185767D01*
X0047631Y0185731D01*
X0047539Y0185699D01*
X0047446Y0185670D01*
X0047353Y0185646D01*
X0047258Y0185625D01*
X0047162Y0185608D01*
X0047066Y0185595D01*
X0046970Y0185586D01*
X0046873Y0185581D01*
X0046776Y0185580D01*
X0046679Y0185583D01*
X0046582Y0185590D01*
X0046486Y0185601D01*
X0046390Y0185616D01*
X0046295Y0185635D01*
X0046200Y0185657D01*
X0046107Y0185684D01*
X0046015Y0185714D01*
X0045924Y0185748D01*
X0045835Y0185786D01*
X0045747Y0185828D01*
X0045661Y0185873D01*
X0045577Y0185921D01*
X0045495Y0185973D01*
X0045416Y0186028D01*
X0045338Y0186087D01*
X0045263Y0186148D01*
X0045191Y0186213D01*
X0045121Y0186280D01*
X0045054Y0186351D01*
X0044991Y0186424D01*
X0044930Y0186499D01*
X0044872Y0186577D01*
X0044818Y0186658D01*
X0044767Y0186740D01*
X0044719Y0186825D01*
X0044675Y0186911D01*
X0044634Y0186999D01*
X0044598Y0187089D01*
X0044564Y0187180D01*
X0044535Y0187272D01*
X0044509Y0187366D01*
X0044488Y0187460D01*
X0044470Y0187556D01*
X0044456Y0187652D01*
X0044446Y0187748D01*
X0044440Y0187845D01*
X0044438Y0187942D01*
X0044438Y0215501D02*
X0044440Y0215598D01*
X0044446Y0215695D01*
X0044456Y0215791D01*
X0044470Y0215887D01*
X0044488Y0215983D01*
X0044509Y0216077D01*
X0044535Y0216171D01*
X0044564Y0216263D01*
X0044598Y0216354D01*
X0044634Y0216444D01*
X0044675Y0216532D01*
X0044719Y0216618D01*
X0044767Y0216703D01*
X0044818Y0216785D01*
X0044872Y0216866D01*
X0044930Y0216944D01*
X0044991Y0217019D01*
X0045054Y0217092D01*
X0045121Y0217163D01*
X0045191Y0217230D01*
X0045263Y0217295D01*
X0045338Y0217356D01*
X0045416Y0217415D01*
X0045495Y0217470D01*
X0045577Y0217522D01*
X0045661Y0217570D01*
X0045747Y0217615D01*
X0045835Y0217657D01*
X0045924Y0217695D01*
X0046015Y0217729D01*
X0046107Y0217759D01*
X0046200Y0217786D01*
X0046295Y0217808D01*
X0046390Y0217827D01*
X0046486Y0217842D01*
X0046582Y0217853D01*
X0046679Y0217860D01*
X0046776Y0217863D01*
X0046873Y0217862D01*
X0046970Y0217857D01*
X0047066Y0217848D01*
X0047162Y0217835D01*
X0047258Y0217818D01*
X0047353Y0217797D01*
X0047446Y0217773D01*
X0047539Y0217744D01*
X0047631Y0217712D01*
X0047721Y0217676D01*
X0047809Y0217637D01*
X0047896Y0217593D01*
X0047981Y0217547D01*
X0048064Y0217496D01*
X0048145Y0217443D01*
X0048223Y0217386D01*
X0048300Y0217326D01*
X0048373Y0217263D01*
X0048444Y0217197D01*
X0048512Y0217128D01*
X0048578Y0217056D01*
X0048640Y0216982D01*
X0048699Y0216905D01*
X0048755Y0216826D01*
X0048808Y0216744D01*
X0048858Y0216661D01*
X0048903Y0216575D01*
X0048946Y0216488D01*
X0048985Y0216399D01*
X0049020Y0216309D01*
X0049051Y0216217D01*
X0049078Y0216124D01*
X0049102Y0216030D01*
X0049122Y0215935D01*
X0049138Y0215839D01*
X0049150Y0215743D01*
X0049158Y0215646D01*
X0049162Y0215549D01*
X0049162Y0215453D01*
X0049158Y0215356D01*
X0049150Y0215259D01*
X0049138Y0215163D01*
X0049122Y0215067D01*
X0049102Y0214972D01*
X0049078Y0214878D01*
X0049051Y0214785D01*
X0049020Y0214693D01*
X0048985Y0214603D01*
X0048946Y0214514D01*
X0048903Y0214427D01*
X0048858Y0214341D01*
X0048808Y0214258D01*
X0048755Y0214176D01*
X0048699Y0214097D01*
X0048640Y0214020D01*
X0048578Y0213946D01*
X0048512Y0213874D01*
X0048444Y0213805D01*
X0048373Y0213739D01*
X0048300Y0213676D01*
X0048223Y0213616D01*
X0048145Y0213559D01*
X0048064Y0213506D01*
X0047981Y0213455D01*
X0047896Y0213409D01*
X0047809Y0213365D01*
X0047721Y0213326D01*
X0047631Y0213290D01*
X0047539Y0213258D01*
X0047446Y0213229D01*
X0047353Y0213205D01*
X0047258Y0213184D01*
X0047162Y0213167D01*
X0047066Y0213154D01*
X0046970Y0213145D01*
X0046873Y0213140D01*
X0046776Y0213139D01*
X0046679Y0213142D01*
X0046582Y0213149D01*
X0046486Y0213160D01*
X0046390Y0213175D01*
X0046295Y0213194D01*
X0046200Y0213216D01*
X0046107Y0213243D01*
X0046015Y0213273D01*
X0045924Y0213307D01*
X0045835Y0213345D01*
X0045747Y0213387D01*
X0045661Y0213432D01*
X0045577Y0213480D01*
X0045495Y0213532D01*
X0045416Y0213587D01*
X0045338Y0213646D01*
X0045263Y0213707D01*
X0045191Y0213772D01*
X0045121Y0213839D01*
X0045054Y0213910D01*
X0044991Y0213983D01*
X0044930Y0214058D01*
X0044872Y0214136D01*
X0044818Y0214217D01*
X0044767Y0214299D01*
X0044719Y0214384D01*
X0044675Y0214470D01*
X0044634Y0214558D01*
X0044598Y0214648D01*
X0044564Y0214739D01*
X0044535Y0214831D01*
X0044509Y0214925D01*
X0044488Y0215019D01*
X0044470Y0215115D01*
X0044456Y0215211D01*
X0044446Y0215307D01*
X0044440Y0215404D01*
X0044438Y0215501D01*
X0020501Y0261800D02*
X0020503Y0261958D01*
X0020509Y0262116D01*
X0020519Y0262274D01*
X0020533Y0262432D01*
X0020551Y0262589D01*
X0020572Y0262746D01*
X0020598Y0262902D01*
X0020628Y0263058D01*
X0020661Y0263213D01*
X0020699Y0263366D01*
X0020740Y0263519D01*
X0020785Y0263671D01*
X0020834Y0263822D01*
X0020887Y0263971D01*
X0020943Y0264119D01*
X0021003Y0264265D01*
X0021067Y0264410D01*
X0021135Y0264553D01*
X0021206Y0264695D01*
X0021280Y0264835D01*
X0021358Y0264972D01*
X0021440Y0265108D01*
X0021524Y0265242D01*
X0021613Y0265373D01*
X0021704Y0265502D01*
X0021799Y0265629D01*
X0021896Y0265754D01*
X0021997Y0265876D01*
X0022101Y0265995D01*
X0022208Y0266112D01*
X0022318Y0266226D01*
X0022431Y0266337D01*
X0022546Y0266446D01*
X0022664Y0266551D01*
X0022785Y0266653D01*
X0022908Y0266753D01*
X0023034Y0266849D01*
X0023162Y0266942D01*
X0023292Y0267032D01*
X0023425Y0267118D01*
X0023560Y0267202D01*
X0023696Y0267281D01*
X0023835Y0267358D01*
X0023976Y0267430D01*
X0024118Y0267500D01*
X0024262Y0267565D01*
X0024408Y0267627D01*
X0024555Y0267685D01*
X0024704Y0267740D01*
X0024854Y0267791D01*
X0025005Y0267838D01*
X0025157Y0267881D01*
X0025310Y0267920D01*
X0025465Y0267956D01*
X0025620Y0267987D01*
X0025776Y0268015D01*
X0025932Y0268039D01*
X0026089Y0268059D01*
X0026247Y0268075D01*
X0026404Y0268087D01*
X0026563Y0268095D01*
X0026721Y0268099D01*
X0026879Y0268099D01*
X0027037Y0268095D01*
X0027196Y0268087D01*
X0027353Y0268075D01*
X0027511Y0268059D01*
X0027668Y0268039D01*
X0027824Y0268015D01*
X0027980Y0267987D01*
X0028135Y0267956D01*
X0028290Y0267920D01*
X0028443Y0267881D01*
X0028595Y0267838D01*
X0028746Y0267791D01*
X0028896Y0267740D01*
X0029045Y0267685D01*
X0029192Y0267627D01*
X0029338Y0267565D01*
X0029482Y0267500D01*
X0029624Y0267430D01*
X0029765Y0267358D01*
X0029904Y0267281D01*
X0030040Y0267202D01*
X0030175Y0267118D01*
X0030308Y0267032D01*
X0030438Y0266942D01*
X0030566Y0266849D01*
X0030692Y0266753D01*
X0030815Y0266653D01*
X0030936Y0266551D01*
X0031054Y0266446D01*
X0031169Y0266337D01*
X0031282Y0266226D01*
X0031392Y0266112D01*
X0031499Y0265995D01*
X0031603Y0265876D01*
X0031704Y0265754D01*
X0031801Y0265629D01*
X0031896Y0265502D01*
X0031987Y0265373D01*
X0032076Y0265242D01*
X0032160Y0265108D01*
X0032242Y0264972D01*
X0032320Y0264835D01*
X0032394Y0264695D01*
X0032465Y0264553D01*
X0032533Y0264410D01*
X0032597Y0264265D01*
X0032657Y0264119D01*
X0032713Y0263971D01*
X0032766Y0263822D01*
X0032815Y0263671D01*
X0032860Y0263519D01*
X0032901Y0263366D01*
X0032939Y0263213D01*
X0032972Y0263058D01*
X0033002Y0262902D01*
X0033028Y0262746D01*
X0033049Y0262589D01*
X0033067Y0262432D01*
X0033081Y0262274D01*
X0033091Y0262116D01*
X0033097Y0261958D01*
X0033099Y0261800D01*
X0033097Y0261642D01*
X0033091Y0261484D01*
X0033081Y0261326D01*
X0033067Y0261168D01*
X0033049Y0261011D01*
X0033028Y0260854D01*
X0033002Y0260698D01*
X0032972Y0260542D01*
X0032939Y0260387D01*
X0032901Y0260234D01*
X0032860Y0260081D01*
X0032815Y0259929D01*
X0032766Y0259778D01*
X0032713Y0259629D01*
X0032657Y0259481D01*
X0032597Y0259335D01*
X0032533Y0259190D01*
X0032465Y0259047D01*
X0032394Y0258905D01*
X0032320Y0258765D01*
X0032242Y0258628D01*
X0032160Y0258492D01*
X0032076Y0258358D01*
X0031987Y0258227D01*
X0031896Y0258098D01*
X0031801Y0257971D01*
X0031704Y0257846D01*
X0031603Y0257724D01*
X0031499Y0257605D01*
X0031392Y0257488D01*
X0031282Y0257374D01*
X0031169Y0257263D01*
X0031054Y0257154D01*
X0030936Y0257049D01*
X0030815Y0256947D01*
X0030692Y0256847D01*
X0030566Y0256751D01*
X0030438Y0256658D01*
X0030308Y0256568D01*
X0030175Y0256482D01*
X0030040Y0256398D01*
X0029904Y0256319D01*
X0029765Y0256242D01*
X0029624Y0256170D01*
X0029482Y0256100D01*
X0029338Y0256035D01*
X0029192Y0255973D01*
X0029045Y0255915D01*
X0028896Y0255860D01*
X0028746Y0255809D01*
X0028595Y0255762D01*
X0028443Y0255719D01*
X0028290Y0255680D01*
X0028135Y0255644D01*
X0027980Y0255613D01*
X0027824Y0255585D01*
X0027668Y0255561D01*
X0027511Y0255541D01*
X0027353Y0255525D01*
X0027196Y0255513D01*
X0027037Y0255505D01*
X0026879Y0255501D01*
X0026721Y0255501D01*
X0026563Y0255505D01*
X0026404Y0255513D01*
X0026247Y0255525D01*
X0026089Y0255541D01*
X0025932Y0255561D01*
X0025776Y0255585D01*
X0025620Y0255613D01*
X0025465Y0255644D01*
X0025310Y0255680D01*
X0025157Y0255719D01*
X0025005Y0255762D01*
X0024854Y0255809D01*
X0024704Y0255860D01*
X0024555Y0255915D01*
X0024408Y0255973D01*
X0024262Y0256035D01*
X0024118Y0256100D01*
X0023976Y0256170D01*
X0023835Y0256242D01*
X0023696Y0256319D01*
X0023560Y0256398D01*
X0023425Y0256482D01*
X0023292Y0256568D01*
X0023162Y0256658D01*
X0023034Y0256751D01*
X0022908Y0256847D01*
X0022785Y0256947D01*
X0022664Y0257049D01*
X0022546Y0257154D01*
X0022431Y0257263D01*
X0022318Y0257374D01*
X0022208Y0257488D01*
X0022101Y0257605D01*
X0021997Y0257724D01*
X0021896Y0257846D01*
X0021799Y0257971D01*
X0021704Y0258098D01*
X0021613Y0258227D01*
X0021524Y0258358D01*
X0021440Y0258492D01*
X0021358Y0258628D01*
X0021280Y0258765D01*
X0021206Y0258905D01*
X0021135Y0259047D01*
X0021067Y0259190D01*
X0021003Y0259335D01*
X0020943Y0259481D01*
X0020887Y0259629D01*
X0020834Y0259778D01*
X0020785Y0259929D01*
X0020740Y0260081D01*
X0020699Y0260234D01*
X0020661Y0260387D01*
X0020628Y0260542D01*
X0020598Y0260698D01*
X0020572Y0260854D01*
X0020551Y0261011D01*
X0020533Y0261168D01*
X0020519Y0261326D01*
X0020509Y0261484D01*
X0020503Y0261642D01*
X0020501Y0261800D01*
X0329300Y0101800D02*
X0329302Y0101961D01*
X0329308Y0102121D01*
X0329318Y0102282D01*
X0329332Y0102442D01*
X0329350Y0102602D01*
X0329371Y0102761D01*
X0329397Y0102920D01*
X0329427Y0103078D01*
X0329460Y0103235D01*
X0329498Y0103392D01*
X0329539Y0103547D01*
X0329584Y0103701D01*
X0329633Y0103854D01*
X0329686Y0104006D01*
X0329742Y0104157D01*
X0329803Y0104306D01*
X0329866Y0104454D01*
X0329934Y0104600D01*
X0330005Y0104744D01*
X0330079Y0104886D01*
X0330157Y0105027D01*
X0330239Y0105165D01*
X0330324Y0105302D01*
X0330412Y0105436D01*
X0330504Y0105568D01*
X0330599Y0105698D01*
X0330697Y0105826D01*
X0330798Y0105951D01*
X0330902Y0106073D01*
X0331009Y0106193D01*
X0331119Y0106310D01*
X0331232Y0106425D01*
X0331348Y0106536D01*
X0331467Y0106645D01*
X0331588Y0106750D01*
X0331712Y0106853D01*
X0331838Y0106953D01*
X0331966Y0107049D01*
X0332097Y0107142D01*
X0332231Y0107232D01*
X0332366Y0107319D01*
X0332504Y0107402D01*
X0332643Y0107482D01*
X0332785Y0107558D01*
X0332928Y0107631D01*
X0333073Y0107700D01*
X0333220Y0107766D01*
X0333368Y0107828D01*
X0333518Y0107886D01*
X0333669Y0107941D01*
X0333822Y0107992D01*
X0333976Y0108039D01*
X0334131Y0108082D01*
X0334287Y0108121D01*
X0334443Y0108157D01*
X0334601Y0108188D01*
X0334759Y0108216D01*
X0334918Y0108240D01*
X0335078Y0108260D01*
X0335238Y0108276D01*
X0335398Y0108288D01*
X0335559Y0108296D01*
X0335720Y0108300D01*
X0335880Y0108300D01*
X0336041Y0108296D01*
X0336202Y0108288D01*
X0336362Y0108276D01*
X0336522Y0108260D01*
X0336682Y0108240D01*
X0336841Y0108216D01*
X0336999Y0108188D01*
X0337157Y0108157D01*
X0337313Y0108121D01*
X0337469Y0108082D01*
X0337624Y0108039D01*
X0337778Y0107992D01*
X0337931Y0107941D01*
X0338082Y0107886D01*
X0338232Y0107828D01*
X0338380Y0107766D01*
X0338527Y0107700D01*
X0338672Y0107631D01*
X0338815Y0107558D01*
X0338957Y0107482D01*
X0339096Y0107402D01*
X0339234Y0107319D01*
X0339369Y0107232D01*
X0339503Y0107142D01*
X0339634Y0107049D01*
X0339762Y0106953D01*
X0339888Y0106853D01*
X0340012Y0106750D01*
X0340133Y0106645D01*
X0340252Y0106536D01*
X0340368Y0106425D01*
X0340481Y0106310D01*
X0340591Y0106193D01*
X0340698Y0106073D01*
X0340802Y0105951D01*
X0340903Y0105826D01*
X0341001Y0105698D01*
X0341096Y0105568D01*
X0341188Y0105436D01*
X0341276Y0105302D01*
X0341361Y0105165D01*
X0341443Y0105027D01*
X0341521Y0104886D01*
X0341595Y0104744D01*
X0341666Y0104600D01*
X0341734Y0104454D01*
X0341797Y0104306D01*
X0341858Y0104157D01*
X0341914Y0104006D01*
X0341967Y0103854D01*
X0342016Y0103701D01*
X0342061Y0103547D01*
X0342102Y0103392D01*
X0342140Y0103235D01*
X0342173Y0103078D01*
X0342203Y0102920D01*
X0342229Y0102761D01*
X0342250Y0102602D01*
X0342268Y0102442D01*
X0342282Y0102282D01*
X0342292Y0102121D01*
X0342298Y0101961D01*
X0342300Y0101800D01*
X0342298Y0101639D01*
X0342292Y0101479D01*
X0342282Y0101318D01*
X0342268Y0101158D01*
X0342250Y0100998D01*
X0342229Y0100839D01*
X0342203Y0100680D01*
X0342173Y0100522D01*
X0342140Y0100365D01*
X0342102Y0100208D01*
X0342061Y0100053D01*
X0342016Y0099899D01*
X0341967Y0099746D01*
X0341914Y0099594D01*
X0341858Y0099443D01*
X0341797Y0099294D01*
X0341734Y0099146D01*
X0341666Y0099000D01*
X0341595Y0098856D01*
X0341521Y0098714D01*
X0341443Y0098573D01*
X0341361Y0098435D01*
X0341276Y0098298D01*
X0341188Y0098164D01*
X0341096Y0098032D01*
X0341001Y0097902D01*
X0340903Y0097774D01*
X0340802Y0097649D01*
X0340698Y0097527D01*
X0340591Y0097407D01*
X0340481Y0097290D01*
X0340368Y0097175D01*
X0340252Y0097064D01*
X0340133Y0096955D01*
X0340012Y0096850D01*
X0339888Y0096747D01*
X0339762Y0096647D01*
X0339634Y0096551D01*
X0339503Y0096458D01*
X0339369Y0096368D01*
X0339234Y0096281D01*
X0339096Y0096198D01*
X0338957Y0096118D01*
X0338815Y0096042D01*
X0338672Y0095969D01*
X0338527Y0095900D01*
X0338380Y0095834D01*
X0338232Y0095772D01*
X0338082Y0095714D01*
X0337931Y0095659D01*
X0337778Y0095608D01*
X0337624Y0095561D01*
X0337469Y0095518D01*
X0337313Y0095479D01*
X0337157Y0095443D01*
X0336999Y0095412D01*
X0336841Y0095384D01*
X0336682Y0095360D01*
X0336522Y0095340D01*
X0336362Y0095324D01*
X0336202Y0095312D01*
X0336041Y0095304D01*
X0335880Y0095300D01*
X0335720Y0095300D01*
X0335559Y0095304D01*
X0335398Y0095312D01*
X0335238Y0095324D01*
X0335078Y0095340D01*
X0334918Y0095360D01*
X0334759Y0095384D01*
X0334601Y0095412D01*
X0334443Y0095443D01*
X0334287Y0095479D01*
X0334131Y0095518D01*
X0333976Y0095561D01*
X0333822Y0095608D01*
X0333669Y0095659D01*
X0333518Y0095714D01*
X0333368Y0095772D01*
X0333220Y0095834D01*
X0333073Y0095900D01*
X0332928Y0095969D01*
X0332785Y0096042D01*
X0332643Y0096118D01*
X0332504Y0096198D01*
X0332366Y0096281D01*
X0332231Y0096368D01*
X0332097Y0096458D01*
X0331966Y0096551D01*
X0331838Y0096647D01*
X0331712Y0096747D01*
X0331588Y0096850D01*
X0331467Y0096955D01*
X0331348Y0097064D01*
X0331232Y0097175D01*
X0331119Y0097290D01*
X0331009Y0097407D01*
X0330902Y0097527D01*
X0330798Y0097649D01*
X0330697Y0097774D01*
X0330599Y0097902D01*
X0330504Y0098032D01*
X0330412Y0098164D01*
X0330324Y0098298D01*
X0330239Y0098435D01*
X0330157Y0098573D01*
X0330079Y0098714D01*
X0330005Y0098856D01*
X0329934Y0099000D01*
X0329866Y0099146D01*
X0329803Y0099294D01*
X0329742Y0099443D01*
X0329686Y0099594D01*
X0329633Y0099746D01*
X0329584Y0099899D01*
X0329539Y0100053D01*
X0329498Y0100208D01*
X0329460Y0100365D01*
X0329427Y0100522D01*
X0329397Y0100680D01*
X0329371Y0100839D01*
X0329350Y0100998D01*
X0329332Y0101158D01*
X0329318Y0101318D01*
X0329308Y0101479D01*
X0329302Y0101639D01*
X0329300Y0101800D01*
X0360580Y0136800D02*
X0360582Y0136897D01*
X0360588Y0136994D01*
X0360598Y0137090D01*
X0360612Y0137186D01*
X0360630Y0137282D01*
X0360651Y0137376D01*
X0360677Y0137470D01*
X0360706Y0137562D01*
X0360740Y0137653D01*
X0360776Y0137743D01*
X0360817Y0137831D01*
X0360861Y0137917D01*
X0360909Y0138002D01*
X0360960Y0138084D01*
X0361014Y0138165D01*
X0361072Y0138243D01*
X0361133Y0138318D01*
X0361196Y0138391D01*
X0361263Y0138462D01*
X0361333Y0138529D01*
X0361405Y0138594D01*
X0361480Y0138655D01*
X0361558Y0138714D01*
X0361637Y0138769D01*
X0361719Y0138821D01*
X0361803Y0138869D01*
X0361889Y0138914D01*
X0361977Y0138956D01*
X0362066Y0138994D01*
X0362157Y0139028D01*
X0362249Y0139058D01*
X0362342Y0139085D01*
X0362437Y0139107D01*
X0362532Y0139126D01*
X0362628Y0139141D01*
X0362724Y0139152D01*
X0362821Y0139159D01*
X0362918Y0139162D01*
X0363015Y0139161D01*
X0363112Y0139156D01*
X0363208Y0139147D01*
X0363304Y0139134D01*
X0363400Y0139117D01*
X0363495Y0139096D01*
X0363588Y0139072D01*
X0363681Y0139043D01*
X0363773Y0139011D01*
X0363863Y0138975D01*
X0363951Y0138936D01*
X0364038Y0138892D01*
X0364123Y0138846D01*
X0364206Y0138795D01*
X0364287Y0138742D01*
X0364365Y0138685D01*
X0364442Y0138625D01*
X0364515Y0138562D01*
X0364586Y0138496D01*
X0364654Y0138427D01*
X0364720Y0138355D01*
X0364782Y0138281D01*
X0364841Y0138204D01*
X0364897Y0138125D01*
X0364950Y0138043D01*
X0365000Y0137960D01*
X0365045Y0137874D01*
X0365088Y0137787D01*
X0365127Y0137698D01*
X0365162Y0137608D01*
X0365193Y0137516D01*
X0365220Y0137423D01*
X0365244Y0137329D01*
X0365264Y0137234D01*
X0365280Y0137138D01*
X0365292Y0137042D01*
X0365300Y0136945D01*
X0365304Y0136848D01*
X0365304Y0136752D01*
X0365300Y0136655D01*
X0365292Y0136558D01*
X0365280Y0136462D01*
X0365264Y0136366D01*
X0365244Y0136271D01*
X0365220Y0136177D01*
X0365193Y0136084D01*
X0365162Y0135992D01*
X0365127Y0135902D01*
X0365088Y0135813D01*
X0365045Y0135726D01*
X0365000Y0135640D01*
X0364950Y0135557D01*
X0364897Y0135475D01*
X0364841Y0135396D01*
X0364782Y0135319D01*
X0364720Y0135245D01*
X0364654Y0135173D01*
X0364586Y0135104D01*
X0364515Y0135038D01*
X0364442Y0134975D01*
X0364365Y0134915D01*
X0364287Y0134858D01*
X0364206Y0134805D01*
X0364123Y0134754D01*
X0364038Y0134708D01*
X0363951Y0134664D01*
X0363863Y0134625D01*
X0363773Y0134589D01*
X0363681Y0134557D01*
X0363588Y0134528D01*
X0363495Y0134504D01*
X0363400Y0134483D01*
X0363304Y0134466D01*
X0363208Y0134453D01*
X0363112Y0134444D01*
X0363015Y0134439D01*
X0362918Y0134438D01*
X0362821Y0134441D01*
X0362724Y0134448D01*
X0362628Y0134459D01*
X0362532Y0134474D01*
X0362437Y0134493D01*
X0362342Y0134515D01*
X0362249Y0134542D01*
X0362157Y0134572D01*
X0362066Y0134606D01*
X0361977Y0134644D01*
X0361889Y0134686D01*
X0361803Y0134731D01*
X0361719Y0134779D01*
X0361637Y0134831D01*
X0361558Y0134886D01*
X0361480Y0134945D01*
X0361405Y0135006D01*
X0361333Y0135071D01*
X0361263Y0135138D01*
X0361196Y0135209D01*
X0361133Y0135282D01*
X0361072Y0135357D01*
X0361014Y0135435D01*
X0360960Y0135516D01*
X0360909Y0135598D01*
X0360861Y0135683D01*
X0360817Y0135769D01*
X0360776Y0135857D01*
X0360740Y0135947D01*
X0360706Y0136038D01*
X0360677Y0136130D01*
X0360651Y0136224D01*
X0360630Y0136318D01*
X0360612Y0136414D01*
X0360598Y0136510D01*
X0360588Y0136606D01*
X0360582Y0136703D01*
X0360580Y0136800D01*
X0388139Y0136800D02*
X0388141Y0136897D01*
X0388147Y0136994D01*
X0388157Y0137090D01*
X0388171Y0137186D01*
X0388189Y0137282D01*
X0388210Y0137376D01*
X0388236Y0137470D01*
X0388265Y0137562D01*
X0388299Y0137653D01*
X0388335Y0137743D01*
X0388376Y0137831D01*
X0388420Y0137917D01*
X0388468Y0138002D01*
X0388519Y0138084D01*
X0388573Y0138165D01*
X0388631Y0138243D01*
X0388692Y0138318D01*
X0388755Y0138391D01*
X0388822Y0138462D01*
X0388892Y0138529D01*
X0388964Y0138594D01*
X0389039Y0138655D01*
X0389117Y0138714D01*
X0389196Y0138769D01*
X0389278Y0138821D01*
X0389362Y0138869D01*
X0389448Y0138914D01*
X0389536Y0138956D01*
X0389625Y0138994D01*
X0389716Y0139028D01*
X0389808Y0139058D01*
X0389901Y0139085D01*
X0389996Y0139107D01*
X0390091Y0139126D01*
X0390187Y0139141D01*
X0390283Y0139152D01*
X0390380Y0139159D01*
X0390477Y0139162D01*
X0390574Y0139161D01*
X0390671Y0139156D01*
X0390767Y0139147D01*
X0390863Y0139134D01*
X0390959Y0139117D01*
X0391054Y0139096D01*
X0391147Y0139072D01*
X0391240Y0139043D01*
X0391332Y0139011D01*
X0391422Y0138975D01*
X0391510Y0138936D01*
X0391597Y0138892D01*
X0391682Y0138846D01*
X0391765Y0138795D01*
X0391846Y0138742D01*
X0391924Y0138685D01*
X0392001Y0138625D01*
X0392074Y0138562D01*
X0392145Y0138496D01*
X0392213Y0138427D01*
X0392279Y0138355D01*
X0392341Y0138281D01*
X0392400Y0138204D01*
X0392456Y0138125D01*
X0392509Y0138043D01*
X0392559Y0137960D01*
X0392604Y0137874D01*
X0392647Y0137787D01*
X0392686Y0137698D01*
X0392721Y0137608D01*
X0392752Y0137516D01*
X0392779Y0137423D01*
X0392803Y0137329D01*
X0392823Y0137234D01*
X0392839Y0137138D01*
X0392851Y0137042D01*
X0392859Y0136945D01*
X0392863Y0136848D01*
X0392863Y0136752D01*
X0392859Y0136655D01*
X0392851Y0136558D01*
X0392839Y0136462D01*
X0392823Y0136366D01*
X0392803Y0136271D01*
X0392779Y0136177D01*
X0392752Y0136084D01*
X0392721Y0135992D01*
X0392686Y0135902D01*
X0392647Y0135813D01*
X0392604Y0135726D01*
X0392559Y0135640D01*
X0392509Y0135557D01*
X0392456Y0135475D01*
X0392400Y0135396D01*
X0392341Y0135319D01*
X0392279Y0135245D01*
X0392213Y0135173D01*
X0392145Y0135104D01*
X0392074Y0135038D01*
X0392001Y0134975D01*
X0391924Y0134915D01*
X0391846Y0134858D01*
X0391765Y0134805D01*
X0391682Y0134754D01*
X0391597Y0134708D01*
X0391510Y0134664D01*
X0391422Y0134625D01*
X0391332Y0134589D01*
X0391240Y0134557D01*
X0391147Y0134528D01*
X0391054Y0134504D01*
X0390959Y0134483D01*
X0390863Y0134466D01*
X0390767Y0134453D01*
X0390671Y0134444D01*
X0390574Y0134439D01*
X0390477Y0134438D01*
X0390380Y0134441D01*
X0390283Y0134448D01*
X0390187Y0134459D01*
X0390091Y0134474D01*
X0389996Y0134493D01*
X0389901Y0134515D01*
X0389808Y0134542D01*
X0389716Y0134572D01*
X0389625Y0134606D01*
X0389536Y0134644D01*
X0389448Y0134686D01*
X0389362Y0134731D01*
X0389278Y0134779D01*
X0389196Y0134831D01*
X0389117Y0134886D01*
X0389039Y0134945D01*
X0388964Y0135006D01*
X0388892Y0135071D01*
X0388822Y0135138D01*
X0388755Y0135209D01*
X0388692Y0135282D01*
X0388631Y0135357D01*
X0388573Y0135435D01*
X0388519Y0135516D01*
X0388468Y0135598D01*
X0388420Y0135683D01*
X0388376Y0135769D01*
X0388335Y0135857D01*
X0388299Y0135947D01*
X0388265Y0136038D01*
X0388236Y0136130D01*
X0388210Y0136224D01*
X0388189Y0136318D01*
X0388171Y0136414D01*
X0388157Y0136510D01*
X0388147Y0136606D01*
X0388141Y0136703D01*
X0388139Y0136800D01*
X0344300Y0186800D02*
X0344302Y0186961D01*
X0344308Y0187121D01*
X0344318Y0187282D01*
X0344332Y0187442D01*
X0344350Y0187602D01*
X0344371Y0187761D01*
X0344397Y0187920D01*
X0344427Y0188078D01*
X0344460Y0188235D01*
X0344498Y0188392D01*
X0344539Y0188547D01*
X0344584Y0188701D01*
X0344633Y0188854D01*
X0344686Y0189006D01*
X0344742Y0189157D01*
X0344803Y0189306D01*
X0344866Y0189454D01*
X0344934Y0189600D01*
X0345005Y0189744D01*
X0345079Y0189886D01*
X0345157Y0190027D01*
X0345239Y0190165D01*
X0345324Y0190302D01*
X0345412Y0190436D01*
X0345504Y0190568D01*
X0345599Y0190698D01*
X0345697Y0190826D01*
X0345798Y0190951D01*
X0345902Y0191073D01*
X0346009Y0191193D01*
X0346119Y0191310D01*
X0346232Y0191425D01*
X0346348Y0191536D01*
X0346467Y0191645D01*
X0346588Y0191750D01*
X0346712Y0191853D01*
X0346838Y0191953D01*
X0346966Y0192049D01*
X0347097Y0192142D01*
X0347231Y0192232D01*
X0347366Y0192319D01*
X0347504Y0192402D01*
X0347643Y0192482D01*
X0347785Y0192558D01*
X0347928Y0192631D01*
X0348073Y0192700D01*
X0348220Y0192766D01*
X0348368Y0192828D01*
X0348518Y0192886D01*
X0348669Y0192941D01*
X0348822Y0192992D01*
X0348976Y0193039D01*
X0349131Y0193082D01*
X0349287Y0193121D01*
X0349443Y0193157D01*
X0349601Y0193188D01*
X0349759Y0193216D01*
X0349918Y0193240D01*
X0350078Y0193260D01*
X0350238Y0193276D01*
X0350398Y0193288D01*
X0350559Y0193296D01*
X0350720Y0193300D01*
X0350880Y0193300D01*
X0351041Y0193296D01*
X0351202Y0193288D01*
X0351362Y0193276D01*
X0351522Y0193260D01*
X0351682Y0193240D01*
X0351841Y0193216D01*
X0351999Y0193188D01*
X0352157Y0193157D01*
X0352313Y0193121D01*
X0352469Y0193082D01*
X0352624Y0193039D01*
X0352778Y0192992D01*
X0352931Y0192941D01*
X0353082Y0192886D01*
X0353232Y0192828D01*
X0353380Y0192766D01*
X0353527Y0192700D01*
X0353672Y0192631D01*
X0353815Y0192558D01*
X0353957Y0192482D01*
X0354096Y0192402D01*
X0354234Y0192319D01*
X0354369Y0192232D01*
X0354503Y0192142D01*
X0354634Y0192049D01*
X0354762Y0191953D01*
X0354888Y0191853D01*
X0355012Y0191750D01*
X0355133Y0191645D01*
X0355252Y0191536D01*
X0355368Y0191425D01*
X0355481Y0191310D01*
X0355591Y0191193D01*
X0355698Y0191073D01*
X0355802Y0190951D01*
X0355903Y0190826D01*
X0356001Y0190698D01*
X0356096Y0190568D01*
X0356188Y0190436D01*
X0356276Y0190302D01*
X0356361Y0190165D01*
X0356443Y0190027D01*
X0356521Y0189886D01*
X0356595Y0189744D01*
X0356666Y0189600D01*
X0356734Y0189454D01*
X0356797Y0189306D01*
X0356858Y0189157D01*
X0356914Y0189006D01*
X0356967Y0188854D01*
X0357016Y0188701D01*
X0357061Y0188547D01*
X0357102Y0188392D01*
X0357140Y0188235D01*
X0357173Y0188078D01*
X0357203Y0187920D01*
X0357229Y0187761D01*
X0357250Y0187602D01*
X0357268Y0187442D01*
X0357282Y0187282D01*
X0357292Y0187121D01*
X0357298Y0186961D01*
X0357300Y0186800D01*
X0357298Y0186639D01*
X0357292Y0186479D01*
X0357282Y0186318D01*
X0357268Y0186158D01*
X0357250Y0185998D01*
X0357229Y0185839D01*
X0357203Y0185680D01*
X0357173Y0185522D01*
X0357140Y0185365D01*
X0357102Y0185208D01*
X0357061Y0185053D01*
X0357016Y0184899D01*
X0356967Y0184746D01*
X0356914Y0184594D01*
X0356858Y0184443D01*
X0356797Y0184294D01*
X0356734Y0184146D01*
X0356666Y0184000D01*
X0356595Y0183856D01*
X0356521Y0183714D01*
X0356443Y0183573D01*
X0356361Y0183435D01*
X0356276Y0183298D01*
X0356188Y0183164D01*
X0356096Y0183032D01*
X0356001Y0182902D01*
X0355903Y0182774D01*
X0355802Y0182649D01*
X0355698Y0182527D01*
X0355591Y0182407D01*
X0355481Y0182290D01*
X0355368Y0182175D01*
X0355252Y0182064D01*
X0355133Y0181955D01*
X0355012Y0181850D01*
X0354888Y0181747D01*
X0354762Y0181647D01*
X0354634Y0181551D01*
X0354503Y0181458D01*
X0354369Y0181368D01*
X0354234Y0181281D01*
X0354096Y0181198D01*
X0353957Y0181118D01*
X0353815Y0181042D01*
X0353672Y0180969D01*
X0353527Y0180900D01*
X0353380Y0180834D01*
X0353232Y0180772D01*
X0353082Y0180714D01*
X0352931Y0180659D01*
X0352778Y0180608D01*
X0352624Y0180561D01*
X0352469Y0180518D01*
X0352313Y0180479D01*
X0352157Y0180443D01*
X0351999Y0180412D01*
X0351841Y0180384D01*
X0351682Y0180360D01*
X0351522Y0180340D01*
X0351362Y0180324D01*
X0351202Y0180312D01*
X0351041Y0180304D01*
X0350880Y0180300D01*
X0350720Y0180300D01*
X0350559Y0180304D01*
X0350398Y0180312D01*
X0350238Y0180324D01*
X0350078Y0180340D01*
X0349918Y0180360D01*
X0349759Y0180384D01*
X0349601Y0180412D01*
X0349443Y0180443D01*
X0349287Y0180479D01*
X0349131Y0180518D01*
X0348976Y0180561D01*
X0348822Y0180608D01*
X0348669Y0180659D01*
X0348518Y0180714D01*
X0348368Y0180772D01*
X0348220Y0180834D01*
X0348073Y0180900D01*
X0347928Y0180969D01*
X0347785Y0181042D01*
X0347643Y0181118D01*
X0347504Y0181198D01*
X0347366Y0181281D01*
X0347231Y0181368D01*
X0347097Y0181458D01*
X0346966Y0181551D01*
X0346838Y0181647D01*
X0346712Y0181747D01*
X0346588Y0181850D01*
X0346467Y0181955D01*
X0346348Y0182064D01*
X0346232Y0182175D01*
X0346119Y0182290D01*
X0346009Y0182407D01*
X0345902Y0182527D01*
X0345798Y0182649D01*
X0345697Y0182774D01*
X0345599Y0182902D01*
X0345504Y0183032D01*
X0345412Y0183164D01*
X0345324Y0183298D01*
X0345239Y0183435D01*
X0345157Y0183573D01*
X0345079Y0183714D01*
X0345005Y0183856D01*
X0344934Y0184000D01*
X0344866Y0184146D01*
X0344803Y0184294D01*
X0344742Y0184443D01*
X0344686Y0184594D01*
X0344633Y0184746D01*
X0344584Y0184899D01*
X0344539Y0185053D01*
X0344498Y0185208D01*
X0344460Y0185365D01*
X0344427Y0185522D01*
X0344397Y0185680D01*
X0344371Y0185839D01*
X0344350Y0185998D01*
X0344332Y0186158D01*
X0344318Y0186318D01*
X0344308Y0186479D01*
X0344302Y0186639D01*
X0344300Y0186800D01*
X0344300Y0241800D02*
X0344302Y0241961D01*
X0344308Y0242121D01*
X0344318Y0242282D01*
X0344332Y0242442D01*
X0344350Y0242602D01*
X0344371Y0242761D01*
X0344397Y0242920D01*
X0344427Y0243078D01*
X0344460Y0243235D01*
X0344498Y0243392D01*
X0344539Y0243547D01*
X0344584Y0243701D01*
X0344633Y0243854D01*
X0344686Y0244006D01*
X0344742Y0244157D01*
X0344803Y0244306D01*
X0344866Y0244454D01*
X0344934Y0244600D01*
X0345005Y0244744D01*
X0345079Y0244886D01*
X0345157Y0245027D01*
X0345239Y0245165D01*
X0345324Y0245302D01*
X0345412Y0245436D01*
X0345504Y0245568D01*
X0345599Y0245698D01*
X0345697Y0245826D01*
X0345798Y0245951D01*
X0345902Y0246073D01*
X0346009Y0246193D01*
X0346119Y0246310D01*
X0346232Y0246425D01*
X0346348Y0246536D01*
X0346467Y0246645D01*
X0346588Y0246750D01*
X0346712Y0246853D01*
X0346838Y0246953D01*
X0346966Y0247049D01*
X0347097Y0247142D01*
X0347231Y0247232D01*
X0347366Y0247319D01*
X0347504Y0247402D01*
X0347643Y0247482D01*
X0347785Y0247558D01*
X0347928Y0247631D01*
X0348073Y0247700D01*
X0348220Y0247766D01*
X0348368Y0247828D01*
X0348518Y0247886D01*
X0348669Y0247941D01*
X0348822Y0247992D01*
X0348976Y0248039D01*
X0349131Y0248082D01*
X0349287Y0248121D01*
X0349443Y0248157D01*
X0349601Y0248188D01*
X0349759Y0248216D01*
X0349918Y0248240D01*
X0350078Y0248260D01*
X0350238Y0248276D01*
X0350398Y0248288D01*
X0350559Y0248296D01*
X0350720Y0248300D01*
X0350880Y0248300D01*
X0351041Y0248296D01*
X0351202Y0248288D01*
X0351362Y0248276D01*
X0351522Y0248260D01*
X0351682Y0248240D01*
X0351841Y0248216D01*
X0351999Y0248188D01*
X0352157Y0248157D01*
X0352313Y0248121D01*
X0352469Y0248082D01*
X0352624Y0248039D01*
X0352778Y0247992D01*
X0352931Y0247941D01*
X0353082Y0247886D01*
X0353232Y0247828D01*
X0353380Y0247766D01*
X0353527Y0247700D01*
X0353672Y0247631D01*
X0353815Y0247558D01*
X0353957Y0247482D01*
X0354096Y0247402D01*
X0354234Y0247319D01*
X0354369Y0247232D01*
X0354503Y0247142D01*
X0354634Y0247049D01*
X0354762Y0246953D01*
X0354888Y0246853D01*
X0355012Y0246750D01*
X0355133Y0246645D01*
X0355252Y0246536D01*
X0355368Y0246425D01*
X0355481Y0246310D01*
X0355591Y0246193D01*
X0355698Y0246073D01*
X0355802Y0245951D01*
X0355903Y0245826D01*
X0356001Y0245698D01*
X0356096Y0245568D01*
X0356188Y0245436D01*
X0356276Y0245302D01*
X0356361Y0245165D01*
X0356443Y0245027D01*
X0356521Y0244886D01*
X0356595Y0244744D01*
X0356666Y0244600D01*
X0356734Y0244454D01*
X0356797Y0244306D01*
X0356858Y0244157D01*
X0356914Y0244006D01*
X0356967Y0243854D01*
X0357016Y0243701D01*
X0357061Y0243547D01*
X0357102Y0243392D01*
X0357140Y0243235D01*
X0357173Y0243078D01*
X0357203Y0242920D01*
X0357229Y0242761D01*
X0357250Y0242602D01*
X0357268Y0242442D01*
X0357282Y0242282D01*
X0357292Y0242121D01*
X0357298Y0241961D01*
X0357300Y0241800D01*
X0357298Y0241639D01*
X0357292Y0241479D01*
X0357282Y0241318D01*
X0357268Y0241158D01*
X0357250Y0240998D01*
X0357229Y0240839D01*
X0357203Y0240680D01*
X0357173Y0240522D01*
X0357140Y0240365D01*
X0357102Y0240208D01*
X0357061Y0240053D01*
X0357016Y0239899D01*
X0356967Y0239746D01*
X0356914Y0239594D01*
X0356858Y0239443D01*
X0356797Y0239294D01*
X0356734Y0239146D01*
X0356666Y0239000D01*
X0356595Y0238856D01*
X0356521Y0238714D01*
X0356443Y0238573D01*
X0356361Y0238435D01*
X0356276Y0238298D01*
X0356188Y0238164D01*
X0356096Y0238032D01*
X0356001Y0237902D01*
X0355903Y0237774D01*
X0355802Y0237649D01*
X0355698Y0237527D01*
X0355591Y0237407D01*
X0355481Y0237290D01*
X0355368Y0237175D01*
X0355252Y0237064D01*
X0355133Y0236955D01*
X0355012Y0236850D01*
X0354888Y0236747D01*
X0354762Y0236647D01*
X0354634Y0236551D01*
X0354503Y0236458D01*
X0354369Y0236368D01*
X0354234Y0236281D01*
X0354096Y0236198D01*
X0353957Y0236118D01*
X0353815Y0236042D01*
X0353672Y0235969D01*
X0353527Y0235900D01*
X0353380Y0235834D01*
X0353232Y0235772D01*
X0353082Y0235714D01*
X0352931Y0235659D01*
X0352778Y0235608D01*
X0352624Y0235561D01*
X0352469Y0235518D01*
X0352313Y0235479D01*
X0352157Y0235443D01*
X0351999Y0235412D01*
X0351841Y0235384D01*
X0351682Y0235360D01*
X0351522Y0235340D01*
X0351362Y0235324D01*
X0351202Y0235312D01*
X0351041Y0235304D01*
X0350880Y0235300D01*
X0350720Y0235300D01*
X0350559Y0235304D01*
X0350398Y0235312D01*
X0350238Y0235324D01*
X0350078Y0235340D01*
X0349918Y0235360D01*
X0349759Y0235384D01*
X0349601Y0235412D01*
X0349443Y0235443D01*
X0349287Y0235479D01*
X0349131Y0235518D01*
X0348976Y0235561D01*
X0348822Y0235608D01*
X0348669Y0235659D01*
X0348518Y0235714D01*
X0348368Y0235772D01*
X0348220Y0235834D01*
X0348073Y0235900D01*
X0347928Y0235969D01*
X0347785Y0236042D01*
X0347643Y0236118D01*
X0347504Y0236198D01*
X0347366Y0236281D01*
X0347231Y0236368D01*
X0347097Y0236458D01*
X0346966Y0236551D01*
X0346838Y0236647D01*
X0346712Y0236747D01*
X0346588Y0236850D01*
X0346467Y0236955D01*
X0346348Y0237064D01*
X0346232Y0237175D01*
X0346119Y0237290D01*
X0346009Y0237407D01*
X0345902Y0237527D01*
X0345798Y0237649D01*
X0345697Y0237774D01*
X0345599Y0237902D01*
X0345504Y0238032D01*
X0345412Y0238164D01*
X0345324Y0238298D01*
X0345239Y0238435D01*
X0345157Y0238573D01*
X0345079Y0238714D01*
X0345005Y0238856D01*
X0344934Y0239000D01*
X0344866Y0239146D01*
X0344803Y0239294D01*
X0344742Y0239443D01*
X0344686Y0239594D01*
X0344633Y0239746D01*
X0344584Y0239899D01*
X0344539Y0240053D01*
X0344498Y0240208D01*
X0344460Y0240365D01*
X0344427Y0240522D01*
X0344397Y0240680D01*
X0344371Y0240839D01*
X0344350Y0240998D01*
X0344332Y0241158D01*
X0344318Y0241318D01*
X0344308Y0241479D01*
X0344302Y0241639D01*
X0344300Y0241800D01*
X0395501Y0261800D02*
X0395503Y0261958D01*
X0395509Y0262116D01*
X0395519Y0262274D01*
X0395533Y0262432D01*
X0395551Y0262589D01*
X0395572Y0262746D01*
X0395598Y0262902D01*
X0395628Y0263058D01*
X0395661Y0263213D01*
X0395699Y0263366D01*
X0395740Y0263519D01*
X0395785Y0263671D01*
X0395834Y0263822D01*
X0395887Y0263971D01*
X0395943Y0264119D01*
X0396003Y0264265D01*
X0396067Y0264410D01*
X0396135Y0264553D01*
X0396206Y0264695D01*
X0396280Y0264835D01*
X0396358Y0264972D01*
X0396440Y0265108D01*
X0396524Y0265242D01*
X0396613Y0265373D01*
X0396704Y0265502D01*
X0396799Y0265629D01*
X0396896Y0265754D01*
X0396997Y0265876D01*
X0397101Y0265995D01*
X0397208Y0266112D01*
X0397318Y0266226D01*
X0397431Y0266337D01*
X0397546Y0266446D01*
X0397664Y0266551D01*
X0397785Y0266653D01*
X0397908Y0266753D01*
X0398034Y0266849D01*
X0398162Y0266942D01*
X0398292Y0267032D01*
X0398425Y0267118D01*
X0398560Y0267202D01*
X0398696Y0267281D01*
X0398835Y0267358D01*
X0398976Y0267430D01*
X0399118Y0267500D01*
X0399262Y0267565D01*
X0399408Y0267627D01*
X0399555Y0267685D01*
X0399704Y0267740D01*
X0399854Y0267791D01*
X0400005Y0267838D01*
X0400157Y0267881D01*
X0400310Y0267920D01*
X0400465Y0267956D01*
X0400620Y0267987D01*
X0400776Y0268015D01*
X0400932Y0268039D01*
X0401089Y0268059D01*
X0401247Y0268075D01*
X0401404Y0268087D01*
X0401563Y0268095D01*
X0401721Y0268099D01*
X0401879Y0268099D01*
X0402037Y0268095D01*
X0402196Y0268087D01*
X0402353Y0268075D01*
X0402511Y0268059D01*
X0402668Y0268039D01*
X0402824Y0268015D01*
X0402980Y0267987D01*
X0403135Y0267956D01*
X0403290Y0267920D01*
X0403443Y0267881D01*
X0403595Y0267838D01*
X0403746Y0267791D01*
X0403896Y0267740D01*
X0404045Y0267685D01*
X0404192Y0267627D01*
X0404338Y0267565D01*
X0404482Y0267500D01*
X0404624Y0267430D01*
X0404765Y0267358D01*
X0404904Y0267281D01*
X0405040Y0267202D01*
X0405175Y0267118D01*
X0405308Y0267032D01*
X0405438Y0266942D01*
X0405566Y0266849D01*
X0405692Y0266753D01*
X0405815Y0266653D01*
X0405936Y0266551D01*
X0406054Y0266446D01*
X0406169Y0266337D01*
X0406282Y0266226D01*
X0406392Y0266112D01*
X0406499Y0265995D01*
X0406603Y0265876D01*
X0406704Y0265754D01*
X0406801Y0265629D01*
X0406896Y0265502D01*
X0406987Y0265373D01*
X0407076Y0265242D01*
X0407160Y0265108D01*
X0407242Y0264972D01*
X0407320Y0264835D01*
X0407394Y0264695D01*
X0407465Y0264553D01*
X0407533Y0264410D01*
X0407597Y0264265D01*
X0407657Y0264119D01*
X0407713Y0263971D01*
X0407766Y0263822D01*
X0407815Y0263671D01*
X0407860Y0263519D01*
X0407901Y0263366D01*
X0407939Y0263213D01*
X0407972Y0263058D01*
X0408002Y0262902D01*
X0408028Y0262746D01*
X0408049Y0262589D01*
X0408067Y0262432D01*
X0408081Y0262274D01*
X0408091Y0262116D01*
X0408097Y0261958D01*
X0408099Y0261800D01*
X0408097Y0261642D01*
X0408091Y0261484D01*
X0408081Y0261326D01*
X0408067Y0261168D01*
X0408049Y0261011D01*
X0408028Y0260854D01*
X0408002Y0260698D01*
X0407972Y0260542D01*
X0407939Y0260387D01*
X0407901Y0260234D01*
X0407860Y0260081D01*
X0407815Y0259929D01*
X0407766Y0259778D01*
X0407713Y0259629D01*
X0407657Y0259481D01*
X0407597Y0259335D01*
X0407533Y0259190D01*
X0407465Y0259047D01*
X0407394Y0258905D01*
X0407320Y0258765D01*
X0407242Y0258628D01*
X0407160Y0258492D01*
X0407076Y0258358D01*
X0406987Y0258227D01*
X0406896Y0258098D01*
X0406801Y0257971D01*
X0406704Y0257846D01*
X0406603Y0257724D01*
X0406499Y0257605D01*
X0406392Y0257488D01*
X0406282Y0257374D01*
X0406169Y0257263D01*
X0406054Y0257154D01*
X0405936Y0257049D01*
X0405815Y0256947D01*
X0405692Y0256847D01*
X0405566Y0256751D01*
X0405438Y0256658D01*
X0405308Y0256568D01*
X0405175Y0256482D01*
X0405040Y0256398D01*
X0404904Y0256319D01*
X0404765Y0256242D01*
X0404624Y0256170D01*
X0404482Y0256100D01*
X0404338Y0256035D01*
X0404192Y0255973D01*
X0404045Y0255915D01*
X0403896Y0255860D01*
X0403746Y0255809D01*
X0403595Y0255762D01*
X0403443Y0255719D01*
X0403290Y0255680D01*
X0403135Y0255644D01*
X0402980Y0255613D01*
X0402824Y0255585D01*
X0402668Y0255561D01*
X0402511Y0255541D01*
X0402353Y0255525D01*
X0402196Y0255513D01*
X0402037Y0255505D01*
X0401879Y0255501D01*
X0401721Y0255501D01*
X0401563Y0255505D01*
X0401404Y0255513D01*
X0401247Y0255525D01*
X0401089Y0255541D01*
X0400932Y0255561D01*
X0400776Y0255585D01*
X0400620Y0255613D01*
X0400465Y0255644D01*
X0400310Y0255680D01*
X0400157Y0255719D01*
X0400005Y0255762D01*
X0399854Y0255809D01*
X0399704Y0255860D01*
X0399555Y0255915D01*
X0399408Y0255973D01*
X0399262Y0256035D01*
X0399118Y0256100D01*
X0398976Y0256170D01*
X0398835Y0256242D01*
X0398696Y0256319D01*
X0398560Y0256398D01*
X0398425Y0256482D01*
X0398292Y0256568D01*
X0398162Y0256658D01*
X0398034Y0256751D01*
X0397908Y0256847D01*
X0397785Y0256947D01*
X0397664Y0257049D01*
X0397546Y0257154D01*
X0397431Y0257263D01*
X0397318Y0257374D01*
X0397208Y0257488D01*
X0397101Y0257605D01*
X0396997Y0257724D01*
X0396896Y0257846D01*
X0396799Y0257971D01*
X0396704Y0258098D01*
X0396613Y0258227D01*
X0396524Y0258358D01*
X0396440Y0258492D01*
X0396358Y0258628D01*
X0396280Y0258765D01*
X0396206Y0258905D01*
X0396135Y0259047D01*
X0396067Y0259190D01*
X0396003Y0259335D01*
X0395943Y0259481D01*
X0395887Y0259629D01*
X0395834Y0259778D01*
X0395785Y0259929D01*
X0395740Y0260081D01*
X0395699Y0260234D01*
X0395661Y0260387D01*
X0395628Y0260542D01*
X0395598Y0260698D01*
X0395572Y0260854D01*
X0395551Y0261011D01*
X0395533Y0261168D01*
X0395519Y0261326D01*
X0395509Y0261484D01*
X0395503Y0261642D01*
X0395501Y0261800D01*
X0329300Y0046800D02*
X0329302Y0046961D01*
X0329308Y0047121D01*
X0329318Y0047282D01*
X0329332Y0047442D01*
X0329350Y0047602D01*
X0329371Y0047761D01*
X0329397Y0047920D01*
X0329427Y0048078D01*
X0329460Y0048235D01*
X0329498Y0048392D01*
X0329539Y0048547D01*
X0329584Y0048701D01*
X0329633Y0048854D01*
X0329686Y0049006D01*
X0329742Y0049157D01*
X0329803Y0049306D01*
X0329866Y0049454D01*
X0329934Y0049600D01*
X0330005Y0049744D01*
X0330079Y0049886D01*
X0330157Y0050027D01*
X0330239Y0050165D01*
X0330324Y0050302D01*
X0330412Y0050436D01*
X0330504Y0050568D01*
X0330599Y0050698D01*
X0330697Y0050826D01*
X0330798Y0050951D01*
X0330902Y0051073D01*
X0331009Y0051193D01*
X0331119Y0051310D01*
X0331232Y0051425D01*
X0331348Y0051536D01*
X0331467Y0051645D01*
X0331588Y0051750D01*
X0331712Y0051853D01*
X0331838Y0051953D01*
X0331966Y0052049D01*
X0332097Y0052142D01*
X0332231Y0052232D01*
X0332366Y0052319D01*
X0332504Y0052402D01*
X0332643Y0052482D01*
X0332785Y0052558D01*
X0332928Y0052631D01*
X0333073Y0052700D01*
X0333220Y0052766D01*
X0333368Y0052828D01*
X0333518Y0052886D01*
X0333669Y0052941D01*
X0333822Y0052992D01*
X0333976Y0053039D01*
X0334131Y0053082D01*
X0334287Y0053121D01*
X0334443Y0053157D01*
X0334601Y0053188D01*
X0334759Y0053216D01*
X0334918Y0053240D01*
X0335078Y0053260D01*
X0335238Y0053276D01*
X0335398Y0053288D01*
X0335559Y0053296D01*
X0335720Y0053300D01*
X0335880Y0053300D01*
X0336041Y0053296D01*
X0336202Y0053288D01*
X0336362Y0053276D01*
X0336522Y0053260D01*
X0336682Y0053240D01*
X0336841Y0053216D01*
X0336999Y0053188D01*
X0337157Y0053157D01*
X0337313Y0053121D01*
X0337469Y0053082D01*
X0337624Y0053039D01*
X0337778Y0052992D01*
X0337931Y0052941D01*
X0338082Y0052886D01*
X0338232Y0052828D01*
X0338380Y0052766D01*
X0338527Y0052700D01*
X0338672Y0052631D01*
X0338815Y0052558D01*
X0338957Y0052482D01*
X0339096Y0052402D01*
X0339234Y0052319D01*
X0339369Y0052232D01*
X0339503Y0052142D01*
X0339634Y0052049D01*
X0339762Y0051953D01*
X0339888Y0051853D01*
X0340012Y0051750D01*
X0340133Y0051645D01*
X0340252Y0051536D01*
X0340368Y0051425D01*
X0340481Y0051310D01*
X0340591Y0051193D01*
X0340698Y0051073D01*
X0340802Y0050951D01*
X0340903Y0050826D01*
X0341001Y0050698D01*
X0341096Y0050568D01*
X0341188Y0050436D01*
X0341276Y0050302D01*
X0341361Y0050165D01*
X0341443Y0050027D01*
X0341521Y0049886D01*
X0341595Y0049744D01*
X0341666Y0049600D01*
X0341734Y0049454D01*
X0341797Y0049306D01*
X0341858Y0049157D01*
X0341914Y0049006D01*
X0341967Y0048854D01*
X0342016Y0048701D01*
X0342061Y0048547D01*
X0342102Y0048392D01*
X0342140Y0048235D01*
X0342173Y0048078D01*
X0342203Y0047920D01*
X0342229Y0047761D01*
X0342250Y0047602D01*
X0342268Y0047442D01*
X0342282Y0047282D01*
X0342292Y0047121D01*
X0342298Y0046961D01*
X0342300Y0046800D01*
X0342298Y0046639D01*
X0342292Y0046479D01*
X0342282Y0046318D01*
X0342268Y0046158D01*
X0342250Y0045998D01*
X0342229Y0045839D01*
X0342203Y0045680D01*
X0342173Y0045522D01*
X0342140Y0045365D01*
X0342102Y0045208D01*
X0342061Y0045053D01*
X0342016Y0044899D01*
X0341967Y0044746D01*
X0341914Y0044594D01*
X0341858Y0044443D01*
X0341797Y0044294D01*
X0341734Y0044146D01*
X0341666Y0044000D01*
X0341595Y0043856D01*
X0341521Y0043714D01*
X0341443Y0043573D01*
X0341361Y0043435D01*
X0341276Y0043298D01*
X0341188Y0043164D01*
X0341096Y0043032D01*
X0341001Y0042902D01*
X0340903Y0042774D01*
X0340802Y0042649D01*
X0340698Y0042527D01*
X0340591Y0042407D01*
X0340481Y0042290D01*
X0340368Y0042175D01*
X0340252Y0042064D01*
X0340133Y0041955D01*
X0340012Y0041850D01*
X0339888Y0041747D01*
X0339762Y0041647D01*
X0339634Y0041551D01*
X0339503Y0041458D01*
X0339369Y0041368D01*
X0339234Y0041281D01*
X0339096Y0041198D01*
X0338957Y0041118D01*
X0338815Y0041042D01*
X0338672Y0040969D01*
X0338527Y0040900D01*
X0338380Y0040834D01*
X0338232Y0040772D01*
X0338082Y0040714D01*
X0337931Y0040659D01*
X0337778Y0040608D01*
X0337624Y0040561D01*
X0337469Y0040518D01*
X0337313Y0040479D01*
X0337157Y0040443D01*
X0336999Y0040412D01*
X0336841Y0040384D01*
X0336682Y0040360D01*
X0336522Y0040340D01*
X0336362Y0040324D01*
X0336202Y0040312D01*
X0336041Y0040304D01*
X0335880Y0040300D01*
X0335720Y0040300D01*
X0335559Y0040304D01*
X0335398Y0040312D01*
X0335238Y0040324D01*
X0335078Y0040340D01*
X0334918Y0040360D01*
X0334759Y0040384D01*
X0334601Y0040412D01*
X0334443Y0040443D01*
X0334287Y0040479D01*
X0334131Y0040518D01*
X0333976Y0040561D01*
X0333822Y0040608D01*
X0333669Y0040659D01*
X0333518Y0040714D01*
X0333368Y0040772D01*
X0333220Y0040834D01*
X0333073Y0040900D01*
X0332928Y0040969D01*
X0332785Y0041042D01*
X0332643Y0041118D01*
X0332504Y0041198D01*
X0332366Y0041281D01*
X0332231Y0041368D01*
X0332097Y0041458D01*
X0331966Y0041551D01*
X0331838Y0041647D01*
X0331712Y0041747D01*
X0331588Y0041850D01*
X0331467Y0041955D01*
X0331348Y0042064D01*
X0331232Y0042175D01*
X0331119Y0042290D01*
X0331009Y0042407D01*
X0330902Y0042527D01*
X0330798Y0042649D01*
X0330697Y0042774D01*
X0330599Y0042902D01*
X0330504Y0043032D01*
X0330412Y0043164D01*
X0330324Y0043298D01*
X0330239Y0043435D01*
X0330157Y0043573D01*
X0330079Y0043714D01*
X0330005Y0043856D01*
X0329934Y0044000D01*
X0329866Y0044146D01*
X0329803Y0044294D01*
X0329742Y0044443D01*
X0329686Y0044594D01*
X0329633Y0044746D01*
X0329584Y0044899D01*
X0329539Y0045053D01*
X0329498Y0045208D01*
X0329460Y0045365D01*
X0329427Y0045522D01*
X0329397Y0045680D01*
X0329371Y0045839D01*
X0329350Y0045998D01*
X0329332Y0046158D01*
X0329318Y0046318D01*
X0329308Y0046479D01*
X0329302Y0046639D01*
X0329300Y0046800D01*
X0390501Y0021800D02*
X0390503Y0021958D01*
X0390509Y0022116D01*
X0390519Y0022274D01*
X0390533Y0022432D01*
X0390551Y0022589D01*
X0390572Y0022746D01*
X0390598Y0022902D01*
X0390628Y0023058D01*
X0390661Y0023213D01*
X0390699Y0023366D01*
X0390740Y0023519D01*
X0390785Y0023671D01*
X0390834Y0023822D01*
X0390887Y0023971D01*
X0390943Y0024119D01*
X0391003Y0024265D01*
X0391067Y0024410D01*
X0391135Y0024553D01*
X0391206Y0024695D01*
X0391280Y0024835D01*
X0391358Y0024972D01*
X0391440Y0025108D01*
X0391524Y0025242D01*
X0391613Y0025373D01*
X0391704Y0025502D01*
X0391799Y0025629D01*
X0391896Y0025754D01*
X0391997Y0025876D01*
X0392101Y0025995D01*
X0392208Y0026112D01*
X0392318Y0026226D01*
X0392431Y0026337D01*
X0392546Y0026446D01*
X0392664Y0026551D01*
X0392785Y0026653D01*
X0392908Y0026753D01*
X0393034Y0026849D01*
X0393162Y0026942D01*
X0393292Y0027032D01*
X0393425Y0027118D01*
X0393560Y0027202D01*
X0393696Y0027281D01*
X0393835Y0027358D01*
X0393976Y0027430D01*
X0394118Y0027500D01*
X0394262Y0027565D01*
X0394408Y0027627D01*
X0394555Y0027685D01*
X0394704Y0027740D01*
X0394854Y0027791D01*
X0395005Y0027838D01*
X0395157Y0027881D01*
X0395310Y0027920D01*
X0395465Y0027956D01*
X0395620Y0027987D01*
X0395776Y0028015D01*
X0395932Y0028039D01*
X0396089Y0028059D01*
X0396247Y0028075D01*
X0396404Y0028087D01*
X0396563Y0028095D01*
X0396721Y0028099D01*
X0396879Y0028099D01*
X0397037Y0028095D01*
X0397196Y0028087D01*
X0397353Y0028075D01*
X0397511Y0028059D01*
X0397668Y0028039D01*
X0397824Y0028015D01*
X0397980Y0027987D01*
X0398135Y0027956D01*
X0398290Y0027920D01*
X0398443Y0027881D01*
X0398595Y0027838D01*
X0398746Y0027791D01*
X0398896Y0027740D01*
X0399045Y0027685D01*
X0399192Y0027627D01*
X0399338Y0027565D01*
X0399482Y0027500D01*
X0399624Y0027430D01*
X0399765Y0027358D01*
X0399904Y0027281D01*
X0400040Y0027202D01*
X0400175Y0027118D01*
X0400308Y0027032D01*
X0400438Y0026942D01*
X0400566Y0026849D01*
X0400692Y0026753D01*
X0400815Y0026653D01*
X0400936Y0026551D01*
X0401054Y0026446D01*
X0401169Y0026337D01*
X0401282Y0026226D01*
X0401392Y0026112D01*
X0401499Y0025995D01*
X0401603Y0025876D01*
X0401704Y0025754D01*
X0401801Y0025629D01*
X0401896Y0025502D01*
X0401987Y0025373D01*
X0402076Y0025242D01*
X0402160Y0025108D01*
X0402242Y0024972D01*
X0402320Y0024835D01*
X0402394Y0024695D01*
X0402465Y0024553D01*
X0402533Y0024410D01*
X0402597Y0024265D01*
X0402657Y0024119D01*
X0402713Y0023971D01*
X0402766Y0023822D01*
X0402815Y0023671D01*
X0402860Y0023519D01*
X0402901Y0023366D01*
X0402939Y0023213D01*
X0402972Y0023058D01*
X0403002Y0022902D01*
X0403028Y0022746D01*
X0403049Y0022589D01*
X0403067Y0022432D01*
X0403081Y0022274D01*
X0403091Y0022116D01*
X0403097Y0021958D01*
X0403099Y0021800D01*
X0403097Y0021642D01*
X0403091Y0021484D01*
X0403081Y0021326D01*
X0403067Y0021168D01*
X0403049Y0021011D01*
X0403028Y0020854D01*
X0403002Y0020698D01*
X0402972Y0020542D01*
X0402939Y0020387D01*
X0402901Y0020234D01*
X0402860Y0020081D01*
X0402815Y0019929D01*
X0402766Y0019778D01*
X0402713Y0019629D01*
X0402657Y0019481D01*
X0402597Y0019335D01*
X0402533Y0019190D01*
X0402465Y0019047D01*
X0402394Y0018905D01*
X0402320Y0018765D01*
X0402242Y0018628D01*
X0402160Y0018492D01*
X0402076Y0018358D01*
X0401987Y0018227D01*
X0401896Y0018098D01*
X0401801Y0017971D01*
X0401704Y0017846D01*
X0401603Y0017724D01*
X0401499Y0017605D01*
X0401392Y0017488D01*
X0401282Y0017374D01*
X0401169Y0017263D01*
X0401054Y0017154D01*
X0400936Y0017049D01*
X0400815Y0016947D01*
X0400692Y0016847D01*
X0400566Y0016751D01*
X0400438Y0016658D01*
X0400308Y0016568D01*
X0400175Y0016482D01*
X0400040Y0016398D01*
X0399904Y0016319D01*
X0399765Y0016242D01*
X0399624Y0016170D01*
X0399482Y0016100D01*
X0399338Y0016035D01*
X0399192Y0015973D01*
X0399045Y0015915D01*
X0398896Y0015860D01*
X0398746Y0015809D01*
X0398595Y0015762D01*
X0398443Y0015719D01*
X0398290Y0015680D01*
X0398135Y0015644D01*
X0397980Y0015613D01*
X0397824Y0015585D01*
X0397668Y0015561D01*
X0397511Y0015541D01*
X0397353Y0015525D01*
X0397196Y0015513D01*
X0397037Y0015505D01*
X0396879Y0015501D01*
X0396721Y0015501D01*
X0396563Y0015505D01*
X0396404Y0015513D01*
X0396247Y0015525D01*
X0396089Y0015541D01*
X0395932Y0015561D01*
X0395776Y0015585D01*
X0395620Y0015613D01*
X0395465Y0015644D01*
X0395310Y0015680D01*
X0395157Y0015719D01*
X0395005Y0015762D01*
X0394854Y0015809D01*
X0394704Y0015860D01*
X0394555Y0015915D01*
X0394408Y0015973D01*
X0394262Y0016035D01*
X0394118Y0016100D01*
X0393976Y0016170D01*
X0393835Y0016242D01*
X0393696Y0016319D01*
X0393560Y0016398D01*
X0393425Y0016482D01*
X0393292Y0016568D01*
X0393162Y0016658D01*
X0393034Y0016751D01*
X0392908Y0016847D01*
X0392785Y0016947D01*
X0392664Y0017049D01*
X0392546Y0017154D01*
X0392431Y0017263D01*
X0392318Y0017374D01*
X0392208Y0017488D01*
X0392101Y0017605D01*
X0391997Y0017724D01*
X0391896Y0017846D01*
X0391799Y0017971D01*
X0391704Y0018098D01*
X0391613Y0018227D01*
X0391524Y0018358D01*
X0391440Y0018492D01*
X0391358Y0018628D01*
X0391280Y0018765D01*
X0391206Y0018905D01*
X0391135Y0019047D01*
X0391067Y0019190D01*
X0391003Y0019335D01*
X0390943Y0019481D01*
X0390887Y0019629D01*
X0390834Y0019778D01*
X0390785Y0019929D01*
X0390740Y0020081D01*
X0390699Y0020234D01*
X0390661Y0020387D01*
X0390628Y0020542D01*
X0390598Y0020698D01*
X0390572Y0020854D01*
X0390551Y0021011D01*
X0390533Y0021168D01*
X0390519Y0021326D01*
X0390509Y0021484D01*
X0390503Y0021642D01*
X0390501Y0021800D01*
D11*
X0376800Y0031800D03*
X0366800Y0031800D03*
X0366800Y0086800D03*
X0376800Y0086800D03*
X0256800Y0071800D03*
X0246800Y0071800D03*
X0221800Y0066800D03*
X0221800Y0076800D03*
X0226800Y0091800D03*
X0226800Y0101800D03*
X0221800Y0121800D03*
X0221800Y0131800D03*
X0241800Y0121800D03*
X0251800Y0121800D03*
X0226800Y0151800D03*
X0226800Y0161800D03*
X0226800Y0176800D03*
X0226800Y0186800D03*
X0206800Y0191800D03*
X0196800Y0191800D03*
X0171800Y0196800D03*
X0171800Y0206800D03*
X0146800Y0206800D03*
X0146800Y0196800D03*
X0116800Y0201800D03*
X0116800Y0211800D03*
X0139300Y0226800D03*
X0146800Y0231800D03*
X0146800Y0221800D03*
X0171800Y0241800D03*
X0171800Y0251800D03*
X0226800Y0246800D03*
X0226800Y0236800D03*
X0226800Y0221800D03*
X0226800Y0211800D03*
X0256800Y0196800D03*
X0256800Y0186800D03*
X0171800Y0176800D03*
X0171800Y0166800D03*
X0161800Y0146800D03*
X0161800Y0136800D03*
X0161800Y0111800D03*
X0161800Y0101800D03*
X0161800Y0086800D03*
X0161800Y0076800D03*
X0186800Y0086800D03*
X0196800Y0086800D03*
X0136800Y0101800D03*
X0136800Y0111800D03*
X0121800Y0126800D03*
X0114300Y0131800D03*
X0121800Y0136800D03*
X0086800Y0141800D03*
X0086800Y0151800D03*
X0056800Y0131800D03*
X0046800Y0131800D03*
X0086800Y0116800D03*
X0086800Y0106800D03*
X0076800Y0086800D03*
X0066800Y0086800D03*
X0066800Y0066800D03*
X0076800Y0066800D03*
X0221800Y0041800D03*
X0221800Y0031800D03*
X0371800Y0171800D03*
X0381800Y0171800D03*
X0381800Y0226800D03*
X0371800Y0226800D03*
X0261800Y0251800D03*
X0251800Y0251800D03*
X0116800Y0251800D03*
X0116800Y0241800D03*
X0096800Y0241800D03*
X0086800Y0241800D03*
D12*
X0069400Y0026800D02*
X0064200Y0026800D01*
X0104200Y0026800D02*
X0109400Y0026800D01*
D13*
X0034005Y0177312D03*
X0059595Y0181643D03*
X0059595Y0197391D03*
X0059595Y0209202D03*
D14*
X0049800Y0076800D02*
X0043800Y0076800D01*
X0043800Y0066800D02*
X0049800Y0066800D01*
X0049800Y0056800D02*
X0043800Y0056800D01*
X0043800Y0046800D02*
X0049800Y0046800D01*
D15*
X0352312Y0149595D03*
X0356643Y0124005D03*
X0372391Y0124005D03*
X0384202Y0124005D03*
D16*
X0285100Y0176800D02*
X0278500Y0176800D01*
X0278500Y0186800D02*
X0285100Y0186800D01*
X0285100Y0196800D02*
X0278500Y0196800D01*
X0278500Y0231800D02*
X0285100Y0231800D01*
X0285100Y0241800D02*
X0278500Y0241800D01*
X0278500Y0251800D02*
X0285100Y0251800D01*
X0270100Y0111800D02*
X0263500Y0111800D01*
X0263500Y0101800D02*
X0270100Y0101800D01*
X0270100Y0091800D02*
X0263500Y0091800D01*
X0263500Y0056800D02*
X0270100Y0056800D01*
X0270100Y0046800D02*
X0263500Y0046800D01*
X0263500Y0036800D02*
X0270100Y0036800D01*
D17*
X0275000Y0036726D02*
X0330649Y0036726D01*
X0331438Y0036270D02*
X0334312Y0035500D01*
X0337288Y0035500D01*
X0340162Y0036270D01*
X0342738Y0037758D01*
X0344842Y0039862D01*
X0346330Y0042438D01*
X0347100Y0045312D01*
X0347100Y0048288D01*
X0346330Y0051162D01*
X0344842Y0053738D01*
X0342738Y0055842D01*
X0340162Y0057330D01*
X0337288Y0058100D01*
X0334312Y0058100D01*
X0331438Y0057330D01*
X0328862Y0055842D01*
X0326758Y0053738D01*
X0325270Y0051162D01*
X0324500Y0048288D01*
X0324500Y0045312D01*
X0325270Y0042438D01*
X0326758Y0039862D01*
X0328862Y0037758D01*
X0331438Y0036270D01*
X0328295Y0038324D02*
X0274772Y0038324D01*
X0275000Y0037775D02*
X0274254Y0039576D01*
X0272876Y0040954D01*
X0271075Y0041700D01*
X0262525Y0041700D01*
X0260724Y0040954D01*
X0259346Y0039576D01*
X0258600Y0037775D01*
X0258600Y0035825D01*
X0259346Y0034024D01*
X0260724Y0032646D01*
X0262525Y0031900D01*
X0266609Y0031900D01*
X0278748Y0019761D01*
X0279761Y0018748D01*
X0281084Y0018200D01*
X0357516Y0018200D01*
X0358839Y0018748D01*
X0359852Y0019761D01*
X0367691Y0027600D01*
X0368540Y0027600D01*
X0371000Y0030060D01*
X0371000Y0033540D01*
X0368540Y0036000D01*
X0365060Y0036000D01*
X0362600Y0033540D01*
X0362600Y0032691D01*
X0355309Y0025400D01*
X0283291Y0025400D01*
X0274375Y0034316D01*
X0275000Y0035825D01*
X0275000Y0037775D01*
X0273907Y0039923D02*
X0326723Y0039923D01*
X0325800Y0041521D02*
X0271507Y0041521D01*
X0271075Y0041900D02*
X0272876Y0042646D01*
X0274254Y0044024D01*
X0275000Y0045825D01*
X0275000Y0047775D01*
X0274254Y0049576D01*
X0272876Y0050954D01*
X0271075Y0051700D01*
X0263477Y0051700D01*
X0263777Y0051900D01*
X0271075Y0051900D01*
X0272876Y0052646D01*
X0274254Y0054024D01*
X0275000Y0055825D01*
X0275000Y0057775D01*
X0274254Y0059576D01*
X0272876Y0060954D01*
X0271075Y0061700D01*
X0262525Y0061700D01*
X0260724Y0060954D01*
X0259346Y0059576D01*
X0258600Y0057775D01*
X0258600Y0055825D01*
X0259122Y0054566D01*
X0251073Y0049200D01*
X0242594Y0049200D01*
X0248835Y0055441D01*
X0249200Y0056323D01*
X0249200Y0068260D01*
X0251000Y0070060D01*
X0251000Y0073540D01*
X0248540Y0076000D01*
X0245060Y0076000D01*
X0242600Y0073540D01*
X0242600Y0070060D01*
X0244400Y0068260D01*
X0244400Y0057794D01*
X0236800Y0050194D01*
X0224200Y0062794D01*
X0224200Y0063260D01*
X0226000Y0065060D01*
X0226000Y0068540D01*
X0223540Y0071000D01*
X0220060Y0071000D01*
X0217600Y0068540D01*
X0217600Y0065060D01*
X0219400Y0063260D01*
X0219400Y0045340D01*
X0218057Y0043997D01*
X0218057Y0050120D01*
X0217120Y0051057D01*
X0210480Y0051057D01*
X0209543Y0050120D01*
X0209543Y0043480D01*
X0209966Y0043057D01*
X0207309Y0040400D01*
X0133291Y0040400D01*
X0114852Y0058839D01*
X0113839Y0059852D01*
X0112516Y0060400D01*
X0091594Y0060400D01*
X0083159Y0068835D01*
X0082277Y0069200D01*
X0080340Y0069200D01*
X0078540Y0071000D01*
X0075060Y0071000D01*
X0072600Y0068540D01*
X0072600Y0065060D01*
X0075060Y0062600D01*
X0078540Y0062600D01*
X0080340Y0064400D01*
X0080806Y0064400D01*
X0084806Y0060400D01*
X0052705Y0060400D01*
X0052406Y0060700D01*
X0050715Y0061400D01*
X0042885Y0061400D01*
X0041194Y0060700D01*
X0039900Y0059406D01*
X0039200Y0057715D01*
X0039200Y0055885D01*
X0039900Y0054194D01*
X0041194Y0052900D01*
X0042885Y0052200D01*
X0050715Y0052200D01*
X0052406Y0052900D01*
X0052705Y0053200D01*
X0097006Y0053200D01*
X0104400Y0045806D01*
X0104400Y0031000D01*
X0103365Y0031000D01*
X0101821Y0030361D01*
X0100639Y0029179D01*
X0100000Y0027635D01*
X0100000Y0025965D01*
X0100639Y0024421D01*
X0101821Y0023239D01*
X0103365Y0022600D01*
X0110235Y0022600D01*
X0111779Y0023239D01*
X0112961Y0024421D01*
X0113600Y0025965D01*
X0113600Y0027635D01*
X0112961Y0029179D01*
X0111779Y0030361D01*
X0110235Y0031000D01*
X0109200Y0031000D01*
X0109200Y0047277D01*
X0108835Y0048159D01*
X0103794Y0053200D01*
X0110309Y0053200D01*
X0129761Y0033748D01*
X0131084Y0033200D01*
X0209516Y0033200D01*
X0210300Y0033525D01*
X0217970Y0029690D01*
X0220060Y0027600D01*
X0223540Y0027600D01*
X0226000Y0030060D01*
X0226000Y0033540D01*
X0223540Y0036000D01*
X0221450Y0036000D01*
X0215877Y0038786D01*
X0216852Y0039761D01*
X0217400Y0041084D01*
X0217400Y0042822D01*
X0217600Y0043022D01*
X0217600Y0040060D01*
X0220060Y0037600D01*
X0223540Y0037600D01*
X0226000Y0040060D01*
X0226000Y0043540D01*
X0224200Y0045340D01*
X0224200Y0056006D01*
X0234765Y0045441D01*
X0235441Y0044765D01*
X0236323Y0044400D01*
X0251562Y0044400D01*
X0251797Y0044353D01*
X0252035Y0044400D01*
X0252277Y0044400D01*
X0252499Y0044492D01*
X0252734Y0044538D01*
X0252936Y0044673D01*
X0253159Y0044765D01*
X0253329Y0044935D01*
X0258986Y0048706D01*
X0258600Y0047775D01*
X0258600Y0045825D01*
X0259346Y0044024D01*
X0260724Y0042646D01*
X0262525Y0041900D01*
X0271075Y0041900D01*
X0273349Y0043120D02*
X0325088Y0043120D01*
X0324659Y0044718D02*
X0274541Y0044718D01*
X0275000Y0046317D02*
X0324500Y0046317D01*
X0324500Y0047915D02*
X0274942Y0047915D01*
X0274280Y0049514D02*
X0324829Y0049514D01*
X0325257Y0051112D02*
X0272494Y0051112D01*
X0272940Y0052711D02*
X0326164Y0052711D01*
X0327329Y0054309D02*
X0274372Y0054309D01*
X0275000Y0055908D02*
X0328975Y0055908D01*
X0332096Y0057506D02*
X0275000Y0057506D01*
X0274449Y0059105D02*
X0373200Y0059105D01*
X0373200Y0060703D02*
X0273126Y0060703D01*
X0266800Y0056800D02*
X0251800Y0046800D01*
X0236800Y0046800D01*
X0246800Y0056800D01*
X0246800Y0071800D01*
X0251000Y0071893D02*
X0252600Y0071893D01*
X0252600Y0073491D02*
X0251000Y0073491D01*
X0252600Y0073540D02*
X0252600Y0070060D01*
X0255060Y0067600D01*
X0258540Y0067600D01*
X0261000Y0070060D01*
X0261000Y0073540D01*
X0258540Y0076000D01*
X0255060Y0076000D01*
X0252600Y0073540D01*
X0254150Y0075090D02*
X0249450Y0075090D01*
X0251000Y0070294D02*
X0252600Y0070294D01*
X0253965Y0068696D02*
X0249635Y0068696D01*
X0249200Y0067097D02*
X0373200Y0067097D01*
X0373200Y0065499D02*
X0249200Y0065499D01*
X0249200Y0063900D02*
X0373200Y0063900D01*
X0373200Y0062302D02*
X0249200Y0062302D01*
X0249200Y0060703D02*
X0260474Y0060703D01*
X0259151Y0059105D02*
X0249200Y0059105D01*
X0249200Y0057506D02*
X0258600Y0057506D01*
X0258600Y0055908D02*
X0249028Y0055908D01*
X0247703Y0054309D02*
X0258737Y0054309D01*
X0256339Y0052711D02*
X0246105Y0052711D01*
X0244506Y0051112D02*
X0253942Y0051112D01*
X0251544Y0049514D02*
X0242908Y0049514D01*
X0239317Y0052711D02*
X0234283Y0052711D01*
X0232685Y0054309D02*
X0240915Y0054309D01*
X0242514Y0055908D02*
X0231086Y0055908D01*
X0229488Y0057506D02*
X0244112Y0057506D01*
X0244400Y0059105D02*
X0227889Y0059105D01*
X0226291Y0060703D02*
X0244400Y0060703D01*
X0244400Y0062302D02*
X0224692Y0062302D01*
X0224840Y0063900D02*
X0244400Y0063900D01*
X0244400Y0065499D02*
X0226000Y0065499D01*
X0226000Y0067097D02*
X0244400Y0067097D01*
X0243965Y0068696D02*
X0225844Y0068696D01*
X0224245Y0070294D02*
X0242600Y0070294D01*
X0242600Y0071893D02*
X0021600Y0071893D01*
X0021600Y0073491D02*
X0040320Y0073491D01*
X0040139Y0073673D02*
X0040673Y0073139D01*
X0041284Y0072695D01*
X0041957Y0072352D01*
X0042676Y0072118D01*
X0043422Y0072000D01*
X0046600Y0072000D01*
X0046600Y0076600D01*
X0047000Y0076600D01*
X0047000Y0077000D01*
X0046600Y0077000D01*
X0046600Y0081600D01*
X0043422Y0081600D01*
X0042676Y0081482D01*
X0041957Y0081248D01*
X0041284Y0080905D01*
X0040673Y0080461D01*
X0040139Y0079927D01*
X0039695Y0079316D01*
X0039352Y0078643D01*
X0039118Y0077924D01*
X0039000Y0077178D01*
X0039000Y0077000D01*
X0046600Y0077000D01*
X0046600Y0076600D01*
X0039000Y0076600D01*
X0039000Y0076422D01*
X0039118Y0075676D01*
X0039352Y0074957D01*
X0039695Y0074284D01*
X0040139Y0073673D01*
X0039309Y0075090D02*
X0021600Y0075090D01*
X0021600Y0076688D02*
X0046600Y0076688D01*
X0047000Y0076688D02*
X0157400Y0076688D01*
X0157400Y0076800D02*
X0157400Y0074977D01*
X0159977Y0072400D01*
X0161800Y0072400D01*
X0163623Y0072400D01*
X0166200Y0074977D01*
X0166200Y0076800D01*
X0166200Y0078623D01*
X0163623Y0081200D01*
X0161800Y0081200D01*
X0161800Y0076800D01*
X0161800Y0076800D01*
X0166200Y0076800D01*
X0161800Y0076800D01*
X0161800Y0076800D01*
X0161800Y0076800D01*
X0157400Y0076800D01*
X0157400Y0078623D01*
X0159977Y0081200D01*
X0161800Y0081200D01*
X0161800Y0076800D01*
X0161800Y0072400D01*
X0161800Y0076800D01*
X0161800Y0076800D01*
X0157400Y0076800D01*
X0157400Y0078287D02*
X0054364Y0078287D01*
X0054248Y0078643D02*
X0053905Y0079316D01*
X0053461Y0079927D01*
X0052927Y0080461D01*
X0052316Y0080905D01*
X0051643Y0081248D01*
X0050924Y0081482D01*
X0050178Y0081600D01*
X0047000Y0081600D01*
X0047000Y0077000D01*
X0054600Y0077000D01*
X0054600Y0077178D01*
X0054482Y0077924D01*
X0054248Y0078643D01*
X0053491Y0079885D02*
X0158663Y0079885D01*
X0160060Y0082600D02*
X0157600Y0085060D01*
X0157600Y0088540D01*
X0159400Y0090340D01*
X0159400Y0098260D01*
X0157600Y0100060D01*
X0157600Y0103540D01*
X0160060Y0106000D01*
X0163540Y0106000D01*
X0166000Y0103540D01*
X0166000Y0100060D01*
X0164200Y0098260D01*
X0164200Y0090340D01*
X0166000Y0088540D01*
X0166000Y0085060D01*
X0163540Y0082600D01*
X0160060Y0082600D01*
X0159578Y0083082D02*
X0079022Y0083082D01*
X0078540Y0082600D02*
X0081000Y0085060D01*
X0081000Y0088540D01*
X0078540Y0091000D01*
X0075060Y0091000D01*
X0072600Y0088540D01*
X0072600Y0085060D01*
X0075060Y0082600D01*
X0078540Y0082600D01*
X0080621Y0084681D02*
X0157979Y0084681D01*
X0157600Y0086279D02*
X0081000Y0086279D01*
X0081000Y0087878D02*
X0157600Y0087878D01*
X0158537Y0089476D02*
X0080063Y0089476D01*
X0073537Y0089476D02*
X0070346Y0089476D01*
X0071200Y0088623D02*
X0068623Y0091200D01*
X0066800Y0091200D01*
X0066800Y0086800D01*
X0071200Y0086800D01*
X0071200Y0088623D01*
X0071200Y0087878D02*
X0072600Y0087878D01*
X0072600Y0086279D02*
X0071200Y0086279D01*
X0071200Y0086800D02*
X0066800Y0086800D01*
X0066800Y0086800D01*
X0066800Y0086800D01*
X0066800Y0082400D01*
X0068623Y0082400D01*
X0071200Y0084977D01*
X0071200Y0086800D01*
X0070903Y0084681D02*
X0072979Y0084681D01*
X0074578Y0083082D02*
X0069305Y0083082D01*
X0066800Y0083082D02*
X0066800Y0083082D01*
X0066800Y0082400D02*
X0066800Y0086800D01*
X0066800Y0086800D01*
X0066800Y0086800D01*
X0062400Y0086800D01*
X0062400Y0088623D01*
X0064977Y0091200D01*
X0066800Y0091200D01*
X0066800Y0086800D01*
X0062400Y0086800D01*
X0062400Y0084977D01*
X0064977Y0082400D01*
X0066800Y0082400D01*
X0066800Y0084681D02*
X0066800Y0084681D01*
X0066800Y0086279D02*
X0066800Y0086279D01*
X0066800Y0087878D02*
X0066800Y0087878D01*
X0066800Y0089476D02*
X0066800Y0089476D01*
X0066800Y0091075D02*
X0066800Y0091075D01*
X0068748Y0091075D02*
X0159400Y0091075D01*
X0159400Y0092673D02*
X0021600Y0092673D01*
X0021600Y0091075D02*
X0064852Y0091075D01*
X0063254Y0089476D02*
X0021600Y0089476D01*
X0021600Y0087878D02*
X0062400Y0087878D01*
X0062400Y0086279D02*
X0021600Y0086279D01*
X0021600Y0084681D02*
X0062697Y0084681D01*
X0064295Y0083082D02*
X0021600Y0083082D01*
X0021600Y0081484D02*
X0042689Y0081484D01*
X0040109Y0079885D02*
X0021600Y0079885D01*
X0021600Y0078287D02*
X0039236Y0078287D01*
X0046600Y0078287D02*
X0047000Y0078287D01*
X0047000Y0079885D02*
X0046600Y0079885D01*
X0046600Y0081484D02*
X0047000Y0081484D01*
X0050911Y0081484D02*
X0218722Y0081484D01*
X0219400Y0080806D02*
X0219400Y0080340D01*
X0217600Y0078540D01*
X0217600Y0075060D01*
X0220060Y0072600D01*
X0223540Y0072600D01*
X0226000Y0075060D01*
X0226000Y0078540D01*
X0224200Y0080340D01*
X0224200Y0081233D01*
X0227383Y0087600D01*
X0228540Y0087600D01*
X0231000Y0090060D01*
X0231000Y0093540D01*
X0228540Y0096000D01*
X0225060Y0096000D01*
X0222600Y0093540D01*
X0222600Y0090060D01*
X0223031Y0089629D01*
X0221143Y0085852D01*
X0218159Y0088835D01*
X0217277Y0089200D01*
X0200340Y0089200D01*
X0198540Y0091000D01*
X0195060Y0091000D01*
X0192600Y0088540D01*
X0192600Y0085060D01*
X0195060Y0082600D01*
X0198540Y0082600D01*
X0200340Y0084400D01*
X0215806Y0084400D01*
X0219400Y0080806D01*
X0218946Y0079885D02*
X0164937Y0079885D01*
X0166200Y0078287D02*
X0217600Y0078287D01*
X0217600Y0076688D02*
X0166200Y0076688D01*
X0166200Y0075090D02*
X0217600Y0075090D01*
X0219169Y0073491D02*
X0164714Y0073491D01*
X0161800Y0073491D02*
X0161800Y0073491D01*
X0161800Y0075090D02*
X0161800Y0075090D01*
X0161800Y0076688D02*
X0161800Y0076688D01*
X0161800Y0078287D02*
X0161800Y0078287D01*
X0161800Y0079885D02*
X0161800Y0079885D01*
X0164022Y0083082D02*
X0184578Y0083082D01*
X0185060Y0082600D02*
X0188540Y0082600D01*
X0191000Y0085060D01*
X0191000Y0088540D01*
X0189200Y0090340D01*
X0189200Y0112277D01*
X0188835Y0113159D01*
X0188159Y0113835D01*
X0166000Y0135994D01*
X0166000Y0138540D01*
X0163540Y0141000D01*
X0160060Y0141000D01*
X0158260Y0139200D01*
X0125340Y0139200D01*
X0123540Y0141000D01*
X0120060Y0141000D01*
X0117600Y0138540D01*
X0117600Y0135060D01*
X0120060Y0132600D01*
X0123540Y0132600D01*
X0125340Y0134400D01*
X0158260Y0134400D01*
X0160060Y0132600D01*
X0162606Y0132600D01*
X0184400Y0110806D01*
X0184400Y0090340D01*
X0182600Y0088540D01*
X0182600Y0085060D01*
X0185060Y0082600D01*
X0182979Y0084681D02*
X0165621Y0084681D01*
X0166000Y0086279D02*
X0182600Y0086279D01*
X0182600Y0087878D02*
X0166000Y0087878D01*
X0165063Y0089476D02*
X0183537Y0089476D01*
X0184400Y0091075D02*
X0164200Y0091075D01*
X0164200Y0092673D02*
X0184400Y0092673D01*
X0184400Y0094272D02*
X0164200Y0094272D01*
X0164200Y0095870D02*
X0184400Y0095870D01*
X0184400Y0097469D02*
X0164200Y0097469D01*
X0165007Y0099068D02*
X0184400Y0099068D01*
X0184400Y0100666D02*
X0166000Y0100666D01*
X0166000Y0102265D02*
X0184400Y0102265D01*
X0184400Y0103863D02*
X0165677Y0103863D01*
X0164078Y0105462D02*
X0184400Y0105462D01*
X0184400Y0107060D02*
X0091200Y0107060D01*
X0091200Y0106800D02*
X0091200Y0108623D01*
X0088623Y0111200D01*
X0086800Y0111200D01*
X0086800Y0106800D01*
X0086800Y0106800D01*
X0091200Y0106800D01*
X0086800Y0106800D01*
X0086800Y0106800D01*
X0086800Y0106800D01*
X0082400Y0106800D01*
X0082400Y0108623D01*
X0084977Y0111200D01*
X0086800Y0111200D01*
X0086800Y0106800D01*
X0086800Y0102400D01*
X0088623Y0102400D01*
X0091200Y0104977D01*
X0091200Y0106800D01*
X0091200Y0105462D02*
X0134239Y0105462D01*
X0134977Y0106200D02*
X0132400Y0103623D01*
X0132400Y0101800D01*
X0136800Y0101800D01*
X0136800Y0101800D01*
X0136800Y0106200D01*
X0138623Y0106200D01*
X0141200Y0103623D01*
X0141200Y0101800D01*
X0136800Y0101800D01*
X0136800Y0101800D01*
X0136800Y0101800D01*
X0136800Y0106200D01*
X0134977Y0106200D01*
X0135060Y0107600D02*
X0138540Y0107600D01*
X0141000Y0110060D01*
X0141000Y0113540D01*
X0139200Y0115340D01*
X0139200Y0120806D01*
X0142794Y0124400D01*
X0145806Y0124400D01*
X0157600Y0112606D01*
X0157600Y0110060D01*
X0160060Y0107600D01*
X0163540Y0107600D01*
X0166000Y0110060D01*
X0166000Y0113540D01*
X0163540Y0116000D01*
X0160994Y0116000D01*
X0148159Y0128835D01*
X0147277Y0129200D01*
X0125340Y0129200D01*
X0123540Y0131000D01*
X0120060Y0131000D01*
X0117600Y0128540D01*
X0117600Y0125060D01*
X0120060Y0122600D01*
X0123540Y0122600D01*
X0125340Y0124400D01*
X0136006Y0124400D01*
X0134765Y0123159D01*
X0134400Y0122277D01*
X0134400Y0115340D01*
X0132600Y0113540D01*
X0132600Y0110060D01*
X0135060Y0107600D01*
X0134002Y0108659D02*
X0091164Y0108659D01*
X0089565Y0110257D02*
X0132600Y0110257D01*
X0132600Y0111856D02*
X0021600Y0111856D01*
X0021600Y0113454D02*
X0084206Y0113454D01*
X0085060Y0112600D02*
X0082600Y0115060D01*
X0082600Y0118540D01*
X0084400Y0120340D01*
X0084400Y0120806D01*
X0075806Y0129400D01*
X0060340Y0129400D01*
X0058540Y0127600D01*
X0055060Y0127600D01*
X0052600Y0130060D01*
X0052600Y0133540D01*
X0055060Y0136000D01*
X0058540Y0136000D01*
X0060340Y0134200D01*
X0091006Y0134200D01*
X0087606Y0137600D01*
X0085060Y0137600D01*
X0082600Y0140060D01*
X0082600Y0143540D01*
X0085060Y0146000D01*
X0088540Y0146000D01*
X0091000Y0143540D01*
X0091000Y0140994D01*
X0097794Y0134200D01*
X0110760Y0134200D01*
X0112560Y0136000D01*
X0116040Y0136000D01*
X0118500Y0133540D01*
X0118500Y0130060D01*
X0116040Y0127600D01*
X0112560Y0127600D01*
X0110760Y0129400D01*
X0082594Y0129400D01*
X0088835Y0123159D01*
X0089200Y0122277D01*
X0089200Y0120340D01*
X0091000Y0118540D01*
X0091000Y0115060D01*
X0088540Y0112600D01*
X0085060Y0112600D01*
X0084035Y0110257D02*
X0021600Y0110257D01*
X0021600Y0108659D02*
X0082436Y0108659D01*
X0082400Y0107060D02*
X0021600Y0107060D01*
X0021600Y0105462D02*
X0082400Y0105462D01*
X0082400Y0104977D02*
X0084977Y0102400D01*
X0086800Y0102400D01*
X0086800Y0106800D01*
X0086800Y0106800D01*
X0082400Y0106800D01*
X0082400Y0104977D01*
X0083514Y0103863D02*
X0021600Y0103863D01*
X0021600Y0102265D02*
X0132400Y0102265D01*
X0132400Y0101800D02*
X0132400Y0099977D01*
X0134977Y0097400D01*
X0136800Y0097400D01*
X0138623Y0097400D01*
X0141200Y0099977D01*
X0141200Y0101800D01*
X0136800Y0101800D01*
X0136800Y0097400D01*
X0136800Y0101800D01*
X0136800Y0101800D01*
X0132400Y0101800D01*
X0132400Y0100666D02*
X0021600Y0100666D01*
X0021600Y0099068D02*
X0133310Y0099068D01*
X0134908Y0097469D02*
X0021600Y0097469D01*
X0021600Y0095870D02*
X0159400Y0095870D01*
X0159400Y0094272D02*
X0021600Y0094272D01*
X0047000Y0076600D02*
X0047000Y0072000D01*
X0050178Y0072000D01*
X0050924Y0072118D01*
X0051643Y0072352D01*
X0052316Y0072695D01*
X0052927Y0073139D01*
X0053461Y0073673D01*
X0053905Y0074284D01*
X0054248Y0074957D01*
X0054482Y0075676D01*
X0054600Y0076422D01*
X0054600Y0076600D01*
X0047000Y0076600D01*
X0047000Y0075090D02*
X0046600Y0075090D01*
X0046600Y0073491D02*
X0047000Y0073491D01*
X0047000Y0071600D02*
X0047000Y0067000D01*
X0046600Y0067000D01*
X0046600Y0071600D01*
X0043422Y0071600D01*
X0042676Y0071482D01*
X0041957Y0071248D01*
X0041284Y0070905D01*
X0040673Y0070461D01*
X0040139Y0069927D01*
X0039695Y0069316D01*
X0039352Y0068643D01*
X0039118Y0067924D01*
X0039000Y0067178D01*
X0039000Y0067000D01*
X0046600Y0067000D01*
X0046600Y0066600D01*
X0047000Y0066600D01*
X0047000Y0067000D01*
X0054600Y0067000D01*
X0054600Y0067178D01*
X0054482Y0067924D01*
X0054248Y0068643D01*
X0053905Y0069316D01*
X0053461Y0069927D01*
X0052927Y0070461D01*
X0052316Y0070905D01*
X0051643Y0071248D01*
X0050924Y0071482D01*
X0050178Y0071600D01*
X0047000Y0071600D01*
X0047000Y0070294D02*
X0046600Y0070294D01*
X0046600Y0068696D02*
X0047000Y0068696D01*
X0047000Y0067097D02*
X0046600Y0067097D01*
X0046600Y0066600D02*
X0039000Y0066600D01*
X0039000Y0066422D01*
X0039118Y0065676D01*
X0039352Y0064957D01*
X0039695Y0064284D01*
X0040139Y0063673D01*
X0040673Y0063139D01*
X0041284Y0062695D01*
X0041957Y0062352D01*
X0042676Y0062118D01*
X0043422Y0062000D01*
X0046600Y0062000D01*
X0046600Y0066600D01*
X0047000Y0066600D02*
X0047000Y0062000D01*
X0050178Y0062000D01*
X0050924Y0062118D01*
X0051643Y0062352D01*
X0052316Y0062695D01*
X0052927Y0063139D01*
X0053461Y0063673D01*
X0053905Y0064284D01*
X0054248Y0064957D01*
X0054482Y0065676D01*
X0054600Y0066422D01*
X0054600Y0066600D01*
X0047000Y0066600D01*
X0047000Y0065499D02*
X0046600Y0065499D01*
X0046600Y0063900D02*
X0047000Y0063900D01*
X0047000Y0062302D02*
X0046600Y0062302D01*
X0042111Y0062302D02*
X0021600Y0062302D01*
X0021600Y0063900D02*
X0039974Y0063900D01*
X0039176Y0065499D02*
X0021600Y0065499D01*
X0021600Y0067097D02*
X0039000Y0067097D01*
X0039379Y0068696D02*
X0021600Y0068696D01*
X0021600Y0070294D02*
X0040506Y0070294D01*
X0041203Y0060703D02*
X0021600Y0060703D01*
X0021600Y0059105D02*
X0039776Y0059105D01*
X0039200Y0057506D02*
X0021600Y0057506D01*
X0021600Y0055908D02*
X0039200Y0055908D01*
X0039853Y0054309D02*
X0021600Y0054309D01*
X0021600Y0052711D02*
X0041652Y0052711D01*
X0042190Y0051112D02*
X0021600Y0051112D01*
X0021600Y0049514D02*
X0040008Y0049514D01*
X0039900Y0049406D02*
X0039200Y0047715D01*
X0039200Y0045885D01*
X0039900Y0044194D01*
X0041194Y0042900D01*
X0042885Y0042200D01*
X0050715Y0042200D01*
X0052406Y0042900D01*
X0053700Y0044194D01*
X0054400Y0045885D01*
X0054400Y0047715D01*
X0053700Y0049406D01*
X0052406Y0050700D01*
X0050715Y0051400D01*
X0042885Y0051400D01*
X0041194Y0050700D01*
X0039900Y0049406D01*
X0039283Y0047915D02*
X0021600Y0047915D01*
X0021600Y0046317D02*
X0039200Y0046317D01*
X0039683Y0044718D02*
X0021600Y0044718D01*
X0021600Y0043120D02*
X0040975Y0043120D01*
X0052625Y0043120D02*
X0104400Y0043120D01*
X0104400Y0044718D02*
X0053917Y0044718D01*
X0054400Y0046317D02*
X0103889Y0046317D01*
X0102291Y0047915D02*
X0054317Y0047915D01*
X0053592Y0049514D02*
X0100692Y0049514D01*
X0099094Y0051112D02*
X0051410Y0051112D01*
X0051948Y0052711D02*
X0097495Y0052711D01*
X0096800Y0056800D02*
X0106800Y0046800D01*
X0106800Y0026800D01*
X0101792Y0030332D02*
X0071808Y0030332D01*
X0071779Y0030361D02*
X0070235Y0031000D01*
X0063365Y0031000D01*
X0061821Y0030361D01*
X0060639Y0029179D01*
X0060000Y0027635D01*
X0060000Y0025965D01*
X0060639Y0024421D01*
X0061821Y0023239D01*
X0063365Y0022600D01*
X0070235Y0022600D01*
X0071779Y0023239D01*
X0072961Y0024421D01*
X0073600Y0025965D01*
X0073600Y0027635D01*
X0072961Y0029179D01*
X0071779Y0030361D01*
X0073145Y0028733D02*
X0100455Y0028733D01*
X0100000Y0027134D02*
X0073600Y0027134D01*
X0073422Y0025536D02*
X0100178Y0025536D01*
X0101123Y0023937D02*
X0072477Y0023937D01*
X0061123Y0023937D02*
X0037718Y0023937D01*
X0037899Y0023261D02*
X0037143Y0026084D01*
X0035682Y0028615D01*
X0033615Y0030682D01*
X0031084Y0032143D01*
X0028261Y0032899D01*
X0025339Y0032899D01*
X0022516Y0032143D01*
X0021600Y0031614D01*
X0021600Y0251986D01*
X0022516Y0251457D01*
X0025339Y0250701D01*
X0028261Y0250701D01*
X0031084Y0251457D01*
X0033615Y0252918D01*
X0035682Y0254985D01*
X0037143Y0257516D01*
X0037899Y0260339D01*
X0037899Y0263261D01*
X0037143Y0266084D01*
X0036637Y0266961D01*
X0391963Y0266961D01*
X0391457Y0266084D01*
X0390701Y0263261D01*
X0390701Y0260339D01*
X0391457Y0257516D01*
X0392918Y0254985D01*
X0394985Y0252918D01*
X0397516Y0251457D01*
X0400339Y0250701D01*
X0403261Y0250701D01*
X0405701Y0251354D01*
X0405701Y0028582D01*
X0405682Y0028615D01*
X0403615Y0030682D01*
X0401084Y0032143D01*
X0398261Y0032899D01*
X0395339Y0032899D01*
X0392516Y0032143D01*
X0389985Y0030682D01*
X0387918Y0028615D01*
X0386457Y0026084D01*
X0385701Y0023261D01*
X0385701Y0020339D01*
X0386457Y0017516D01*
X0386986Y0016600D01*
X0036614Y0016600D01*
X0037143Y0017516D01*
X0037899Y0020339D01*
X0037899Y0023261D01*
X0037899Y0022339D02*
X0276170Y0022339D01*
X0277768Y0020740D02*
X0037899Y0020740D01*
X0037579Y0019142D02*
X0279367Y0019142D01*
X0274571Y0023937D02*
X0112477Y0023937D01*
X0113422Y0025536D02*
X0272973Y0025536D01*
X0271374Y0027134D02*
X0113600Y0027134D01*
X0113145Y0028733D02*
X0218927Y0028733D01*
X0216687Y0030332D02*
X0111808Y0030332D01*
X0109200Y0031930D02*
X0213490Y0031930D01*
X0216802Y0038324D02*
X0219336Y0038324D01*
X0219999Y0036726D02*
X0258600Y0036726D01*
X0258828Y0038324D02*
X0224264Y0038324D01*
X0225862Y0039923D02*
X0259693Y0039923D01*
X0262093Y0041521D02*
X0226000Y0041521D01*
X0226000Y0043120D02*
X0260251Y0043120D01*
X0259059Y0044718D02*
X0253045Y0044718D01*
X0255402Y0046317D02*
X0258600Y0046317D01*
X0258658Y0047915D02*
X0257799Y0047915D01*
X0258889Y0035127D02*
X0224413Y0035127D01*
X0226000Y0033529D02*
X0259842Y0033529D01*
X0262453Y0031930D02*
X0226000Y0031930D01*
X0226000Y0030332D02*
X0268177Y0030332D01*
X0269776Y0028733D02*
X0224673Y0028733D01*
X0217738Y0039923D02*
X0216919Y0039923D01*
X0217400Y0041521D02*
X0217600Y0041521D01*
X0218057Y0044718D02*
X0218778Y0044718D01*
X0219400Y0046317D02*
X0218057Y0046317D01*
X0218057Y0047915D02*
X0219400Y0047915D01*
X0219400Y0049514D02*
X0218057Y0049514D01*
X0219400Y0051112D02*
X0122579Y0051112D01*
X0124177Y0049514D02*
X0209543Y0049514D01*
X0209543Y0047915D02*
X0125776Y0047915D01*
X0127375Y0046317D02*
X0209543Y0046317D01*
X0209543Y0044718D02*
X0128973Y0044718D01*
X0130572Y0043120D02*
X0209903Y0043120D01*
X0208430Y0041521D02*
X0132170Y0041521D01*
X0125185Y0038324D02*
X0109200Y0038324D01*
X0109200Y0036726D02*
X0126783Y0036726D01*
X0128382Y0035127D02*
X0109200Y0035127D01*
X0109200Y0033529D02*
X0130291Y0033529D01*
X0123586Y0039923D02*
X0109200Y0039923D01*
X0109200Y0041521D02*
X0121988Y0041521D01*
X0120389Y0043120D02*
X0109200Y0043120D01*
X0109200Y0044718D02*
X0118791Y0044718D01*
X0117192Y0046317D02*
X0109200Y0046317D01*
X0108936Y0047915D02*
X0115594Y0047915D01*
X0113995Y0049514D02*
X0107480Y0049514D01*
X0105882Y0051112D02*
X0112397Y0051112D01*
X0110798Y0052711D02*
X0104283Y0052711D01*
X0114586Y0059105D02*
X0219400Y0059105D01*
X0219400Y0060703D02*
X0091291Y0060703D01*
X0089692Y0062302D02*
X0219400Y0062302D01*
X0218760Y0063900D02*
X0088094Y0063900D01*
X0086495Y0065499D02*
X0217600Y0065499D01*
X0217600Y0067097D02*
X0084897Y0067097D01*
X0083298Y0068696D02*
X0217756Y0068696D01*
X0219355Y0070294D02*
X0079245Y0070294D01*
X0076800Y0066800D02*
X0081800Y0066800D01*
X0091800Y0056800D01*
X0084503Y0060703D02*
X0052397Y0060703D01*
X0051489Y0062302D02*
X0082904Y0062302D01*
X0081306Y0063900D02*
X0079840Y0063900D01*
X0073760Y0063900D02*
X0070123Y0063900D01*
X0071200Y0064977D02*
X0071200Y0066800D01*
X0071200Y0068623D01*
X0068623Y0071200D01*
X0066800Y0071200D01*
X0066800Y0066800D01*
X0071200Y0066800D01*
X0066800Y0066800D01*
X0066800Y0066800D01*
X0066800Y0066800D01*
X0066800Y0062400D01*
X0068623Y0062400D01*
X0071200Y0064977D01*
X0071200Y0065499D02*
X0072600Y0065499D01*
X0072600Y0067097D02*
X0071200Y0067097D01*
X0071127Y0068696D02*
X0072756Y0068696D01*
X0074355Y0070294D02*
X0069528Y0070294D01*
X0066800Y0070294D02*
X0066800Y0070294D01*
X0066800Y0071200D02*
X0066800Y0066800D01*
X0066800Y0066800D01*
X0066800Y0066800D01*
X0062400Y0066800D01*
X0062400Y0068623D01*
X0064977Y0071200D01*
X0066800Y0071200D01*
X0066800Y0068696D02*
X0066800Y0068696D01*
X0066800Y0067097D02*
X0066800Y0067097D01*
X0066800Y0066800D02*
X0062400Y0066800D01*
X0062400Y0064977D01*
X0064977Y0062400D01*
X0066800Y0062400D01*
X0066800Y0066800D01*
X0066800Y0065499D02*
X0066800Y0065499D01*
X0066800Y0063900D02*
X0066800Y0063900D01*
X0063477Y0063900D02*
X0053626Y0063900D01*
X0054424Y0065499D02*
X0062400Y0065499D01*
X0062400Y0067097D02*
X0054600Y0067097D01*
X0054221Y0068696D02*
X0062473Y0068696D01*
X0064072Y0070294D02*
X0053094Y0070294D01*
X0053280Y0073491D02*
X0158886Y0073491D01*
X0157400Y0075090D02*
X0054291Y0075090D01*
X0086800Y0103863D02*
X0086800Y0103863D01*
X0086800Y0105462D02*
X0086800Y0105462D01*
X0086800Y0107060D02*
X0086800Y0107060D01*
X0086800Y0108659D02*
X0086800Y0108659D01*
X0086800Y0110257D02*
X0086800Y0110257D01*
X0089394Y0113454D02*
X0132600Y0113454D01*
X0134113Y0115053D02*
X0090992Y0115053D01*
X0091000Y0116651D02*
X0134400Y0116651D01*
X0134400Y0118250D02*
X0091000Y0118250D01*
X0089692Y0119848D02*
X0134400Y0119848D01*
X0134400Y0121447D02*
X0089200Y0121447D01*
X0088882Y0123045D02*
X0119615Y0123045D01*
X0118017Y0124644D02*
X0087350Y0124644D01*
X0085752Y0126242D02*
X0117600Y0126242D01*
X0117600Y0127841D02*
X0116280Y0127841D01*
X0117879Y0129439D02*
X0118500Y0129439D01*
X0118500Y0131038D02*
X0164168Y0131038D01*
X0165767Y0129439D02*
X0125100Y0129439D01*
X0123576Y0132636D02*
X0160024Y0132636D01*
X0158426Y0134235D02*
X0125174Y0134235D01*
X0121800Y0136800D02*
X0161800Y0136800D01*
X0186800Y0111800D01*
X0186800Y0086800D01*
X0190063Y0089476D02*
X0193537Y0089476D01*
X0192600Y0087878D02*
X0191000Y0087878D01*
X0191000Y0086279D02*
X0192600Y0086279D01*
X0192979Y0084681D02*
X0190621Y0084681D01*
X0189022Y0083082D02*
X0194578Y0083082D01*
X0196800Y0086800D02*
X0216800Y0086800D01*
X0221800Y0081800D01*
X0226800Y0091800D01*
X0230268Y0094272D02*
X0259220Y0094272D01*
X0259346Y0094576D02*
X0258600Y0092775D01*
X0258600Y0090825D01*
X0259346Y0089024D01*
X0260724Y0087646D01*
X0262525Y0086900D01*
X0265740Y0086900D01*
X0273609Y0075097D01*
X0273748Y0074761D01*
X0274002Y0074506D01*
X0274202Y0074207D01*
X0274504Y0074005D01*
X0274761Y0073748D01*
X0275093Y0073610D01*
X0275392Y0073410D01*
X0275748Y0073339D01*
X0276084Y0073200D01*
X0276444Y0073200D01*
X0276796Y0073129D01*
X0277153Y0073200D01*
X0357516Y0073200D01*
X0358839Y0073748D01*
X0359852Y0074761D01*
X0367691Y0082600D01*
X0368540Y0082600D01*
X0371000Y0085060D01*
X0371000Y0088540D01*
X0368540Y0091000D01*
X0365060Y0091000D01*
X0362600Y0088540D01*
X0362600Y0087691D01*
X0355309Y0080400D01*
X0278727Y0080400D01*
X0273488Y0088258D01*
X0274254Y0089024D01*
X0275000Y0090825D01*
X0275000Y0092775D01*
X0274254Y0094576D01*
X0272876Y0095954D01*
X0271075Y0096700D01*
X0262525Y0096700D01*
X0260724Y0095954D01*
X0259346Y0094576D01*
X0260641Y0095870D02*
X0228669Y0095870D01*
X0228540Y0097600D02*
X0225060Y0097600D01*
X0222600Y0100060D01*
X0222600Y0103540D01*
X0224400Y0105340D01*
X0224400Y0112277D01*
X0224765Y0113159D01*
X0225906Y0114300D01*
X0222606Y0117600D01*
X0220060Y0117600D01*
X0217600Y0120060D01*
X0217600Y0123540D01*
X0220060Y0126000D01*
X0223540Y0126000D01*
X0226000Y0123540D01*
X0226000Y0120994D01*
X0230659Y0116335D01*
X0231335Y0115659D01*
X0232794Y0114200D01*
X0235317Y0114200D01*
X0238031Y0119629D01*
X0237600Y0120060D01*
X0237600Y0123540D01*
X0240060Y0126000D01*
X0243540Y0126000D01*
X0246000Y0123540D01*
X0246000Y0120060D01*
X0243540Y0117600D01*
X0242383Y0117600D01*
X0240683Y0114200D01*
X0259190Y0114200D01*
X0259346Y0114576D01*
X0260724Y0115954D01*
X0262525Y0116700D01*
X0271075Y0116700D01*
X0272876Y0115954D01*
X0274254Y0114576D01*
X0275000Y0112775D01*
X0275000Y0110825D01*
X0274254Y0109024D01*
X0272876Y0107646D01*
X0271075Y0106900D01*
X0262525Y0106900D01*
X0260724Y0107646D01*
X0259346Y0109024D01*
X0259190Y0109400D01*
X0237189Y0109400D01*
X0237106Y0109372D01*
X0236715Y0109400D01*
X0231323Y0109400D01*
X0230441Y0109765D01*
X0229765Y0110441D01*
X0229300Y0110906D01*
X0229200Y0110806D01*
X0229200Y0105340D01*
X0231000Y0103540D01*
X0231000Y0100060D01*
X0228540Y0097600D01*
X0230007Y0099068D02*
X0259328Y0099068D01*
X0259346Y0099024D02*
X0260724Y0097646D01*
X0262525Y0096900D01*
X0271075Y0096900D01*
X0272876Y0097646D01*
X0274254Y0099024D01*
X0275000Y0100825D01*
X0275000Y0102775D01*
X0274254Y0104576D01*
X0272876Y0105954D01*
X0271075Y0106700D01*
X0262525Y0106700D01*
X0260724Y0105954D01*
X0259346Y0104576D01*
X0258600Y0102775D01*
X0258600Y0100825D01*
X0259346Y0099024D01*
X0258666Y0100666D02*
X0231000Y0100666D01*
X0231000Y0102265D02*
X0258600Y0102265D01*
X0259051Y0103863D02*
X0230677Y0103863D01*
X0229200Y0105462D02*
X0260232Y0105462D01*
X0262139Y0107060D02*
X0229200Y0107060D01*
X0229200Y0108659D02*
X0259712Y0108659D01*
X0259823Y0115053D02*
X0241110Y0115053D01*
X0241909Y0116651D02*
X0262407Y0116651D01*
X0266800Y0111800D02*
X0236800Y0111800D01*
X0231800Y0111800D01*
X0229300Y0114300D01*
X0226800Y0111800D01*
X0226800Y0101800D01*
X0223593Y0099068D02*
X0218057Y0099068D01*
X0218057Y0098480D02*
X0218057Y0105120D01*
X0217400Y0105778D01*
X0217400Y0140537D01*
X0223530Y0148200D01*
X0224460Y0148200D01*
X0225060Y0147600D01*
X0228540Y0147600D01*
X0231000Y0150060D01*
X0231000Y0152606D01*
X0253096Y0174702D01*
X0276261Y0182424D01*
X0277525Y0181900D01*
X0286075Y0181900D01*
X0287876Y0182646D01*
X0289254Y0184024D01*
X0290000Y0185825D01*
X0290000Y0187775D01*
X0289254Y0189576D01*
X0287876Y0190954D01*
X0286075Y0191700D01*
X0277525Y0191700D01*
X0275724Y0190954D01*
X0274346Y0189576D01*
X0273600Y0187775D01*
X0273600Y0186596D01*
X0251411Y0179200D01*
X0251323Y0179200D01*
X0250960Y0179050D01*
X0250588Y0178926D01*
X0250522Y0178868D01*
X0250441Y0178835D01*
X0250163Y0178557D01*
X0249867Y0178300D01*
X0249828Y0178222D01*
X0227606Y0156000D01*
X0225060Y0156000D01*
X0224460Y0155400D01*
X0222311Y0155400D01*
X0222114Y0155457D01*
X0221601Y0155400D01*
X0221084Y0155400D01*
X0220895Y0155322D01*
X0220691Y0155299D01*
X0220238Y0155050D01*
X0219761Y0154852D01*
X0219616Y0154707D01*
X0219436Y0154608D01*
X0219113Y0154205D01*
X0218748Y0153839D01*
X0218670Y0153650D01*
X0211113Y0144205D01*
X0210748Y0143839D01*
X0210670Y0143650D01*
X0210542Y0143490D01*
X0210398Y0142993D01*
X0210200Y0142516D01*
X0210200Y0142311D01*
X0210143Y0142114D01*
X0210200Y0141601D01*
X0210200Y0105778D01*
X0209543Y0105120D01*
X0209543Y0098480D01*
X0210480Y0097543D01*
X0217120Y0097543D01*
X0218057Y0098480D01*
X0218057Y0100666D02*
X0222600Y0100666D01*
X0222600Y0102265D02*
X0218057Y0102265D01*
X0218057Y0103863D02*
X0222923Y0103863D01*
X0224400Y0105462D02*
X0217716Y0105462D01*
X0217400Y0107060D02*
X0224400Y0107060D01*
X0224400Y0108659D02*
X0217400Y0108659D01*
X0217400Y0110257D02*
X0224400Y0110257D01*
X0224400Y0111856D02*
X0217400Y0111856D01*
X0217400Y0113454D02*
X0225060Y0113454D01*
X0225153Y0115053D02*
X0217400Y0115053D01*
X0217400Y0116651D02*
X0223555Y0116651D01*
X0219411Y0118250D02*
X0217400Y0118250D01*
X0217400Y0119848D02*
X0217812Y0119848D01*
X0217600Y0121447D02*
X0217400Y0121447D01*
X0217400Y0123045D02*
X0217600Y0123045D01*
X0217400Y0124644D02*
X0218704Y0124644D01*
X0217400Y0126242D02*
X0352680Y0126242D01*
X0352680Y0124644D02*
X0254896Y0124644D01*
X0256000Y0123540D02*
X0253540Y0126000D01*
X0250060Y0126000D01*
X0247600Y0123540D01*
X0247600Y0120060D01*
X0250060Y0117600D01*
X0253540Y0117600D01*
X0256000Y0120060D01*
X0256000Y0123540D01*
X0256000Y0123045D02*
X0352680Y0123045D01*
X0352680Y0121447D02*
X0256000Y0121447D01*
X0255788Y0119848D02*
X0352680Y0119848D01*
X0352680Y0118421D02*
X0353043Y0118059D01*
X0353043Y0116084D01*
X0353591Y0114761D01*
X0354603Y0113748D01*
X0354872Y0113637D01*
X0373200Y0095309D01*
X0373200Y0089140D01*
X0372600Y0088540D01*
X0372600Y0085060D01*
X0373200Y0084460D01*
X0373200Y0034140D01*
X0372600Y0033540D01*
X0372600Y0030060D01*
X0375060Y0027600D01*
X0378540Y0027600D01*
X0381000Y0030060D01*
X0381000Y0033540D01*
X0380400Y0034140D01*
X0380400Y0084460D01*
X0381000Y0085060D01*
X0381000Y0088540D01*
X0380400Y0089140D01*
X0380400Y0097516D01*
X0379852Y0098839D01*
X0360438Y0118254D01*
X0360605Y0118421D01*
X0360605Y0129589D01*
X0359876Y0130318D01*
X0361517Y0129638D01*
X0364366Y0129638D01*
X0366999Y0130728D01*
X0368791Y0132520D01*
X0368791Y0129951D01*
X0368428Y0129589D01*
X0368428Y0118421D01*
X0369366Y0117483D01*
X0375415Y0117483D01*
X0376353Y0118421D01*
X0376353Y0129589D01*
X0375991Y0129951D01*
X0375991Y0143200D01*
X0382516Y0143200D01*
X0383839Y0143748D01*
X0384852Y0144761D01*
X0385400Y0146084D01*
X0385400Y0169460D01*
X0386000Y0170060D01*
X0386000Y0173540D01*
X0385400Y0174140D01*
X0385400Y0224460D01*
X0386000Y0225060D01*
X0386000Y0228540D01*
X0383540Y0231000D01*
X0380060Y0231000D01*
X0377600Y0228540D01*
X0377600Y0225060D01*
X0378200Y0224460D01*
X0378200Y0174140D01*
X0377600Y0173540D01*
X0377600Y0170060D01*
X0378200Y0169460D01*
X0378200Y0150400D01*
X0371674Y0150400D01*
X0370351Y0149852D01*
X0369339Y0148839D01*
X0368791Y0147516D01*
X0368791Y0141080D01*
X0366999Y0142872D01*
X0364366Y0143962D01*
X0361517Y0143962D01*
X0358885Y0142872D01*
X0356870Y0140857D01*
X0355780Y0138225D01*
X0355780Y0135375D01*
X0356870Y0132743D01*
X0358885Y0130728D01*
X0359373Y0130526D01*
X0353618Y0130526D01*
X0352680Y0129589D01*
X0352680Y0118421D01*
X0352851Y0118250D02*
X0254189Y0118250D01*
X0249411Y0118250D02*
X0244189Y0118250D01*
X0245788Y0119848D02*
X0247812Y0119848D01*
X0247600Y0121447D02*
X0246000Y0121447D01*
X0246000Y0123045D02*
X0247600Y0123045D01*
X0248704Y0124644D02*
X0244896Y0124644D01*
X0241800Y0121800D02*
X0236800Y0111800D01*
X0235743Y0115053D02*
X0231941Y0115053D01*
X0230343Y0116651D02*
X0236542Y0116651D01*
X0237342Y0118250D02*
X0228744Y0118250D01*
X0227146Y0119848D02*
X0237812Y0119848D01*
X0237600Y0121447D02*
X0226000Y0121447D01*
X0226000Y0123045D02*
X0237600Y0123045D01*
X0238704Y0124644D02*
X0224896Y0124644D01*
X0223540Y0127600D02*
X0220060Y0127600D01*
X0217600Y0130060D01*
X0217600Y0133540D01*
X0220060Y0136000D01*
X0223540Y0136000D01*
X0226000Y0133540D01*
X0226000Y0130060D01*
X0223540Y0127600D01*
X0223780Y0127841D02*
X0352680Y0127841D01*
X0352680Y0129439D02*
X0225379Y0129439D01*
X0226000Y0131038D02*
X0358575Y0131038D01*
X0356977Y0132636D02*
X0226000Y0132636D01*
X0225305Y0134235D02*
X0356252Y0134235D01*
X0355780Y0135833D02*
X0223706Y0135833D01*
X0219894Y0135833D02*
X0217400Y0135833D01*
X0217400Y0134235D02*
X0218295Y0134235D01*
X0217600Y0132636D02*
X0217400Y0132636D01*
X0217400Y0131038D02*
X0217600Y0131038D01*
X0217400Y0129439D02*
X0218221Y0129439D01*
X0217400Y0127841D02*
X0219820Y0127841D01*
X0210200Y0127841D02*
X0174153Y0127841D01*
X0172555Y0129439D02*
X0210200Y0129439D01*
X0210200Y0131038D02*
X0170956Y0131038D01*
X0169358Y0132636D02*
X0210200Y0132636D01*
X0210200Y0134235D02*
X0167759Y0134235D01*
X0166161Y0135833D02*
X0210200Y0135833D01*
X0210200Y0137432D02*
X0166000Y0137432D01*
X0165509Y0139030D02*
X0210200Y0139030D01*
X0210200Y0140629D02*
X0163911Y0140629D01*
X0163540Y0142600D02*
X0160060Y0142600D01*
X0157600Y0145060D01*
X0157600Y0148540D01*
X0160060Y0151000D01*
X0163540Y0151000D01*
X0166000Y0148540D01*
X0166000Y0145060D01*
X0163540Y0142600D01*
X0164766Y0143826D02*
X0210743Y0143826D01*
X0210176Y0142227D02*
X0091000Y0142227D01*
X0090714Y0143826D02*
X0158834Y0143826D01*
X0157600Y0145424D02*
X0089115Y0145424D01*
X0088540Y0147600D02*
X0085060Y0147600D01*
X0082600Y0150060D01*
X0082600Y0153540D01*
X0085060Y0156000D01*
X0088540Y0156000D01*
X0091000Y0153540D01*
X0091000Y0150060D01*
X0088540Y0147600D01*
X0089561Y0148621D02*
X0157682Y0148621D01*
X0157600Y0147023D02*
X0049200Y0147023D01*
X0049200Y0148621D02*
X0084039Y0148621D01*
X0082600Y0150220D02*
X0049200Y0150220D01*
X0049200Y0151818D02*
X0082600Y0151818D01*
X0082600Y0153417D02*
X0049200Y0153417D01*
X0049200Y0155015D02*
X0084076Y0155015D01*
X0089524Y0155015D02*
X0220155Y0155015D01*
X0218483Y0153417D02*
X0091000Y0153417D01*
X0091000Y0151818D02*
X0217204Y0151818D01*
X0215926Y0150220D02*
X0164320Y0150220D01*
X0165918Y0148621D02*
X0214647Y0148621D01*
X0213368Y0147023D02*
X0166000Y0147023D01*
X0166000Y0145424D02*
X0212089Y0145424D01*
X0217473Y0140629D02*
X0356775Y0140629D01*
X0356113Y0139030D02*
X0217400Y0139030D01*
X0217400Y0137432D02*
X0355780Y0137432D01*
X0358240Y0142227D02*
X0218752Y0142227D01*
X0220031Y0143826D02*
X0348361Y0143826D01*
X0348272Y0143979D02*
X0348509Y0143569D01*
X0348844Y0143234D01*
X0349255Y0142997D01*
X0349713Y0142874D01*
X0351931Y0142874D01*
X0351931Y0149214D01*
X0352693Y0149214D01*
X0352693Y0142874D01*
X0354911Y0142874D01*
X0355369Y0142997D01*
X0355779Y0143234D01*
X0356114Y0143569D01*
X0356351Y0143979D01*
X0356474Y0144437D01*
X0356474Y0149214D01*
X0352693Y0149214D01*
X0352693Y0149976D01*
X0356474Y0149976D01*
X0356474Y0154754D01*
X0356351Y0155211D01*
X0356114Y0155622D01*
X0355779Y0155957D01*
X0355369Y0156194D01*
X0354911Y0156317D01*
X0352693Y0156317D01*
X0352693Y0149976D01*
X0351931Y0149976D01*
X0351931Y0149214D01*
X0348150Y0149214D01*
X0348150Y0144437D01*
X0348272Y0143979D01*
X0348150Y0145424D02*
X0221310Y0145424D01*
X0222589Y0147023D02*
X0348150Y0147023D01*
X0348150Y0148621D02*
X0229561Y0148621D01*
X0231000Y0150220D02*
X0348150Y0150220D01*
X0348150Y0149976D02*
X0351931Y0149976D01*
X0351931Y0156317D01*
X0349713Y0156317D01*
X0349255Y0156194D01*
X0348844Y0155957D01*
X0348509Y0155622D01*
X0348272Y0155211D01*
X0348150Y0154754D01*
X0348150Y0149976D01*
X0348150Y0151818D02*
X0231000Y0151818D01*
X0231811Y0153417D02*
X0348150Y0153417D01*
X0348220Y0155015D02*
X0233409Y0155015D01*
X0235008Y0156614D02*
X0378200Y0156614D01*
X0378200Y0158212D02*
X0367546Y0158212D01*
X0367516Y0158200D02*
X0368060Y0158425D01*
X0368618Y0158611D01*
X0368717Y0158698D01*
X0368839Y0158748D01*
X0369255Y0159164D01*
X0369700Y0159550D01*
X0369759Y0159667D01*
X0369852Y0159761D01*
X0370077Y0160304D01*
X0373910Y0167970D01*
X0376000Y0170060D01*
X0376000Y0173540D01*
X0373540Y0176000D01*
X0370060Y0176000D01*
X0367600Y0173540D01*
X0367600Y0171450D01*
X0364575Y0165400D01*
X0298291Y0165400D01*
X0289375Y0174316D01*
X0290000Y0175825D01*
X0290000Y0177775D01*
X0289254Y0179576D01*
X0287876Y0180954D01*
X0286075Y0181700D01*
X0277525Y0181700D01*
X0275724Y0180954D01*
X0274346Y0179576D01*
X0273600Y0177775D01*
X0273600Y0175825D01*
X0274346Y0174024D01*
X0275724Y0172646D01*
X0277525Y0171900D01*
X0281609Y0171900D01*
X0293748Y0159761D01*
X0294761Y0158748D01*
X0296084Y0158200D01*
X0366672Y0158200D01*
X0367259Y0158158D01*
X0367384Y0158200D01*
X0367516Y0158200D01*
X0369873Y0159811D02*
X0378200Y0159811D01*
X0378200Y0161409D02*
X0370630Y0161409D01*
X0371429Y0163008D02*
X0378200Y0163008D01*
X0378200Y0164606D02*
X0372228Y0164606D01*
X0373027Y0166205D02*
X0378200Y0166205D01*
X0378200Y0167803D02*
X0373827Y0167803D01*
X0375342Y0169402D02*
X0378200Y0169402D01*
X0377600Y0171001D02*
X0376000Y0171001D01*
X0376000Y0172599D02*
X0377600Y0172599D01*
X0378200Y0174198D02*
X0375342Y0174198D01*
X0373744Y0175796D02*
X0378200Y0175796D01*
X0378200Y0177395D02*
X0357109Y0177395D01*
X0357738Y0177758D02*
X0359842Y0179862D01*
X0361330Y0182438D01*
X0362100Y0185312D01*
X0362100Y0188288D01*
X0361330Y0191162D01*
X0359842Y0193738D01*
X0357738Y0195842D01*
X0355162Y0197330D01*
X0352288Y0198100D01*
X0349312Y0198100D01*
X0346438Y0197330D01*
X0343862Y0195842D01*
X0341758Y0193738D01*
X0340270Y0191162D01*
X0339500Y0188288D01*
X0339500Y0185312D01*
X0340270Y0182438D01*
X0341758Y0179862D01*
X0343862Y0177758D01*
X0346438Y0176270D01*
X0349312Y0175500D01*
X0352288Y0175500D01*
X0355162Y0176270D01*
X0357738Y0177758D01*
X0358974Y0178993D02*
X0378200Y0178993D01*
X0378200Y0180592D02*
X0360264Y0180592D01*
X0361187Y0182190D02*
X0378200Y0182190D01*
X0378200Y0183789D02*
X0361692Y0183789D01*
X0362100Y0185387D02*
X0378200Y0185387D01*
X0378200Y0186986D02*
X0362100Y0186986D01*
X0362021Y0188584D02*
X0378200Y0188584D01*
X0378200Y0190183D02*
X0361592Y0190183D01*
X0360972Y0191781D02*
X0378200Y0191781D01*
X0378200Y0193380D02*
X0360049Y0193380D01*
X0358602Y0194978D02*
X0378200Y0194978D01*
X0378200Y0196577D02*
X0356466Y0196577D01*
X0345134Y0196577D02*
X0290000Y0196577D01*
X0290000Y0195825D02*
X0290000Y0197775D01*
X0289254Y0199576D01*
X0287876Y0200954D01*
X0286075Y0201700D01*
X0277525Y0201700D01*
X0275724Y0200954D01*
X0274346Y0199576D01*
X0274190Y0199200D01*
X0260340Y0199200D01*
X0258540Y0201000D01*
X0255060Y0201000D01*
X0252600Y0198540D01*
X0252600Y0195994D01*
X0229200Y0172594D01*
X0229200Y0173260D01*
X0231000Y0175060D01*
X0231000Y0178540D01*
X0228540Y0181000D01*
X0225060Y0181000D01*
X0222600Y0178540D01*
X0222600Y0175060D01*
X0224400Y0173260D01*
X0224400Y0165340D01*
X0222600Y0163540D01*
X0222600Y0160060D01*
X0225060Y0157600D01*
X0228540Y0157600D01*
X0231000Y0160060D01*
X0231000Y0163540D01*
X0229200Y0165340D01*
X0229200Y0165806D01*
X0255994Y0192600D01*
X0258540Y0192600D01*
X0260340Y0194400D01*
X0274190Y0194400D01*
X0274346Y0194024D01*
X0275724Y0192646D01*
X0277525Y0191900D01*
X0286075Y0191900D01*
X0287876Y0192646D01*
X0289254Y0194024D01*
X0290000Y0195825D01*
X0289649Y0194978D02*
X0342998Y0194978D01*
X0341551Y0193380D02*
X0288609Y0193380D01*
X0288647Y0190183D02*
X0340008Y0190183D01*
X0339579Y0188584D02*
X0289665Y0188584D01*
X0290000Y0186986D02*
X0339500Y0186986D01*
X0339500Y0185387D02*
X0289818Y0185387D01*
X0289018Y0183789D02*
X0339908Y0183789D01*
X0340413Y0182190D02*
X0286775Y0182190D01*
X0288238Y0180592D02*
X0341336Y0180592D01*
X0342626Y0178993D02*
X0289495Y0178993D01*
X0290000Y0177395D02*
X0344491Y0177395D01*
X0348207Y0175796D02*
X0289988Y0175796D01*
X0289494Y0174198D02*
X0368258Y0174198D01*
X0367600Y0172599D02*
X0291092Y0172599D01*
X0292691Y0171001D02*
X0367375Y0171001D01*
X0366576Y0169402D02*
X0294289Y0169402D01*
X0295888Y0167803D02*
X0365777Y0167803D01*
X0364978Y0166205D02*
X0297486Y0166205D01*
X0292099Y0161409D02*
X0239804Y0161409D01*
X0241402Y0163008D02*
X0290501Y0163008D01*
X0288902Y0164606D02*
X0243001Y0164606D01*
X0244599Y0166205D02*
X0287304Y0166205D01*
X0285705Y0167803D02*
X0246198Y0167803D01*
X0247796Y0169402D02*
X0284107Y0169402D01*
X0282508Y0171001D02*
X0249395Y0171001D01*
X0250993Y0172599D02*
X0275838Y0172599D01*
X0274274Y0174198D02*
X0252592Y0174198D01*
X0251800Y0176800D02*
X0281800Y0186800D01*
X0276825Y0182190D02*
X0275560Y0182190D01*
X0275362Y0180592D02*
X0270764Y0180592D01*
X0274105Y0178993D02*
X0265969Y0178993D01*
X0265176Y0183789D02*
X0259728Y0183789D01*
X0258540Y0182600D02*
X0261000Y0185060D01*
X0261000Y0188540D01*
X0258540Y0191000D01*
X0255060Y0191000D01*
X0252600Y0188540D01*
X0252600Y0185060D01*
X0255060Y0182600D01*
X0258540Y0182600D01*
X0260381Y0182190D02*
X0245584Y0182190D01*
X0243986Y0180592D02*
X0255585Y0180592D01*
X0253872Y0183789D02*
X0247183Y0183789D01*
X0248781Y0185387D02*
X0252600Y0185387D01*
X0252600Y0186986D02*
X0250380Y0186986D01*
X0251978Y0188584D02*
X0252644Y0188584D01*
X0253577Y0190183D02*
X0254243Y0190183D01*
X0255175Y0191781D02*
X0340628Y0191781D01*
X0353393Y0175796D02*
X0369856Y0175796D01*
X0385400Y0175796D02*
X0405701Y0175796D01*
X0405701Y0174198D02*
X0385400Y0174198D01*
X0386000Y0172599D02*
X0405701Y0172599D01*
X0405701Y0171001D02*
X0386000Y0171001D01*
X0385400Y0169402D02*
X0405701Y0169402D01*
X0405701Y0167803D02*
X0385400Y0167803D01*
X0385400Y0166205D02*
X0405701Y0166205D01*
X0405701Y0164606D02*
X0385400Y0164606D01*
X0385400Y0163008D02*
X0405701Y0163008D01*
X0405701Y0161409D02*
X0385400Y0161409D01*
X0385400Y0159811D02*
X0405701Y0159811D01*
X0405701Y0158212D02*
X0385400Y0158212D01*
X0385400Y0156614D02*
X0405701Y0156614D01*
X0405701Y0155015D02*
X0385400Y0155015D01*
X0385400Y0153417D02*
X0405701Y0153417D01*
X0405701Y0151818D02*
X0385400Y0151818D01*
X0385400Y0150220D02*
X0405701Y0150220D01*
X0405701Y0148621D02*
X0385400Y0148621D01*
X0385400Y0147023D02*
X0405701Y0147023D01*
X0405701Y0145424D02*
X0385127Y0145424D01*
X0383917Y0143826D02*
X0388747Y0143826D01*
X0389076Y0143962D02*
X0386444Y0142872D01*
X0384429Y0140857D01*
X0383339Y0138225D01*
X0383339Y0135375D01*
X0384429Y0132743D01*
X0386444Y0130728D01*
X0386449Y0130726D01*
X0384583Y0130726D01*
X0384583Y0124386D01*
X0388364Y0124386D01*
X0388364Y0129163D01*
X0388241Y0129621D01*
X0388004Y0130031D01*
X0387918Y0130118D01*
X0389076Y0129638D01*
X0391925Y0129638D01*
X0394558Y0130728D01*
X0396573Y0132743D01*
X0397663Y0135375D01*
X0397663Y0138225D01*
X0396573Y0140857D01*
X0394558Y0142872D01*
X0391925Y0143962D01*
X0389076Y0143962D01*
X0392255Y0143826D02*
X0405701Y0143826D01*
X0405701Y0142227D02*
X0395202Y0142227D01*
X0396667Y0140629D02*
X0405701Y0140629D01*
X0405701Y0139030D02*
X0397329Y0139030D01*
X0397663Y0137432D02*
X0405701Y0137432D01*
X0405701Y0135833D02*
X0397663Y0135833D01*
X0397191Y0134235D02*
X0405701Y0134235D01*
X0405701Y0132636D02*
X0396466Y0132636D01*
X0394867Y0131038D02*
X0405701Y0131038D01*
X0405701Y0129439D02*
X0388290Y0129439D01*
X0388364Y0127841D02*
X0405701Y0127841D01*
X0405701Y0126242D02*
X0388364Y0126242D01*
X0388364Y0124644D02*
X0405701Y0124644D01*
X0405701Y0123045D02*
X0388364Y0123045D01*
X0388364Y0123624D02*
X0384583Y0123624D01*
X0384583Y0124386D01*
X0383820Y0124386D01*
X0383820Y0123624D01*
X0380039Y0123624D01*
X0380039Y0118846D01*
X0380162Y0118389D01*
X0380399Y0117978D01*
X0380734Y0117643D01*
X0381145Y0117406D01*
X0381602Y0117283D01*
X0383820Y0117283D01*
X0383820Y0123624D01*
X0384583Y0123624D01*
X0384583Y0117283D01*
X0386801Y0117283D01*
X0387259Y0117406D01*
X0387669Y0117643D01*
X0388004Y0117978D01*
X0388241Y0118389D01*
X0388364Y0118846D01*
X0388364Y0123624D01*
X0388364Y0121447D02*
X0405701Y0121447D01*
X0405701Y0119848D02*
X0388364Y0119848D01*
X0388161Y0118250D02*
X0405701Y0118250D01*
X0405701Y0116651D02*
X0362040Y0116651D01*
X0363639Y0115053D02*
X0405701Y0115053D01*
X0405701Y0113454D02*
X0365237Y0113454D01*
X0366836Y0111856D02*
X0405701Y0111856D01*
X0405701Y0110257D02*
X0368434Y0110257D01*
X0370033Y0108659D02*
X0405701Y0108659D01*
X0405701Y0107060D02*
X0371631Y0107060D01*
X0373230Y0105462D02*
X0405701Y0105462D01*
X0405701Y0103863D02*
X0374828Y0103863D01*
X0376427Y0102265D02*
X0405701Y0102265D01*
X0405701Y0100666D02*
X0378025Y0100666D01*
X0379624Y0099068D02*
X0405701Y0099068D01*
X0405701Y0097469D02*
X0380400Y0097469D01*
X0380400Y0095870D02*
X0405701Y0095870D01*
X0405701Y0094272D02*
X0380400Y0094272D01*
X0380400Y0092673D02*
X0405701Y0092673D01*
X0405701Y0091075D02*
X0380400Y0091075D01*
X0380400Y0089476D02*
X0405701Y0089476D01*
X0405701Y0087878D02*
X0381000Y0087878D01*
X0381000Y0086279D02*
X0405701Y0086279D01*
X0405701Y0084681D02*
X0380621Y0084681D01*
X0380400Y0083082D02*
X0405701Y0083082D01*
X0405701Y0081484D02*
X0380400Y0081484D01*
X0380400Y0079885D02*
X0405701Y0079885D01*
X0405701Y0078287D02*
X0380400Y0078287D01*
X0380400Y0076688D02*
X0405701Y0076688D01*
X0405701Y0075090D02*
X0380400Y0075090D01*
X0380400Y0073491D02*
X0405701Y0073491D01*
X0405701Y0071893D02*
X0380400Y0071893D01*
X0380400Y0070294D02*
X0405701Y0070294D01*
X0405701Y0068696D02*
X0380400Y0068696D01*
X0380400Y0067097D02*
X0405701Y0067097D01*
X0405701Y0065499D02*
X0380400Y0065499D01*
X0380400Y0063900D02*
X0405701Y0063900D01*
X0405701Y0062302D02*
X0380400Y0062302D01*
X0380400Y0060703D02*
X0405701Y0060703D01*
X0405701Y0059105D02*
X0380400Y0059105D01*
X0380400Y0057506D02*
X0405701Y0057506D01*
X0405701Y0055908D02*
X0380400Y0055908D01*
X0380400Y0054309D02*
X0405701Y0054309D01*
X0405701Y0052711D02*
X0380400Y0052711D01*
X0380400Y0051112D02*
X0405701Y0051112D01*
X0405701Y0049514D02*
X0380400Y0049514D01*
X0380400Y0047915D02*
X0405701Y0047915D01*
X0405701Y0046317D02*
X0380400Y0046317D01*
X0380400Y0044718D02*
X0405701Y0044718D01*
X0405701Y0043120D02*
X0380400Y0043120D01*
X0380400Y0041521D02*
X0405701Y0041521D01*
X0405701Y0039923D02*
X0380400Y0039923D01*
X0380400Y0038324D02*
X0405701Y0038324D01*
X0405701Y0036726D02*
X0380400Y0036726D01*
X0380400Y0035127D02*
X0405701Y0035127D01*
X0405701Y0033529D02*
X0381000Y0033529D01*
X0381000Y0031930D02*
X0392147Y0031930D01*
X0389635Y0030332D02*
X0381000Y0030332D01*
X0379673Y0028733D02*
X0388036Y0028733D01*
X0387064Y0027134D02*
X0367226Y0027134D01*
X0365627Y0025536D02*
X0386310Y0025536D01*
X0385882Y0023937D02*
X0364029Y0023937D01*
X0362430Y0022339D02*
X0385701Y0022339D01*
X0385701Y0020740D02*
X0360832Y0020740D01*
X0359852Y0019761D02*
X0359852Y0019761D01*
X0359233Y0019142D02*
X0386021Y0019142D01*
X0386450Y0017543D02*
X0037150Y0017543D01*
X0037290Y0025536D02*
X0060178Y0025536D01*
X0060000Y0027134D02*
X0036536Y0027134D01*
X0035564Y0028733D02*
X0060455Y0028733D01*
X0061792Y0030332D02*
X0033965Y0030332D01*
X0031453Y0031930D02*
X0104400Y0031930D01*
X0104400Y0033529D02*
X0021600Y0033529D01*
X0021600Y0035127D02*
X0104400Y0035127D01*
X0104400Y0036726D02*
X0021600Y0036726D01*
X0021600Y0038324D02*
X0104400Y0038324D01*
X0104400Y0039923D02*
X0021600Y0039923D01*
X0021600Y0041521D02*
X0104400Y0041521D01*
X0120980Y0052711D02*
X0219400Y0052711D01*
X0219400Y0054309D02*
X0119382Y0054309D01*
X0117783Y0055908D02*
X0219400Y0055908D01*
X0219400Y0057506D02*
X0116185Y0057506D01*
X0161800Y0086800D02*
X0161800Y0101800D01*
X0158593Y0099068D02*
X0140290Y0099068D01*
X0141200Y0100666D02*
X0157600Y0100666D01*
X0157600Y0102265D02*
X0141200Y0102265D01*
X0140959Y0103863D02*
X0157923Y0103863D01*
X0159522Y0105462D02*
X0139361Y0105462D01*
X0136800Y0105462D02*
X0136800Y0105462D01*
X0136800Y0103863D02*
X0136800Y0103863D01*
X0136800Y0102265D02*
X0136800Y0102265D01*
X0136800Y0100666D02*
X0136800Y0100666D01*
X0136800Y0099068D02*
X0136800Y0099068D01*
X0136800Y0097469D02*
X0136800Y0097469D01*
X0138692Y0097469D02*
X0159400Y0097469D01*
X0159002Y0108659D02*
X0139598Y0108659D01*
X0141000Y0110257D02*
X0157600Y0110257D01*
X0157600Y0111856D02*
X0141000Y0111856D01*
X0141000Y0113454D02*
X0156752Y0113454D01*
X0155153Y0115053D02*
X0139487Y0115053D01*
X0139200Y0116651D02*
X0153555Y0116651D01*
X0151956Y0118250D02*
X0139200Y0118250D01*
X0139200Y0119848D02*
X0150358Y0119848D01*
X0148759Y0121447D02*
X0139841Y0121447D01*
X0141439Y0123045D02*
X0147161Y0123045D01*
X0146800Y0126800D02*
X0141800Y0126800D01*
X0136800Y0121800D01*
X0136800Y0111800D01*
X0132641Y0103863D02*
X0090086Y0103863D01*
X0082608Y0115053D02*
X0021600Y0115053D01*
X0021600Y0116651D02*
X0082600Y0116651D01*
X0082600Y0118250D02*
X0021600Y0118250D01*
X0021600Y0119848D02*
X0083908Y0119848D01*
X0083759Y0121447D02*
X0021600Y0121447D01*
X0021600Y0123045D02*
X0082161Y0123045D01*
X0080562Y0124644D02*
X0021600Y0124644D01*
X0021600Y0126242D02*
X0078964Y0126242D01*
X0077365Y0127841D02*
X0058780Y0127841D01*
X0054820Y0127841D02*
X0048780Y0127841D01*
X0048540Y0127600D02*
X0051000Y0130060D01*
X0051000Y0133540D01*
X0049200Y0135340D01*
X0049200Y0156027D01*
X0061430Y0173036D01*
X0061630Y0173236D01*
X0061706Y0173420D01*
X0061823Y0173582D01*
X0061887Y0173857D01*
X0061995Y0174118D01*
X0061995Y0174317D01*
X0062041Y0174511D01*
X0061995Y0174790D01*
X0061995Y0177680D01*
X0065179Y0177680D01*
X0066117Y0178618D01*
X0066117Y0184667D01*
X0065179Y0185605D01*
X0054011Y0185605D01*
X0053282Y0184876D01*
X0053962Y0186517D01*
X0053962Y0189366D01*
X0052872Y0191999D01*
X0050857Y0194014D01*
X0048225Y0195104D01*
X0045375Y0195104D01*
X0042743Y0194014D01*
X0040728Y0191999D01*
X0039638Y0189366D01*
X0039638Y0186517D01*
X0040728Y0183885D01*
X0042743Y0181870D01*
X0045375Y0180780D01*
X0048225Y0180780D01*
X0050857Y0181870D01*
X0052872Y0183885D01*
X0053074Y0184373D01*
X0053074Y0178618D01*
X0054011Y0177680D01*
X0057195Y0177680D01*
X0057195Y0175369D01*
X0044965Y0158359D01*
X0044765Y0158159D01*
X0044689Y0157975D01*
X0044573Y0157813D01*
X0044508Y0157538D01*
X0044400Y0157277D01*
X0044400Y0157078D01*
X0044354Y0156884D01*
X0044400Y0156605D01*
X0044400Y0135340D01*
X0042600Y0133540D01*
X0042600Y0130060D01*
X0045060Y0127600D01*
X0048540Y0127600D01*
X0050379Y0129439D02*
X0053221Y0129439D01*
X0052600Y0131038D02*
X0051000Y0131038D01*
X0051000Y0132636D02*
X0052600Y0132636D01*
X0053295Y0134235D02*
X0050305Y0134235D01*
X0049200Y0135833D02*
X0054894Y0135833D01*
X0058706Y0135833D02*
X0089373Y0135833D01*
X0090971Y0134235D02*
X0060305Y0134235D01*
X0056800Y0131800D02*
X0076800Y0131800D01*
X0086800Y0121800D01*
X0086800Y0116800D01*
X0084153Y0127841D02*
X0112320Y0127841D01*
X0114300Y0131800D02*
X0096800Y0131800D01*
X0086800Y0141800D01*
X0083630Y0139030D02*
X0049200Y0139030D01*
X0049200Y0137432D02*
X0087774Y0137432D01*
X0091365Y0140629D02*
X0119689Y0140629D01*
X0118091Y0139030D02*
X0092964Y0139030D01*
X0094562Y0137432D02*
X0117600Y0137432D01*
X0117600Y0135833D02*
X0116206Y0135833D01*
X0117805Y0134235D02*
X0118426Y0134235D01*
X0118500Y0132636D02*
X0120024Y0132636D01*
X0121800Y0126800D02*
X0141800Y0126800D01*
X0146800Y0126800D02*
X0161800Y0111800D01*
X0166000Y0111856D02*
X0183350Y0111856D01*
X0184400Y0110257D02*
X0166000Y0110257D01*
X0164598Y0108659D02*
X0184400Y0108659D01*
X0189200Y0108659D02*
X0210200Y0108659D01*
X0210200Y0110257D02*
X0189200Y0110257D01*
X0189200Y0111856D02*
X0210200Y0111856D01*
X0210200Y0113454D02*
X0188540Y0113454D01*
X0186941Y0115053D02*
X0210200Y0115053D01*
X0210200Y0116651D02*
X0185343Y0116651D01*
X0183744Y0118250D02*
X0210200Y0118250D01*
X0210200Y0119848D02*
X0182146Y0119848D01*
X0180547Y0121447D02*
X0210200Y0121447D01*
X0210200Y0123045D02*
X0178949Y0123045D01*
X0177350Y0124644D02*
X0210200Y0124644D01*
X0210200Y0126242D02*
X0175752Y0126242D01*
X0172161Y0123045D02*
X0153949Y0123045D01*
X0155547Y0121447D02*
X0173759Y0121447D01*
X0175358Y0119848D02*
X0157146Y0119848D01*
X0158744Y0118250D02*
X0176956Y0118250D01*
X0178555Y0116651D02*
X0160343Y0116651D01*
X0164487Y0115053D02*
X0180153Y0115053D01*
X0181752Y0113454D02*
X0166000Y0113454D01*
X0170562Y0124644D02*
X0152350Y0124644D01*
X0150752Y0126242D02*
X0168964Y0126242D01*
X0167365Y0127841D02*
X0149153Y0127841D01*
X0134718Y0123045D02*
X0123985Y0123045D01*
X0112394Y0135833D02*
X0096161Y0135833D01*
X0097759Y0134235D02*
X0110795Y0134235D01*
X0096800Y0131800D02*
X0076800Y0131800D01*
X0082600Y0140629D02*
X0049200Y0140629D01*
X0049200Y0142227D02*
X0082600Y0142227D01*
X0082886Y0143826D02*
X0049200Y0143826D01*
X0049200Y0145424D02*
X0084485Y0145424D01*
X0091000Y0150220D02*
X0159280Y0150220D01*
X0159689Y0140629D02*
X0123911Y0140629D01*
X0167400Y0164977D02*
X0169977Y0162400D01*
X0171800Y0162400D01*
X0173623Y0162400D01*
X0176200Y0164977D01*
X0176200Y0166800D01*
X0176200Y0168623D01*
X0173623Y0171200D01*
X0171800Y0171200D01*
X0171800Y0166800D01*
X0171800Y0166800D01*
X0176200Y0166800D01*
X0171800Y0166800D01*
X0171800Y0166800D01*
X0171800Y0166800D01*
X0167400Y0166800D01*
X0167400Y0168623D01*
X0169977Y0171200D01*
X0171800Y0171200D01*
X0171800Y0166800D01*
X0171800Y0162400D01*
X0171800Y0166800D01*
X0171800Y0166800D01*
X0167400Y0166800D01*
X0167400Y0164977D01*
X0167771Y0164606D02*
X0055369Y0164606D01*
X0054220Y0163008D02*
X0169370Y0163008D01*
X0171800Y0163008D02*
X0171800Y0163008D01*
X0171800Y0164606D02*
X0171800Y0164606D01*
X0171800Y0166205D02*
X0171800Y0166205D01*
X0171800Y0167803D02*
X0171800Y0167803D01*
X0171800Y0169402D02*
X0171800Y0169402D01*
X0171800Y0171001D02*
X0171800Y0171001D01*
X0173822Y0171001D02*
X0224400Y0171001D01*
X0224400Y0172599D02*
X0061116Y0172599D01*
X0061995Y0174198D02*
X0168463Y0174198D01*
X0167600Y0175060D02*
X0170060Y0172600D01*
X0173540Y0172600D01*
X0176000Y0175060D01*
X0176000Y0178540D01*
X0174200Y0180340D01*
X0174200Y0193260D01*
X0176000Y0195060D01*
X0176000Y0198540D01*
X0173540Y0201000D01*
X0170060Y0201000D01*
X0167600Y0198540D01*
X0167600Y0195060D01*
X0169400Y0193260D01*
X0169400Y0180340D01*
X0167600Y0178540D01*
X0167600Y0175060D01*
X0167600Y0175796D02*
X0061995Y0175796D01*
X0061995Y0177395D02*
X0167600Y0177395D01*
X0168053Y0178993D02*
X0066117Y0178993D01*
X0066117Y0180592D02*
X0169400Y0180592D01*
X0169400Y0182190D02*
X0066117Y0182190D01*
X0066117Y0183789D02*
X0169400Y0183789D01*
X0169400Y0185387D02*
X0065397Y0185387D01*
X0059595Y0181643D02*
X0059595Y0174595D01*
X0046800Y0156800D01*
X0046800Y0131800D01*
X0043295Y0134235D02*
X0021600Y0134235D01*
X0021600Y0135833D02*
X0044400Y0135833D01*
X0044400Y0137432D02*
X0021600Y0137432D01*
X0021600Y0139030D02*
X0044400Y0139030D01*
X0044400Y0140629D02*
X0021600Y0140629D01*
X0021600Y0142227D02*
X0044400Y0142227D01*
X0044400Y0143826D02*
X0021600Y0143826D01*
X0021600Y0145424D02*
X0044400Y0145424D01*
X0044400Y0147023D02*
X0021600Y0147023D01*
X0021600Y0148621D02*
X0044400Y0148621D01*
X0044400Y0150220D02*
X0021600Y0150220D01*
X0021600Y0151818D02*
X0044400Y0151818D01*
X0044400Y0153417D02*
X0021600Y0153417D01*
X0021600Y0155015D02*
X0044400Y0155015D01*
X0044399Y0156614D02*
X0021600Y0156614D01*
X0021600Y0158212D02*
X0044818Y0158212D01*
X0046009Y0159811D02*
X0021600Y0159811D01*
X0021600Y0161409D02*
X0047158Y0161409D01*
X0048308Y0163008D02*
X0021600Y0163008D01*
X0021600Y0164606D02*
X0049457Y0164606D01*
X0050606Y0166205D02*
X0021600Y0166205D01*
X0021600Y0167803D02*
X0051756Y0167803D01*
X0052905Y0169402D02*
X0021600Y0169402D01*
X0021600Y0171001D02*
X0054055Y0171001D01*
X0055204Y0172599D02*
X0021600Y0172599D01*
X0021600Y0174198D02*
X0027439Y0174198D01*
X0027406Y0174255D02*
X0027643Y0173844D01*
X0027978Y0173509D01*
X0028389Y0173272D01*
X0028846Y0173150D01*
X0033624Y0173150D01*
X0033624Y0176931D01*
X0034386Y0176931D01*
X0034386Y0177693D01*
X0040726Y0177693D01*
X0040726Y0179911D01*
X0040603Y0180369D01*
X0040366Y0180779D01*
X0040031Y0181114D01*
X0039621Y0181351D01*
X0039163Y0181474D01*
X0034386Y0181474D01*
X0034386Y0177693D01*
X0033624Y0177693D01*
X0033624Y0181474D01*
X0028846Y0181474D01*
X0028389Y0181351D01*
X0027978Y0181114D01*
X0027643Y0180779D01*
X0027406Y0180369D01*
X0027283Y0179911D01*
X0027283Y0177693D01*
X0033624Y0177693D01*
X0033624Y0176931D01*
X0027283Y0176931D01*
X0027283Y0174713D01*
X0027406Y0174255D01*
X0027283Y0175796D02*
X0021600Y0175796D01*
X0021600Y0177395D02*
X0033624Y0177395D01*
X0034386Y0177395D02*
X0057195Y0177395D01*
X0057195Y0175796D02*
X0040726Y0175796D01*
X0040726Y0174713D02*
X0040726Y0176931D01*
X0034386Y0176931D01*
X0034386Y0173150D01*
X0039163Y0173150D01*
X0039621Y0173272D01*
X0040031Y0173509D01*
X0040366Y0173844D01*
X0040603Y0174255D01*
X0040726Y0174713D01*
X0040570Y0174198D02*
X0056353Y0174198D01*
X0059967Y0171001D02*
X0169778Y0171001D01*
X0168179Y0169402D02*
X0058817Y0169402D01*
X0057668Y0167803D02*
X0167400Y0167803D01*
X0167400Y0166205D02*
X0056518Y0166205D01*
X0053070Y0161409D02*
X0222600Y0161409D01*
X0222600Y0163008D02*
X0174230Y0163008D01*
X0175829Y0164606D02*
X0223667Y0164606D01*
X0224400Y0166205D02*
X0176200Y0166205D01*
X0176200Y0167803D02*
X0224400Y0167803D01*
X0224400Y0169402D02*
X0175421Y0169402D01*
X0175137Y0174198D02*
X0223463Y0174198D01*
X0222600Y0175796D02*
X0176000Y0175796D01*
X0176000Y0177395D02*
X0222600Y0177395D01*
X0223053Y0178993D02*
X0175547Y0178993D01*
X0174200Y0180592D02*
X0224652Y0180592D01*
X0225060Y0182600D02*
X0228540Y0182600D01*
X0231000Y0185060D01*
X0231000Y0188540D01*
X0229200Y0190340D01*
X0229200Y0208260D01*
X0231000Y0210060D01*
X0231000Y0213540D01*
X0228540Y0216000D01*
X0225060Y0216000D01*
X0222600Y0213540D01*
X0222600Y0210060D01*
X0224400Y0208260D01*
X0224400Y0202794D01*
X0215806Y0194200D01*
X0210340Y0194200D01*
X0208540Y0196000D01*
X0205060Y0196000D01*
X0202600Y0193540D01*
X0202600Y0190060D01*
X0205060Y0187600D01*
X0208540Y0187600D01*
X0210340Y0189400D01*
X0217277Y0189400D01*
X0218159Y0189765D01*
X0224400Y0196006D01*
X0224400Y0190340D01*
X0222600Y0188540D01*
X0222600Y0185060D01*
X0225060Y0182600D01*
X0223872Y0183789D02*
X0174200Y0183789D01*
X0174200Y0185387D02*
X0222600Y0185387D01*
X0222600Y0186986D02*
X0174200Y0186986D01*
X0174200Y0188584D02*
X0194076Y0188584D01*
X0195060Y0187600D02*
X0198540Y0187600D01*
X0201000Y0190060D01*
X0201000Y0193540D01*
X0199200Y0195340D01*
X0199200Y0202277D01*
X0198835Y0203159D01*
X0198159Y0203835D01*
X0169200Y0232794D01*
X0169200Y0235806D01*
X0170994Y0237600D01*
X0173540Y0237600D01*
X0176000Y0240060D01*
X0176000Y0243540D01*
X0173540Y0246000D01*
X0170060Y0246000D01*
X0167600Y0243540D01*
X0167600Y0240994D01*
X0164765Y0238159D01*
X0160806Y0234200D01*
X0150340Y0234200D01*
X0148540Y0236000D01*
X0145060Y0236000D01*
X0142600Y0233540D01*
X0142600Y0230060D01*
X0145060Y0227600D01*
X0148540Y0227600D01*
X0150340Y0229400D01*
X0162277Y0229400D01*
X0163159Y0229765D01*
X0164493Y0231099D01*
X0164765Y0230441D01*
X0194400Y0200806D01*
X0194400Y0195340D01*
X0192600Y0193540D01*
X0192600Y0190060D01*
X0195060Y0187600D01*
X0192600Y0190183D02*
X0174200Y0190183D01*
X0174200Y0191781D02*
X0192600Y0191781D01*
X0192600Y0193380D02*
X0174319Y0193380D01*
X0175918Y0194978D02*
X0194039Y0194978D01*
X0194400Y0196577D02*
X0176000Y0196577D01*
X0176000Y0198175D02*
X0194400Y0198175D01*
X0194400Y0199774D02*
X0174766Y0199774D01*
X0173540Y0202600D02*
X0170060Y0202600D01*
X0167600Y0205060D01*
X0167600Y0207606D01*
X0155806Y0219400D01*
X0150340Y0219400D01*
X0149200Y0218260D01*
X0149200Y0210340D01*
X0151000Y0208540D01*
X0151000Y0205060D01*
X0148540Y0202600D01*
X0145060Y0202600D01*
X0142600Y0205060D01*
X0142600Y0208540D01*
X0144400Y0210340D01*
X0144400Y0218260D01*
X0142600Y0220060D01*
X0142600Y0223540D01*
X0145060Y0226000D01*
X0148540Y0226000D01*
X0150340Y0224200D01*
X0157277Y0224200D01*
X0158159Y0223835D01*
X0158835Y0223159D01*
X0170994Y0211000D01*
X0173540Y0211000D01*
X0176000Y0208540D01*
X0176000Y0205060D01*
X0173540Y0202600D01*
X0173910Y0202971D02*
X0192235Y0202971D01*
X0190637Y0204569D02*
X0175509Y0204569D01*
X0176000Y0206168D02*
X0189038Y0206168D01*
X0187440Y0207766D02*
X0176000Y0207766D01*
X0175175Y0209365D02*
X0185841Y0209365D01*
X0184243Y0210963D02*
X0173576Y0210963D01*
X0169432Y0212562D02*
X0182644Y0212562D01*
X0181046Y0214160D02*
X0167834Y0214160D01*
X0166235Y0215759D02*
X0179447Y0215759D01*
X0177849Y0217357D02*
X0164637Y0217357D01*
X0163038Y0218956D02*
X0176250Y0218956D01*
X0174652Y0220554D02*
X0161440Y0220554D01*
X0159841Y0222153D02*
X0173053Y0222153D01*
X0171454Y0223751D02*
X0158243Y0223751D01*
X0156800Y0221800D02*
X0146800Y0221800D01*
X0146800Y0206800D01*
X0150175Y0209365D02*
X0165841Y0209365D01*
X0164243Y0210963D02*
X0149200Y0210963D01*
X0149200Y0212562D02*
X0162644Y0212562D01*
X0161046Y0214160D02*
X0149200Y0214160D01*
X0149200Y0215759D02*
X0159447Y0215759D01*
X0157849Y0217357D02*
X0149200Y0217357D01*
X0149896Y0218956D02*
X0156250Y0218956D01*
X0156800Y0221800D02*
X0171800Y0206800D01*
X0167600Y0206168D02*
X0151000Y0206168D01*
X0151000Y0207766D02*
X0167440Y0207766D01*
X0168091Y0204569D02*
X0150509Y0204569D01*
X0148910Y0202971D02*
X0169690Y0202971D01*
X0168834Y0199774D02*
X0150049Y0199774D01*
X0151200Y0198623D02*
X0148623Y0201200D01*
X0146800Y0201200D01*
X0146800Y0196800D01*
X0146800Y0196800D01*
X0151200Y0196800D01*
X0151200Y0198623D01*
X0151200Y0198175D02*
X0167600Y0198175D01*
X0167600Y0196577D02*
X0151200Y0196577D01*
X0151200Y0196800D02*
X0146800Y0196800D01*
X0146800Y0196800D01*
X0146800Y0196800D01*
X0142400Y0196800D01*
X0142400Y0198623D01*
X0144977Y0201200D01*
X0146800Y0201200D01*
X0146800Y0196800D01*
X0146800Y0192400D01*
X0148623Y0192400D01*
X0151200Y0194977D01*
X0151200Y0196800D01*
X0151200Y0194978D02*
X0167682Y0194978D01*
X0169281Y0193380D02*
X0149602Y0193380D01*
X0146800Y0193380D02*
X0146800Y0193380D01*
X0146800Y0192400D02*
X0144977Y0192400D01*
X0142400Y0194977D01*
X0142400Y0196800D01*
X0146800Y0196800D01*
X0146800Y0196800D01*
X0146800Y0192400D01*
X0146800Y0194978D02*
X0146800Y0194978D01*
X0146800Y0196577D02*
X0146800Y0196577D01*
X0146800Y0198175D02*
X0146800Y0198175D01*
X0146800Y0199774D02*
X0146800Y0199774D01*
X0143551Y0199774D02*
X0120996Y0199774D01*
X0121200Y0199977D02*
X0121200Y0201800D01*
X0121200Y0203623D01*
X0118623Y0206200D01*
X0116800Y0206200D01*
X0116800Y0201800D01*
X0116800Y0201800D01*
X0121200Y0201800D01*
X0116800Y0201800D01*
X0116800Y0201800D01*
X0116800Y0201800D01*
X0112400Y0201800D01*
X0112400Y0203623D01*
X0114977Y0206200D01*
X0116800Y0206200D01*
X0116800Y0201800D01*
X0116800Y0197400D01*
X0118623Y0197400D01*
X0121200Y0199977D01*
X0121200Y0201372D02*
X0193834Y0201372D01*
X0196800Y0201800D02*
X0166800Y0231800D01*
X0166800Y0236800D01*
X0171800Y0241800D01*
X0175008Y0244532D02*
X0223128Y0244532D01*
X0222600Y0245060D02*
X0222600Y0248540D01*
X0225060Y0251000D01*
X0228540Y0251000D01*
X0231000Y0248540D01*
X0231000Y0245060D01*
X0228540Y0242600D01*
X0225060Y0242600D01*
X0222600Y0245060D01*
X0222600Y0246131D02*
X0021600Y0246131D01*
X0021600Y0247729D02*
X0114931Y0247729D01*
X0115060Y0247600D02*
X0118540Y0247600D01*
X0121000Y0250060D01*
X0121000Y0253540D01*
X0118540Y0256000D01*
X0115060Y0256000D01*
X0112600Y0253540D01*
X0112600Y0250060D01*
X0115060Y0247600D01*
X0115060Y0246000D02*
X0113260Y0244200D01*
X0100340Y0244200D01*
X0098540Y0246000D01*
X0095060Y0246000D01*
X0092600Y0243540D01*
X0092600Y0240060D01*
X0095060Y0237600D01*
X0098540Y0237600D01*
X0100340Y0239400D01*
X0113260Y0239400D01*
X0115060Y0237600D01*
X0118540Y0237600D01*
X0120340Y0239400D01*
X0123306Y0239400D01*
X0133506Y0229200D01*
X0131323Y0229200D01*
X0130441Y0228835D01*
X0117606Y0216000D01*
X0115060Y0216000D01*
X0112600Y0213540D01*
X0112600Y0210060D01*
X0115060Y0207600D01*
X0118540Y0207600D01*
X0121000Y0210060D01*
X0121000Y0212606D01*
X0132794Y0224400D01*
X0135760Y0224400D01*
X0137560Y0222600D01*
X0141040Y0222600D01*
X0143500Y0225060D01*
X0143500Y0228540D01*
X0141040Y0231000D01*
X0138494Y0231000D01*
X0125659Y0243835D01*
X0124777Y0244200D01*
X0120340Y0244200D01*
X0118540Y0246000D01*
X0115060Y0246000D01*
X0113592Y0244532D02*
X0100008Y0244532D01*
X0096800Y0241800D02*
X0116800Y0241800D01*
X0124300Y0241800D01*
X0139300Y0226800D01*
X0131800Y0226800D01*
X0116800Y0211800D01*
X0113296Y0209365D02*
X0087759Y0209365D01*
X0088159Y0209765D02*
X0088835Y0210441D01*
X0089200Y0211323D01*
X0089200Y0238260D01*
X0091000Y0240060D01*
X0091000Y0243540D01*
X0088540Y0246000D01*
X0085060Y0246000D01*
X0082600Y0243540D01*
X0082600Y0240060D01*
X0084400Y0238260D01*
X0084400Y0212794D01*
X0071396Y0199791D01*
X0066117Y0199791D01*
X0066117Y0200415D01*
X0065179Y0201353D01*
X0054011Y0201353D01*
X0053074Y0200415D01*
X0053074Y0194366D01*
X0054011Y0193428D01*
X0065179Y0193428D01*
X0066117Y0194366D01*
X0066117Y0194991D01*
X0072868Y0194991D01*
X0073750Y0195356D01*
X0088159Y0209765D01*
X0089051Y0210963D02*
X0112600Y0210963D01*
X0112600Y0212562D02*
X0089200Y0212562D01*
X0089200Y0214160D02*
X0113221Y0214160D01*
X0114819Y0215759D02*
X0089200Y0215759D01*
X0089200Y0217357D02*
X0118963Y0217357D01*
X0120562Y0218956D02*
X0089200Y0218956D01*
X0089200Y0220554D02*
X0122160Y0220554D01*
X0123759Y0222153D02*
X0089200Y0222153D01*
X0089200Y0223751D02*
X0125357Y0223751D01*
X0126956Y0225350D02*
X0089200Y0225350D01*
X0089200Y0226948D02*
X0128554Y0226948D01*
X0130153Y0228547D02*
X0089200Y0228547D01*
X0089200Y0230145D02*
X0132560Y0230145D01*
X0130962Y0231744D02*
X0089200Y0231744D01*
X0089200Y0233342D02*
X0129363Y0233342D01*
X0127765Y0234941D02*
X0089200Y0234941D01*
X0089200Y0236539D02*
X0126166Y0236539D01*
X0124568Y0238138D02*
X0119078Y0238138D01*
X0114522Y0238138D02*
X0099078Y0238138D01*
X0094522Y0238138D02*
X0089200Y0238138D01*
X0090676Y0239737D02*
X0092924Y0239737D01*
X0092600Y0241335D02*
X0091000Y0241335D01*
X0091000Y0242934D02*
X0092600Y0242934D01*
X0093592Y0244532D02*
X0090008Y0244532D01*
X0086800Y0241800D02*
X0086800Y0211800D01*
X0072391Y0197391D01*
X0059595Y0197391D01*
X0053074Y0198175D02*
X0021600Y0198175D01*
X0021600Y0196577D02*
X0053074Y0196577D01*
X0053074Y0194978D02*
X0048528Y0194978D01*
X0051491Y0193380D02*
X0143998Y0193380D01*
X0142400Y0194978D02*
X0066117Y0194978D01*
X0074971Y0196577D02*
X0142400Y0196577D01*
X0142400Y0198175D02*
X0119398Y0198175D01*
X0116800Y0198175D02*
X0116800Y0198175D01*
X0116800Y0197400D02*
X0116800Y0201800D01*
X0116800Y0201800D01*
X0112400Y0201800D01*
X0112400Y0199977D01*
X0114977Y0197400D01*
X0116800Y0197400D01*
X0116800Y0199774D02*
X0116800Y0199774D01*
X0116800Y0201372D02*
X0116800Y0201372D01*
X0116800Y0202971D02*
X0116800Y0202971D01*
X0116800Y0204569D02*
X0116800Y0204569D01*
X0116800Y0206168D02*
X0116800Y0206168D01*
X0118655Y0206168D02*
X0142600Y0206168D01*
X0142600Y0207766D02*
X0118706Y0207766D01*
X0120304Y0209365D02*
X0143425Y0209365D01*
X0144400Y0210963D02*
X0121000Y0210963D01*
X0121000Y0212562D02*
X0144400Y0212562D01*
X0144400Y0214160D02*
X0122554Y0214160D01*
X0124153Y0215759D02*
X0144400Y0215759D01*
X0144400Y0217357D02*
X0125751Y0217357D01*
X0127350Y0218956D02*
X0143704Y0218956D01*
X0142600Y0220554D02*
X0128948Y0220554D01*
X0130547Y0222153D02*
X0142600Y0222153D01*
X0142812Y0223751D02*
X0142191Y0223751D01*
X0143500Y0225350D02*
X0144410Y0225350D01*
X0143500Y0226948D02*
X0168257Y0226948D01*
X0166659Y0228547D02*
X0149487Y0228547D01*
X0149190Y0225350D02*
X0169856Y0225350D01*
X0173447Y0228547D02*
X0224400Y0228547D01*
X0224400Y0230145D02*
X0171849Y0230145D01*
X0170250Y0231744D02*
X0224400Y0231744D01*
X0224400Y0233260D02*
X0222600Y0235060D01*
X0222600Y0238540D01*
X0225060Y0241000D01*
X0228540Y0241000D01*
X0231000Y0238540D01*
X0231000Y0235060D01*
X0229200Y0233260D01*
X0229200Y0232594D01*
X0242265Y0245659D01*
X0242265Y0245659D01*
X0242941Y0246335D01*
X0242941Y0246335D01*
X0247600Y0250994D01*
X0247600Y0253540D01*
X0250060Y0256000D01*
X0253540Y0256000D01*
X0256000Y0253540D01*
X0256000Y0250060D01*
X0253540Y0247600D01*
X0250994Y0247600D01*
X0247694Y0244300D01*
X0247794Y0244200D01*
X0260806Y0244200D01*
X0270441Y0253835D01*
X0271323Y0254200D01*
X0274190Y0254200D01*
X0274346Y0254576D01*
X0275724Y0255954D01*
X0277525Y0256700D01*
X0286075Y0256700D01*
X0287876Y0255954D01*
X0289254Y0254576D01*
X0290000Y0252775D01*
X0290000Y0250825D01*
X0289254Y0249024D01*
X0287876Y0247646D01*
X0286075Y0246900D01*
X0277525Y0246900D01*
X0275724Y0247646D01*
X0274346Y0249024D01*
X0274190Y0249400D01*
X0272794Y0249400D01*
X0263835Y0240441D01*
X0263159Y0239765D01*
X0262277Y0239400D01*
X0246323Y0239400D01*
X0245441Y0239765D01*
X0244300Y0240906D01*
X0229200Y0225806D01*
X0229200Y0225340D01*
X0231000Y0223540D01*
X0231000Y0220060D01*
X0228540Y0217600D01*
X0225060Y0217600D01*
X0222600Y0220060D01*
X0222600Y0223540D01*
X0224400Y0225340D01*
X0224400Y0233260D01*
X0224318Y0233342D02*
X0169200Y0233342D01*
X0169200Y0234941D02*
X0222719Y0234941D01*
X0222600Y0236539D02*
X0169934Y0236539D01*
X0166800Y0236800D02*
X0161800Y0231800D01*
X0146800Y0231800D01*
X0142600Y0231744D02*
X0137750Y0231744D01*
X0136152Y0233342D02*
X0142600Y0233342D01*
X0144001Y0234941D02*
X0134553Y0234941D01*
X0132955Y0236539D02*
X0163145Y0236539D01*
X0161547Y0234941D02*
X0149599Y0234941D01*
X0142600Y0230145D02*
X0141894Y0230145D01*
X0143493Y0228547D02*
X0144113Y0228547D01*
X0136409Y0223751D02*
X0132145Y0223751D01*
X0131356Y0238138D02*
X0164744Y0238138D01*
X0166342Y0239737D02*
X0129758Y0239737D01*
X0128159Y0241335D02*
X0167600Y0241335D01*
X0167600Y0242934D02*
X0126561Y0242934D01*
X0120008Y0244532D02*
X0168592Y0244532D01*
X0170060Y0247600D02*
X0173540Y0247600D01*
X0176000Y0250060D01*
X0176000Y0253540D01*
X0173540Y0256000D01*
X0170060Y0256000D01*
X0167600Y0253540D01*
X0167600Y0250060D01*
X0170060Y0247600D01*
X0169931Y0247729D02*
X0118669Y0247729D01*
X0120267Y0249328D02*
X0168333Y0249328D01*
X0167600Y0250926D02*
X0121000Y0250926D01*
X0121000Y0252525D02*
X0167600Y0252525D01*
X0168183Y0254123D02*
X0120417Y0254123D01*
X0118818Y0255722D02*
X0169782Y0255722D01*
X0173818Y0255722D02*
X0249782Y0255722D01*
X0248183Y0254123D02*
X0175417Y0254123D01*
X0176000Y0252525D02*
X0247600Y0252525D01*
X0247532Y0250926D02*
X0228614Y0250926D01*
X0230212Y0249328D02*
X0245933Y0249328D01*
X0244335Y0247729D02*
X0231000Y0247729D01*
X0231000Y0246131D02*
X0242736Y0246131D01*
X0241138Y0244532D02*
X0230472Y0244532D01*
X0228873Y0242934D02*
X0239539Y0242934D01*
X0237941Y0241335D02*
X0176000Y0241335D01*
X0176000Y0242934D02*
X0224727Y0242934D01*
X0223797Y0239737D02*
X0175676Y0239737D01*
X0174078Y0238138D02*
X0222600Y0238138D01*
X0226800Y0236800D02*
X0226800Y0226800D01*
X0244300Y0244300D01*
X0246800Y0241800D01*
X0261800Y0241800D01*
X0271800Y0251800D01*
X0281800Y0251800D01*
X0275641Y0247729D02*
X0271123Y0247729D01*
X0269525Y0246131D02*
X0276151Y0246131D01*
X0275724Y0245954D02*
X0274346Y0244576D01*
X0273600Y0242775D01*
X0273600Y0240825D01*
X0274346Y0239024D01*
X0275724Y0237646D01*
X0277525Y0236900D01*
X0286075Y0236900D01*
X0287876Y0237646D01*
X0289254Y0239024D01*
X0290000Y0240825D01*
X0290000Y0242775D01*
X0289254Y0244576D01*
X0287876Y0245954D01*
X0286075Y0246700D01*
X0277525Y0246700D01*
X0275724Y0245954D01*
X0274328Y0244532D02*
X0267926Y0244532D01*
X0266328Y0242934D02*
X0273666Y0242934D01*
X0273600Y0241335D02*
X0264729Y0241335D01*
X0263090Y0239737D02*
X0274051Y0239737D01*
X0275232Y0238138D02*
X0241532Y0238138D01*
X0239934Y0236539D02*
X0277138Y0236539D01*
X0277525Y0236700D02*
X0275724Y0235954D01*
X0274346Y0234576D01*
X0273600Y0232775D01*
X0273600Y0230825D01*
X0274346Y0229024D01*
X0275724Y0227646D01*
X0277525Y0226900D01*
X0281609Y0226900D01*
X0294761Y0213748D01*
X0296084Y0213200D01*
X0356444Y0213200D01*
X0356796Y0213129D01*
X0357153Y0213200D01*
X0357516Y0213200D01*
X0357848Y0213338D01*
X0358201Y0213407D01*
X0358503Y0213609D01*
X0358839Y0213748D01*
X0359094Y0214002D01*
X0371990Y0222600D01*
X0373540Y0222600D01*
X0376000Y0225060D01*
X0376000Y0228540D01*
X0373540Y0231000D01*
X0370060Y0231000D01*
X0367600Y0228540D01*
X0367600Y0228327D01*
X0355710Y0220400D01*
X0298291Y0220400D01*
X0289375Y0229316D01*
X0290000Y0230825D01*
X0290000Y0232775D01*
X0289254Y0234576D01*
X0287876Y0235954D01*
X0286075Y0236700D01*
X0277525Y0236700D01*
X0274711Y0234941D02*
X0238335Y0234941D01*
X0236737Y0233342D02*
X0273835Y0233342D01*
X0273600Y0231744D02*
X0235138Y0231744D01*
X0233540Y0230145D02*
X0273882Y0230145D01*
X0274823Y0228547D02*
X0231941Y0228547D01*
X0230343Y0226948D02*
X0277408Y0226948D01*
X0283159Y0225350D02*
X0229200Y0225350D01*
X0230788Y0223751D02*
X0284757Y0223751D01*
X0286356Y0222153D02*
X0231000Y0222153D01*
X0231000Y0220554D02*
X0287954Y0220554D01*
X0289553Y0218956D02*
X0229896Y0218956D01*
X0228781Y0215759D02*
X0292750Y0215759D01*
X0291151Y0217357D02*
X0184637Y0217357D01*
X0186235Y0215759D02*
X0224819Y0215759D01*
X0223221Y0214160D02*
X0187834Y0214160D01*
X0189432Y0212562D02*
X0222600Y0212562D01*
X0222600Y0210963D02*
X0191031Y0210963D01*
X0192629Y0209365D02*
X0223296Y0209365D01*
X0224400Y0207766D02*
X0194228Y0207766D01*
X0195826Y0206168D02*
X0224400Y0206168D01*
X0224400Y0204569D02*
X0197425Y0204569D01*
X0198159Y0203835D02*
X0198159Y0203835D01*
X0198913Y0202971D02*
X0224400Y0202971D01*
X0222978Y0201372D02*
X0199200Y0201372D01*
X0199200Y0199774D02*
X0221380Y0199774D01*
X0219781Y0198175D02*
X0199200Y0198175D01*
X0199200Y0196577D02*
X0218183Y0196577D01*
X0216584Y0194978D02*
X0209561Y0194978D01*
X0206800Y0191800D02*
X0216800Y0191800D01*
X0226800Y0201800D01*
X0226800Y0211800D01*
X0230304Y0209365D02*
X0378200Y0209365D01*
X0378200Y0210963D02*
X0231000Y0210963D01*
X0231000Y0212562D02*
X0378200Y0212562D01*
X0378200Y0214160D02*
X0359330Y0214160D01*
X0361728Y0215759D02*
X0378200Y0215759D01*
X0378200Y0217357D02*
X0364126Y0217357D01*
X0366524Y0218956D02*
X0378200Y0218956D01*
X0378200Y0220554D02*
X0368922Y0220554D01*
X0371319Y0222153D02*
X0378200Y0222153D01*
X0378200Y0223751D02*
X0374691Y0223751D01*
X0376000Y0225350D02*
X0377600Y0225350D01*
X0377600Y0226948D02*
X0376000Y0226948D01*
X0375993Y0228547D02*
X0377607Y0228547D01*
X0379206Y0230145D02*
X0374394Y0230145D01*
X0369206Y0230145D02*
X0289718Y0230145D01*
X0290000Y0231744D02*
X0345618Y0231744D01*
X0346438Y0231270D02*
X0349312Y0230500D01*
X0352288Y0230500D01*
X0355162Y0231270D01*
X0357738Y0232758D01*
X0359842Y0234862D01*
X0361330Y0237438D01*
X0362100Y0240312D01*
X0362100Y0243288D01*
X0361330Y0246162D01*
X0359842Y0248738D01*
X0357738Y0250842D01*
X0355162Y0252330D01*
X0352288Y0253100D01*
X0349312Y0253100D01*
X0346438Y0252330D01*
X0343862Y0250842D01*
X0341758Y0248738D01*
X0340270Y0246162D01*
X0339500Y0243288D01*
X0339500Y0240312D01*
X0340270Y0237438D01*
X0341758Y0234862D01*
X0343862Y0232758D01*
X0346438Y0231270D01*
X0343277Y0233342D02*
X0289765Y0233342D01*
X0288889Y0234941D02*
X0341712Y0234941D01*
X0340789Y0236539D02*
X0286462Y0236539D01*
X0288368Y0238138D02*
X0340083Y0238138D01*
X0339654Y0239737D02*
X0289549Y0239737D01*
X0290000Y0241335D02*
X0339500Y0241335D01*
X0339500Y0242934D02*
X0289934Y0242934D01*
X0289272Y0244532D02*
X0339833Y0244532D01*
X0340262Y0246131D02*
X0287449Y0246131D01*
X0287959Y0247729D02*
X0341175Y0247729D01*
X0342347Y0249328D02*
X0289380Y0249328D01*
X0290000Y0250926D02*
X0344007Y0250926D01*
X0347165Y0252525D02*
X0290000Y0252525D01*
X0289441Y0254123D02*
X0393780Y0254123D01*
X0392493Y0255722D02*
X0288108Y0255722D01*
X0275492Y0255722D02*
X0263818Y0255722D01*
X0263540Y0256000D02*
X0260060Y0256000D01*
X0257600Y0253540D01*
X0257600Y0250060D01*
X0260060Y0247600D01*
X0263540Y0247600D01*
X0266000Y0250060D01*
X0266000Y0253540D01*
X0263540Y0256000D01*
X0265417Y0254123D02*
X0271137Y0254123D01*
X0269130Y0252525D02*
X0266000Y0252525D01*
X0266000Y0250926D02*
X0267532Y0250926D01*
X0265933Y0249328D02*
X0265267Y0249328D01*
X0264335Y0247729D02*
X0263669Y0247729D01*
X0262736Y0246131D02*
X0249525Y0246131D01*
X0247926Y0244532D02*
X0261138Y0244532D01*
X0259931Y0247729D02*
X0253669Y0247729D01*
X0255267Y0249328D02*
X0258333Y0249328D01*
X0257600Y0250926D02*
X0256000Y0250926D01*
X0256000Y0252525D02*
X0257600Y0252525D01*
X0258183Y0254123D02*
X0255417Y0254123D01*
X0253818Y0255722D02*
X0259782Y0255722D01*
X0251800Y0251800D02*
X0244300Y0244300D01*
X0243131Y0239737D02*
X0245510Y0239737D01*
X0236342Y0239737D02*
X0229803Y0239737D01*
X0231000Y0238138D02*
X0234744Y0238138D01*
X0233145Y0236539D02*
X0231000Y0236539D01*
X0230881Y0234941D02*
X0231547Y0234941D01*
X0229948Y0233342D02*
X0229282Y0233342D01*
X0224400Y0226948D02*
X0175046Y0226948D01*
X0176644Y0225350D02*
X0224400Y0225350D01*
X0222812Y0223751D02*
X0178243Y0223751D01*
X0179841Y0222153D02*
X0222600Y0222153D01*
X0222600Y0220554D02*
X0181440Y0220554D01*
X0183038Y0218956D02*
X0223704Y0218956D01*
X0226800Y0221800D02*
X0226800Y0226800D01*
X0230379Y0214160D02*
X0294348Y0214160D01*
X0298137Y0220554D02*
X0355942Y0220554D01*
X0358339Y0222153D02*
X0296538Y0222153D01*
X0294940Y0223751D02*
X0360737Y0223751D01*
X0363135Y0225350D02*
X0293341Y0225350D01*
X0291743Y0226948D02*
X0365533Y0226948D01*
X0367607Y0228547D02*
X0290144Y0228547D01*
X0274220Y0249328D02*
X0272722Y0249328D01*
X0224986Y0250926D02*
X0176000Y0250926D01*
X0175267Y0249328D02*
X0223388Y0249328D01*
X0222600Y0247729D02*
X0173669Y0247729D01*
X0165060Y0230145D02*
X0163540Y0230145D01*
X0143091Y0204569D02*
X0120253Y0204569D01*
X0121200Y0202971D02*
X0144690Y0202971D01*
X0169400Y0191781D02*
X0052962Y0191781D01*
X0053624Y0190183D02*
X0169400Y0190183D01*
X0169400Y0188584D02*
X0053962Y0188584D01*
X0053962Y0186986D02*
X0169400Y0186986D01*
X0174200Y0182190D02*
X0238796Y0182190D01*
X0237197Y0180592D02*
X0228948Y0180592D01*
X0230547Y0178993D02*
X0235599Y0178993D01*
X0234000Y0177395D02*
X0231000Y0177395D01*
X0231000Y0175796D02*
X0232402Y0175796D01*
X0230803Y0174198D02*
X0230137Y0174198D01*
X0229205Y0172599D02*
X0229200Y0172599D01*
X0232796Y0169402D02*
X0241008Y0169402D01*
X0242606Y0171001D02*
X0234395Y0171001D01*
X0235993Y0172599D02*
X0244205Y0172599D01*
X0245803Y0174198D02*
X0237592Y0174198D01*
X0239190Y0175796D02*
X0247402Y0175796D01*
X0249000Y0177395D02*
X0240789Y0177395D01*
X0242387Y0178993D02*
X0250790Y0178993D01*
X0251800Y0176800D02*
X0226800Y0151800D01*
X0228220Y0156614D02*
X0049622Y0156614D01*
X0050772Y0158212D02*
X0224448Y0158212D01*
X0222849Y0159811D02*
X0051921Y0159811D01*
X0034386Y0174198D02*
X0033624Y0174198D01*
X0033624Y0175796D02*
X0034386Y0175796D01*
X0034386Y0178993D02*
X0033624Y0178993D01*
X0033624Y0180592D02*
X0034386Y0180592D01*
X0040475Y0180592D02*
X0053074Y0180592D01*
X0053074Y0182190D02*
X0051177Y0182190D01*
X0052776Y0183789D02*
X0053074Y0183789D01*
X0053494Y0185387D02*
X0053794Y0185387D01*
X0053074Y0178993D02*
X0040726Y0178993D01*
X0042423Y0182190D02*
X0021600Y0182190D01*
X0021600Y0180592D02*
X0027535Y0180592D01*
X0027283Y0178993D02*
X0021600Y0178993D01*
X0021600Y0183789D02*
X0040824Y0183789D01*
X0040106Y0185387D02*
X0021600Y0185387D01*
X0021600Y0186986D02*
X0039638Y0186986D01*
X0039638Y0188584D02*
X0021600Y0188584D01*
X0021600Y0190183D02*
X0039976Y0190183D01*
X0040638Y0191781D02*
X0021600Y0191781D01*
X0021600Y0193380D02*
X0042109Y0193380D01*
X0045072Y0194978D02*
X0021600Y0194978D01*
X0021600Y0199774D02*
X0053074Y0199774D01*
X0054437Y0205039D02*
X0059214Y0205039D01*
X0059214Y0208820D01*
X0059976Y0208820D01*
X0059976Y0205039D01*
X0064754Y0205039D01*
X0065211Y0205162D01*
X0065622Y0205399D01*
X0065957Y0205734D01*
X0066194Y0206145D01*
X0066317Y0206602D01*
X0066317Y0208820D01*
X0059976Y0208820D01*
X0059976Y0209583D01*
X0059214Y0209583D01*
X0059214Y0213364D01*
X0054437Y0213364D01*
X0053979Y0213241D01*
X0053569Y0213004D01*
X0053482Y0212918D01*
X0053962Y0214076D01*
X0053962Y0216925D01*
X0052872Y0219558D01*
X0050857Y0221573D01*
X0048225Y0222663D01*
X0045375Y0222663D01*
X0042743Y0221573D01*
X0040728Y0219558D01*
X0039638Y0216925D01*
X0039638Y0214076D01*
X0040728Y0211444D01*
X0042743Y0209429D01*
X0045375Y0208339D01*
X0048225Y0208339D01*
X0050857Y0209429D01*
X0052872Y0211444D01*
X0052874Y0211449D01*
X0052874Y0209583D01*
X0059214Y0209583D01*
X0059214Y0208820D01*
X0052874Y0208820D01*
X0052874Y0206602D01*
X0052997Y0206145D01*
X0053234Y0205734D01*
X0053569Y0205399D01*
X0053979Y0205162D01*
X0054437Y0205039D01*
X0052990Y0206168D02*
X0021600Y0206168D01*
X0021600Y0207766D02*
X0052874Y0207766D01*
X0050702Y0209365D02*
X0059214Y0209365D01*
X0059976Y0209365D02*
X0080971Y0209365D01*
X0082569Y0210963D02*
X0066317Y0210963D01*
X0066317Y0211801D02*
X0066194Y0212259D01*
X0065957Y0212669D01*
X0065622Y0213004D01*
X0065211Y0213241D01*
X0064754Y0213364D01*
X0059976Y0213364D01*
X0059976Y0209583D01*
X0066317Y0209583D01*
X0066317Y0211801D01*
X0066019Y0212562D02*
X0084168Y0212562D01*
X0084400Y0214160D02*
X0053962Y0214160D01*
X0053962Y0215759D02*
X0084400Y0215759D01*
X0084400Y0217357D02*
X0053783Y0217357D01*
X0053121Y0218956D02*
X0084400Y0218956D01*
X0084400Y0220554D02*
X0051875Y0220554D01*
X0049456Y0222153D02*
X0084400Y0222153D01*
X0084400Y0223751D02*
X0021600Y0223751D01*
X0021600Y0222153D02*
X0044144Y0222153D01*
X0041725Y0220554D02*
X0021600Y0220554D01*
X0021600Y0218956D02*
X0040479Y0218956D01*
X0039817Y0217357D02*
X0021600Y0217357D01*
X0021600Y0215759D02*
X0039638Y0215759D01*
X0039638Y0214160D02*
X0021600Y0214160D01*
X0021600Y0212562D02*
X0040265Y0212562D01*
X0041209Y0210963D02*
X0021600Y0210963D01*
X0021600Y0209365D02*
X0042898Y0209365D01*
X0052391Y0210963D02*
X0052874Y0210963D01*
X0059214Y0210963D02*
X0059976Y0210963D01*
X0059976Y0212562D02*
X0059214Y0212562D01*
X0059214Y0207766D02*
X0059976Y0207766D01*
X0059976Y0206168D02*
X0059214Y0206168D01*
X0066200Y0206168D02*
X0077774Y0206168D01*
X0079372Y0207766D02*
X0066317Y0207766D01*
X0072978Y0201372D02*
X0021600Y0201372D01*
X0021600Y0202971D02*
X0074577Y0202971D01*
X0076175Y0204569D02*
X0021600Y0204569D01*
X0021600Y0225350D02*
X0084400Y0225350D01*
X0084400Y0226948D02*
X0021600Y0226948D01*
X0021600Y0228547D02*
X0084400Y0228547D01*
X0084400Y0230145D02*
X0021600Y0230145D01*
X0021600Y0231744D02*
X0084400Y0231744D01*
X0084400Y0233342D02*
X0021600Y0233342D01*
X0021600Y0234941D02*
X0084400Y0234941D01*
X0084400Y0236539D02*
X0021600Y0236539D01*
X0021600Y0238138D02*
X0084400Y0238138D01*
X0082924Y0239737D02*
X0021600Y0239737D01*
X0021600Y0241335D02*
X0082600Y0241335D01*
X0082600Y0242934D02*
X0021600Y0242934D01*
X0021600Y0244532D02*
X0083592Y0244532D01*
X0112600Y0250926D02*
X0029102Y0250926D01*
X0032933Y0252525D02*
X0112600Y0252525D01*
X0113183Y0254123D02*
X0034820Y0254123D01*
X0036107Y0255722D02*
X0114782Y0255722D01*
X0113333Y0249328D02*
X0021600Y0249328D01*
X0021600Y0250926D02*
X0024498Y0250926D01*
X0037030Y0257320D02*
X0391570Y0257320D01*
X0391081Y0258919D02*
X0037519Y0258919D01*
X0037899Y0260517D02*
X0390701Y0260517D01*
X0390701Y0262116D02*
X0037899Y0262116D01*
X0037778Y0263714D02*
X0390822Y0263714D01*
X0391250Y0265313D02*
X0037350Y0265313D01*
X0036665Y0266911D02*
X0391935Y0266911D01*
X0395667Y0252525D02*
X0354435Y0252525D01*
X0357593Y0250926D02*
X0399498Y0250926D01*
X0404102Y0250926D02*
X0405701Y0250926D01*
X0405701Y0249328D02*
X0359253Y0249328D01*
X0360425Y0247729D02*
X0405701Y0247729D01*
X0405701Y0246131D02*
X0361338Y0246131D01*
X0361767Y0244532D02*
X0405701Y0244532D01*
X0405701Y0242934D02*
X0362100Y0242934D01*
X0362100Y0241335D02*
X0405701Y0241335D01*
X0405701Y0239737D02*
X0361946Y0239737D01*
X0361517Y0238138D02*
X0405701Y0238138D01*
X0405701Y0236539D02*
X0360811Y0236539D01*
X0359888Y0234941D02*
X0405701Y0234941D01*
X0405701Y0233342D02*
X0358323Y0233342D01*
X0355982Y0231744D02*
X0405701Y0231744D01*
X0405701Y0230145D02*
X0384394Y0230145D01*
X0385993Y0228547D02*
X0405701Y0228547D01*
X0405701Y0226948D02*
X0386000Y0226948D01*
X0386000Y0225350D02*
X0405701Y0225350D01*
X0405701Y0223751D02*
X0385400Y0223751D01*
X0385400Y0222153D02*
X0405701Y0222153D01*
X0405701Y0220554D02*
X0385400Y0220554D01*
X0385400Y0218956D02*
X0405701Y0218956D01*
X0405701Y0217357D02*
X0385400Y0217357D01*
X0385400Y0215759D02*
X0405701Y0215759D01*
X0405701Y0214160D02*
X0385400Y0214160D01*
X0385400Y0212562D02*
X0405701Y0212562D01*
X0405701Y0210963D02*
X0385400Y0210963D01*
X0385400Y0209365D02*
X0405701Y0209365D01*
X0405701Y0207766D02*
X0385400Y0207766D01*
X0385400Y0206168D02*
X0405701Y0206168D01*
X0405701Y0204569D02*
X0385400Y0204569D01*
X0385400Y0202971D02*
X0405701Y0202971D01*
X0405701Y0201372D02*
X0385400Y0201372D01*
X0385400Y0199774D02*
X0405701Y0199774D01*
X0405701Y0198175D02*
X0385400Y0198175D01*
X0385400Y0196577D02*
X0405701Y0196577D01*
X0405701Y0194978D02*
X0385400Y0194978D01*
X0385400Y0193380D02*
X0405701Y0193380D01*
X0405701Y0191781D02*
X0385400Y0191781D01*
X0385400Y0190183D02*
X0405701Y0190183D01*
X0405701Y0188584D02*
X0385400Y0188584D01*
X0385400Y0186986D02*
X0405701Y0186986D01*
X0405701Y0185387D02*
X0385400Y0185387D01*
X0385400Y0183789D02*
X0405701Y0183789D01*
X0405701Y0182190D02*
X0385400Y0182190D01*
X0385400Y0180592D02*
X0405701Y0180592D01*
X0405701Y0178993D02*
X0385400Y0178993D01*
X0385400Y0177395D02*
X0405701Y0177395D01*
X0378200Y0198175D02*
X0289834Y0198175D01*
X0289056Y0199774D02*
X0378200Y0199774D01*
X0378200Y0201372D02*
X0286866Y0201372D01*
X0281800Y0196800D02*
X0256800Y0196800D01*
X0226800Y0166800D01*
X0226800Y0176800D01*
X0229728Y0183789D02*
X0240395Y0183789D01*
X0241993Y0185387D02*
X0231000Y0185387D01*
X0231000Y0186986D02*
X0243592Y0186986D01*
X0245190Y0188584D02*
X0230956Y0188584D01*
X0229357Y0190183D02*
X0246789Y0190183D01*
X0248387Y0191781D02*
X0229200Y0191781D01*
X0229200Y0193380D02*
X0249986Y0193380D01*
X0251584Y0194978D02*
X0229200Y0194978D01*
X0229200Y0196577D02*
X0252600Y0196577D01*
X0252600Y0198175D02*
X0229200Y0198175D01*
X0229200Y0199774D02*
X0253834Y0199774D01*
X0259766Y0199774D02*
X0274544Y0199774D01*
X0276734Y0201372D02*
X0229200Y0201372D01*
X0229200Y0202971D02*
X0378200Y0202971D01*
X0378200Y0204569D02*
X0229200Y0204569D01*
X0229200Y0206168D02*
X0378200Y0206168D01*
X0378200Y0207766D02*
X0229200Y0207766D01*
X0226800Y0201800D02*
X0226800Y0186800D01*
X0222644Y0188584D02*
X0209524Y0188584D01*
X0204076Y0188584D02*
X0199524Y0188584D01*
X0201000Y0190183D02*
X0202600Y0190183D01*
X0202600Y0191781D02*
X0201000Y0191781D01*
X0201000Y0193380D02*
X0202600Y0193380D01*
X0204038Y0194978D02*
X0199561Y0194978D01*
X0196800Y0191800D02*
X0196800Y0201800D01*
X0218577Y0190183D02*
X0224243Y0190183D01*
X0224400Y0191781D02*
X0220175Y0191781D01*
X0221774Y0193380D02*
X0224400Y0193380D01*
X0224400Y0194978D02*
X0223372Y0194978D01*
X0256378Y0175796D02*
X0273612Y0175796D01*
X0273600Y0177395D02*
X0261173Y0177395D01*
X0261000Y0185387D02*
X0269972Y0185387D01*
X0273600Y0186986D02*
X0261000Y0186986D01*
X0260956Y0188584D02*
X0273935Y0188584D01*
X0274953Y0190183D02*
X0259357Y0190183D01*
X0259319Y0193380D02*
X0274991Y0193380D01*
X0239409Y0167803D02*
X0231198Y0167803D01*
X0229599Y0166205D02*
X0237811Y0166205D01*
X0236212Y0164606D02*
X0229933Y0164606D01*
X0231000Y0163008D02*
X0234614Y0163008D01*
X0233015Y0161409D02*
X0231000Y0161409D01*
X0230751Y0159811D02*
X0231417Y0159811D01*
X0229818Y0158212D02*
X0229152Y0158212D01*
X0226800Y0161800D02*
X0226800Y0166800D01*
X0236607Y0158212D02*
X0296054Y0158212D01*
X0293698Y0159811D02*
X0238205Y0159811D01*
X0221800Y0121800D02*
X0229300Y0114300D01*
X0229200Y0110257D02*
X0229949Y0110257D01*
X0210200Y0107060D02*
X0189200Y0107060D01*
X0189200Y0105462D02*
X0209884Y0105462D01*
X0209543Y0103863D02*
X0189200Y0103863D01*
X0189200Y0102265D02*
X0209543Y0102265D01*
X0209543Y0100666D02*
X0189200Y0100666D01*
X0189200Y0099068D02*
X0209543Y0099068D01*
X0200063Y0089476D02*
X0222955Y0089476D01*
X0222600Y0091075D02*
X0189200Y0091075D01*
X0189200Y0092673D02*
X0222600Y0092673D01*
X0223332Y0094272D02*
X0189200Y0094272D01*
X0189200Y0095870D02*
X0224931Y0095870D01*
X0231000Y0092673D02*
X0258600Y0092673D01*
X0258600Y0091075D02*
X0231000Y0091075D01*
X0230416Y0089476D02*
X0259159Y0089476D01*
X0260492Y0087878D02*
X0228818Y0087878D01*
X0226723Y0086279D02*
X0266154Y0086279D01*
X0267219Y0084681D02*
X0225924Y0084681D01*
X0225124Y0083082D02*
X0268285Y0083082D01*
X0269351Y0081484D02*
X0224325Y0081484D01*
X0224654Y0079885D02*
X0270416Y0079885D01*
X0271482Y0078287D02*
X0226000Y0078287D01*
X0226000Y0076688D02*
X0272548Y0076688D01*
X0273612Y0075090D02*
X0259450Y0075090D01*
X0261000Y0073491D02*
X0275271Y0073491D01*
X0278004Y0081484D02*
X0356393Y0081484D01*
X0357991Y0083082D02*
X0276938Y0083082D01*
X0275873Y0084681D02*
X0359590Y0084681D01*
X0361188Y0086279D02*
X0274807Y0086279D01*
X0273741Y0087878D02*
X0362600Y0087878D01*
X0363537Y0089476D02*
X0274441Y0089476D01*
X0275000Y0091075D02*
X0332167Y0091075D01*
X0331438Y0091270D02*
X0334312Y0090500D01*
X0337288Y0090500D01*
X0340162Y0091270D01*
X0342738Y0092758D01*
X0344842Y0094862D01*
X0346330Y0097438D01*
X0347100Y0100312D01*
X0347100Y0103288D01*
X0346330Y0106162D01*
X0344842Y0108738D01*
X0342738Y0110842D01*
X0340162Y0112330D01*
X0337288Y0113100D01*
X0334312Y0113100D01*
X0331438Y0112330D01*
X0328862Y0110842D01*
X0326758Y0108738D01*
X0325270Y0106162D01*
X0324500Y0103288D01*
X0324500Y0100312D01*
X0325270Y0097438D01*
X0326758Y0094862D01*
X0328862Y0092758D01*
X0331438Y0091270D01*
X0329008Y0092673D02*
X0275000Y0092673D01*
X0274380Y0094272D02*
X0327347Y0094272D01*
X0326175Y0095870D02*
X0272959Y0095870D01*
X0272448Y0097469D02*
X0325262Y0097469D01*
X0324834Y0099068D02*
X0274272Y0099068D01*
X0274934Y0100666D02*
X0324500Y0100666D01*
X0324500Y0102265D02*
X0275000Y0102265D01*
X0274549Y0103863D02*
X0324654Y0103863D01*
X0325083Y0105462D02*
X0273368Y0105462D01*
X0271461Y0107060D02*
X0325789Y0107060D01*
X0326712Y0108659D02*
X0273888Y0108659D01*
X0274765Y0110257D02*
X0328276Y0110257D01*
X0330617Y0111856D02*
X0275000Y0111856D01*
X0274719Y0113454D02*
X0355055Y0113454D01*
X0353470Y0115053D02*
X0273777Y0115053D01*
X0271193Y0116651D02*
X0353043Y0116651D01*
X0356653Y0111856D02*
X0340983Y0111856D01*
X0343324Y0110257D02*
X0358252Y0110257D01*
X0359850Y0108659D02*
X0344888Y0108659D01*
X0345811Y0107060D02*
X0361449Y0107060D01*
X0363047Y0105462D02*
X0346517Y0105462D01*
X0346946Y0103863D02*
X0364646Y0103863D01*
X0366244Y0102265D02*
X0347100Y0102265D01*
X0347100Y0100666D02*
X0367843Y0100666D01*
X0369441Y0099068D02*
X0346766Y0099068D01*
X0346338Y0097469D02*
X0371040Y0097469D01*
X0372638Y0095870D02*
X0345425Y0095870D01*
X0344253Y0094272D02*
X0373200Y0094272D01*
X0373200Y0092673D02*
X0342592Y0092673D01*
X0339433Y0091075D02*
X0373200Y0091075D01*
X0373200Y0089476D02*
X0370063Y0089476D01*
X0371000Y0087878D02*
X0372600Y0087878D01*
X0372600Y0086279D02*
X0371000Y0086279D01*
X0370621Y0084681D02*
X0372979Y0084681D01*
X0373200Y0083082D02*
X0369022Y0083082D01*
X0366575Y0081484D02*
X0373200Y0081484D01*
X0373200Y0079885D02*
X0364977Y0079885D01*
X0363378Y0078287D02*
X0373200Y0078287D01*
X0373200Y0076688D02*
X0361780Y0076688D01*
X0360181Y0075090D02*
X0373200Y0075090D01*
X0373200Y0073491D02*
X0358219Y0073491D01*
X0373200Y0071893D02*
X0261000Y0071893D01*
X0261000Y0070294D02*
X0373200Y0070294D01*
X0373200Y0068696D02*
X0259635Y0068696D01*
X0244150Y0075090D02*
X0226000Y0075090D01*
X0224431Y0073491D02*
X0242600Y0073491D01*
X0221800Y0076800D02*
X0221800Y0081800D01*
X0217123Y0083082D02*
X0199022Y0083082D01*
X0189200Y0097469D02*
X0261152Y0097469D01*
X0222156Y0087878D02*
X0219116Y0087878D01*
X0220715Y0086279D02*
X0221356Y0086279D01*
X0221800Y0066800D02*
X0221800Y0061800D01*
X0236800Y0046800D01*
X0235555Y0044718D02*
X0224822Y0044718D01*
X0224200Y0046317D02*
X0233889Y0046317D01*
X0232291Y0047915D02*
X0224200Y0047915D01*
X0224200Y0049514D02*
X0230692Y0049514D01*
X0229094Y0051112D02*
X0224200Y0051112D01*
X0224200Y0052711D02*
X0227495Y0052711D01*
X0225897Y0054309D02*
X0224200Y0054309D01*
X0224200Y0055908D02*
X0224298Y0055908D01*
X0235882Y0051112D02*
X0237718Y0051112D01*
X0221800Y0041800D02*
X0221800Y0066800D01*
X0274711Y0035127D02*
X0364187Y0035127D01*
X0362600Y0033529D02*
X0275163Y0033529D01*
X0276761Y0031930D02*
X0361839Y0031930D01*
X0360240Y0030332D02*
X0278360Y0030332D01*
X0279958Y0028733D02*
X0358642Y0028733D01*
X0357043Y0027134D02*
X0281557Y0027134D01*
X0283155Y0025536D02*
X0355445Y0025536D01*
X0340951Y0036726D02*
X0373200Y0036726D01*
X0373200Y0038324D02*
X0343305Y0038324D01*
X0344877Y0039923D02*
X0373200Y0039923D01*
X0373200Y0041521D02*
X0345800Y0041521D01*
X0346512Y0043120D02*
X0373200Y0043120D01*
X0373200Y0044718D02*
X0346941Y0044718D01*
X0347100Y0046317D02*
X0373200Y0046317D01*
X0373200Y0047915D02*
X0347100Y0047915D01*
X0346771Y0049514D02*
X0373200Y0049514D01*
X0373200Y0051112D02*
X0346343Y0051112D01*
X0345436Y0052711D02*
X0373200Y0052711D01*
X0373200Y0054309D02*
X0344271Y0054309D01*
X0342625Y0055908D02*
X0373200Y0055908D01*
X0373200Y0057506D02*
X0339504Y0057506D01*
X0369413Y0035127D02*
X0373200Y0035127D01*
X0372600Y0033529D02*
X0371000Y0033529D01*
X0371000Y0031930D02*
X0372600Y0031930D01*
X0372600Y0030332D02*
X0371000Y0030332D01*
X0369673Y0028733D02*
X0373927Y0028733D01*
X0401453Y0031930D02*
X0405701Y0031930D01*
X0405701Y0030332D02*
X0403965Y0030332D01*
X0405564Y0028733D02*
X0405701Y0028733D01*
X0384583Y0118250D02*
X0383820Y0118250D01*
X0383820Y0119848D02*
X0384583Y0119848D01*
X0384583Y0121447D02*
X0383820Y0121447D01*
X0383820Y0123045D02*
X0384583Y0123045D01*
X0383820Y0124386D02*
X0380039Y0124386D01*
X0380039Y0129163D01*
X0380162Y0129621D01*
X0380399Y0130031D01*
X0380734Y0130366D01*
X0381145Y0130603D01*
X0381602Y0130726D01*
X0383820Y0130726D01*
X0383820Y0124386D01*
X0383820Y0124644D02*
X0384583Y0124644D01*
X0384583Y0126242D02*
X0383820Y0126242D01*
X0383820Y0127841D02*
X0384583Y0127841D01*
X0384583Y0129439D02*
X0383820Y0129439D01*
X0386134Y0131038D02*
X0375991Y0131038D01*
X0375991Y0132636D02*
X0384536Y0132636D01*
X0383811Y0134235D02*
X0375991Y0134235D01*
X0375991Y0135833D02*
X0383339Y0135833D01*
X0383339Y0137432D02*
X0375991Y0137432D01*
X0375991Y0139030D02*
X0383672Y0139030D01*
X0384334Y0140629D02*
X0375991Y0140629D01*
X0375991Y0142227D02*
X0385799Y0142227D01*
X0378200Y0151818D02*
X0356474Y0151818D01*
X0356474Y0150220D02*
X0371240Y0150220D01*
X0369248Y0148621D02*
X0356474Y0148621D01*
X0356474Y0147023D02*
X0368791Y0147023D01*
X0368791Y0145424D02*
X0356474Y0145424D01*
X0356263Y0143826D02*
X0361188Y0143826D01*
X0364696Y0143826D02*
X0368791Y0143826D01*
X0368791Y0142227D02*
X0367643Y0142227D01*
X0352693Y0143826D02*
X0351931Y0143826D01*
X0351931Y0145424D02*
X0352693Y0145424D01*
X0352693Y0147023D02*
X0351931Y0147023D01*
X0351931Y0148621D02*
X0352693Y0148621D01*
X0352693Y0150220D02*
X0351931Y0150220D01*
X0351931Y0151818D02*
X0352693Y0151818D01*
X0352693Y0153417D02*
X0351931Y0153417D01*
X0351931Y0155015D02*
X0352693Y0155015D01*
X0356404Y0155015D02*
X0378200Y0155015D01*
X0378200Y0153417D02*
X0356474Y0153417D01*
X0367308Y0131038D02*
X0368791Y0131038D01*
X0368428Y0129439D02*
X0360605Y0129439D01*
X0360605Y0127841D02*
X0368428Y0127841D01*
X0368428Y0126242D02*
X0360605Y0126242D01*
X0360605Y0124644D02*
X0368428Y0124644D01*
X0368428Y0123045D02*
X0360605Y0123045D01*
X0360605Y0121447D02*
X0368428Y0121447D01*
X0368428Y0119848D02*
X0360605Y0119848D01*
X0360442Y0118250D02*
X0368599Y0118250D01*
X0376182Y0118250D02*
X0380242Y0118250D01*
X0380039Y0119848D02*
X0376353Y0119848D01*
X0376353Y0121447D02*
X0380039Y0121447D01*
X0380039Y0123045D02*
X0376353Y0123045D01*
X0376353Y0124644D02*
X0380039Y0124644D01*
X0380039Y0126242D02*
X0376353Y0126242D01*
X0376353Y0127841D02*
X0380039Y0127841D01*
X0380113Y0129439D02*
X0376353Y0129439D01*
X0371800Y0124595D02*
X0372391Y0124005D01*
X0171800Y0176800D02*
X0171800Y0196800D01*
X0114202Y0198175D02*
X0076569Y0198175D01*
X0078168Y0199774D02*
X0112604Y0199774D01*
X0112400Y0201372D02*
X0079766Y0201372D01*
X0081365Y0202971D02*
X0112400Y0202971D01*
X0113347Y0204569D02*
X0082963Y0204569D01*
X0084562Y0206168D02*
X0114945Y0206168D01*
X0114894Y0207766D02*
X0086160Y0207766D01*
X0042600Y0132636D02*
X0021600Y0132636D01*
X0021600Y0131038D02*
X0042600Y0131038D01*
X0043221Y0129439D02*
X0021600Y0129439D01*
X0021600Y0127841D02*
X0044820Y0127841D01*
X0022147Y0031930D02*
X0021600Y0031930D01*
D18*
X0046800Y0056800D02*
X0091800Y0056800D01*
X0096800Y0056800D01*
X0111800Y0056800D01*
X0131800Y0036800D01*
X0208800Y0036800D01*
X0213800Y0041800D01*
X0213800Y0046800D01*
X0211800Y0036800D02*
X0221800Y0031800D01*
X0266800Y0036800D02*
X0281800Y0021800D01*
X0356800Y0021800D01*
X0366800Y0031800D01*
X0376800Y0031800D02*
X0376800Y0086800D01*
X0376800Y0096800D01*
X0356800Y0116800D01*
X0356643Y0116800D01*
X0356643Y0124005D01*
X0372391Y0124005D02*
X0372391Y0146800D01*
X0381800Y0146800D01*
X0381800Y0171800D01*
X0381800Y0226800D01*
X0371800Y0226800D02*
X0356800Y0216800D01*
X0296800Y0216800D01*
X0281800Y0231800D01*
X0281800Y0176800D02*
X0296800Y0161800D01*
X0366800Y0161800D01*
X0371800Y0171800D01*
X0266800Y0091800D02*
X0276800Y0076800D01*
X0356800Y0076800D01*
X0366800Y0086800D01*
X0226800Y0151800D02*
X0221800Y0151800D01*
X0213800Y0141800D01*
X0213800Y0101800D01*
D19*
X0211800Y0036800D02*
X0208800Y0036800D01*
D20*
X0213800Y0046800D03*
X0213800Y0101800D03*
M02*
