G75*
%MOIN*%
%OFA0B0*%
%FSLAX25Y25*%
%IPPOS*%
%LPD*%
%AMOC8*
5,1,8,0,0,1.08239X$1,22.5*
%
%ADD10C,0.00000*%
%ADD11OC8,0.05200*%
%ADD12C,0.05200*%
%ADD13C,0.06000*%
%ADD14C,0.06600*%
%ADD15C,0.01600*%
%ADD16C,0.04000*%
%ADD17R,0.05315X0.05315*%
D10*
X0016800Y0011800D02*
X0016800Y0271761D01*
X0410501Y0271761D01*
X0410501Y0011800D01*
X0016800Y0011800D01*
X0020501Y0021800D02*
X0020503Y0021958D01*
X0020509Y0022116D01*
X0020519Y0022274D01*
X0020533Y0022432D01*
X0020551Y0022589D01*
X0020572Y0022746D01*
X0020598Y0022902D01*
X0020628Y0023058D01*
X0020661Y0023213D01*
X0020699Y0023366D01*
X0020740Y0023519D01*
X0020785Y0023671D01*
X0020834Y0023822D01*
X0020887Y0023971D01*
X0020943Y0024119D01*
X0021003Y0024265D01*
X0021067Y0024410D01*
X0021135Y0024553D01*
X0021206Y0024695D01*
X0021280Y0024835D01*
X0021358Y0024972D01*
X0021440Y0025108D01*
X0021524Y0025242D01*
X0021613Y0025373D01*
X0021704Y0025502D01*
X0021799Y0025629D01*
X0021896Y0025754D01*
X0021997Y0025876D01*
X0022101Y0025995D01*
X0022208Y0026112D01*
X0022318Y0026226D01*
X0022431Y0026337D01*
X0022546Y0026446D01*
X0022664Y0026551D01*
X0022785Y0026653D01*
X0022908Y0026753D01*
X0023034Y0026849D01*
X0023162Y0026942D01*
X0023292Y0027032D01*
X0023425Y0027118D01*
X0023560Y0027202D01*
X0023696Y0027281D01*
X0023835Y0027358D01*
X0023976Y0027430D01*
X0024118Y0027500D01*
X0024262Y0027565D01*
X0024408Y0027627D01*
X0024555Y0027685D01*
X0024704Y0027740D01*
X0024854Y0027791D01*
X0025005Y0027838D01*
X0025157Y0027881D01*
X0025310Y0027920D01*
X0025465Y0027956D01*
X0025620Y0027987D01*
X0025776Y0028015D01*
X0025932Y0028039D01*
X0026089Y0028059D01*
X0026247Y0028075D01*
X0026404Y0028087D01*
X0026563Y0028095D01*
X0026721Y0028099D01*
X0026879Y0028099D01*
X0027037Y0028095D01*
X0027196Y0028087D01*
X0027353Y0028075D01*
X0027511Y0028059D01*
X0027668Y0028039D01*
X0027824Y0028015D01*
X0027980Y0027987D01*
X0028135Y0027956D01*
X0028290Y0027920D01*
X0028443Y0027881D01*
X0028595Y0027838D01*
X0028746Y0027791D01*
X0028896Y0027740D01*
X0029045Y0027685D01*
X0029192Y0027627D01*
X0029338Y0027565D01*
X0029482Y0027500D01*
X0029624Y0027430D01*
X0029765Y0027358D01*
X0029904Y0027281D01*
X0030040Y0027202D01*
X0030175Y0027118D01*
X0030308Y0027032D01*
X0030438Y0026942D01*
X0030566Y0026849D01*
X0030692Y0026753D01*
X0030815Y0026653D01*
X0030936Y0026551D01*
X0031054Y0026446D01*
X0031169Y0026337D01*
X0031282Y0026226D01*
X0031392Y0026112D01*
X0031499Y0025995D01*
X0031603Y0025876D01*
X0031704Y0025754D01*
X0031801Y0025629D01*
X0031896Y0025502D01*
X0031987Y0025373D01*
X0032076Y0025242D01*
X0032160Y0025108D01*
X0032242Y0024972D01*
X0032320Y0024835D01*
X0032394Y0024695D01*
X0032465Y0024553D01*
X0032533Y0024410D01*
X0032597Y0024265D01*
X0032657Y0024119D01*
X0032713Y0023971D01*
X0032766Y0023822D01*
X0032815Y0023671D01*
X0032860Y0023519D01*
X0032901Y0023366D01*
X0032939Y0023213D01*
X0032972Y0023058D01*
X0033002Y0022902D01*
X0033028Y0022746D01*
X0033049Y0022589D01*
X0033067Y0022432D01*
X0033081Y0022274D01*
X0033091Y0022116D01*
X0033097Y0021958D01*
X0033099Y0021800D01*
X0033097Y0021642D01*
X0033091Y0021484D01*
X0033081Y0021326D01*
X0033067Y0021168D01*
X0033049Y0021011D01*
X0033028Y0020854D01*
X0033002Y0020698D01*
X0032972Y0020542D01*
X0032939Y0020387D01*
X0032901Y0020234D01*
X0032860Y0020081D01*
X0032815Y0019929D01*
X0032766Y0019778D01*
X0032713Y0019629D01*
X0032657Y0019481D01*
X0032597Y0019335D01*
X0032533Y0019190D01*
X0032465Y0019047D01*
X0032394Y0018905D01*
X0032320Y0018765D01*
X0032242Y0018628D01*
X0032160Y0018492D01*
X0032076Y0018358D01*
X0031987Y0018227D01*
X0031896Y0018098D01*
X0031801Y0017971D01*
X0031704Y0017846D01*
X0031603Y0017724D01*
X0031499Y0017605D01*
X0031392Y0017488D01*
X0031282Y0017374D01*
X0031169Y0017263D01*
X0031054Y0017154D01*
X0030936Y0017049D01*
X0030815Y0016947D01*
X0030692Y0016847D01*
X0030566Y0016751D01*
X0030438Y0016658D01*
X0030308Y0016568D01*
X0030175Y0016482D01*
X0030040Y0016398D01*
X0029904Y0016319D01*
X0029765Y0016242D01*
X0029624Y0016170D01*
X0029482Y0016100D01*
X0029338Y0016035D01*
X0029192Y0015973D01*
X0029045Y0015915D01*
X0028896Y0015860D01*
X0028746Y0015809D01*
X0028595Y0015762D01*
X0028443Y0015719D01*
X0028290Y0015680D01*
X0028135Y0015644D01*
X0027980Y0015613D01*
X0027824Y0015585D01*
X0027668Y0015561D01*
X0027511Y0015541D01*
X0027353Y0015525D01*
X0027196Y0015513D01*
X0027037Y0015505D01*
X0026879Y0015501D01*
X0026721Y0015501D01*
X0026563Y0015505D01*
X0026404Y0015513D01*
X0026247Y0015525D01*
X0026089Y0015541D01*
X0025932Y0015561D01*
X0025776Y0015585D01*
X0025620Y0015613D01*
X0025465Y0015644D01*
X0025310Y0015680D01*
X0025157Y0015719D01*
X0025005Y0015762D01*
X0024854Y0015809D01*
X0024704Y0015860D01*
X0024555Y0015915D01*
X0024408Y0015973D01*
X0024262Y0016035D01*
X0024118Y0016100D01*
X0023976Y0016170D01*
X0023835Y0016242D01*
X0023696Y0016319D01*
X0023560Y0016398D01*
X0023425Y0016482D01*
X0023292Y0016568D01*
X0023162Y0016658D01*
X0023034Y0016751D01*
X0022908Y0016847D01*
X0022785Y0016947D01*
X0022664Y0017049D01*
X0022546Y0017154D01*
X0022431Y0017263D01*
X0022318Y0017374D01*
X0022208Y0017488D01*
X0022101Y0017605D01*
X0021997Y0017724D01*
X0021896Y0017846D01*
X0021799Y0017971D01*
X0021704Y0018098D01*
X0021613Y0018227D01*
X0021524Y0018358D01*
X0021440Y0018492D01*
X0021358Y0018628D01*
X0021280Y0018765D01*
X0021206Y0018905D01*
X0021135Y0019047D01*
X0021067Y0019190D01*
X0021003Y0019335D01*
X0020943Y0019481D01*
X0020887Y0019629D01*
X0020834Y0019778D01*
X0020785Y0019929D01*
X0020740Y0020081D01*
X0020699Y0020234D01*
X0020661Y0020387D01*
X0020628Y0020542D01*
X0020598Y0020698D01*
X0020572Y0020854D01*
X0020551Y0021011D01*
X0020533Y0021168D01*
X0020519Y0021326D01*
X0020509Y0021484D01*
X0020503Y0021642D01*
X0020501Y0021800D01*
X0044438Y0187942D02*
X0044440Y0188039D01*
X0044446Y0188136D01*
X0044456Y0188232D01*
X0044470Y0188328D01*
X0044488Y0188424D01*
X0044509Y0188518D01*
X0044535Y0188612D01*
X0044564Y0188704D01*
X0044598Y0188795D01*
X0044634Y0188885D01*
X0044675Y0188973D01*
X0044719Y0189059D01*
X0044767Y0189144D01*
X0044818Y0189226D01*
X0044872Y0189307D01*
X0044930Y0189385D01*
X0044991Y0189460D01*
X0045054Y0189533D01*
X0045121Y0189604D01*
X0045191Y0189671D01*
X0045263Y0189736D01*
X0045338Y0189797D01*
X0045416Y0189856D01*
X0045495Y0189911D01*
X0045577Y0189963D01*
X0045661Y0190011D01*
X0045747Y0190056D01*
X0045835Y0190098D01*
X0045924Y0190136D01*
X0046015Y0190170D01*
X0046107Y0190200D01*
X0046200Y0190227D01*
X0046295Y0190249D01*
X0046390Y0190268D01*
X0046486Y0190283D01*
X0046582Y0190294D01*
X0046679Y0190301D01*
X0046776Y0190304D01*
X0046873Y0190303D01*
X0046970Y0190298D01*
X0047066Y0190289D01*
X0047162Y0190276D01*
X0047258Y0190259D01*
X0047353Y0190238D01*
X0047446Y0190214D01*
X0047539Y0190185D01*
X0047631Y0190153D01*
X0047721Y0190117D01*
X0047809Y0190078D01*
X0047896Y0190034D01*
X0047981Y0189988D01*
X0048064Y0189937D01*
X0048145Y0189884D01*
X0048223Y0189827D01*
X0048300Y0189767D01*
X0048373Y0189704D01*
X0048444Y0189638D01*
X0048512Y0189569D01*
X0048578Y0189497D01*
X0048640Y0189423D01*
X0048699Y0189346D01*
X0048755Y0189267D01*
X0048808Y0189185D01*
X0048858Y0189102D01*
X0048903Y0189016D01*
X0048946Y0188929D01*
X0048985Y0188840D01*
X0049020Y0188750D01*
X0049051Y0188658D01*
X0049078Y0188565D01*
X0049102Y0188471D01*
X0049122Y0188376D01*
X0049138Y0188280D01*
X0049150Y0188184D01*
X0049158Y0188087D01*
X0049162Y0187990D01*
X0049162Y0187894D01*
X0049158Y0187797D01*
X0049150Y0187700D01*
X0049138Y0187604D01*
X0049122Y0187508D01*
X0049102Y0187413D01*
X0049078Y0187319D01*
X0049051Y0187226D01*
X0049020Y0187134D01*
X0048985Y0187044D01*
X0048946Y0186955D01*
X0048903Y0186868D01*
X0048858Y0186782D01*
X0048808Y0186699D01*
X0048755Y0186617D01*
X0048699Y0186538D01*
X0048640Y0186461D01*
X0048578Y0186387D01*
X0048512Y0186315D01*
X0048444Y0186246D01*
X0048373Y0186180D01*
X0048300Y0186117D01*
X0048223Y0186057D01*
X0048145Y0186000D01*
X0048064Y0185947D01*
X0047981Y0185896D01*
X0047896Y0185850D01*
X0047809Y0185806D01*
X0047721Y0185767D01*
X0047631Y0185731D01*
X0047539Y0185699D01*
X0047446Y0185670D01*
X0047353Y0185646D01*
X0047258Y0185625D01*
X0047162Y0185608D01*
X0047066Y0185595D01*
X0046970Y0185586D01*
X0046873Y0185581D01*
X0046776Y0185580D01*
X0046679Y0185583D01*
X0046582Y0185590D01*
X0046486Y0185601D01*
X0046390Y0185616D01*
X0046295Y0185635D01*
X0046200Y0185657D01*
X0046107Y0185684D01*
X0046015Y0185714D01*
X0045924Y0185748D01*
X0045835Y0185786D01*
X0045747Y0185828D01*
X0045661Y0185873D01*
X0045577Y0185921D01*
X0045495Y0185973D01*
X0045416Y0186028D01*
X0045338Y0186087D01*
X0045263Y0186148D01*
X0045191Y0186213D01*
X0045121Y0186280D01*
X0045054Y0186351D01*
X0044991Y0186424D01*
X0044930Y0186499D01*
X0044872Y0186577D01*
X0044818Y0186658D01*
X0044767Y0186740D01*
X0044719Y0186825D01*
X0044675Y0186911D01*
X0044634Y0186999D01*
X0044598Y0187089D01*
X0044564Y0187180D01*
X0044535Y0187272D01*
X0044509Y0187366D01*
X0044488Y0187460D01*
X0044470Y0187556D01*
X0044456Y0187652D01*
X0044446Y0187748D01*
X0044440Y0187845D01*
X0044438Y0187942D01*
X0044438Y0215501D02*
X0044440Y0215598D01*
X0044446Y0215695D01*
X0044456Y0215791D01*
X0044470Y0215887D01*
X0044488Y0215983D01*
X0044509Y0216077D01*
X0044535Y0216171D01*
X0044564Y0216263D01*
X0044598Y0216354D01*
X0044634Y0216444D01*
X0044675Y0216532D01*
X0044719Y0216618D01*
X0044767Y0216703D01*
X0044818Y0216785D01*
X0044872Y0216866D01*
X0044930Y0216944D01*
X0044991Y0217019D01*
X0045054Y0217092D01*
X0045121Y0217163D01*
X0045191Y0217230D01*
X0045263Y0217295D01*
X0045338Y0217356D01*
X0045416Y0217415D01*
X0045495Y0217470D01*
X0045577Y0217522D01*
X0045661Y0217570D01*
X0045747Y0217615D01*
X0045835Y0217657D01*
X0045924Y0217695D01*
X0046015Y0217729D01*
X0046107Y0217759D01*
X0046200Y0217786D01*
X0046295Y0217808D01*
X0046390Y0217827D01*
X0046486Y0217842D01*
X0046582Y0217853D01*
X0046679Y0217860D01*
X0046776Y0217863D01*
X0046873Y0217862D01*
X0046970Y0217857D01*
X0047066Y0217848D01*
X0047162Y0217835D01*
X0047258Y0217818D01*
X0047353Y0217797D01*
X0047446Y0217773D01*
X0047539Y0217744D01*
X0047631Y0217712D01*
X0047721Y0217676D01*
X0047809Y0217637D01*
X0047896Y0217593D01*
X0047981Y0217547D01*
X0048064Y0217496D01*
X0048145Y0217443D01*
X0048223Y0217386D01*
X0048300Y0217326D01*
X0048373Y0217263D01*
X0048444Y0217197D01*
X0048512Y0217128D01*
X0048578Y0217056D01*
X0048640Y0216982D01*
X0048699Y0216905D01*
X0048755Y0216826D01*
X0048808Y0216744D01*
X0048858Y0216661D01*
X0048903Y0216575D01*
X0048946Y0216488D01*
X0048985Y0216399D01*
X0049020Y0216309D01*
X0049051Y0216217D01*
X0049078Y0216124D01*
X0049102Y0216030D01*
X0049122Y0215935D01*
X0049138Y0215839D01*
X0049150Y0215743D01*
X0049158Y0215646D01*
X0049162Y0215549D01*
X0049162Y0215453D01*
X0049158Y0215356D01*
X0049150Y0215259D01*
X0049138Y0215163D01*
X0049122Y0215067D01*
X0049102Y0214972D01*
X0049078Y0214878D01*
X0049051Y0214785D01*
X0049020Y0214693D01*
X0048985Y0214603D01*
X0048946Y0214514D01*
X0048903Y0214427D01*
X0048858Y0214341D01*
X0048808Y0214258D01*
X0048755Y0214176D01*
X0048699Y0214097D01*
X0048640Y0214020D01*
X0048578Y0213946D01*
X0048512Y0213874D01*
X0048444Y0213805D01*
X0048373Y0213739D01*
X0048300Y0213676D01*
X0048223Y0213616D01*
X0048145Y0213559D01*
X0048064Y0213506D01*
X0047981Y0213455D01*
X0047896Y0213409D01*
X0047809Y0213365D01*
X0047721Y0213326D01*
X0047631Y0213290D01*
X0047539Y0213258D01*
X0047446Y0213229D01*
X0047353Y0213205D01*
X0047258Y0213184D01*
X0047162Y0213167D01*
X0047066Y0213154D01*
X0046970Y0213145D01*
X0046873Y0213140D01*
X0046776Y0213139D01*
X0046679Y0213142D01*
X0046582Y0213149D01*
X0046486Y0213160D01*
X0046390Y0213175D01*
X0046295Y0213194D01*
X0046200Y0213216D01*
X0046107Y0213243D01*
X0046015Y0213273D01*
X0045924Y0213307D01*
X0045835Y0213345D01*
X0045747Y0213387D01*
X0045661Y0213432D01*
X0045577Y0213480D01*
X0045495Y0213532D01*
X0045416Y0213587D01*
X0045338Y0213646D01*
X0045263Y0213707D01*
X0045191Y0213772D01*
X0045121Y0213839D01*
X0045054Y0213910D01*
X0044991Y0213983D01*
X0044930Y0214058D01*
X0044872Y0214136D01*
X0044818Y0214217D01*
X0044767Y0214299D01*
X0044719Y0214384D01*
X0044675Y0214470D01*
X0044634Y0214558D01*
X0044598Y0214648D01*
X0044564Y0214739D01*
X0044535Y0214831D01*
X0044509Y0214925D01*
X0044488Y0215019D01*
X0044470Y0215115D01*
X0044456Y0215211D01*
X0044446Y0215307D01*
X0044440Y0215404D01*
X0044438Y0215501D01*
X0020501Y0261800D02*
X0020503Y0261958D01*
X0020509Y0262116D01*
X0020519Y0262274D01*
X0020533Y0262432D01*
X0020551Y0262589D01*
X0020572Y0262746D01*
X0020598Y0262902D01*
X0020628Y0263058D01*
X0020661Y0263213D01*
X0020699Y0263366D01*
X0020740Y0263519D01*
X0020785Y0263671D01*
X0020834Y0263822D01*
X0020887Y0263971D01*
X0020943Y0264119D01*
X0021003Y0264265D01*
X0021067Y0264410D01*
X0021135Y0264553D01*
X0021206Y0264695D01*
X0021280Y0264835D01*
X0021358Y0264972D01*
X0021440Y0265108D01*
X0021524Y0265242D01*
X0021613Y0265373D01*
X0021704Y0265502D01*
X0021799Y0265629D01*
X0021896Y0265754D01*
X0021997Y0265876D01*
X0022101Y0265995D01*
X0022208Y0266112D01*
X0022318Y0266226D01*
X0022431Y0266337D01*
X0022546Y0266446D01*
X0022664Y0266551D01*
X0022785Y0266653D01*
X0022908Y0266753D01*
X0023034Y0266849D01*
X0023162Y0266942D01*
X0023292Y0267032D01*
X0023425Y0267118D01*
X0023560Y0267202D01*
X0023696Y0267281D01*
X0023835Y0267358D01*
X0023976Y0267430D01*
X0024118Y0267500D01*
X0024262Y0267565D01*
X0024408Y0267627D01*
X0024555Y0267685D01*
X0024704Y0267740D01*
X0024854Y0267791D01*
X0025005Y0267838D01*
X0025157Y0267881D01*
X0025310Y0267920D01*
X0025465Y0267956D01*
X0025620Y0267987D01*
X0025776Y0268015D01*
X0025932Y0268039D01*
X0026089Y0268059D01*
X0026247Y0268075D01*
X0026404Y0268087D01*
X0026563Y0268095D01*
X0026721Y0268099D01*
X0026879Y0268099D01*
X0027037Y0268095D01*
X0027196Y0268087D01*
X0027353Y0268075D01*
X0027511Y0268059D01*
X0027668Y0268039D01*
X0027824Y0268015D01*
X0027980Y0267987D01*
X0028135Y0267956D01*
X0028290Y0267920D01*
X0028443Y0267881D01*
X0028595Y0267838D01*
X0028746Y0267791D01*
X0028896Y0267740D01*
X0029045Y0267685D01*
X0029192Y0267627D01*
X0029338Y0267565D01*
X0029482Y0267500D01*
X0029624Y0267430D01*
X0029765Y0267358D01*
X0029904Y0267281D01*
X0030040Y0267202D01*
X0030175Y0267118D01*
X0030308Y0267032D01*
X0030438Y0266942D01*
X0030566Y0266849D01*
X0030692Y0266753D01*
X0030815Y0266653D01*
X0030936Y0266551D01*
X0031054Y0266446D01*
X0031169Y0266337D01*
X0031282Y0266226D01*
X0031392Y0266112D01*
X0031499Y0265995D01*
X0031603Y0265876D01*
X0031704Y0265754D01*
X0031801Y0265629D01*
X0031896Y0265502D01*
X0031987Y0265373D01*
X0032076Y0265242D01*
X0032160Y0265108D01*
X0032242Y0264972D01*
X0032320Y0264835D01*
X0032394Y0264695D01*
X0032465Y0264553D01*
X0032533Y0264410D01*
X0032597Y0264265D01*
X0032657Y0264119D01*
X0032713Y0263971D01*
X0032766Y0263822D01*
X0032815Y0263671D01*
X0032860Y0263519D01*
X0032901Y0263366D01*
X0032939Y0263213D01*
X0032972Y0263058D01*
X0033002Y0262902D01*
X0033028Y0262746D01*
X0033049Y0262589D01*
X0033067Y0262432D01*
X0033081Y0262274D01*
X0033091Y0262116D01*
X0033097Y0261958D01*
X0033099Y0261800D01*
X0033097Y0261642D01*
X0033091Y0261484D01*
X0033081Y0261326D01*
X0033067Y0261168D01*
X0033049Y0261011D01*
X0033028Y0260854D01*
X0033002Y0260698D01*
X0032972Y0260542D01*
X0032939Y0260387D01*
X0032901Y0260234D01*
X0032860Y0260081D01*
X0032815Y0259929D01*
X0032766Y0259778D01*
X0032713Y0259629D01*
X0032657Y0259481D01*
X0032597Y0259335D01*
X0032533Y0259190D01*
X0032465Y0259047D01*
X0032394Y0258905D01*
X0032320Y0258765D01*
X0032242Y0258628D01*
X0032160Y0258492D01*
X0032076Y0258358D01*
X0031987Y0258227D01*
X0031896Y0258098D01*
X0031801Y0257971D01*
X0031704Y0257846D01*
X0031603Y0257724D01*
X0031499Y0257605D01*
X0031392Y0257488D01*
X0031282Y0257374D01*
X0031169Y0257263D01*
X0031054Y0257154D01*
X0030936Y0257049D01*
X0030815Y0256947D01*
X0030692Y0256847D01*
X0030566Y0256751D01*
X0030438Y0256658D01*
X0030308Y0256568D01*
X0030175Y0256482D01*
X0030040Y0256398D01*
X0029904Y0256319D01*
X0029765Y0256242D01*
X0029624Y0256170D01*
X0029482Y0256100D01*
X0029338Y0256035D01*
X0029192Y0255973D01*
X0029045Y0255915D01*
X0028896Y0255860D01*
X0028746Y0255809D01*
X0028595Y0255762D01*
X0028443Y0255719D01*
X0028290Y0255680D01*
X0028135Y0255644D01*
X0027980Y0255613D01*
X0027824Y0255585D01*
X0027668Y0255561D01*
X0027511Y0255541D01*
X0027353Y0255525D01*
X0027196Y0255513D01*
X0027037Y0255505D01*
X0026879Y0255501D01*
X0026721Y0255501D01*
X0026563Y0255505D01*
X0026404Y0255513D01*
X0026247Y0255525D01*
X0026089Y0255541D01*
X0025932Y0255561D01*
X0025776Y0255585D01*
X0025620Y0255613D01*
X0025465Y0255644D01*
X0025310Y0255680D01*
X0025157Y0255719D01*
X0025005Y0255762D01*
X0024854Y0255809D01*
X0024704Y0255860D01*
X0024555Y0255915D01*
X0024408Y0255973D01*
X0024262Y0256035D01*
X0024118Y0256100D01*
X0023976Y0256170D01*
X0023835Y0256242D01*
X0023696Y0256319D01*
X0023560Y0256398D01*
X0023425Y0256482D01*
X0023292Y0256568D01*
X0023162Y0256658D01*
X0023034Y0256751D01*
X0022908Y0256847D01*
X0022785Y0256947D01*
X0022664Y0257049D01*
X0022546Y0257154D01*
X0022431Y0257263D01*
X0022318Y0257374D01*
X0022208Y0257488D01*
X0022101Y0257605D01*
X0021997Y0257724D01*
X0021896Y0257846D01*
X0021799Y0257971D01*
X0021704Y0258098D01*
X0021613Y0258227D01*
X0021524Y0258358D01*
X0021440Y0258492D01*
X0021358Y0258628D01*
X0021280Y0258765D01*
X0021206Y0258905D01*
X0021135Y0259047D01*
X0021067Y0259190D01*
X0021003Y0259335D01*
X0020943Y0259481D01*
X0020887Y0259629D01*
X0020834Y0259778D01*
X0020785Y0259929D01*
X0020740Y0260081D01*
X0020699Y0260234D01*
X0020661Y0260387D01*
X0020628Y0260542D01*
X0020598Y0260698D01*
X0020572Y0260854D01*
X0020551Y0261011D01*
X0020533Y0261168D01*
X0020519Y0261326D01*
X0020509Y0261484D01*
X0020503Y0261642D01*
X0020501Y0261800D01*
X0329300Y0101800D02*
X0329302Y0101961D01*
X0329308Y0102121D01*
X0329318Y0102282D01*
X0329332Y0102442D01*
X0329350Y0102602D01*
X0329371Y0102761D01*
X0329397Y0102920D01*
X0329427Y0103078D01*
X0329460Y0103235D01*
X0329498Y0103392D01*
X0329539Y0103547D01*
X0329584Y0103701D01*
X0329633Y0103854D01*
X0329686Y0104006D01*
X0329742Y0104157D01*
X0329803Y0104306D01*
X0329866Y0104454D01*
X0329934Y0104600D01*
X0330005Y0104744D01*
X0330079Y0104886D01*
X0330157Y0105027D01*
X0330239Y0105165D01*
X0330324Y0105302D01*
X0330412Y0105436D01*
X0330504Y0105568D01*
X0330599Y0105698D01*
X0330697Y0105826D01*
X0330798Y0105951D01*
X0330902Y0106073D01*
X0331009Y0106193D01*
X0331119Y0106310D01*
X0331232Y0106425D01*
X0331348Y0106536D01*
X0331467Y0106645D01*
X0331588Y0106750D01*
X0331712Y0106853D01*
X0331838Y0106953D01*
X0331966Y0107049D01*
X0332097Y0107142D01*
X0332231Y0107232D01*
X0332366Y0107319D01*
X0332504Y0107402D01*
X0332643Y0107482D01*
X0332785Y0107558D01*
X0332928Y0107631D01*
X0333073Y0107700D01*
X0333220Y0107766D01*
X0333368Y0107828D01*
X0333518Y0107886D01*
X0333669Y0107941D01*
X0333822Y0107992D01*
X0333976Y0108039D01*
X0334131Y0108082D01*
X0334287Y0108121D01*
X0334443Y0108157D01*
X0334601Y0108188D01*
X0334759Y0108216D01*
X0334918Y0108240D01*
X0335078Y0108260D01*
X0335238Y0108276D01*
X0335398Y0108288D01*
X0335559Y0108296D01*
X0335720Y0108300D01*
X0335880Y0108300D01*
X0336041Y0108296D01*
X0336202Y0108288D01*
X0336362Y0108276D01*
X0336522Y0108260D01*
X0336682Y0108240D01*
X0336841Y0108216D01*
X0336999Y0108188D01*
X0337157Y0108157D01*
X0337313Y0108121D01*
X0337469Y0108082D01*
X0337624Y0108039D01*
X0337778Y0107992D01*
X0337931Y0107941D01*
X0338082Y0107886D01*
X0338232Y0107828D01*
X0338380Y0107766D01*
X0338527Y0107700D01*
X0338672Y0107631D01*
X0338815Y0107558D01*
X0338957Y0107482D01*
X0339096Y0107402D01*
X0339234Y0107319D01*
X0339369Y0107232D01*
X0339503Y0107142D01*
X0339634Y0107049D01*
X0339762Y0106953D01*
X0339888Y0106853D01*
X0340012Y0106750D01*
X0340133Y0106645D01*
X0340252Y0106536D01*
X0340368Y0106425D01*
X0340481Y0106310D01*
X0340591Y0106193D01*
X0340698Y0106073D01*
X0340802Y0105951D01*
X0340903Y0105826D01*
X0341001Y0105698D01*
X0341096Y0105568D01*
X0341188Y0105436D01*
X0341276Y0105302D01*
X0341361Y0105165D01*
X0341443Y0105027D01*
X0341521Y0104886D01*
X0341595Y0104744D01*
X0341666Y0104600D01*
X0341734Y0104454D01*
X0341797Y0104306D01*
X0341858Y0104157D01*
X0341914Y0104006D01*
X0341967Y0103854D01*
X0342016Y0103701D01*
X0342061Y0103547D01*
X0342102Y0103392D01*
X0342140Y0103235D01*
X0342173Y0103078D01*
X0342203Y0102920D01*
X0342229Y0102761D01*
X0342250Y0102602D01*
X0342268Y0102442D01*
X0342282Y0102282D01*
X0342292Y0102121D01*
X0342298Y0101961D01*
X0342300Y0101800D01*
X0342298Y0101639D01*
X0342292Y0101479D01*
X0342282Y0101318D01*
X0342268Y0101158D01*
X0342250Y0100998D01*
X0342229Y0100839D01*
X0342203Y0100680D01*
X0342173Y0100522D01*
X0342140Y0100365D01*
X0342102Y0100208D01*
X0342061Y0100053D01*
X0342016Y0099899D01*
X0341967Y0099746D01*
X0341914Y0099594D01*
X0341858Y0099443D01*
X0341797Y0099294D01*
X0341734Y0099146D01*
X0341666Y0099000D01*
X0341595Y0098856D01*
X0341521Y0098714D01*
X0341443Y0098573D01*
X0341361Y0098435D01*
X0341276Y0098298D01*
X0341188Y0098164D01*
X0341096Y0098032D01*
X0341001Y0097902D01*
X0340903Y0097774D01*
X0340802Y0097649D01*
X0340698Y0097527D01*
X0340591Y0097407D01*
X0340481Y0097290D01*
X0340368Y0097175D01*
X0340252Y0097064D01*
X0340133Y0096955D01*
X0340012Y0096850D01*
X0339888Y0096747D01*
X0339762Y0096647D01*
X0339634Y0096551D01*
X0339503Y0096458D01*
X0339369Y0096368D01*
X0339234Y0096281D01*
X0339096Y0096198D01*
X0338957Y0096118D01*
X0338815Y0096042D01*
X0338672Y0095969D01*
X0338527Y0095900D01*
X0338380Y0095834D01*
X0338232Y0095772D01*
X0338082Y0095714D01*
X0337931Y0095659D01*
X0337778Y0095608D01*
X0337624Y0095561D01*
X0337469Y0095518D01*
X0337313Y0095479D01*
X0337157Y0095443D01*
X0336999Y0095412D01*
X0336841Y0095384D01*
X0336682Y0095360D01*
X0336522Y0095340D01*
X0336362Y0095324D01*
X0336202Y0095312D01*
X0336041Y0095304D01*
X0335880Y0095300D01*
X0335720Y0095300D01*
X0335559Y0095304D01*
X0335398Y0095312D01*
X0335238Y0095324D01*
X0335078Y0095340D01*
X0334918Y0095360D01*
X0334759Y0095384D01*
X0334601Y0095412D01*
X0334443Y0095443D01*
X0334287Y0095479D01*
X0334131Y0095518D01*
X0333976Y0095561D01*
X0333822Y0095608D01*
X0333669Y0095659D01*
X0333518Y0095714D01*
X0333368Y0095772D01*
X0333220Y0095834D01*
X0333073Y0095900D01*
X0332928Y0095969D01*
X0332785Y0096042D01*
X0332643Y0096118D01*
X0332504Y0096198D01*
X0332366Y0096281D01*
X0332231Y0096368D01*
X0332097Y0096458D01*
X0331966Y0096551D01*
X0331838Y0096647D01*
X0331712Y0096747D01*
X0331588Y0096850D01*
X0331467Y0096955D01*
X0331348Y0097064D01*
X0331232Y0097175D01*
X0331119Y0097290D01*
X0331009Y0097407D01*
X0330902Y0097527D01*
X0330798Y0097649D01*
X0330697Y0097774D01*
X0330599Y0097902D01*
X0330504Y0098032D01*
X0330412Y0098164D01*
X0330324Y0098298D01*
X0330239Y0098435D01*
X0330157Y0098573D01*
X0330079Y0098714D01*
X0330005Y0098856D01*
X0329934Y0099000D01*
X0329866Y0099146D01*
X0329803Y0099294D01*
X0329742Y0099443D01*
X0329686Y0099594D01*
X0329633Y0099746D01*
X0329584Y0099899D01*
X0329539Y0100053D01*
X0329498Y0100208D01*
X0329460Y0100365D01*
X0329427Y0100522D01*
X0329397Y0100680D01*
X0329371Y0100839D01*
X0329350Y0100998D01*
X0329332Y0101158D01*
X0329318Y0101318D01*
X0329308Y0101479D01*
X0329302Y0101639D01*
X0329300Y0101800D01*
X0360580Y0136800D02*
X0360582Y0136897D01*
X0360588Y0136994D01*
X0360598Y0137090D01*
X0360612Y0137186D01*
X0360630Y0137282D01*
X0360651Y0137376D01*
X0360677Y0137470D01*
X0360706Y0137562D01*
X0360740Y0137653D01*
X0360776Y0137743D01*
X0360817Y0137831D01*
X0360861Y0137917D01*
X0360909Y0138002D01*
X0360960Y0138084D01*
X0361014Y0138165D01*
X0361072Y0138243D01*
X0361133Y0138318D01*
X0361196Y0138391D01*
X0361263Y0138462D01*
X0361333Y0138529D01*
X0361405Y0138594D01*
X0361480Y0138655D01*
X0361558Y0138714D01*
X0361637Y0138769D01*
X0361719Y0138821D01*
X0361803Y0138869D01*
X0361889Y0138914D01*
X0361977Y0138956D01*
X0362066Y0138994D01*
X0362157Y0139028D01*
X0362249Y0139058D01*
X0362342Y0139085D01*
X0362437Y0139107D01*
X0362532Y0139126D01*
X0362628Y0139141D01*
X0362724Y0139152D01*
X0362821Y0139159D01*
X0362918Y0139162D01*
X0363015Y0139161D01*
X0363112Y0139156D01*
X0363208Y0139147D01*
X0363304Y0139134D01*
X0363400Y0139117D01*
X0363495Y0139096D01*
X0363588Y0139072D01*
X0363681Y0139043D01*
X0363773Y0139011D01*
X0363863Y0138975D01*
X0363951Y0138936D01*
X0364038Y0138892D01*
X0364123Y0138846D01*
X0364206Y0138795D01*
X0364287Y0138742D01*
X0364365Y0138685D01*
X0364442Y0138625D01*
X0364515Y0138562D01*
X0364586Y0138496D01*
X0364654Y0138427D01*
X0364720Y0138355D01*
X0364782Y0138281D01*
X0364841Y0138204D01*
X0364897Y0138125D01*
X0364950Y0138043D01*
X0365000Y0137960D01*
X0365045Y0137874D01*
X0365088Y0137787D01*
X0365127Y0137698D01*
X0365162Y0137608D01*
X0365193Y0137516D01*
X0365220Y0137423D01*
X0365244Y0137329D01*
X0365264Y0137234D01*
X0365280Y0137138D01*
X0365292Y0137042D01*
X0365300Y0136945D01*
X0365304Y0136848D01*
X0365304Y0136752D01*
X0365300Y0136655D01*
X0365292Y0136558D01*
X0365280Y0136462D01*
X0365264Y0136366D01*
X0365244Y0136271D01*
X0365220Y0136177D01*
X0365193Y0136084D01*
X0365162Y0135992D01*
X0365127Y0135902D01*
X0365088Y0135813D01*
X0365045Y0135726D01*
X0365000Y0135640D01*
X0364950Y0135557D01*
X0364897Y0135475D01*
X0364841Y0135396D01*
X0364782Y0135319D01*
X0364720Y0135245D01*
X0364654Y0135173D01*
X0364586Y0135104D01*
X0364515Y0135038D01*
X0364442Y0134975D01*
X0364365Y0134915D01*
X0364287Y0134858D01*
X0364206Y0134805D01*
X0364123Y0134754D01*
X0364038Y0134708D01*
X0363951Y0134664D01*
X0363863Y0134625D01*
X0363773Y0134589D01*
X0363681Y0134557D01*
X0363588Y0134528D01*
X0363495Y0134504D01*
X0363400Y0134483D01*
X0363304Y0134466D01*
X0363208Y0134453D01*
X0363112Y0134444D01*
X0363015Y0134439D01*
X0362918Y0134438D01*
X0362821Y0134441D01*
X0362724Y0134448D01*
X0362628Y0134459D01*
X0362532Y0134474D01*
X0362437Y0134493D01*
X0362342Y0134515D01*
X0362249Y0134542D01*
X0362157Y0134572D01*
X0362066Y0134606D01*
X0361977Y0134644D01*
X0361889Y0134686D01*
X0361803Y0134731D01*
X0361719Y0134779D01*
X0361637Y0134831D01*
X0361558Y0134886D01*
X0361480Y0134945D01*
X0361405Y0135006D01*
X0361333Y0135071D01*
X0361263Y0135138D01*
X0361196Y0135209D01*
X0361133Y0135282D01*
X0361072Y0135357D01*
X0361014Y0135435D01*
X0360960Y0135516D01*
X0360909Y0135598D01*
X0360861Y0135683D01*
X0360817Y0135769D01*
X0360776Y0135857D01*
X0360740Y0135947D01*
X0360706Y0136038D01*
X0360677Y0136130D01*
X0360651Y0136224D01*
X0360630Y0136318D01*
X0360612Y0136414D01*
X0360598Y0136510D01*
X0360588Y0136606D01*
X0360582Y0136703D01*
X0360580Y0136800D01*
X0388139Y0136800D02*
X0388141Y0136897D01*
X0388147Y0136994D01*
X0388157Y0137090D01*
X0388171Y0137186D01*
X0388189Y0137282D01*
X0388210Y0137376D01*
X0388236Y0137470D01*
X0388265Y0137562D01*
X0388299Y0137653D01*
X0388335Y0137743D01*
X0388376Y0137831D01*
X0388420Y0137917D01*
X0388468Y0138002D01*
X0388519Y0138084D01*
X0388573Y0138165D01*
X0388631Y0138243D01*
X0388692Y0138318D01*
X0388755Y0138391D01*
X0388822Y0138462D01*
X0388892Y0138529D01*
X0388964Y0138594D01*
X0389039Y0138655D01*
X0389117Y0138714D01*
X0389196Y0138769D01*
X0389278Y0138821D01*
X0389362Y0138869D01*
X0389448Y0138914D01*
X0389536Y0138956D01*
X0389625Y0138994D01*
X0389716Y0139028D01*
X0389808Y0139058D01*
X0389901Y0139085D01*
X0389996Y0139107D01*
X0390091Y0139126D01*
X0390187Y0139141D01*
X0390283Y0139152D01*
X0390380Y0139159D01*
X0390477Y0139162D01*
X0390574Y0139161D01*
X0390671Y0139156D01*
X0390767Y0139147D01*
X0390863Y0139134D01*
X0390959Y0139117D01*
X0391054Y0139096D01*
X0391147Y0139072D01*
X0391240Y0139043D01*
X0391332Y0139011D01*
X0391422Y0138975D01*
X0391510Y0138936D01*
X0391597Y0138892D01*
X0391682Y0138846D01*
X0391765Y0138795D01*
X0391846Y0138742D01*
X0391924Y0138685D01*
X0392001Y0138625D01*
X0392074Y0138562D01*
X0392145Y0138496D01*
X0392213Y0138427D01*
X0392279Y0138355D01*
X0392341Y0138281D01*
X0392400Y0138204D01*
X0392456Y0138125D01*
X0392509Y0138043D01*
X0392559Y0137960D01*
X0392604Y0137874D01*
X0392647Y0137787D01*
X0392686Y0137698D01*
X0392721Y0137608D01*
X0392752Y0137516D01*
X0392779Y0137423D01*
X0392803Y0137329D01*
X0392823Y0137234D01*
X0392839Y0137138D01*
X0392851Y0137042D01*
X0392859Y0136945D01*
X0392863Y0136848D01*
X0392863Y0136752D01*
X0392859Y0136655D01*
X0392851Y0136558D01*
X0392839Y0136462D01*
X0392823Y0136366D01*
X0392803Y0136271D01*
X0392779Y0136177D01*
X0392752Y0136084D01*
X0392721Y0135992D01*
X0392686Y0135902D01*
X0392647Y0135813D01*
X0392604Y0135726D01*
X0392559Y0135640D01*
X0392509Y0135557D01*
X0392456Y0135475D01*
X0392400Y0135396D01*
X0392341Y0135319D01*
X0392279Y0135245D01*
X0392213Y0135173D01*
X0392145Y0135104D01*
X0392074Y0135038D01*
X0392001Y0134975D01*
X0391924Y0134915D01*
X0391846Y0134858D01*
X0391765Y0134805D01*
X0391682Y0134754D01*
X0391597Y0134708D01*
X0391510Y0134664D01*
X0391422Y0134625D01*
X0391332Y0134589D01*
X0391240Y0134557D01*
X0391147Y0134528D01*
X0391054Y0134504D01*
X0390959Y0134483D01*
X0390863Y0134466D01*
X0390767Y0134453D01*
X0390671Y0134444D01*
X0390574Y0134439D01*
X0390477Y0134438D01*
X0390380Y0134441D01*
X0390283Y0134448D01*
X0390187Y0134459D01*
X0390091Y0134474D01*
X0389996Y0134493D01*
X0389901Y0134515D01*
X0389808Y0134542D01*
X0389716Y0134572D01*
X0389625Y0134606D01*
X0389536Y0134644D01*
X0389448Y0134686D01*
X0389362Y0134731D01*
X0389278Y0134779D01*
X0389196Y0134831D01*
X0389117Y0134886D01*
X0389039Y0134945D01*
X0388964Y0135006D01*
X0388892Y0135071D01*
X0388822Y0135138D01*
X0388755Y0135209D01*
X0388692Y0135282D01*
X0388631Y0135357D01*
X0388573Y0135435D01*
X0388519Y0135516D01*
X0388468Y0135598D01*
X0388420Y0135683D01*
X0388376Y0135769D01*
X0388335Y0135857D01*
X0388299Y0135947D01*
X0388265Y0136038D01*
X0388236Y0136130D01*
X0388210Y0136224D01*
X0388189Y0136318D01*
X0388171Y0136414D01*
X0388157Y0136510D01*
X0388147Y0136606D01*
X0388141Y0136703D01*
X0388139Y0136800D01*
X0344300Y0186800D02*
X0344302Y0186961D01*
X0344308Y0187121D01*
X0344318Y0187282D01*
X0344332Y0187442D01*
X0344350Y0187602D01*
X0344371Y0187761D01*
X0344397Y0187920D01*
X0344427Y0188078D01*
X0344460Y0188235D01*
X0344498Y0188392D01*
X0344539Y0188547D01*
X0344584Y0188701D01*
X0344633Y0188854D01*
X0344686Y0189006D01*
X0344742Y0189157D01*
X0344803Y0189306D01*
X0344866Y0189454D01*
X0344934Y0189600D01*
X0345005Y0189744D01*
X0345079Y0189886D01*
X0345157Y0190027D01*
X0345239Y0190165D01*
X0345324Y0190302D01*
X0345412Y0190436D01*
X0345504Y0190568D01*
X0345599Y0190698D01*
X0345697Y0190826D01*
X0345798Y0190951D01*
X0345902Y0191073D01*
X0346009Y0191193D01*
X0346119Y0191310D01*
X0346232Y0191425D01*
X0346348Y0191536D01*
X0346467Y0191645D01*
X0346588Y0191750D01*
X0346712Y0191853D01*
X0346838Y0191953D01*
X0346966Y0192049D01*
X0347097Y0192142D01*
X0347231Y0192232D01*
X0347366Y0192319D01*
X0347504Y0192402D01*
X0347643Y0192482D01*
X0347785Y0192558D01*
X0347928Y0192631D01*
X0348073Y0192700D01*
X0348220Y0192766D01*
X0348368Y0192828D01*
X0348518Y0192886D01*
X0348669Y0192941D01*
X0348822Y0192992D01*
X0348976Y0193039D01*
X0349131Y0193082D01*
X0349287Y0193121D01*
X0349443Y0193157D01*
X0349601Y0193188D01*
X0349759Y0193216D01*
X0349918Y0193240D01*
X0350078Y0193260D01*
X0350238Y0193276D01*
X0350398Y0193288D01*
X0350559Y0193296D01*
X0350720Y0193300D01*
X0350880Y0193300D01*
X0351041Y0193296D01*
X0351202Y0193288D01*
X0351362Y0193276D01*
X0351522Y0193260D01*
X0351682Y0193240D01*
X0351841Y0193216D01*
X0351999Y0193188D01*
X0352157Y0193157D01*
X0352313Y0193121D01*
X0352469Y0193082D01*
X0352624Y0193039D01*
X0352778Y0192992D01*
X0352931Y0192941D01*
X0353082Y0192886D01*
X0353232Y0192828D01*
X0353380Y0192766D01*
X0353527Y0192700D01*
X0353672Y0192631D01*
X0353815Y0192558D01*
X0353957Y0192482D01*
X0354096Y0192402D01*
X0354234Y0192319D01*
X0354369Y0192232D01*
X0354503Y0192142D01*
X0354634Y0192049D01*
X0354762Y0191953D01*
X0354888Y0191853D01*
X0355012Y0191750D01*
X0355133Y0191645D01*
X0355252Y0191536D01*
X0355368Y0191425D01*
X0355481Y0191310D01*
X0355591Y0191193D01*
X0355698Y0191073D01*
X0355802Y0190951D01*
X0355903Y0190826D01*
X0356001Y0190698D01*
X0356096Y0190568D01*
X0356188Y0190436D01*
X0356276Y0190302D01*
X0356361Y0190165D01*
X0356443Y0190027D01*
X0356521Y0189886D01*
X0356595Y0189744D01*
X0356666Y0189600D01*
X0356734Y0189454D01*
X0356797Y0189306D01*
X0356858Y0189157D01*
X0356914Y0189006D01*
X0356967Y0188854D01*
X0357016Y0188701D01*
X0357061Y0188547D01*
X0357102Y0188392D01*
X0357140Y0188235D01*
X0357173Y0188078D01*
X0357203Y0187920D01*
X0357229Y0187761D01*
X0357250Y0187602D01*
X0357268Y0187442D01*
X0357282Y0187282D01*
X0357292Y0187121D01*
X0357298Y0186961D01*
X0357300Y0186800D01*
X0357298Y0186639D01*
X0357292Y0186479D01*
X0357282Y0186318D01*
X0357268Y0186158D01*
X0357250Y0185998D01*
X0357229Y0185839D01*
X0357203Y0185680D01*
X0357173Y0185522D01*
X0357140Y0185365D01*
X0357102Y0185208D01*
X0357061Y0185053D01*
X0357016Y0184899D01*
X0356967Y0184746D01*
X0356914Y0184594D01*
X0356858Y0184443D01*
X0356797Y0184294D01*
X0356734Y0184146D01*
X0356666Y0184000D01*
X0356595Y0183856D01*
X0356521Y0183714D01*
X0356443Y0183573D01*
X0356361Y0183435D01*
X0356276Y0183298D01*
X0356188Y0183164D01*
X0356096Y0183032D01*
X0356001Y0182902D01*
X0355903Y0182774D01*
X0355802Y0182649D01*
X0355698Y0182527D01*
X0355591Y0182407D01*
X0355481Y0182290D01*
X0355368Y0182175D01*
X0355252Y0182064D01*
X0355133Y0181955D01*
X0355012Y0181850D01*
X0354888Y0181747D01*
X0354762Y0181647D01*
X0354634Y0181551D01*
X0354503Y0181458D01*
X0354369Y0181368D01*
X0354234Y0181281D01*
X0354096Y0181198D01*
X0353957Y0181118D01*
X0353815Y0181042D01*
X0353672Y0180969D01*
X0353527Y0180900D01*
X0353380Y0180834D01*
X0353232Y0180772D01*
X0353082Y0180714D01*
X0352931Y0180659D01*
X0352778Y0180608D01*
X0352624Y0180561D01*
X0352469Y0180518D01*
X0352313Y0180479D01*
X0352157Y0180443D01*
X0351999Y0180412D01*
X0351841Y0180384D01*
X0351682Y0180360D01*
X0351522Y0180340D01*
X0351362Y0180324D01*
X0351202Y0180312D01*
X0351041Y0180304D01*
X0350880Y0180300D01*
X0350720Y0180300D01*
X0350559Y0180304D01*
X0350398Y0180312D01*
X0350238Y0180324D01*
X0350078Y0180340D01*
X0349918Y0180360D01*
X0349759Y0180384D01*
X0349601Y0180412D01*
X0349443Y0180443D01*
X0349287Y0180479D01*
X0349131Y0180518D01*
X0348976Y0180561D01*
X0348822Y0180608D01*
X0348669Y0180659D01*
X0348518Y0180714D01*
X0348368Y0180772D01*
X0348220Y0180834D01*
X0348073Y0180900D01*
X0347928Y0180969D01*
X0347785Y0181042D01*
X0347643Y0181118D01*
X0347504Y0181198D01*
X0347366Y0181281D01*
X0347231Y0181368D01*
X0347097Y0181458D01*
X0346966Y0181551D01*
X0346838Y0181647D01*
X0346712Y0181747D01*
X0346588Y0181850D01*
X0346467Y0181955D01*
X0346348Y0182064D01*
X0346232Y0182175D01*
X0346119Y0182290D01*
X0346009Y0182407D01*
X0345902Y0182527D01*
X0345798Y0182649D01*
X0345697Y0182774D01*
X0345599Y0182902D01*
X0345504Y0183032D01*
X0345412Y0183164D01*
X0345324Y0183298D01*
X0345239Y0183435D01*
X0345157Y0183573D01*
X0345079Y0183714D01*
X0345005Y0183856D01*
X0344934Y0184000D01*
X0344866Y0184146D01*
X0344803Y0184294D01*
X0344742Y0184443D01*
X0344686Y0184594D01*
X0344633Y0184746D01*
X0344584Y0184899D01*
X0344539Y0185053D01*
X0344498Y0185208D01*
X0344460Y0185365D01*
X0344427Y0185522D01*
X0344397Y0185680D01*
X0344371Y0185839D01*
X0344350Y0185998D01*
X0344332Y0186158D01*
X0344318Y0186318D01*
X0344308Y0186479D01*
X0344302Y0186639D01*
X0344300Y0186800D01*
X0344300Y0241800D02*
X0344302Y0241961D01*
X0344308Y0242121D01*
X0344318Y0242282D01*
X0344332Y0242442D01*
X0344350Y0242602D01*
X0344371Y0242761D01*
X0344397Y0242920D01*
X0344427Y0243078D01*
X0344460Y0243235D01*
X0344498Y0243392D01*
X0344539Y0243547D01*
X0344584Y0243701D01*
X0344633Y0243854D01*
X0344686Y0244006D01*
X0344742Y0244157D01*
X0344803Y0244306D01*
X0344866Y0244454D01*
X0344934Y0244600D01*
X0345005Y0244744D01*
X0345079Y0244886D01*
X0345157Y0245027D01*
X0345239Y0245165D01*
X0345324Y0245302D01*
X0345412Y0245436D01*
X0345504Y0245568D01*
X0345599Y0245698D01*
X0345697Y0245826D01*
X0345798Y0245951D01*
X0345902Y0246073D01*
X0346009Y0246193D01*
X0346119Y0246310D01*
X0346232Y0246425D01*
X0346348Y0246536D01*
X0346467Y0246645D01*
X0346588Y0246750D01*
X0346712Y0246853D01*
X0346838Y0246953D01*
X0346966Y0247049D01*
X0347097Y0247142D01*
X0347231Y0247232D01*
X0347366Y0247319D01*
X0347504Y0247402D01*
X0347643Y0247482D01*
X0347785Y0247558D01*
X0347928Y0247631D01*
X0348073Y0247700D01*
X0348220Y0247766D01*
X0348368Y0247828D01*
X0348518Y0247886D01*
X0348669Y0247941D01*
X0348822Y0247992D01*
X0348976Y0248039D01*
X0349131Y0248082D01*
X0349287Y0248121D01*
X0349443Y0248157D01*
X0349601Y0248188D01*
X0349759Y0248216D01*
X0349918Y0248240D01*
X0350078Y0248260D01*
X0350238Y0248276D01*
X0350398Y0248288D01*
X0350559Y0248296D01*
X0350720Y0248300D01*
X0350880Y0248300D01*
X0351041Y0248296D01*
X0351202Y0248288D01*
X0351362Y0248276D01*
X0351522Y0248260D01*
X0351682Y0248240D01*
X0351841Y0248216D01*
X0351999Y0248188D01*
X0352157Y0248157D01*
X0352313Y0248121D01*
X0352469Y0248082D01*
X0352624Y0248039D01*
X0352778Y0247992D01*
X0352931Y0247941D01*
X0353082Y0247886D01*
X0353232Y0247828D01*
X0353380Y0247766D01*
X0353527Y0247700D01*
X0353672Y0247631D01*
X0353815Y0247558D01*
X0353957Y0247482D01*
X0354096Y0247402D01*
X0354234Y0247319D01*
X0354369Y0247232D01*
X0354503Y0247142D01*
X0354634Y0247049D01*
X0354762Y0246953D01*
X0354888Y0246853D01*
X0355012Y0246750D01*
X0355133Y0246645D01*
X0355252Y0246536D01*
X0355368Y0246425D01*
X0355481Y0246310D01*
X0355591Y0246193D01*
X0355698Y0246073D01*
X0355802Y0245951D01*
X0355903Y0245826D01*
X0356001Y0245698D01*
X0356096Y0245568D01*
X0356188Y0245436D01*
X0356276Y0245302D01*
X0356361Y0245165D01*
X0356443Y0245027D01*
X0356521Y0244886D01*
X0356595Y0244744D01*
X0356666Y0244600D01*
X0356734Y0244454D01*
X0356797Y0244306D01*
X0356858Y0244157D01*
X0356914Y0244006D01*
X0356967Y0243854D01*
X0357016Y0243701D01*
X0357061Y0243547D01*
X0357102Y0243392D01*
X0357140Y0243235D01*
X0357173Y0243078D01*
X0357203Y0242920D01*
X0357229Y0242761D01*
X0357250Y0242602D01*
X0357268Y0242442D01*
X0357282Y0242282D01*
X0357292Y0242121D01*
X0357298Y0241961D01*
X0357300Y0241800D01*
X0357298Y0241639D01*
X0357292Y0241479D01*
X0357282Y0241318D01*
X0357268Y0241158D01*
X0357250Y0240998D01*
X0357229Y0240839D01*
X0357203Y0240680D01*
X0357173Y0240522D01*
X0357140Y0240365D01*
X0357102Y0240208D01*
X0357061Y0240053D01*
X0357016Y0239899D01*
X0356967Y0239746D01*
X0356914Y0239594D01*
X0356858Y0239443D01*
X0356797Y0239294D01*
X0356734Y0239146D01*
X0356666Y0239000D01*
X0356595Y0238856D01*
X0356521Y0238714D01*
X0356443Y0238573D01*
X0356361Y0238435D01*
X0356276Y0238298D01*
X0356188Y0238164D01*
X0356096Y0238032D01*
X0356001Y0237902D01*
X0355903Y0237774D01*
X0355802Y0237649D01*
X0355698Y0237527D01*
X0355591Y0237407D01*
X0355481Y0237290D01*
X0355368Y0237175D01*
X0355252Y0237064D01*
X0355133Y0236955D01*
X0355012Y0236850D01*
X0354888Y0236747D01*
X0354762Y0236647D01*
X0354634Y0236551D01*
X0354503Y0236458D01*
X0354369Y0236368D01*
X0354234Y0236281D01*
X0354096Y0236198D01*
X0353957Y0236118D01*
X0353815Y0236042D01*
X0353672Y0235969D01*
X0353527Y0235900D01*
X0353380Y0235834D01*
X0353232Y0235772D01*
X0353082Y0235714D01*
X0352931Y0235659D01*
X0352778Y0235608D01*
X0352624Y0235561D01*
X0352469Y0235518D01*
X0352313Y0235479D01*
X0352157Y0235443D01*
X0351999Y0235412D01*
X0351841Y0235384D01*
X0351682Y0235360D01*
X0351522Y0235340D01*
X0351362Y0235324D01*
X0351202Y0235312D01*
X0351041Y0235304D01*
X0350880Y0235300D01*
X0350720Y0235300D01*
X0350559Y0235304D01*
X0350398Y0235312D01*
X0350238Y0235324D01*
X0350078Y0235340D01*
X0349918Y0235360D01*
X0349759Y0235384D01*
X0349601Y0235412D01*
X0349443Y0235443D01*
X0349287Y0235479D01*
X0349131Y0235518D01*
X0348976Y0235561D01*
X0348822Y0235608D01*
X0348669Y0235659D01*
X0348518Y0235714D01*
X0348368Y0235772D01*
X0348220Y0235834D01*
X0348073Y0235900D01*
X0347928Y0235969D01*
X0347785Y0236042D01*
X0347643Y0236118D01*
X0347504Y0236198D01*
X0347366Y0236281D01*
X0347231Y0236368D01*
X0347097Y0236458D01*
X0346966Y0236551D01*
X0346838Y0236647D01*
X0346712Y0236747D01*
X0346588Y0236850D01*
X0346467Y0236955D01*
X0346348Y0237064D01*
X0346232Y0237175D01*
X0346119Y0237290D01*
X0346009Y0237407D01*
X0345902Y0237527D01*
X0345798Y0237649D01*
X0345697Y0237774D01*
X0345599Y0237902D01*
X0345504Y0238032D01*
X0345412Y0238164D01*
X0345324Y0238298D01*
X0345239Y0238435D01*
X0345157Y0238573D01*
X0345079Y0238714D01*
X0345005Y0238856D01*
X0344934Y0239000D01*
X0344866Y0239146D01*
X0344803Y0239294D01*
X0344742Y0239443D01*
X0344686Y0239594D01*
X0344633Y0239746D01*
X0344584Y0239899D01*
X0344539Y0240053D01*
X0344498Y0240208D01*
X0344460Y0240365D01*
X0344427Y0240522D01*
X0344397Y0240680D01*
X0344371Y0240839D01*
X0344350Y0240998D01*
X0344332Y0241158D01*
X0344318Y0241318D01*
X0344308Y0241479D01*
X0344302Y0241639D01*
X0344300Y0241800D01*
X0395501Y0261800D02*
X0395503Y0261958D01*
X0395509Y0262116D01*
X0395519Y0262274D01*
X0395533Y0262432D01*
X0395551Y0262589D01*
X0395572Y0262746D01*
X0395598Y0262902D01*
X0395628Y0263058D01*
X0395661Y0263213D01*
X0395699Y0263366D01*
X0395740Y0263519D01*
X0395785Y0263671D01*
X0395834Y0263822D01*
X0395887Y0263971D01*
X0395943Y0264119D01*
X0396003Y0264265D01*
X0396067Y0264410D01*
X0396135Y0264553D01*
X0396206Y0264695D01*
X0396280Y0264835D01*
X0396358Y0264972D01*
X0396440Y0265108D01*
X0396524Y0265242D01*
X0396613Y0265373D01*
X0396704Y0265502D01*
X0396799Y0265629D01*
X0396896Y0265754D01*
X0396997Y0265876D01*
X0397101Y0265995D01*
X0397208Y0266112D01*
X0397318Y0266226D01*
X0397431Y0266337D01*
X0397546Y0266446D01*
X0397664Y0266551D01*
X0397785Y0266653D01*
X0397908Y0266753D01*
X0398034Y0266849D01*
X0398162Y0266942D01*
X0398292Y0267032D01*
X0398425Y0267118D01*
X0398560Y0267202D01*
X0398696Y0267281D01*
X0398835Y0267358D01*
X0398976Y0267430D01*
X0399118Y0267500D01*
X0399262Y0267565D01*
X0399408Y0267627D01*
X0399555Y0267685D01*
X0399704Y0267740D01*
X0399854Y0267791D01*
X0400005Y0267838D01*
X0400157Y0267881D01*
X0400310Y0267920D01*
X0400465Y0267956D01*
X0400620Y0267987D01*
X0400776Y0268015D01*
X0400932Y0268039D01*
X0401089Y0268059D01*
X0401247Y0268075D01*
X0401404Y0268087D01*
X0401563Y0268095D01*
X0401721Y0268099D01*
X0401879Y0268099D01*
X0402037Y0268095D01*
X0402196Y0268087D01*
X0402353Y0268075D01*
X0402511Y0268059D01*
X0402668Y0268039D01*
X0402824Y0268015D01*
X0402980Y0267987D01*
X0403135Y0267956D01*
X0403290Y0267920D01*
X0403443Y0267881D01*
X0403595Y0267838D01*
X0403746Y0267791D01*
X0403896Y0267740D01*
X0404045Y0267685D01*
X0404192Y0267627D01*
X0404338Y0267565D01*
X0404482Y0267500D01*
X0404624Y0267430D01*
X0404765Y0267358D01*
X0404904Y0267281D01*
X0405040Y0267202D01*
X0405175Y0267118D01*
X0405308Y0267032D01*
X0405438Y0266942D01*
X0405566Y0266849D01*
X0405692Y0266753D01*
X0405815Y0266653D01*
X0405936Y0266551D01*
X0406054Y0266446D01*
X0406169Y0266337D01*
X0406282Y0266226D01*
X0406392Y0266112D01*
X0406499Y0265995D01*
X0406603Y0265876D01*
X0406704Y0265754D01*
X0406801Y0265629D01*
X0406896Y0265502D01*
X0406987Y0265373D01*
X0407076Y0265242D01*
X0407160Y0265108D01*
X0407242Y0264972D01*
X0407320Y0264835D01*
X0407394Y0264695D01*
X0407465Y0264553D01*
X0407533Y0264410D01*
X0407597Y0264265D01*
X0407657Y0264119D01*
X0407713Y0263971D01*
X0407766Y0263822D01*
X0407815Y0263671D01*
X0407860Y0263519D01*
X0407901Y0263366D01*
X0407939Y0263213D01*
X0407972Y0263058D01*
X0408002Y0262902D01*
X0408028Y0262746D01*
X0408049Y0262589D01*
X0408067Y0262432D01*
X0408081Y0262274D01*
X0408091Y0262116D01*
X0408097Y0261958D01*
X0408099Y0261800D01*
X0408097Y0261642D01*
X0408091Y0261484D01*
X0408081Y0261326D01*
X0408067Y0261168D01*
X0408049Y0261011D01*
X0408028Y0260854D01*
X0408002Y0260698D01*
X0407972Y0260542D01*
X0407939Y0260387D01*
X0407901Y0260234D01*
X0407860Y0260081D01*
X0407815Y0259929D01*
X0407766Y0259778D01*
X0407713Y0259629D01*
X0407657Y0259481D01*
X0407597Y0259335D01*
X0407533Y0259190D01*
X0407465Y0259047D01*
X0407394Y0258905D01*
X0407320Y0258765D01*
X0407242Y0258628D01*
X0407160Y0258492D01*
X0407076Y0258358D01*
X0406987Y0258227D01*
X0406896Y0258098D01*
X0406801Y0257971D01*
X0406704Y0257846D01*
X0406603Y0257724D01*
X0406499Y0257605D01*
X0406392Y0257488D01*
X0406282Y0257374D01*
X0406169Y0257263D01*
X0406054Y0257154D01*
X0405936Y0257049D01*
X0405815Y0256947D01*
X0405692Y0256847D01*
X0405566Y0256751D01*
X0405438Y0256658D01*
X0405308Y0256568D01*
X0405175Y0256482D01*
X0405040Y0256398D01*
X0404904Y0256319D01*
X0404765Y0256242D01*
X0404624Y0256170D01*
X0404482Y0256100D01*
X0404338Y0256035D01*
X0404192Y0255973D01*
X0404045Y0255915D01*
X0403896Y0255860D01*
X0403746Y0255809D01*
X0403595Y0255762D01*
X0403443Y0255719D01*
X0403290Y0255680D01*
X0403135Y0255644D01*
X0402980Y0255613D01*
X0402824Y0255585D01*
X0402668Y0255561D01*
X0402511Y0255541D01*
X0402353Y0255525D01*
X0402196Y0255513D01*
X0402037Y0255505D01*
X0401879Y0255501D01*
X0401721Y0255501D01*
X0401563Y0255505D01*
X0401404Y0255513D01*
X0401247Y0255525D01*
X0401089Y0255541D01*
X0400932Y0255561D01*
X0400776Y0255585D01*
X0400620Y0255613D01*
X0400465Y0255644D01*
X0400310Y0255680D01*
X0400157Y0255719D01*
X0400005Y0255762D01*
X0399854Y0255809D01*
X0399704Y0255860D01*
X0399555Y0255915D01*
X0399408Y0255973D01*
X0399262Y0256035D01*
X0399118Y0256100D01*
X0398976Y0256170D01*
X0398835Y0256242D01*
X0398696Y0256319D01*
X0398560Y0256398D01*
X0398425Y0256482D01*
X0398292Y0256568D01*
X0398162Y0256658D01*
X0398034Y0256751D01*
X0397908Y0256847D01*
X0397785Y0256947D01*
X0397664Y0257049D01*
X0397546Y0257154D01*
X0397431Y0257263D01*
X0397318Y0257374D01*
X0397208Y0257488D01*
X0397101Y0257605D01*
X0396997Y0257724D01*
X0396896Y0257846D01*
X0396799Y0257971D01*
X0396704Y0258098D01*
X0396613Y0258227D01*
X0396524Y0258358D01*
X0396440Y0258492D01*
X0396358Y0258628D01*
X0396280Y0258765D01*
X0396206Y0258905D01*
X0396135Y0259047D01*
X0396067Y0259190D01*
X0396003Y0259335D01*
X0395943Y0259481D01*
X0395887Y0259629D01*
X0395834Y0259778D01*
X0395785Y0259929D01*
X0395740Y0260081D01*
X0395699Y0260234D01*
X0395661Y0260387D01*
X0395628Y0260542D01*
X0395598Y0260698D01*
X0395572Y0260854D01*
X0395551Y0261011D01*
X0395533Y0261168D01*
X0395519Y0261326D01*
X0395509Y0261484D01*
X0395503Y0261642D01*
X0395501Y0261800D01*
X0329300Y0046800D02*
X0329302Y0046961D01*
X0329308Y0047121D01*
X0329318Y0047282D01*
X0329332Y0047442D01*
X0329350Y0047602D01*
X0329371Y0047761D01*
X0329397Y0047920D01*
X0329427Y0048078D01*
X0329460Y0048235D01*
X0329498Y0048392D01*
X0329539Y0048547D01*
X0329584Y0048701D01*
X0329633Y0048854D01*
X0329686Y0049006D01*
X0329742Y0049157D01*
X0329803Y0049306D01*
X0329866Y0049454D01*
X0329934Y0049600D01*
X0330005Y0049744D01*
X0330079Y0049886D01*
X0330157Y0050027D01*
X0330239Y0050165D01*
X0330324Y0050302D01*
X0330412Y0050436D01*
X0330504Y0050568D01*
X0330599Y0050698D01*
X0330697Y0050826D01*
X0330798Y0050951D01*
X0330902Y0051073D01*
X0331009Y0051193D01*
X0331119Y0051310D01*
X0331232Y0051425D01*
X0331348Y0051536D01*
X0331467Y0051645D01*
X0331588Y0051750D01*
X0331712Y0051853D01*
X0331838Y0051953D01*
X0331966Y0052049D01*
X0332097Y0052142D01*
X0332231Y0052232D01*
X0332366Y0052319D01*
X0332504Y0052402D01*
X0332643Y0052482D01*
X0332785Y0052558D01*
X0332928Y0052631D01*
X0333073Y0052700D01*
X0333220Y0052766D01*
X0333368Y0052828D01*
X0333518Y0052886D01*
X0333669Y0052941D01*
X0333822Y0052992D01*
X0333976Y0053039D01*
X0334131Y0053082D01*
X0334287Y0053121D01*
X0334443Y0053157D01*
X0334601Y0053188D01*
X0334759Y0053216D01*
X0334918Y0053240D01*
X0335078Y0053260D01*
X0335238Y0053276D01*
X0335398Y0053288D01*
X0335559Y0053296D01*
X0335720Y0053300D01*
X0335880Y0053300D01*
X0336041Y0053296D01*
X0336202Y0053288D01*
X0336362Y0053276D01*
X0336522Y0053260D01*
X0336682Y0053240D01*
X0336841Y0053216D01*
X0336999Y0053188D01*
X0337157Y0053157D01*
X0337313Y0053121D01*
X0337469Y0053082D01*
X0337624Y0053039D01*
X0337778Y0052992D01*
X0337931Y0052941D01*
X0338082Y0052886D01*
X0338232Y0052828D01*
X0338380Y0052766D01*
X0338527Y0052700D01*
X0338672Y0052631D01*
X0338815Y0052558D01*
X0338957Y0052482D01*
X0339096Y0052402D01*
X0339234Y0052319D01*
X0339369Y0052232D01*
X0339503Y0052142D01*
X0339634Y0052049D01*
X0339762Y0051953D01*
X0339888Y0051853D01*
X0340012Y0051750D01*
X0340133Y0051645D01*
X0340252Y0051536D01*
X0340368Y0051425D01*
X0340481Y0051310D01*
X0340591Y0051193D01*
X0340698Y0051073D01*
X0340802Y0050951D01*
X0340903Y0050826D01*
X0341001Y0050698D01*
X0341096Y0050568D01*
X0341188Y0050436D01*
X0341276Y0050302D01*
X0341361Y0050165D01*
X0341443Y0050027D01*
X0341521Y0049886D01*
X0341595Y0049744D01*
X0341666Y0049600D01*
X0341734Y0049454D01*
X0341797Y0049306D01*
X0341858Y0049157D01*
X0341914Y0049006D01*
X0341967Y0048854D01*
X0342016Y0048701D01*
X0342061Y0048547D01*
X0342102Y0048392D01*
X0342140Y0048235D01*
X0342173Y0048078D01*
X0342203Y0047920D01*
X0342229Y0047761D01*
X0342250Y0047602D01*
X0342268Y0047442D01*
X0342282Y0047282D01*
X0342292Y0047121D01*
X0342298Y0046961D01*
X0342300Y0046800D01*
X0342298Y0046639D01*
X0342292Y0046479D01*
X0342282Y0046318D01*
X0342268Y0046158D01*
X0342250Y0045998D01*
X0342229Y0045839D01*
X0342203Y0045680D01*
X0342173Y0045522D01*
X0342140Y0045365D01*
X0342102Y0045208D01*
X0342061Y0045053D01*
X0342016Y0044899D01*
X0341967Y0044746D01*
X0341914Y0044594D01*
X0341858Y0044443D01*
X0341797Y0044294D01*
X0341734Y0044146D01*
X0341666Y0044000D01*
X0341595Y0043856D01*
X0341521Y0043714D01*
X0341443Y0043573D01*
X0341361Y0043435D01*
X0341276Y0043298D01*
X0341188Y0043164D01*
X0341096Y0043032D01*
X0341001Y0042902D01*
X0340903Y0042774D01*
X0340802Y0042649D01*
X0340698Y0042527D01*
X0340591Y0042407D01*
X0340481Y0042290D01*
X0340368Y0042175D01*
X0340252Y0042064D01*
X0340133Y0041955D01*
X0340012Y0041850D01*
X0339888Y0041747D01*
X0339762Y0041647D01*
X0339634Y0041551D01*
X0339503Y0041458D01*
X0339369Y0041368D01*
X0339234Y0041281D01*
X0339096Y0041198D01*
X0338957Y0041118D01*
X0338815Y0041042D01*
X0338672Y0040969D01*
X0338527Y0040900D01*
X0338380Y0040834D01*
X0338232Y0040772D01*
X0338082Y0040714D01*
X0337931Y0040659D01*
X0337778Y0040608D01*
X0337624Y0040561D01*
X0337469Y0040518D01*
X0337313Y0040479D01*
X0337157Y0040443D01*
X0336999Y0040412D01*
X0336841Y0040384D01*
X0336682Y0040360D01*
X0336522Y0040340D01*
X0336362Y0040324D01*
X0336202Y0040312D01*
X0336041Y0040304D01*
X0335880Y0040300D01*
X0335720Y0040300D01*
X0335559Y0040304D01*
X0335398Y0040312D01*
X0335238Y0040324D01*
X0335078Y0040340D01*
X0334918Y0040360D01*
X0334759Y0040384D01*
X0334601Y0040412D01*
X0334443Y0040443D01*
X0334287Y0040479D01*
X0334131Y0040518D01*
X0333976Y0040561D01*
X0333822Y0040608D01*
X0333669Y0040659D01*
X0333518Y0040714D01*
X0333368Y0040772D01*
X0333220Y0040834D01*
X0333073Y0040900D01*
X0332928Y0040969D01*
X0332785Y0041042D01*
X0332643Y0041118D01*
X0332504Y0041198D01*
X0332366Y0041281D01*
X0332231Y0041368D01*
X0332097Y0041458D01*
X0331966Y0041551D01*
X0331838Y0041647D01*
X0331712Y0041747D01*
X0331588Y0041850D01*
X0331467Y0041955D01*
X0331348Y0042064D01*
X0331232Y0042175D01*
X0331119Y0042290D01*
X0331009Y0042407D01*
X0330902Y0042527D01*
X0330798Y0042649D01*
X0330697Y0042774D01*
X0330599Y0042902D01*
X0330504Y0043032D01*
X0330412Y0043164D01*
X0330324Y0043298D01*
X0330239Y0043435D01*
X0330157Y0043573D01*
X0330079Y0043714D01*
X0330005Y0043856D01*
X0329934Y0044000D01*
X0329866Y0044146D01*
X0329803Y0044294D01*
X0329742Y0044443D01*
X0329686Y0044594D01*
X0329633Y0044746D01*
X0329584Y0044899D01*
X0329539Y0045053D01*
X0329498Y0045208D01*
X0329460Y0045365D01*
X0329427Y0045522D01*
X0329397Y0045680D01*
X0329371Y0045839D01*
X0329350Y0045998D01*
X0329332Y0046158D01*
X0329318Y0046318D01*
X0329308Y0046479D01*
X0329302Y0046639D01*
X0329300Y0046800D01*
X0390501Y0021800D02*
X0390503Y0021958D01*
X0390509Y0022116D01*
X0390519Y0022274D01*
X0390533Y0022432D01*
X0390551Y0022589D01*
X0390572Y0022746D01*
X0390598Y0022902D01*
X0390628Y0023058D01*
X0390661Y0023213D01*
X0390699Y0023366D01*
X0390740Y0023519D01*
X0390785Y0023671D01*
X0390834Y0023822D01*
X0390887Y0023971D01*
X0390943Y0024119D01*
X0391003Y0024265D01*
X0391067Y0024410D01*
X0391135Y0024553D01*
X0391206Y0024695D01*
X0391280Y0024835D01*
X0391358Y0024972D01*
X0391440Y0025108D01*
X0391524Y0025242D01*
X0391613Y0025373D01*
X0391704Y0025502D01*
X0391799Y0025629D01*
X0391896Y0025754D01*
X0391997Y0025876D01*
X0392101Y0025995D01*
X0392208Y0026112D01*
X0392318Y0026226D01*
X0392431Y0026337D01*
X0392546Y0026446D01*
X0392664Y0026551D01*
X0392785Y0026653D01*
X0392908Y0026753D01*
X0393034Y0026849D01*
X0393162Y0026942D01*
X0393292Y0027032D01*
X0393425Y0027118D01*
X0393560Y0027202D01*
X0393696Y0027281D01*
X0393835Y0027358D01*
X0393976Y0027430D01*
X0394118Y0027500D01*
X0394262Y0027565D01*
X0394408Y0027627D01*
X0394555Y0027685D01*
X0394704Y0027740D01*
X0394854Y0027791D01*
X0395005Y0027838D01*
X0395157Y0027881D01*
X0395310Y0027920D01*
X0395465Y0027956D01*
X0395620Y0027987D01*
X0395776Y0028015D01*
X0395932Y0028039D01*
X0396089Y0028059D01*
X0396247Y0028075D01*
X0396404Y0028087D01*
X0396563Y0028095D01*
X0396721Y0028099D01*
X0396879Y0028099D01*
X0397037Y0028095D01*
X0397196Y0028087D01*
X0397353Y0028075D01*
X0397511Y0028059D01*
X0397668Y0028039D01*
X0397824Y0028015D01*
X0397980Y0027987D01*
X0398135Y0027956D01*
X0398290Y0027920D01*
X0398443Y0027881D01*
X0398595Y0027838D01*
X0398746Y0027791D01*
X0398896Y0027740D01*
X0399045Y0027685D01*
X0399192Y0027627D01*
X0399338Y0027565D01*
X0399482Y0027500D01*
X0399624Y0027430D01*
X0399765Y0027358D01*
X0399904Y0027281D01*
X0400040Y0027202D01*
X0400175Y0027118D01*
X0400308Y0027032D01*
X0400438Y0026942D01*
X0400566Y0026849D01*
X0400692Y0026753D01*
X0400815Y0026653D01*
X0400936Y0026551D01*
X0401054Y0026446D01*
X0401169Y0026337D01*
X0401282Y0026226D01*
X0401392Y0026112D01*
X0401499Y0025995D01*
X0401603Y0025876D01*
X0401704Y0025754D01*
X0401801Y0025629D01*
X0401896Y0025502D01*
X0401987Y0025373D01*
X0402076Y0025242D01*
X0402160Y0025108D01*
X0402242Y0024972D01*
X0402320Y0024835D01*
X0402394Y0024695D01*
X0402465Y0024553D01*
X0402533Y0024410D01*
X0402597Y0024265D01*
X0402657Y0024119D01*
X0402713Y0023971D01*
X0402766Y0023822D01*
X0402815Y0023671D01*
X0402860Y0023519D01*
X0402901Y0023366D01*
X0402939Y0023213D01*
X0402972Y0023058D01*
X0403002Y0022902D01*
X0403028Y0022746D01*
X0403049Y0022589D01*
X0403067Y0022432D01*
X0403081Y0022274D01*
X0403091Y0022116D01*
X0403097Y0021958D01*
X0403099Y0021800D01*
X0403097Y0021642D01*
X0403091Y0021484D01*
X0403081Y0021326D01*
X0403067Y0021168D01*
X0403049Y0021011D01*
X0403028Y0020854D01*
X0403002Y0020698D01*
X0402972Y0020542D01*
X0402939Y0020387D01*
X0402901Y0020234D01*
X0402860Y0020081D01*
X0402815Y0019929D01*
X0402766Y0019778D01*
X0402713Y0019629D01*
X0402657Y0019481D01*
X0402597Y0019335D01*
X0402533Y0019190D01*
X0402465Y0019047D01*
X0402394Y0018905D01*
X0402320Y0018765D01*
X0402242Y0018628D01*
X0402160Y0018492D01*
X0402076Y0018358D01*
X0401987Y0018227D01*
X0401896Y0018098D01*
X0401801Y0017971D01*
X0401704Y0017846D01*
X0401603Y0017724D01*
X0401499Y0017605D01*
X0401392Y0017488D01*
X0401282Y0017374D01*
X0401169Y0017263D01*
X0401054Y0017154D01*
X0400936Y0017049D01*
X0400815Y0016947D01*
X0400692Y0016847D01*
X0400566Y0016751D01*
X0400438Y0016658D01*
X0400308Y0016568D01*
X0400175Y0016482D01*
X0400040Y0016398D01*
X0399904Y0016319D01*
X0399765Y0016242D01*
X0399624Y0016170D01*
X0399482Y0016100D01*
X0399338Y0016035D01*
X0399192Y0015973D01*
X0399045Y0015915D01*
X0398896Y0015860D01*
X0398746Y0015809D01*
X0398595Y0015762D01*
X0398443Y0015719D01*
X0398290Y0015680D01*
X0398135Y0015644D01*
X0397980Y0015613D01*
X0397824Y0015585D01*
X0397668Y0015561D01*
X0397511Y0015541D01*
X0397353Y0015525D01*
X0397196Y0015513D01*
X0397037Y0015505D01*
X0396879Y0015501D01*
X0396721Y0015501D01*
X0396563Y0015505D01*
X0396404Y0015513D01*
X0396247Y0015525D01*
X0396089Y0015541D01*
X0395932Y0015561D01*
X0395776Y0015585D01*
X0395620Y0015613D01*
X0395465Y0015644D01*
X0395310Y0015680D01*
X0395157Y0015719D01*
X0395005Y0015762D01*
X0394854Y0015809D01*
X0394704Y0015860D01*
X0394555Y0015915D01*
X0394408Y0015973D01*
X0394262Y0016035D01*
X0394118Y0016100D01*
X0393976Y0016170D01*
X0393835Y0016242D01*
X0393696Y0016319D01*
X0393560Y0016398D01*
X0393425Y0016482D01*
X0393292Y0016568D01*
X0393162Y0016658D01*
X0393034Y0016751D01*
X0392908Y0016847D01*
X0392785Y0016947D01*
X0392664Y0017049D01*
X0392546Y0017154D01*
X0392431Y0017263D01*
X0392318Y0017374D01*
X0392208Y0017488D01*
X0392101Y0017605D01*
X0391997Y0017724D01*
X0391896Y0017846D01*
X0391799Y0017971D01*
X0391704Y0018098D01*
X0391613Y0018227D01*
X0391524Y0018358D01*
X0391440Y0018492D01*
X0391358Y0018628D01*
X0391280Y0018765D01*
X0391206Y0018905D01*
X0391135Y0019047D01*
X0391067Y0019190D01*
X0391003Y0019335D01*
X0390943Y0019481D01*
X0390887Y0019629D01*
X0390834Y0019778D01*
X0390785Y0019929D01*
X0390740Y0020081D01*
X0390699Y0020234D01*
X0390661Y0020387D01*
X0390628Y0020542D01*
X0390598Y0020698D01*
X0390572Y0020854D01*
X0390551Y0021011D01*
X0390533Y0021168D01*
X0390519Y0021326D01*
X0390509Y0021484D01*
X0390503Y0021642D01*
X0390501Y0021800D01*
D11*
X0376800Y0031800D03*
X0366800Y0031800D03*
X0366800Y0086800D03*
X0376800Y0086800D03*
X0256800Y0071800D03*
X0246800Y0071800D03*
X0221800Y0066800D03*
X0221800Y0076800D03*
X0226800Y0091800D03*
X0226800Y0101800D03*
X0221800Y0121800D03*
X0221800Y0131800D03*
X0241800Y0121800D03*
X0251800Y0121800D03*
X0226800Y0151800D03*
X0226800Y0161800D03*
X0226800Y0176800D03*
X0226800Y0186800D03*
X0206800Y0191800D03*
X0196800Y0191800D03*
X0171800Y0196800D03*
X0171800Y0206800D03*
X0146800Y0206800D03*
X0146800Y0196800D03*
X0116800Y0201800D03*
X0116800Y0211800D03*
X0139300Y0226800D03*
X0146800Y0231800D03*
X0146800Y0221800D03*
X0171800Y0241800D03*
X0171800Y0251800D03*
X0226800Y0246800D03*
X0226800Y0236800D03*
X0226800Y0221800D03*
X0226800Y0211800D03*
X0256800Y0196800D03*
X0256800Y0186800D03*
X0171800Y0176800D03*
X0171800Y0166800D03*
X0161800Y0146800D03*
X0161800Y0136800D03*
X0161800Y0111800D03*
X0161800Y0101800D03*
X0161800Y0086800D03*
X0161800Y0076800D03*
X0186800Y0086800D03*
X0196800Y0086800D03*
X0136800Y0101800D03*
X0136800Y0111800D03*
X0121800Y0126800D03*
X0114300Y0131800D03*
X0121800Y0136800D03*
X0086800Y0141800D03*
X0086800Y0151800D03*
X0056800Y0131800D03*
X0046800Y0131800D03*
X0086800Y0116800D03*
X0086800Y0106800D03*
X0076800Y0086800D03*
X0066800Y0086800D03*
X0066800Y0066800D03*
X0076800Y0066800D03*
X0221800Y0041800D03*
X0221800Y0031800D03*
X0371800Y0171800D03*
X0381800Y0171800D03*
X0381800Y0226800D03*
X0371800Y0226800D03*
X0261800Y0251800D03*
X0251800Y0251800D03*
X0116800Y0251800D03*
X0116800Y0241800D03*
X0096800Y0241800D03*
X0086800Y0241800D03*
D12*
X0069400Y0026800D02*
X0064200Y0026800D01*
X0104200Y0026800D02*
X0109400Y0026800D01*
D13*
X0049800Y0046800D02*
X0043800Y0046800D01*
X0043800Y0056800D02*
X0049800Y0056800D01*
X0049800Y0066800D02*
X0043800Y0066800D01*
X0043800Y0076800D02*
X0049800Y0076800D01*
D14*
X0263500Y0091800D02*
X0270100Y0091800D01*
X0270100Y0101800D02*
X0263500Y0101800D01*
X0263500Y0111800D02*
X0270100Y0111800D01*
X0270100Y0056800D02*
X0263500Y0056800D01*
X0263500Y0046800D02*
X0270100Y0046800D01*
X0270100Y0036800D02*
X0263500Y0036800D01*
X0278500Y0176800D02*
X0285100Y0176800D01*
X0285100Y0186800D02*
X0278500Y0186800D01*
X0278500Y0196800D02*
X0285100Y0196800D01*
X0285100Y0231800D02*
X0278500Y0231800D01*
X0278500Y0241800D02*
X0285100Y0241800D01*
X0285100Y0251800D02*
X0278500Y0251800D01*
D15*
X0274159Y0254123D02*
X0265417Y0254123D01*
X0266000Y0253540D02*
X0263910Y0255630D01*
X0260077Y0263296D01*
X0259852Y0263839D01*
X0259759Y0263933D01*
X0259700Y0264050D01*
X0259255Y0264436D01*
X0258839Y0264852D01*
X0258717Y0264902D01*
X0258618Y0264989D01*
X0258060Y0265175D01*
X0257516Y0265400D01*
X0257384Y0265400D01*
X0257259Y0265442D01*
X0256672Y0265400D01*
X0237153Y0265400D01*
X0236796Y0265471D01*
X0236444Y0265400D01*
X0236084Y0265400D01*
X0235748Y0265261D01*
X0235392Y0265190D01*
X0235093Y0264990D01*
X0234761Y0264852D01*
X0234504Y0264595D01*
X0234202Y0264393D01*
X0234002Y0264094D01*
X0233748Y0263839D01*
X0233609Y0263503D01*
X0225273Y0251000D01*
X0225060Y0251000D01*
X0224460Y0250400D01*
X0223291Y0250400D01*
X0219852Y0253839D01*
X0218839Y0254852D01*
X0217516Y0255400D01*
X0174140Y0255400D01*
X0173540Y0256000D01*
X0170060Y0256000D01*
X0168260Y0254200D01*
X0120340Y0254200D01*
X0118540Y0256000D01*
X0115060Y0256000D01*
X0112600Y0253540D01*
X0112600Y0250060D01*
X0115060Y0247600D01*
X0118540Y0247600D01*
X0120340Y0249400D01*
X0168260Y0249400D01*
X0170060Y0247600D01*
X0173540Y0247600D01*
X0174140Y0248200D01*
X0215309Y0248200D01*
X0219209Y0244300D01*
X0213748Y0238839D01*
X0213200Y0237516D01*
X0213200Y0188291D01*
X0203748Y0178839D01*
X0203200Y0177516D01*
X0203200Y0139200D01*
X0187794Y0139200D01*
X0178835Y0148159D01*
X0178159Y0148835D01*
X0177277Y0149200D01*
X0165340Y0149200D01*
X0163540Y0151000D01*
X0160994Y0151000D01*
X0158835Y0153159D01*
X0158159Y0153835D01*
X0157277Y0154200D01*
X0090340Y0154200D01*
X0088540Y0156000D01*
X0085060Y0156000D01*
X0082600Y0153540D01*
X0082600Y0150060D01*
X0085060Y0147600D01*
X0088540Y0147600D01*
X0090340Y0149400D01*
X0155806Y0149400D01*
X0157600Y0147606D01*
X0157600Y0145060D01*
X0160060Y0142600D01*
X0163540Y0142600D01*
X0165340Y0144400D01*
X0175806Y0144400D01*
X0185441Y0134765D01*
X0186323Y0134400D01*
X0203200Y0134400D01*
X0203200Y0058727D01*
X0190710Y0050400D01*
X0156594Y0050400D01*
X0118159Y0088835D01*
X0117277Y0089200D01*
X0080340Y0089200D01*
X0078540Y0091000D01*
X0075060Y0091000D01*
X0072600Y0088540D01*
X0072600Y0085060D01*
X0075060Y0082600D01*
X0078540Y0082600D01*
X0080340Y0084400D01*
X0115806Y0084400D01*
X0149806Y0050400D01*
X0052705Y0050400D01*
X0052406Y0050700D01*
X0050715Y0051400D01*
X0042885Y0051400D01*
X0041194Y0050700D01*
X0039900Y0049406D01*
X0039200Y0047715D01*
X0039200Y0045885D01*
X0039900Y0044194D01*
X0041194Y0042900D01*
X0042885Y0042200D01*
X0050715Y0042200D01*
X0052406Y0042900D01*
X0052705Y0043200D01*
X0064806Y0043200D01*
X0064765Y0043159D01*
X0064400Y0042277D01*
X0064400Y0031000D01*
X0063365Y0031000D01*
X0061821Y0030361D01*
X0060639Y0029179D01*
X0060000Y0027635D01*
X0060000Y0025965D01*
X0060639Y0024421D01*
X0061821Y0023239D01*
X0063365Y0022600D01*
X0070235Y0022600D01*
X0071779Y0023239D01*
X0072961Y0024421D01*
X0073600Y0025965D01*
X0073600Y0027635D01*
X0072961Y0029179D01*
X0071779Y0030361D01*
X0070235Y0031000D01*
X0069200Y0031000D01*
X0069200Y0040806D01*
X0071594Y0043200D01*
X0191444Y0043200D01*
X0191796Y0043129D01*
X0192153Y0043200D01*
X0192516Y0043200D01*
X0192848Y0043338D01*
X0193201Y0043407D01*
X0193503Y0043609D01*
X0193839Y0043748D01*
X0194094Y0044002D01*
X0208503Y0053609D01*
X0208839Y0053748D01*
X0209094Y0054002D01*
X0209393Y0054202D01*
X0209595Y0054504D01*
X0209852Y0054761D01*
X0209990Y0055093D01*
X0210190Y0055392D01*
X0210200Y0055444D01*
X0210200Y0050778D01*
X0209543Y0050120D01*
X0209543Y0043480D01*
X0210480Y0042543D01*
X0217120Y0042543D01*
X0217600Y0043022D01*
X0217600Y0040060D01*
X0220060Y0037600D01*
X0223540Y0037600D01*
X0226000Y0040060D01*
X0226000Y0043540D01*
X0223540Y0046000D01*
X0220060Y0046000D01*
X0218057Y0043997D01*
X0218057Y0050120D01*
X0217400Y0050778D01*
X0217400Y0097822D01*
X0218057Y0098480D01*
X0218057Y0105120D01*
X0217120Y0106057D01*
X0210480Y0106057D01*
X0210400Y0105978D01*
X0210400Y0133200D01*
X0215309Y0133200D01*
X0217600Y0130909D01*
X0217600Y0130060D01*
X0220060Y0127600D01*
X0223540Y0127600D01*
X0225340Y0129400D01*
X0240806Y0129400D01*
X0247600Y0122606D01*
X0247600Y0120060D01*
X0250060Y0117600D01*
X0251217Y0117600D01*
X0258613Y0102807D01*
X0258600Y0102775D01*
X0258600Y0100825D01*
X0259346Y0099024D01*
X0260724Y0097646D01*
X0262525Y0096900D01*
X0271075Y0096900D01*
X0272876Y0097646D01*
X0274254Y0099024D01*
X0275000Y0100825D01*
X0275000Y0102775D01*
X0274254Y0104576D01*
X0272876Y0105954D01*
X0271075Y0106700D01*
X0262525Y0106700D01*
X0262118Y0106531D01*
X0261779Y0107209D01*
X0262525Y0106900D01*
X0271075Y0106900D01*
X0272876Y0107646D01*
X0274254Y0109024D01*
X0275000Y0110825D01*
X0275000Y0112775D01*
X0274254Y0114576D01*
X0272876Y0115954D01*
X0271075Y0116700D01*
X0262525Y0116700D01*
X0260724Y0115954D01*
X0259346Y0114576D01*
X0258779Y0113208D01*
X0255569Y0119629D01*
X0256000Y0120060D01*
X0256000Y0123540D01*
X0253540Y0126000D01*
X0250994Y0126000D01*
X0243159Y0133835D01*
X0242277Y0134200D01*
X0225340Y0134200D01*
X0223540Y0136000D01*
X0222691Y0136000D01*
X0219852Y0138839D01*
X0218839Y0139852D01*
X0217516Y0140400D01*
X0210400Y0140400D01*
X0210400Y0175309D01*
X0218839Y0183748D01*
X0219852Y0184761D01*
X0220400Y0186084D01*
X0220400Y0235309D01*
X0222600Y0237509D01*
X0222600Y0235060D01*
X0225060Y0232600D01*
X0228540Y0232600D01*
X0231000Y0235060D01*
X0231000Y0238540D01*
X0228540Y0241000D01*
X0226091Y0241000D01*
X0227691Y0242600D01*
X0228540Y0242600D01*
X0231000Y0245060D01*
X0231000Y0246610D01*
X0238727Y0258200D01*
X0254575Y0258200D01*
X0257600Y0252150D01*
X0257600Y0250060D01*
X0260060Y0247600D01*
X0261217Y0247600D01*
X0264615Y0240803D01*
X0264765Y0240441D01*
X0264828Y0240378D01*
X0264867Y0240300D01*
X0265163Y0240043D01*
X0265441Y0239765D01*
X0265522Y0239732D01*
X0265588Y0239674D01*
X0265960Y0239550D01*
X0266323Y0239400D01*
X0266411Y0239400D01*
X0266494Y0239372D01*
X0266885Y0239400D01*
X0274190Y0239400D01*
X0274346Y0239024D01*
X0275724Y0237646D01*
X0277525Y0236900D01*
X0286075Y0236900D01*
X0287876Y0237646D01*
X0289254Y0239024D01*
X0290000Y0240825D01*
X0290000Y0242775D01*
X0289254Y0244576D01*
X0287876Y0245954D01*
X0286075Y0246700D01*
X0277525Y0246700D01*
X0275724Y0245954D01*
X0274346Y0244576D01*
X0274190Y0244200D01*
X0268283Y0244200D01*
X0265569Y0249629D01*
X0266000Y0250060D01*
X0266000Y0253540D01*
X0266000Y0252525D02*
X0273600Y0252525D01*
X0273600Y0252775D02*
X0273600Y0250825D01*
X0274346Y0249024D01*
X0275724Y0247646D01*
X0277525Y0246900D01*
X0286075Y0246900D01*
X0287876Y0247646D01*
X0289254Y0249024D01*
X0290000Y0250825D01*
X0290000Y0252775D01*
X0289254Y0254576D01*
X0287876Y0255954D01*
X0286075Y0256700D01*
X0277525Y0256700D01*
X0275724Y0255954D01*
X0274346Y0254576D01*
X0273600Y0252775D01*
X0273600Y0250926D02*
X0266000Y0250926D01*
X0265719Y0249328D02*
X0274220Y0249328D01*
X0275641Y0247729D02*
X0266519Y0247729D01*
X0267318Y0246131D02*
X0276151Y0246131D01*
X0274328Y0244532D02*
X0268117Y0244532D01*
X0266800Y0241800D02*
X0281800Y0241800D01*
X0277525Y0236700D02*
X0275724Y0235954D01*
X0274346Y0234576D01*
X0273600Y0232775D01*
X0273600Y0230825D01*
X0274346Y0229024D01*
X0275724Y0227646D01*
X0277525Y0226900D01*
X0286075Y0226900D01*
X0287876Y0227646D01*
X0289254Y0229024D01*
X0290000Y0230825D01*
X0290000Y0232775D01*
X0289254Y0234576D01*
X0287876Y0235954D01*
X0286075Y0236700D01*
X0277525Y0236700D01*
X0277138Y0236539D02*
X0231000Y0236539D01*
X0231000Y0238138D02*
X0275232Y0238138D01*
X0274711Y0234941D02*
X0230881Y0234941D01*
X0229282Y0233342D02*
X0273835Y0233342D01*
X0273600Y0231744D02*
X0220400Y0231744D01*
X0220400Y0233342D02*
X0224318Y0233342D01*
X0222719Y0234941D02*
X0220400Y0234941D01*
X0221631Y0236539D02*
X0222600Y0236539D01*
X0214645Y0239737D02*
X0175676Y0239737D01*
X0176000Y0240060D02*
X0173540Y0237600D01*
X0170060Y0237600D01*
X0167600Y0240060D01*
X0167600Y0243540D01*
X0170060Y0246000D01*
X0173540Y0246000D01*
X0176000Y0243540D01*
X0176000Y0240060D01*
X0176000Y0241335D02*
X0216244Y0241335D01*
X0217842Y0242934D02*
X0176000Y0242934D01*
X0175008Y0244532D02*
X0218977Y0244532D01*
X0217378Y0246131D02*
X0021600Y0246131D01*
X0021600Y0247729D02*
X0114931Y0247729D01*
X0115060Y0246000D02*
X0112600Y0243540D01*
X0112600Y0240060D01*
X0115060Y0237600D01*
X0118540Y0237600D01*
X0121000Y0240060D01*
X0121000Y0243540D01*
X0118540Y0246000D01*
X0115060Y0246000D01*
X0113592Y0244532D02*
X0100008Y0244532D01*
X0101000Y0243540D02*
X0098540Y0246000D01*
X0095060Y0246000D01*
X0092600Y0243540D01*
X0092600Y0240060D01*
X0095060Y0237600D01*
X0098540Y0237600D01*
X0101000Y0240060D01*
X0101000Y0243540D01*
X0101000Y0242934D02*
X0112600Y0242934D01*
X0112600Y0241335D02*
X0101000Y0241335D01*
X0100676Y0239737D02*
X0112924Y0239737D01*
X0114522Y0238138D02*
X0099078Y0238138D01*
X0094522Y0238138D02*
X0089078Y0238138D01*
X0088540Y0237600D02*
X0091000Y0240060D01*
X0091000Y0243540D01*
X0088540Y0246000D01*
X0085060Y0246000D01*
X0082600Y0243540D01*
X0082600Y0240060D01*
X0085060Y0237600D01*
X0088540Y0237600D01*
X0090676Y0239737D02*
X0092924Y0239737D01*
X0092600Y0241335D02*
X0091000Y0241335D01*
X0091000Y0242934D02*
X0092600Y0242934D01*
X0093592Y0244532D02*
X0090008Y0244532D01*
X0083592Y0244532D02*
X0021600Y0244532D01*
X0021600Y0242934D02*
X0082600Y0242934D01*
X0082600Y0241335D02*
X0021600Y0241335D01*
X0021600Y0239737D02*
X0082924Y0239737D01*
X0084522Y0238138D02*
X0021600Y0238138D01*
X0021600Y0236539D02*
X0213200Y0236539D01*
X0213200Y0234941D02*
X0149599Y0234941D01*
X0148540Y0236000D02*
X0145060Y0236000D01*
X0142600Y0233540D01*
X0142600Y0230060D01*
X0145060Y0227600D01*
X0148540Y0227600D01*
X0151000Y0230060D01*
X0151000Y0233540D01*
X0148540Y0236000D01*
X0151000Y0233342D02*
X0213200Y0233342D01*
X0213200Y0231744D02*
X0151000Y0231744D01*
X0151000Y0230145D02*
X0213200Y0230145D01*
X0213200Y0228547D02*
X0149487Y0228547D01*
X0148540Y0226000D02*
X0145060Y0226000D01*
X0142600Y0223540D01*
X0142600Y0220060D01*
X0145060Y0217600D01*
X0148540Y0217600D01*
X0151000Y0220060D01*
X0151000Y0223540D01*
X0148540Y0226000D01*
X0149190Y0225350D02*
X0213200Y0225350D01*
X0213200Y0226948D02*
X0143500Y0226948D01*
X0143500Y0228540D02*
X0141040Y0231000D01*
X0137560Y0231000D01*
X0135100Y0228540D01*
X0135100Y0225060D01*
X0137560Y0222600D01*
X0141040Y0222600D01*
X0143500Y0225060D01*
X0143500Y0228540D01*
X0143493Y0228547D02*
X0144113Y0228547D01*
X0142600Y0230145D02*
X0141894Y0230145D01*
X0142600Y0231744D02*
X0021600Y0231744D01*
X0021600Y0233342D02*
X0142600Y0233342D01*
X0144001Y0234941D02*
X0021600Y0234941D01*
X0021600Y0230145D02*
X0136706Y0230145D01*
X0135107Y0228547D02*
X0021600Y0228547D01*
X0021600Y0226948D02*
X0135100Y0226948D01*
X0135100Y0225350D02*
X0021600Y0225350D01*
X0021600Y0223751D02*
X0136409Y0223751D01*
X0142191Y0223751D02*
X0142812Y0223751D01*
X0142600Y0222153D02*
X0049456Y0222153D01*
X0048225Y0222663D02*
X0045375Y0222663D01*
X0042743Y0221573D01*
X0040728Y0219558D01*
X0039638Y0216925D01*
X0039638Y0214076D01*
X0040728Y0211444D01*
X0042743Y0209429D01*
X0045375Y0208339D01*
X0048225Y0208339D01*
X0050857Y0209429D01*
X0052872Y0211444D01*
X0053962Y0214076D01*
X0053962Y0216925D01*
X0052872Y0219558D01*
X0050857Y0221573D01*
X0048225Y0222663D01*
X0044144Y0222153D02*
X0021600Y0222153D01*
X0021600Y0220554D02*
X0041725Y0220554D01*
X0040479Y0218956D02*
X0021600Y0218956D01*
X0021600Y0217357D02*
X0039817Y0217357D01*
X0039638Y0215759D02*
X0021600Y0215759D01*
X0021600Y0214160D02*
X0039638Y0214160D01*
X0040265Y0212562D02*
X0021600Y0212562D01*
X0021600Y0210963D02*
X0041209Y0210963D01*
X0042898Y0209365D02*
X0021600Y0209365D01*
X0021600Y0207766D02*
X0114894Y0207766D01*
X0115060Y0207600D02*
X0118540Y0207600D01*
X0121000Y0210060D01*
X0121000Y0213540D01*
X0118540Y0216000D01*
X0115060Y0216000D01*
X0112600Y0213540D01*
X0112600Y0210060D01*
X0115060Y0207600D01*
X0114977Y0206200D02*
X0112400Y0203623D01*
X0112400Y0201800D01*
X0116800Y0201800D01*
X0116800Y0201800D01*
X0116800Y0206200D01*
X0118623Y0206200D01*
X0121200Y0203623D01*
X0121200Y0201800D01*
X0116800Y0201800D01*
X0116800Y0201800D01*
X0116800Y0201800D01*
X0116800Y0206200D01*
X0114977Y0206200D01*
X0114945Y0206168D02*
X0021600Y0206168D01*
X0021600Y0204569D02*
X0113347Y0204569D01*
X0112400Y0202971D02*
X0021600Y0202971D01*
X0021600Y0201372D02*
X0112400Y0201372D01*
X0112400Y0201800D02*
X0112400Y0199977D01*
X0114977Y0197400D01*
X0116800Y0197400D01*
X0118623Y0197400D01*
X0121200Y0199977D01*
X0121200Y0201800D01*
X0116800Y0201800D01*
X0116800Y0197400D01*
X0116800Y0201800D01*
X0116800Y0201800D01*
X0112400Y0201800D01*
X0112604Y0199774D02*
X0021600Y0199774D01*
X0021600Y0198175D02*
X0114202Y0198175D01*
X0116800Y0198175D02*
X0116800Y0198175D01*
X0116800Y0199774D02*
X0116800Y0199774D01*
X0116800Y0201372D02*
X0116800Y0201372D01*
X0116800Y0202971D02*
X0116800Y0202971D01*
X0116800Y0204569D02*
X0116800Y0204569D01*
X0116800Y0206168D02*
X0116800Y0206168D01*
X0118655Y0206168D02*
X0142600Y0206168D01*
X0142600Y0205060D02*
X0145060Y0202600D01*
X0148540Y0202600D01*
X0151000Y0205060D01*
X0151000Y0208540D01*
X0148540Y0211000D01*
X0145060Y0211000D01*
X0142600Y0208540D01*
X0142600Y0205060D01*
X0143091Y0204569D02*
X0120253Y0204569D01*
X0121200Y0202971D02*
X0144690Y0202971D01*
X0144977Y0201200D02*
X0142400Y0198623D01*
X0142400Y0196800D01*
X0146800Y0196800D01*
X0146800Y0196800D01*
X0146800Y0201200D01*
X0148623Y0201200D01*
X0151200Y0198623D01*
X0151200Y0196800D01*
X0146800Y0196800D01*
X0146800Y0196800D01*
X0146800Y0196800D01*
X0146800Y0201200D01*
X0144977Y0201200D01*
X0143551Y0199774D02*
X0120996Y0199774D01*
X0121200Y0201372D02*
X0213200Y0201372D01*
X0213200Y0199774D02*
X0174766Y0199774D01*
X0173540Y0201000D02*
X0170060Y0201000D01*
X0167600Y0198540D01*
X0167600Y0195060D01*
X0170060Y0192600D01*
X0173540Y0192600D01*
X0176000Y0195060D01*
X0176000Y0198540D01*
X0173540Y0201000D01*
X0173540Y0202600D02*
X0170060Y0202600D01*
X0167600Y0205060D01*
X0167600Y0208540D01*
X0170060Y0211000D01*
X0173540Y0211000D01*
X0176000Y0208540D01*
X0176000Y0205060D01*
X0173540Y0202600D01*
X0173910Y0202971D02*
X0213200Y0202971D01*
X0213200Y0204569D02*
X0175509Y0204569D01*
X0176000Y0206168D02*
X0213200Y0206168D01*
X0213200Y0207766D02*
X0176000Y0207766D01*
X0175175Y0209365D02*
X0213200Y0209365D01*
X0213200Y0210963D02*
X0173576Y0210963D01*
X0170024Y0210963D02*
X0148576Y0210963D01*
X0150175Y0209365D02*
X0168425Y0209365D01*
X0167600Y0207766D02*
X0151000Y0207766D01*
X0151000Y0206168D02*
X0167600Y0206168D01*
X0168091Y0204569D02*
X0150509Y0204569D01*
X0148910Y0202971D02*
X0169690Y0202971D01*
X0168834Y0199774D02*
X0150049Y0199774D01*
X0151200Y0198175D02*
X0167600Y0198175D01*
X0167600Y0196577D02*
X0151200Y0196577D01*
X0151200Y0196800D02*
X0146800Y0196800D01*
X0146800Y0192400D01*
X0148623Y0192400D01*
X0151200Y0194977D01*
X0151200Y0196800D01*
X0151200Y0194978D02*
X0167682Y0194978D01*
X0169281Y0193380D02*
X0149602Y0193380D01*
X0146800Y0193380D02*
X0146800Y0193380D01*
X0146800Y0192400D02*
X0144977Y0192400D01*
X0142400Y0194977D01*
X0142400Y0196800D01*
X0146800Y0196800D01*
X0146800Y0196800D01*
X0146800Y0192400D01*
X0146800Y0194978D02*
X0146800Y0194978D01*
X0146800Y0196577D02*
X0146800Y0196577D01*
X0146800Y0198175D02*
X0146800Y0198175D01*
X0146800Y0199774D02*
X0146800Y0199774D01*
X0142400Y0198175D02*
X0119398Y0198175D01*
X0118706Y0207766D02*
X0142600Y0207766D01*
X0143425Y0209365D02*
X0120304Y0209365D01*
X0121000Y0210963D02*
X0145024Y0210963D01*
X0143704Y0218956D02*
X0053121Y0218956D01*
X0053783Y0217357D02*
X0213200Y0217357D01*
X0213200Y0215759D02*
X0118781Y0215759D01*
X0120379Y0214160D02*
X0213200Y0214160D01*
X0213200Y0212562D02*
X0121000Y0212562D01*
X0114819Y0215759D02*
X0053962Y0215759D01*
X0053962Y0214160D02*
X0113221Y0214160D01*
X0112600Y0212562D02*
X0053335Y0212562D01*
X0052391Y0210963D02*
X0112600Y0210963D01*
X0113296Y0209365D02*
X0050702Y0209365D01*
X0051875Y0220554D02*
X0142600Y0220554D01*
X0149896Y0218956D02*
X0213200Y0218956D01*
X0213200Y0220554D02*
X0151000Y0220554D01*
X0151000Y0222153D02*
X0213200Y0222153D01*
X0213200Y0223751D02*
X0150788Y0223751D01*
X0144410Y0225350D02*
X0143500Y0225350D01*
X0120676Y0239737D02*
X0167924Y0239737D01*
X0167600Y0241335D02*
X0121000Y0241335D01*
X0121000Y0242934D02*
X0167600Y0242934D01*
X0168592Y0244532D02*
X0120008Y0244532D01*
X0118669Y0247729D02*
X0169931Y0247729D01*
X0168333Y0249328D02*
X0120267Y0249328D01*
X0116800Y0251800D02*
X0171800Y0251800D01*
X0173669Y0247729D02*
X0215780Y0247729D01*
X0222765Y0250926D02*
X0224986Y0250926D01*
X0226290Y0252525D02*
X0221167Y0252525D01*
X0219568Y0254123D02*
X0227355Y0254123D01*
X0228421Y0255722D02*
X0173818Y0255722D01*
X0169782Y0255722D02*
X0118818Y0255722D01*
X0114782Y0255722D02*
X0036107Y0255722D01*
X0035682Y0254985D02*
X0037143Y0257516D01*
X0037899Y0260339D01*
X0037899Y0263261D01*
X0037143Y0266084D01*
X0036637Y0266961D01*
X0391963Y0266961D01*
X0391457Y0266084D01*
X0390701Y0263261D01*
X0390701Y0260339D01*
X0391457Y0257516D01*
X0392918Y0254985D01*
X0394985Y0252918D01*
X0397516Y0251457D01*
X0400339Y0250701D01*
X0403261Y0250701D01*
X0405701Y0251354D01*
X0405701Y0028582D01*
X0405682Y0028615D01*
X0403615Y0030682D01*
X0401084Y0032143D01*
X0398261Y0032899D01*
X0395339Y0032899D01*
X0392516Y0032143D01*
X0389985Y0030682D01*
X0387918Y0028615D01*
X0386457Y0026084D01*
X0385701Y0023261D01*
X0385701Y0020339D01*
X0386457Y0017516D01*
X0386986Y0016600D01*
X0036614Y0016600D01*
X0037143Y0017516D01*
X0037899Y0020339D01*
X0037899Y0023261D01*
X0037143Y0026084D01*
X0035682Y0028615D01*
X0033615Y0030682D01*
X0031084Y0032143D01*
X0028261Y0032899D01*
X0025339Y0032899D01*
X0022516Y0032143D01*
X0021600Y0031614D01*
X0021600Y0251986D01*
X0022516Y0251457D01*
X0025339Y0250701D01*
X0028261Y0250701D01*
X0031084Y0251457D01*
X0033615Y0252918D01*
X0035682Y0254985D01*
X0034820Y0254123D02*
X0113183Y0254123D01*
X0112600Y0252525D02*
X0032933Y0252525D01*
X0029102Y0250926D02*
X0112600Y0250926D01*
X0113333Y0249328D02*
X0021600Y0249328D01*
X0021600Y0250926D02*
X0024498Y0250926D01*
X0037030Y0257320D02*
X0229487Y0257320D01*
X0230552Y0258919D02*
X0037519Y0258919D01*
X0037899Y0260517D02*
X0231618Y0260517D01*
X0232684Y0262116D02*
X0037899Y0262116D01*
X0037778Y0263714D02*
X0233696Y0263714D01*
X0235873Y0265313D02*
X0037350Y0265313D01*
X0036665Y0266911D02*
X0391935Y0266911D01*
X0391250Y0265313D02*
X0257727Y0265313D01*
X0259904Y0263714D02*
X0390822Y0263714D01*
X0390701Y0262116D02*
X0260667Y0262116D01*
X0261466Y0260517D02*
X0390701Y0260517D01*
X0391081Y0258919D02*
X0353754Y0258919D01*
X0353078Y0259100D02*
X0348522Y0259100D01*
X0344122Y0257921D01*
X0340178Y0255643D01*
X0336957Y0252422D01*
X0334679Y0248478D01*
X0333500Y0244078D01*
X0333500Y0239522D01*
X0334679Y0235122D01*
X0336957Y0231178D01*
X0340178Y0227957D01*
X0344122Y0225679D01*
X0348522Y0224500D01*
X0353078Y0224500D01*
X0357478Y0225679D01*
X0361422Y0227957D01*
X0364643Y0231178D01*
X0366921Y0235122D01*
X0368100Y0239522D01*
X0368100Y0244078D01*
X0366921Y0248478D01*
X0364643Y0252422D01*
X0361422Y0255643D01*
X0357478Y0257921D01*
X0353078Y0259100D01*
X0347846Y0258919D02*
X0262266Y0258919D01*
X0263065Y0257320D02*
X0343082Y0257320D01*
X0340313Y0255722D02*
X0288108Y0255722D01*
X0289441Y0254123D02*
X0338657Y0254123D01*
X0337059Y0252525D02*
X0290000Y0252525D01*
X0290000Y0250926D02*
X0336093Y0250926D01*
X0335170Y0249328D02*
X0289380Y0249328D01*
X0287959Y0247729D02*
X0334478Y0247729D01*
X0334050Y0246131D02*
X0287449Y0246131D01*
X0289272Y0244532D02*
X0333622Y0244532D01*
X0333500Y0242934D02*
X0289934Y0242934D01*
X0290000Y0241335D02*
X0333500Y0241335D01*
X0333500Y0239737D02*
X0289549Y0239737D01*
X0288368Y0238138D02*
X0333871Y0238138D01*
X0334299Y0236539D02*
X0286462Y0236539D01*
X0288889Y0234941D02*
X0334784Y0234941D01*
X0335707Y0233342D02*
X0289765Y0233342D01*
X0290000Y0231744D02*
X0336630Y0231744D01*
X0337989Y0230145D02*
X0289718Y0230145D01*
X0288777Y0228547D02*
X0339587Y0228547D01*
X0341924Y0226948D02*
X0286192Y0226948D01*
X0277408Y0226948D02*
X0220400Y0226948D01*
X0220400Y0225350D02*
X0224410Y0225350D01*
X0225060Y0226000D02*
X0222600Y0223540D01*
X0222600Y0220060D01*
X0225060Y0217600D01*
X0228540Y0217600D01*
X0231000Y0220060D01*
X0231000Y0223540D01*
X0228540Y0226000D01*
X0225060Y0226000D01*
X0222812Y0223751D02*
X0220400Y0223751D01*
X0220400Y0222153D02*
X0222600Y0222153D01*
X0222600Y0220554D02*
X0220400Y0220554D01*
X0220400Y0218956D02*
X0223704Y0218956D01*
X0225060Y0216000D02*
X0222600Y0213540D01*
X0222600Y0210060D01*
X0225060Y0207600D01*
X0228540Y0207600D01*
X0231000Y0210060D01*
X0231000Y0213540D01*
X0228540Y0216000D01*
X0225060Y0216000D01*
X0224819Y0215759D02*
X0220400Y0215759D01*
X0220400Y0217357D02*
X0405701Y0217357D01*
X0405701Y0215759D02*
X0228781Y0215759D01*
X0230379Y0214160D02*
X0405701Y0214160D01*
X0405701Y0212562D02*
X0231000Y0212562D01*
X0231000Y0210963D02*
X0405701Y0210963D01*
X0405701Y0209365D02*
X0230304Y0209365D01*
X0228706Y0207766D02*
X0405701Y0207766D01*
X0405701Y0206168D02*
X0220400Y0206168D01*
X0220400Y0207766D02*
X0224894Y0207766D01*
X0223296Y0209365D02*
X0220400Y0209365D01*
X0220400Y0210963D02*
X0222600Y0210963D01*
X0222600Y0212562D02*
X0220400Y0212562D01*
X0220400Y0214160D02*
X0223221Y0214160D01*
X0229896Y0218956D02*
X0405701Y0218956D01*
X0405701Y0220554D02*
X0231000Y0220554D01*
X0231000Y0222153D02*
X0405701Y0222153D01*
X0405701Y0223751D02*
X0384691Y0223751D01*
X0383540Y0222600D02*
X0386000Y0225060D01*
X0386000Y0228540D01*
X0383540Y0231000D01*
X0380060Y0231000D01*
X0377600Y0228540D01*
X0377600Y0225060D01*
X0380060Y0222600D01*
X0383540Y0222600D01*
X0386000Y0225350D02*
X0405701Y0225350D01*
X0405701Y0226948D02*
X0386000Y0226948D01*
X0385993Y0228547D02*
X0405701Y0228547D01*
X0405701Y0230145D02*
X0384394Y0230145D01*
X0379206Y0230145D02*
X0374394Y0230145D01*
X0373540Y0231000D02*
X0370060Y0231000D01*
X0367600Y0228540D01*
X0367600Y0225060D01*
X0370060Y0222600D01*
X0373540Y0222600D01*
X0376000Y0225060D01*
X0376000Y0228540D01*
X0373540Y0231000D01*
X0375993Y0228547D02*
X0377607Y0228547D01*
X0377600Y0226948D02*
X0376000Y0226948D01*
X0376000Y0225350D02*
X0377600Y0225350D01*
X0378909Y0223751D02*
X0374691Y0223751D01*
X0368909Y0223751D02*
X0230788Y0223751D01*
X0229190Y0225350D02*
X0345351Y0225350D01*
X0356249Y0225350D02*
X0367600Y0225350D01*
X0367600Y0226948D02*
X0359676Y0226948D01*
X0362013Y0228547D02*
X0367607Y0228547D01*
X0369206Y0230145D02*
X0363611Y0230145D01*
X0364970Y0231744D02*
X0405701Y0231744D01*
X0405701Y0233342D02*
X0365893Y0233342D01*
X0366816Y0234941D02*
X0405701Y0234941D01*
X0405701Y0236539D02*
X0367301Y0236539D01*
X0367729Y0238138D02*
X0405701Y0238138D01*
X0405701Y0239737D02*
X0368100Y0239737D01*
X0368100Y0241335D02*
X0405701Y0241335D01*
X0405701Y0242934D02*
X0368100Y0242934D01*
X0367978Y0244532D02*
X0405701Y0244532D01*
X0405701Y0246131D02*
X0367550Y0246131D01*
X0367122Y0247729D02*
X0405701Y0247729D01*
X0405701Y0249328D02*
X0366430Y0249328D01*
X0365507Y0250926D02*
X0399498Y0250926D01*
X0395667Y0252525D02*
X0364541Y0252525D01*
X0362943Y0254123D02*
X0393780Y0254123D01*
X0392493Y0255722D02*
X0361287Y0255722D01*
X0358518Y0257320D02*
X0391570Y0257320D01*
X0404102Y0250926D02*
X0405701Y0250926D01*
X0405701Y0204569D02*
X0220400Y0204569D01*
X0220400Y0202971D02*
X0344308Y0202971D01*
X0344122Y0202921D02*
X0340178Y0200643D01*
X0336957Y0197422D01*
X0334679Y0193478D01*
X0333500Y0189078D01*
X0333500Y0184522D01*
X0334679Y0180122D01*
X0336957Y0176178D01*
X0340178Y0172957D01*
X0344122Y0170679D01*
X0348522Y0169500D01*
X0353078Y0169500D01*
X0357478Y0170679D01*
X0361422Y0172957D01*
X0364643Y0176178D01*
X0366921Y0180122D01*
X0368100Y0184522D01*
X0368100Y0189078D01*
X0366921Y0193478D01*
X0364643Y0197422D01*
X0361422Y0200643D01*
X0357478Y0202921D01*
X0353078Y0204100D01*
X0348522Y0204100D01*
X0344122Y0202921D01*
X0341440Y0201372D02*
X0286866Y0201372D01*
X0286075Y0201700D02*
X0287876Y0200954D01*
X0289254Y0199576D01*
X0290000Y0197775D01*
X0290000Y0195825D01*
X0289254Y0194024D01*
X0287876Y0192646D01*
X0286075Y0191900D01*
X0277525Y0191900D01*
X0275724Y0192646D01*
X0274346Y0194024D01*
X0273600Y0195825D01*
X0273600Y0197775D01*
X0274346Y0199576D01*
X0275724Y0200954D01*
X0277525Y0201700D01*
X0286075Y0201700D01*
X0289056Y0199774D02*
X0339308Y0199774D01*
X0337709Y0198175D02*
X0289834Y0198175D01*
X0290000Y0196577D02*
X0336468Y0196577D01*
X0335545Y0194978D02*
X0289649Y0194978D01*
X0288609Y0193380D02*
X0334653Y0193380D01*
X0334224Y0191781D02*
X0220400Y0191781D01*
X0220400Y0190183D02*
X0224243Y0190183D01*
X0225060Y0191000D02*
X0222600Y0188540D01*
X0222600Y0185060D01*
X0225060Y0182600D01*
X0228540Y0182600D01*
X0231000Y0185060D01*
X0231000Y0188540D01*
X0228540Y0191000D01*
X0225060Y0191000D01*
X0222644Y0188584D02*
X0220400Y0188584D01*
X0220400Y0186986D02*
X0222600Y0186986D01*
X0222600Y0185387D02*
X0220111Y0185387D01*
X0218880Y0183789D02*
X0223872Y0183789D01*
X0225060Y0181000D02*
X0222600Y0178540D01*
X0222600Y0175060D01*
X0225060Y0172600D01*
X0228540Y0172600D01*
X0231000Y0175060D01*
X0231000Y0178540D01*
X0228540Y0181000D01*
X0225060Y0181000D01*
X0224652Y0180592D02*
X0215683Y0180592D01*
X0217281Y0182190D02*
X0276825Y0182190D01*
X0277525Y0181900D02*
X0286075Y0181900D01*
X0287876Y0182646D01*
X0289254Y0184024D01*
X0290000Y0185825D01*
X0290000Y0187775D01*
X0289254Y0189576D01*
X0287876Y0190954D01*
X0286075Y0191700D01*
X0277525Y0191700D01*
X0275724Y0190954D01*
X0274346Y0189576D01*
X0274190Y0189200D01*
X0260340Y0189200D01*
X0258540Y0191000D01*
X0255060Y0191000D01*
X0252600Y0188540D01*
X0252600Y0185060D01*
X0255060Y0182600D01*
X0258540Y0182600D01*
X0260340Y0184400D01*
X0274190Y0184400D01*
X0274346Y0184024D01*
X0275724Y0182646D01*
X0277525Y0181900D01*
X0277525Y0181700D02*
X0275724Y0180954D01*
X0274346Y0179576D01*
X0273600Y0177775D01*
X0273600Y0175825D01*
X0274346Y0174024D01*
X0275724Y0172646D01*
X0277525Y0171900D01*
X0286075Y0171900D01*
X0287876Y0172646D01*
X0289254Y0174024D01*
X0290000Y0175825D01*
X0290000Y0177775D01*
X0289254Y0179576D01*
X0287876Y0180954D01*
X0286075Y0181700D01*
X0277525Y0181700D01*
X0275362Y0180592D02*
X0228948Y0180592D01*
X0230547Y0178993D02*
X0274105Y0178993D01*
X0273600Y0177395D02*
X0231000Y0177395D01*
X0231000Y0175796D02*
X0273612Y0175796D01*
X0274274Y0174198D02*
X0230137Y0174198D01*
X0223463Y0174198D02*
X0210400Y0174198D01*
X0210400Y0172599D02*
X0275838Y0172599D01*
X0287762Y0172599D02*
X0340797Y0172599D01*
X0338937Y0174198D02*
X0289326Y0174198D01*
X0289988Y0175796D02*
X0337338Y0175796D01*
X0336254Y0177395D02*
X0290000Y0177395D01*
X0289495Y0178993D02*
X0335331Y0178993D01*
X0334553Y0180592D02*
X0288238Y0180592D01*
X0286775Y0182190D02*
X0334125Y0182190D01*
X0333697Y0183789D02*
X0289018Y0183789D01*
X0289818Y0185387D02*
X0333500Y0185387D01*
X0333500Y0186986D02*
X0290000Y0186986D01*
X0289665Y0188584D02*
X0333500Y0188584D01*
X0333796Y0190183D02*
X0288647Y0190183D01*
X0281800Y0186800D02*
X0256800Y0186800D01*
X0253872Y0183789D02*
X0229728Y0183789D01*
X0231000Y0185387D02*
X0252600Y0185387D01*
X0252600Y0186986D02*
X0231000Y0186986D01*
X0230956Y0188584D02*
X0252644Y0188584D01*
X0254243Y0190183D02*
X0229357Y0190183D01*
X0220400Y0193380D02*
X0254281Y0193380D01*
X0255060Y0192600D02*
X0258540Y0192600D01*
X0261000Y0195060D01*
X0261000Y0198540D01*
X0258540Y0201000D01*
X0255060Y0201000D01*
X0252600Y0198540D01*
X0252600Y0195060D01*
X0255060Y0192600D01*
X0252682Y0194978D02*
X0220400Y0194978D01*
X0220400Y0196577D02*
X0252600Y0196577D01*
X0252600Y0198175D02*
X0220400Y0198175D01*
X0220400Y0199774D02*
X0253834Y0199774D01*
X0259766Y0199774D02*
X0274544Y0199774D01*
X0273766Y0198175D02*
X0261000Y0198175D01*
X0261000Y0196577D02*
X0273600Y0196577D01*
X0273951Y0194978D02*
X0260918Y0194978D01*
X0259319Y0193380D02*
X0274991Y0193380D01*
X0274953Y0190183D02*
X0259357Y0190183D01*
X0259728Y0183789D02*
X0274582Y0183789D01*
X0276734Y0201372D02*
X0220400Y0201372D01*
X0213200Y0198175D02*
X0176000Y0198175D01*
X0176000Y0196577D02*
X0213200Y0196577D01*
X0213200Y0194978D02*
X0209561Y0194978D01*
X0208540Y0196000D02*
X0205060Y0196000D01*
X0202600Y0193540D01*
X0202600Y0190060D01*
X0205060Y0187600D01*
X0208540Y0187600D01*
X0211000Y0190060D01*
X0211000Y0193540D01*
X0208540Y0196000D01*
X0211000Y0193380D02*
X0213200Y0193380D01*
X0213200Y0191781D02*
X0211000Y0191781D01*
X0211000Y0190183D02*
X0213200Y0190183D01*
X0213200Y0188584D02*
X0209524Y0188584D01*
X0211894Y0186986D02*
X0053962Y0186986D01*
X0053962Y0186517D02*
X0052872Y0183885D01*
X0050857Y0181870D01*
X0048225Y0180780D01*
X0045375Y0180780D01*
X0042743Y0181870D01*
X0040728Y0183885D01*
X0039638Y0186517D01*
X0039638Y0189366D01*
X0040728Y0191999D01*
X0042743Y0194014D01*
X0045375Y0195104D01*
X0048225Y0195104D01*
X0050857Y0194014D01*
X0052872Y0191999D01*
X0053962Y0189366D01*
X0053962Y0186517D01*
X0053494Y0185387D02*
X0210296Y0185387D01*
X0208697Y0183789D02*
X0052776Y0183789D01*
X0051177Y0182190D02*
X0207099Y0182190D01*
X0205500Y0180592D02*
X0173948Y0180592D01*
X0173540Y0181000D02*
X0170060Y0181000D01*
X0167600Y0178540D01*
X0167600Y0175060D01*
X0170060Y0172600D01*
X0173540Y0172600D01*
X0176000Y0175060D01*
X0176000Y0178540D01*
X0173540Y0181000D01*
X0175547Y0178993D02*
X0203902Y0178993D01*
X0203200Y0177395D02*
X0176000Y0177395D01*
X0176000Y0175796D02*
X0203200Y0175796D01*
X0203200Y0174198D02*
X0175137Y0174198D01*
X0173623Y0171200D02*
X0171800Y0171200D01*
X0171800Y0166800D01*
X0171800Y0166800D01*
X0176200Y0166800D01*
X0176200Y0168623D01*
X0173623Y0171200D01*
X0173822Y0171001D02*
X0203200Y0171001D01*
X0203200Y0172599D02*
X0021600Y0172599D01*
X0021600Y0171001D02*
X0169778Y0171001D01*
X0169977Y0171200D02*
X0167400Y0168623D01*
X0167400Y0166800D01*
X0171800Y0166800D01*
X0171800Y0166800D01*
X0171800Y0166800D01*
X0171800Y0171200D01*
X0169977Y0171200D01*
X0171800Y0171001D02*
X0171800Y0171001D01*
X0171800Y0169402D02*
X0171800Y0169402D01*
X0171800Y0167803D02*
X0171800Y0167803D01*
X0171800Y0166800D02*
X0167400Y0166800D01*
X0167400Y0164977D01*
X0169977Y0162400D01*
X0171800Y0162400D01*
X0173623Y0162400D01*
X0176200Y0164977D01*
X0176200Y0166800D01*
X0171800Y0166800D01*
X0171800Y0162400D01*
X0171800Y0166800D01*
X0171800Y0166800D01*
X0171800Y0166205D02*
X0171800Y0166205D01*
X0171800Y0164606D02*
X0171800Y0164606D01*
X0171800Y0163008D02*
X0171800Y0163008D01*
X0174230Y0163008D02*
X0203200Y0163008D01*
X0203200Y0164606D02*
X0175829Y0164606D01*
X0176200Y0166205D02*
X0203200Y0166205D01*
X0203200Y0167803D02*
X0176200Y0167803D01*
X0175421Y0169402D02*
X0203200Y0169402D01*
X0210400Y0169402D02*
X0368258Y0169402D01*
X0367600Y0170060D02*
X0370060Y0167600D01*
X0373540Y0167600D01*
X0376000Y0170060D01*
X0376000Y0173540D01*
X0373540Y0176000D01*
X0370060Y0176000D01*
X0367600Y0173540D01*
X0367600Y0170060D01*
X0367600Y0171001D02*
X0358034Y0171001D01*
X0360803Y0172599D02*
X0367600Y0172599D01*
X0368258Y0174198D02*
X0362663Y0174198D01*
X0364262Y0175796D02*
X0369856Y0175796D01*
X0373744Y0175796D02*
X0379856Y0175796D01*
X0380060Y0176000D02*
X0377600Y0173540D01*
X0377600Y0170060D01*
X0380060Y0167600D01*
X0383540Y0167600D01*
X0386000Y0170060D01*
X0386000Y0173540D01*
X0383540Y0176000D01*
X0380060Y0176000D01*
X0378258Y0174198D02*
X0375342Y0174198D01*
X0376000Y0172599D02*
X0377600Y0172599D01*
X0377600Y0171001D02*
X0376000Y0171001D01*
X0375342Y0169402D02*
X0378258Y0169402D01*
X0379857Y0167803D02*
X0373743Y0167803D01*
X0369857Y0167803D02*
X0210400Y0167803D01*
X0210400Y0166205D02*
X0405701Y0166205D01*
X0405701Y0167803D02*
X0383743Y0167803D01*
X0385342Y0169402D02*
X0405701Y0169402D01*
X0405701Y0171001D02*
X0386000Y0171001D01*
X0386000Y0172599D02*
X0405701Y0172599D01*
X0405701Y0174198D02*
X0385342Y0174198D01*
X0383744Y0175796D02*
X0405701Y0175796D01*
X0405701Y0177395D02*
X0365346Y0177395D01*
X0366269Y0178993D02*
X0405701Y0178993D01*
X0405701Y0180592D02*
X0367047Y0180592D01*
X0367475Y0182190D02*
X0405701Y0182190D01*
X0405701Y0183789D02*
X0367903Y0183789D01*
X0368100Y0185387D02*
X0405701Y0185387D01*
X0405701Y0186986D02*
X0368100Y0186986D01*
X0368100Y0188584D02*
X0405701Y0188584D01*
X0405701Y0190183D02*
X0367804Y0190183D01*
X0367376Y0191781D02*
X0405701Y0191781D01*
X0405701Y0193380D02*
X0366947Y0193380D01*
X0366055Y0194978D02*
X0405701Y0194978D01*
X0405701Y0196577D02*
X0365132Y0196577D01*
X0363891Y0198175D02*
X0405701Y0198175D01*
X0405701Y0199774D02*
X0362292Y0199774D01*
X0360160Y0201372D02*
X0405701Y0201372D01*
X0405701Y0202971D02*
X0357292Y0202971D01*
X0343565Y0171001D02*
X0210400Y0171001D01*
X0210887Y0175796D02*
X0222600Y0175796D01*
X0222600Y0177395D02*
X0212486Y0177395D01*
X0214084Y0178993D02*
X0223053Y0178993D01*
X0225060Y0166000D02*
X0222600Y0163540D01*
X0222600Y0160060D01*
X0225060Y0157600D01*
X0228540Y0157600D01*
X0231000Y0160060D01*
X0231000Y0163540D01*
X0228540Y0166000D01*
X0225060Y0166000D01*
X0223667Y0164606D02*
X0210400Y0164606D01*
X0210400Y0163008D02*
X0222600Y0163008D01*
X0222600Y0161409D02*
X0210400Y0161409D01*
X0210400Y0159811D02*
X0222849Y0159811D01*
X0224448Y0158212D02*
X0210400Y0158212D01*
X0210400Y0156614D02*
X0405701Y0156614D01*
X0405701Y0158212D02*
X0229152Y0158212D01*
X0230751Y0159811D02*
X0405701Y0159811D01*
X0405701Y0161409D02*
X0231000Y0161409D01*
X0231000Y0163008D02*
X0405701Y0163008D01*
X0405701Y0164606D02*
X0229933Y0164606D01*
X0228540Y0156000D02*
X0225060Y0156000D01*
X0222600Y0153540D01*
X0222600Y0150060D01*
X0225060Y0147600D01*
X0228540Y0147600D01*
X0231000Y0150060D01*
X0231000Y0153540D01*
X0228540Y0156000D01*
X0229524Y0155015D02*
X0405701Y0155015D01*
X0405701Y0153417D02*
X0231000Y0153417D01*
X0231000Y0151818D02*
X0405701Y0151818D01*
X0405701Y0150220D02*
X0231000Y0150220D01*
X0229561Y0148621D02*
X0405701Y0148621D01*
X0405701Y0147023D02*
X0210400Y0147023D01*
X0210400Y0148621D02*
X0224039Y0148621D01*
X0222600Y0150220D02*
X0210400Y0150220D01*
X0210400Y0151818D02*
X0222600Y0151818D01*
X0222600Y0153417D02*
X0210400Y0153417D01*
X0210400Y0155015D02*
X0224076Y0155015D01*
X0210400Y0145424D02*
X0405701Y0145424D01*
X0405701Y0143826D02*
X0392255Y0143826D01*
X0391925Y0143962D02*
X0389076Y0143962D01*
X0386444Y0142872D01*
X0384429Y0140857D01*
X0383339Y0138225D01*
X0383339Y0135375D01*
X0384429Y0132743D01*
X0386444Y0130728D01*
X0389076Y0129638D01*
X0391925Y0129638D01*
X0394558Y0130728D01*
X0396573Y0132743D01*
X0397663Y0135375D01*
X0397663Y0138225D01*
X0396573Y0140857D01*
X0394558Y0142872D01*
X0391925Y0143962D01*
X0388747Y0143826D02*
X0364696Y0143826D01*
X0364366Y0143962D02*
X0361517Y0143962D01*
X0358885Y0142872D01*
X0356870Y0140857D01*
X0355780Y0138225D01*
X0355780Y0135375D01*
X0356870Y0132743D01*
X0358885Y0130728D01*
X0361517Y0129638D01*
X0364366Y0129638D01*
X0366999Y0130728D01*
X0369014Y0132743D01*
X0370104Y0135375D01*
X0370104Y0138225D01*
X0369014Y0140857D01*
X0366999Y0142872D01*
X0364366Y0143962D01*
X0361188Y0143826D02*
X0210400Y0143826D01*
X0210400Y0142227D02*
X0358240Y0142227D01*
X0356775Y0140629D02*
X0210400Y0140629D01*
X0206800Y0136800D02*
X0186800Y0136800D01*
X0176800Y0146800D01*
X0161800Y0146800D01*
X0156800Y0151800D01*
X0086800Y0151800D01*
X0082600Y0151818D02*
X0021600Y0151818D01*
X0021600Y0150220D02*
X0082600Y0150220D01*
X0084039Y0148621D02*
X0021600Y0148621D01*
X0021600Y0147023D02*
X0157600Y0147023D01*
X0157600Y0145424D02*
X0089115Y0145424D01*
X0088540Y0146000D02*
X0085060Y0146000D01*
X0082600Y0143540D01*
X0082600Y0140060D01*
X0085060Y0137600D01*
X0088540Y0137600D01*
X0091000Y0140060D01*
X0091000Y0143540D01*
X0088540Y0146000D01*
X0089561Y0148621D02*
X0156585Y0148621D01*
X0160176Y0151818D02*
X0203200Y0151818D01*
X0203200Y0150220D02*
X0164320Y0150220D01*
X0164766Y0143826D02*
X0176380Y0143826D01*
X0177979Y0142227D02*
X0091000Y0142227D01*
X0091000Y0140629D02*
X0119689Y0140629D01*
X0120060Y0141000D02*
X0117600Y0138540D01*
X0117600Y0135060D01*
X0120060Y0132600D01*
X0123540Y0132600D01*
X0126000Y0135060D01*
X0126000Y0138540D01*
X0123540Y0141000D01*
X0120060Y0141000D01*
X0118091Y0139030D02*
X0089970Y0139030D01*
X0090714Y0143826D02*
X0158834Y0143826D01*
X0160060Y0141000D02*
X0157600Y0138540D01*
X0157600Y0135060D01*
X0160060Y0132600D01*
X0163540Y0132600D01*
X0166000Y0135060D01*
X0166000Y0138540D01*
X0163540Y0141000D01*
X0160060Y0141000D01*
X0159689Y0140629D02*
X0123911Y0140629D01*
X0125509Y0139030D02*
X0158091Y0139030D01*
X0157600Y0137432D02*
X0126000Y0137432D01*
X0126000Y0135833D02*
X0157600Y0135833D01*
X0158426Y0134235D02*
X0125174Y0134235D01*
X0123576Y0132636D02*
X0160024Y0132636D01*
X0163576Y0132636D02*
X0203200Y0132636D01*
X0203200Y0131038D02*
X0118500Y0131038D01*
X0118500Y0130060D02*
X0116040Y0127600D01*
X0112560Y0127600D01*
X0110100Y0130060D01*
X0110100Y0133540D01*
X0112560Y0136000D01*
X0116040Y0136000D01*
X0118500Y0133540D01*
X0118500Y0130060D01*
X0118500Y0129439D02*
X0117879Y0129439D01*
X0117600Y0128540D02*
X0117600Y0125060D01*
X0120060Y0122600D01*
X0123540Y0122600D01*
X0126000Y0125060D01*
X0126000Y0128540D01*
X0123540Y0131000D01*
X0120060Y0131000D01*
X0117600Y0128540D01*
X0117600Y0127841D02*
X0116280Y0127841D01*
X0117600Y0126242D02*
X0021600Y0126242D01*
X0021600Y0124644D02*
X0118017Y0124644D01*
X0119615Y0123045D02*
X0021600Y0123045D01*
X0021600Y0121447D02*
X0203200Y0121447D01*
X0203200Y0123045D02*
X0123985Y0123045D01*
X0125583Y0124644D02*
X0203200Y0124644D01*
X0203200Y0126242D02*
X0126000Y0126242D01*
X0126000Y0127841D02*
X0203200Y0127841D01*
X0203200Y0129439D02*
X0125100Y0129439D01*
X0120024Y0132636D02*
X0118500Y0132636D01*
X0118426Y0134235D02*
X0117805Y0134235D01*
X0117600Y0135833D02*
X0116206Y0135833D01*
X0117600Y0137432D02*
X0021600Y0137432D01*
X0021600Y0139030D02*
X0083630Y0139030D01*
X0082600Y0140629D02*
X0021600Y0140629D01*
X0021600Y0142227D02*
X0082600Y0142227D01*
X0082886Y0143826D02*
X0021600Y0143826D01*
X0021600Y0145424D02*
X0084485Y0145424D01*
X0082600Y0153417D02*
X0021600Y0153417D01*
X0021600Y0155015D02*
X0084076Y0155015D01*
X0089524Y0155015D02*
X0203200Y0155015D01*
X0203200Y0153417D02*
X0158577Y0153417D01*
X0169370Y0163008D02*
X0021600Y0163008D01*
X0021600Y0164606D02*
X0167771Y0164606D01*
X0167400Y0166205D02*
X0021600Y0166205D01*
X0021600Y0167803D02*
X0167400Y0167803D01*
X0168179Y0169402D02*
X0021600Y0169402D01*
X0021600Y0174198D02*
X0168463Y0174198D01*
X0167600Y0175796D02*
X0021600Y0175796D01*
X0021600Y0177395D02*
X0167600Y0177395D01*
X0168053Y0178993D02*
X0021600Y0178993D01*
X0021600Y0180592D02*
X0169652Y0180592D01*
X0174319Y0193380D02*
X0192600Y0193380D01*
X0192600Y0193540D02*
X0192600Y0190060D01*
X0195060Y0187600D01*
X0198540Y0187600D01*
X0201000Y0190060D01*
X0201000Y0193540D01*
X0198540Y0196000D01*
X0195060Y0196000D01*
X0192600Y0193540D01*
X0192600Y0191781D02*
X0052962Y0191781D01*
X0053624Y0190183D02*
X0192600Y0190183D01*
X0194076Y0188584D02*
X0053962Y0188584D01*
X0051491Y0193380D02*
X0143998Y0193380D01*
X0142400Y0194978D02*
X0048528Y0194978D01*
X0045072Y0194978D02*
X0021600Y0194978D01*
X0021600Y0193380D02*
X0042109Y0193380D01*
X0040638Y0191781D02*
X0021600Y0191781D01*
X0021600Y0190183D02*
X0039976Y0190183D01*
X0039638Y0188584D02*
X0021600Y0188584D01*
X0021600Y0186986D02*
X0039638Y0186986D01*
X0040106Y0185387D02*
X0021600Y0185387D01*
X0021600Y0183789D02*
X0040824Y0183789D01*
X0042423Y0182190D02*
X0021600Y0182190D01*
X0021600Y0196577D02*
X0142400Y0196577D01*
X0175918Y0194978D02*
X0194038Y0194978D01*
X0199561Y0194978D02*
X0204038Y0194978D01*
X0202600Y0193380D02*
X0201000Y0193380D01*
X0201000Y0191781D02*
X0202600Y0191781D01*
X0202600Y0190183D02*
X0201000Y0190183D01*
X0199524Y0188584D02*
X0204076Y0188584D01*
X0203200Y0161409D02*
X0021600Y0161409D01*
X0021600Y0159811D02*
X0203200Y0159811D01*
X0203200Y0158212D02*
X0021600Y0158212D01*
X0021600Y0156614D02*
X0203200Y0156614D01*
X0203200Y0148621D02*
X0178373Y0148621D01*
X0179971Y0147023D02*
X0203200Y0147023D01*
X0203200Y0145424D02*
X0181570Y0145424D01*
X0183168Y0143826D02*
X0203200Y0143826D01*
X0203200Y0142227D02*
X0184767Y0142227D01*
X0186365Y0140629D02*
X0203200Y0140629D01*
X0203200Y0134235D02*
X0165174Y0134235D01*
X0166000Y0135833D02*
X0184373Y0135833D01*
X0182774Y0137432D02*
X0166000Y0137432D01*
X0165509Y0139030D02*
X0181176Y0139030D01*
X0179577Y0140629D02*
X0163911Y0140629D01*
X0163540Y0116000D02*
X0160060Y0116000D01*
X0157600Y0113540D01*
X0157600Y0110060D01*
X0160060Y0107600D01*
X0163540Y0107600D01*
X0166000Y0110060D01*
X0166000Y0113540D01*
X0163540Y0116000D01*
X0164487Y0115053D02*
X0203200Y0115053D01*
X0203200Y0116651D02*
X0091000Y0116651D01*
X0091000Y0115060D02*
X0091000Y0118540D01*
X0088540Y0121000D01*
X0085060Y0121000D01*
X0082600Y0118540D01*
X0082600Y0115060D01*
X0085060Y0112600D01*
X0088540Y0112600D01*
X0091000Y0115060D01*
X0090992Y0115053D02*
X0134113Y0115053D01*
X0135060Y0116000D02*
X0132600Y0113540D01*
X0132600Y0110060D01*
X0135060Y0107600D01*
X0138540Y0107600D01*
X0141000Y0110060D01*
X0141000Y0113540D01*
X0138540Y0116000D01*
X0135060Y0116000D01*
X0132600Y0113454D02*
X0089394Y0113454D01*
X0088623Y0111200D02*
X0086800Y0111200D01*
X0086800Y0106800D01*
X0086800Y0106800D01*
X0091200Y0106800D01*
X0091200Y0108623D01*
X0088623Y0111200D01*
X0089565Y0110257D02*
X0132600Y0110257D01*
X0132600Y0111856D02*
X0021600Y0111856D01*
X0021600Y0113454D02*
X0084206Y0113454D01*
X0082608Y0115053D02*
X0021600Y0115053D01*
X0021600Y0116651D02*
X0082600Y0116651D01*
X0082600Y0118250D02*
X0021600Y0118250D01*
X0021600Y0119848D02*
X0083908Y0119848D01*
X0089692Y0119848D02*
X0203200Y0119848D01*
X0203200Y0118250D02*
X0091000Y0118250D01*
X0086800Y0111200D02*
X0084977Y0111200D01*
X0082400Y0108623D01*
X0082400Y0106800D01*
X0086800Y0106800D01*
X0086800Y0106800D01*
X0086800Y0106800D01*
X0086800Y0111200D01*
X0086800Y0110257D02*
X0086800Y0110257D01*
X0086800Y0108659D02*
X0086800Y0108659D01*
X0086800Y0107060D02*
X0086800Y0107060D01*
X0086800Y0106800D02*
X0082400Y0106800D01*
X0082400Y0104977D01*
X0084977Y0102400D01*
X0086800Y0102400D01*
X0088623Y0102400D01*
X0091200Y0104977D01*
X0091200Y0106800D01*
X0086800Y0106800D01*
X0086800Y0102400D01*
X0086800Y0106800D01*
X0086800Y0106800D01*
X0086800Y0105462D02*
X0086800Y0105462D01*
X0086800Y0103863D02*
X0086800Y0103863D01*
X0090086Y0103863D02*
X0132641Y0103863D01*
X0132400Y0103623D02*
X0132400Y0101800D01*
X0136800Y0101800D01*
X0136800Y0101800D01*
X0136800Y0106200D01*
X0138623Y0106200D01*
X0141200Y0103623D01*
X0141200Y0101800D01*
X0136800Y0101800D01*
X0136800Y0101800D01*
X0136800Y0101800D01*
X0136800Y0106200D01*
X0134977Y0106200D01*
X0132400Y0103623D01*
X0132400Y0102265D02*
X0021600Y0102265D01*
X0021600Y0103863D02*
X0083514Y0103863D01*
X0082400Y0105462D02*
X0021600Y0105462D01*
X0021600Y0107060D02*
X0082400Y0107060D01*
X0082436Y0108659D02*
X0021600Y0108659D01*
X0021600Y0110257D02*
X0084035Y0110257D01*
X0091164Y0108659D02*
X0134002Y0108659D01*
X0134239Y0105462D02*
X0091200Y0105462D01*
X0091200Y0107060D02*
X0203200Y0107060D01*
X0203200Y0105462D02*
X0164078Y0105462D01*
X0163540Y0106000D02*
X0160060Y0106000D01*
X0157600Y0103540D01*
X0157600Y0100060D01*
X0160060Y0097600D01*
X0163540Y0097600D01*
X0166000Y0100060D01*
X0166000Y0103540D01*
X0163540Y0106000D01*
X0164598Y0108659D02*
X0203200Y0108659D01*
X0203200Y0110257D02*
X0166000Y0110257D01*
X0166000Y0111856D02*
X0203200Y0111856D01*
X0203200Y0113454D02*
X0166000Y0113454D01*
X0159113Y0115053D02*
X0139487Y0115053D01*
X0141000Y0113454D02*
X0157600Y0113454D01*
X0157600Y0111856D02*
X0141000Y0111856D01*
X0141000Y0110257D02*
X0157600Y0110257D01*
X0159002Y0108659D02*
X0139598Y0108659D01*
X0139361Y0105462D02*
X0159522Y0105462D01*
X0157923Y0103863D02*
X0140959Y0103863D01*
X0141200Y0102265D02*
X0157600Y0102265D01*
X0157600Y0100666D02*
X0141200Y0100666D01*
X0141200Y0099977D02*
X0141200Y0101800D01*
X0136800Y0101800D01*
X0136800Y0097400D01*
X0138623Y0097400D01*
X0141200Y0099977D01*
X0140290Y0099068D02*
X0158593Y0099068D01*
X0165007Y0099068D02*
X0203200Y0099068D01*
X0203200Y0100666D02*
X0166000Y0100666D01*
X0166000Y0102265D02*
X0203200Y0102265D01*
X0203200Y0103863D02*
X0165677Y0103863D01*
X0163540Y0091000D02*
X0160060Y0091000D01*
X0157600Y0088540D01*
X0157600Y0085060D01*
X0160060Y0082600D01*
X0163540Y0082600D01*
X0166000Y0085060D01*
X0166000Y0088540D01*
X0163540Y0091000D01*
X0165063Y0089476D02*
X0183537Y0089476D01*
X0182600Y0088540D02*
X0182600Y0085060D01*
X0185060Y0082600D01*
X0188540Y0082600D01*
X0191000Y0085060D01*
X0191000Y0088540D01*
X0188540Y0091000D01*
X0185060Y0091000D01*
X0182600Y0088540D01*
X0182600Y0087878D02*
X0166000Y0087878D01*
X0166000Y0086279D02*
X0182600Y0086279D01*
X0182979Y0084681D02*
X0165621Y0084681D01*
X0164022Y0083082D02*
X0184578Y0083082D01*
X0189022Y0083082D02*
X0194578Y0083082D01*
X0195060Y0082600D02*
X0198540Y0082600D01*
X0201000Y0085060D01*
X0201000Y0088540D01*
X0198540Y0091000D01*
X0195060Y0091000D01*
X0192600Y0088540D01*
X0192600Y0085060D01*
X0195060Y0082600D01*
X0192979Y0084681D02*
X0190621Y0084681D01*
X0191000Y0086279D02*
X0192600Y0086279D01*
X0192600Y0087878D02*
X0191000Y0087878D01*
X0190063Y0089476D02*
X0193537Y0089476D01*
X0200063Y0089476D02*
X0203200Y0089476D01*
X0203200Y0087878D02*
X0201000Y0087878D01*
X0201000Y0086279D02*
X0203200Y0086279D01*
X0203200Y0084681D02*
X0200621Y0084681D01*
X0199022Y0083082D02*
X0203200Y0083082D01*
X0203200Y0081484D02*
X0125510Y0081484D01*
X0123912Y0083082D02*
X0159578Y0083082D01*
X0159977Y0081200D02*
X0157400Y0078623D01*
X0157400Y0076800D01*
X0161800Y0076800D01*
X0161800Y0076800D01*
X0161800Y0081200D01*
X0163623Y0081200D01*
X0166200Y0078623D01*
X0166200Y0076800D01*
X0161800Y0076800D01*
X0161800Y0076800D01*
X0161800Y0076800D01*
X0161800Y0081200D01*
X0159977Y0081200D01*
X0158663Y0079885D02*
X0127109Y0079885D01*
X0128707Y0078287D02*
X0157400Y0078287D01*
X0157400Y0076800D02*
X0157400Y0074977D01*
X0159977Y0072400D01*
X0161800Y0072400D01*
X0163623Y0072400D01*
X0166200Y0074977D01*
X0166200Y0076800D01*
X0161800Y0076800D01*
X0161800Y0072400D01*
X0161800Y0076800D01*
X0161800Y0076800D01*
X0157400Y0076800D01*
X0157400Y0076688D02*
X0130306Y0076688D01*
X0131904Y0075090D02*
X0157400Y0075090D01*
X0158886Y0073491D02*
X0133503Y0073491D01*
X0135101Y0071893D02*
X0203200Y0071893D01*
X0203200Y0073491D02*
X0164714Y0073491D01*
X0166200Y0075090D02*
X0203200Y0075090D01*
X0203200Y0076688D02*
X0166200Y0076688D01*
X0166200Y0078287D02*
X0203200Y0078287D01*
X0203200Y0079885D02*
X0164937Y0079885D01*
X0161800Y0079885D02*
X0161800Y0079885D01*
X0161800Y0078287D02*
X0161800Y0078287D01*
X0161800Y0076688D02*
X0161800Y0076688D01*
X0161800Y0075090D02*
X0161800Y0075090D01*
X0161800Y0073491D02*
X0161800Y0073491D01*
X0157979Y0084681D02*
X0122313Y0084681D01*
X0120715Y0086279D02*
X0157600Y0086279D01*
X0157600Y0087878D02*
X0119116Y0087878D01*
X0116800Y0086800D02*
X0156800Y0046800D01*
X0155882Y0051112D02*
X0191778Y0051112D01*
X0194176Y0052711D02*
X0154283Y0052711D01*
X0152685Y0054309D02*
X0196574Y0054309D01*
X0198972Y0055908D02*
X0151086Y0055908D01*
X0149488Y0057506D02*
X0201369Y0057506D01*
X0203200Y0059105D02*
X0147889Y0059105D01*
X0146291Y0060703D02*
X0203200Y0060703D01*
X0203200Y0062302D02*
X0144692Y0062302D01*
X0143094Y0063900D02*
X0203200Y0063900D01*
X0203200Y0065499D02*
X0141495Y0065499D01*
X0139897Y0067097D02*
X0203200Y0067097D01*
X0203200Y0068696D02*
X0138298Y0068696D01*
X0136700Y0070294D02*
X0203200Y0070294D01*
X0217400Y0070294D02*
X0219355Y0070294D01*
X0220060Y0071000D02*
X0217600Y0068540D01*
X0217600Y0065060D01*
X0220060Y0062600D01*
X0223540Y0062600D01*
X0226000Y0065060D01*
X0226000Y0068540D01*
X0223540Y0071000D01*
X0220060Y0071000D01*
X0220060Y0072600D02*
X0223540Y0072600D01*
X0226000Y0075060D01*
X0226000Y0078540D01*
X0223540Y0081000D01*
X0220060Y0081000D01*
X0217600Y0078540D01*
X0217600Y0075060D01*
X0220060Y0072600D01*
X0219169Y0073491D02*
X0217400Y0073491D01*
X0217400Y0071893D02*
X0242600Y0071893D01*
X0242600Y0073491D02*
X0224431Y0073491D01*
X0226000Y0075090D02*
X0244150Y0075090D01*
X0245060Y0076000D02*
X0242600Y0073540D01*
X0242600Y0070060D01*
X0245060Y0067600D01*
X0248540Y0067600D01*
X0251000Y0070060D01*
X0251000Y0073540D01*
X0248540Y0076000D01*
X0245060Y0076000D01*
X0249450Y0075090D02*
X0254150Y0075090D01*
X0255060Y0076000D02*
X0252600Y0073540D01*
X0252600Y0070060D01*
X0254400Y0068260D01*
X0254400Y0052794D01*
X0245441Y0043835D01*
X0245441Y0043835D01*
X0244765Y0043159D01*
X0240573Y0038967D01*
X0224573Y0034967D01*
X0223540Y0036000D01*
X0220060Y0036000D01*
X0217600Y0033540D01*
X0217600Y0030060D01*
X0220060Y0027600D01*
X0223540Y0027600D01*
X0226000Y0030060D01*
X0226000Y0030376D01*
X0242095Y0034400D01*
X0242277Y0034400D01*
X0242554Y0034515D01*
X0242845Y0034587D01*
X0242991Y0034696D01*
X0243159Y0034765D01*
X0243371Y0034977D01*
X0243612Y0035156D01*
X0243706Y0035312D01*
X0247794Y0039400D01*
X0251715Y0039400D01*
X0252106Y0039372D01*
X0252189Y0039400D01*
X0252277Y0039400D01*
X0252640Y0039550D01*
X0261261Y0042424D01*
X0262525Y0041900D01*
X0271075Y0041900D01*
X0272876Y0042646D01*
X0274254Y0044024D01*
X0275000Y0045825D01*
X0275000Y0047775D01*
X0274254Y0049576D01*
X0272876Y0050954D01*
X0271075Y0051700D01*
X0262525Y0051700D01*
X0260724Y0050954D01*
X0259346Y0049576D01*
X0258600Y0047775D01*
X0258600Y0046596D01*
X0253186Y0044792D01*
X0258159Y0049765D01*
X0258835Y0050441D01*
X0259200Y0051323D01*
X0259200Y0054377D01*
X0259346Y0054024D01*
X0260724Y0052646D01*
X0262525Y0051900D01*
X0271075Y0051900D01*
X0272876Y0052646D01*
X0274254Y0054024D01*
X0275000Y0055825D01*
X0275000Y0057775D01*
X0274254Y0059576D01*
X0272876Y0060954D01*
X0271075Y0061700D01*
X0262525Y0061700D01*
X0260724Y0060954D01*
X0259346Y0059576D01*
X0259200Y0059223D01*
X0259200Y0068260D01*
X0261000Y0070060D01*
X0261000Y0073540D01*
X0258540Y0076000D01*
X0255060Y0076000D01*
X0252600Y0073491D02*
X0251000Y0073491D01*
X0251000Y0071893D02*
X0252600Y0071893D01*
X0252600Y0070294D02*
X0251000Y0070294D01*
X0249635Y0068696D02*
X0253965Y0068696D01*
X0254400Y0067097D02*
X0226000Y0067097D01*
X0226000Y0065499D02*
X0254400Y0065499D01*
X0254400Y0063900D02*
X0224840Y0063900D01*
X0218760Y0063900D02*
X0217400Y0063900D01*
X0217400Y0062302D02*
X0254400Y0062302D01*
X0254400Y0060703D02*
X0217400Y0060703D01*
X0217400Y0059105D02*
X0254400Y0059105D01*
X0254400Y0057506D02*
X0217400Y0057506D01*
X0217400Y0055908D02*
X0254400Y0055908D01*
X0254400Y0054309D02*
X0217400Y0054309D01*
X0217400Y0052711D02*
X0254317Y0052711D01*
X0252718Y0051112D02*
X0217400Y0051112D01*
X0218057Y0049514D02*
X0251120Y0049514D01*
X0249521Y0047915D02*
X0218057Y0047915D01*
X0218057Y0046317D02*
X0247923Y0046317D01*
X0246324Y0044718D02*
X0224822Y0044718D01*
X0226000Y0043120D02*
X0244726Y0043120D01*
X0244765Y0043159D02*
X0244765Y0043159D01*
X0243127Y0041521D02*
X0226000Y0041521D01*
X0225862Y0039923D02*
X0241528Y0039923D01*
X0241800Y0036800D02*
X0246800Y0041800D01*
X0251800Y0041800D01*
X0266800Y0046800D01*
X0273349Y0043120D02*
X0318876Y0043120D01*
X0318500Y0044522D02*
X0319679Y0040122D01*
X0321957Y0036178D01*
X0325178Y0032957D01*
X0329122Y0030679D01*
X0333522Y0029500D01*
X0338078Y0029500D01*
X0342478Y0030679D01*
X0346422Y0032957D01*
X0349643Y0036178D01*
X0351921Y0040122D01*
X0353100Y0044522D01*
X0353100Y0049078D01*
X0351921Y0053478D01*
X0349643Y0057422D01*
X0346422Y0060643D01*
X0342478Y0062921D01*
X0338078Y0064100D01*
X0333522Y0064100D01*
X0329122Y0062921D01*
X0325178Y0060643D01*
X0321957Y0057422D01*
X0319679Y0053478D01*
X0318500Y0049078D01*
X0318500Y0044522D01*
X0318500Y0044718D02*
X0274541Y0044718D01*
X0275000Y0046317D02*
X0318500Y0046317D01*
X0318500Y0047915D02*
X0274942Y0047915D01*
X0274280Y0049514D02*
X0318617Y0049514D01*
X0319045Y0051112D02*
X0272494Y0051112D01*
X0272940Y0052711D02*
X0319473Y0052711D01*
X0320159Y0054309D02*
X0274372Y0054309D01*
X0275000Y0055908D02*
X0321082Y0055908D01*
X0322040Y0057506D02*
X0275000Y0057506D01*
X0274449Y0059105D02*
X0323639Y0059105D01*
X0325281Y0060703D02*
X0273126Y0060703D01*
X0260474Y0060703D02*
X0259200Y0060703D01*
X0259200Y0062302D02*
X0328050Y0062302D01*
X0332777Y0063900D02*
X0259200Y0063900D01*
X0259200Y0065499D02*
X0405701Y0065499D01*
X0405701Y0067097D02*
X0259200Y0067097D01*
X0259635Y0068696D02*
X0405701Y0068696D01*
X0405701Y0070294D02*
X0261000Y0070294D01*
X0261000Y0071893D02*
X0405701Y0071893D01*
X0405701Y0073491D02*
X0261000Y0073491D01*
X0259450Y0075090D02*
X0405701Y0075090D01*
X0405701Y0076688D02*
X0226000Y0076688D01*
X0226000Y0078287D02*
X0405701Y0078287D01*
X0405701Y0079885D02*
X0224654Y0079885D01*
X0218946Y0079885D02*
X0217400Y0079885D01*
X0217400Y0078287D02*
X0217600Y0078287D01*
X0217600Y0076688D02*
X0217400Y0076688D01*
X0217400Y0075090D02*
X0217600Y0075090D01*
X0217756Y0068696D02*
X0217400Y0068696D01*
X0217400Y0067097D02*
X0217600Y0067097D01*
X0217600Y0065499D02*
X0217400Y0065499D01*
X0224245Y0070294D02*
X0242600Y0070294D01*
X0243965Y0068696D02*
X0225844Y0068696D01*
X0217400Y0081484D02*
X0405701Y0081484D01*
X0405701Y0083082D02*
X0379022Y0083082D01*
X0378540Y0082600D02*
X0381000Y0085060D01*
X0381000Y0088540D01*
X0378540Y0091000D01*
X0375060Y0091000D01*
X0372600Y0088540D01*
X0372600Y0085060D01*
X0375060Y0082600D01*
X0378540Y0082600D01*
X0380621Y0084681D02*
X0405701Y0084681D01*
X0405701Y0086279D02*
X0381000Y0086279D01*
X0381000Y0087878D02*
X0405701Y0087878D01*
X0405701Y0089476D02*
X0380063Y0089476D01*
X0373537Y0089476D02*
X0370063Y0089476D01*
X0371000Y0088540D02*
X0368540Y0091000D01*
X0365060Y0091000D01*
X0362600Y0088540D01*
X0362600Y0085060D01*
X0365060Y0082600D01*
X0368540Y0082600D01*
X0371000Y0085060D01*
X0371000Y0088540D01*
X0371000Y0087878D02*
X0372600Y0087878D01*
X0372600Y0086279D02*
X0371000Y0086279D01*
X0370621Y0084681D02*
X0372979Y0084681D01*
X0374578Y0083082D02*
X0369022Y0083082D01*
X0364578Y0083082D02*
X0217400Y0083082D01*
X0217400Y0084681D02*
X0332847Y0084681D01*
X0333522Y0084500D02*
X0338078Y0084500D01*
X0342478Y0085679D01*
X0346422Y0087957D01*
X0349643Y0091178D01*
X0351921Y0095122D01*
X0353100Y0099522D01*
X0353100Y0104078D01*
X0351921Y0108478D01*
X0349643Y0112422D01*
X0346422Y0115643D01*
X0342478Y0117921D01*
X0338078Y0119100D01*
X0333522Y0119100D01*
X0329122Y0117921D01*
X0325178Y0115643D01*
X0321957Y0112422D01*
X0319679Y0108478D01*
X0318500Y0104078D01*
X0318500Y0099522D01*
X0319679Y0095122D01*
X0321957Y0091178D01*
X0325178Y0087957D01*
X0329122Y0085679D01*
X0333522Y0084500D01*
X0328082Y0086279D02*
X0217400Y0086279D01*
X0217400Y0087878D02*
X0224782Y0087878D01*
X0225060Y0087600D02*
X0228540Y0087600D01*
X0231000Y0090060D01*
X0231000Y0093540D01*
X0228540Y0096000D01*
X0225060Y0096000D01*
X0222600Y0093540D01*
X0222600Y0090060D01*
X0225060Y0087600D01*
X0223184Y0089476D02*
X0217400Y0089476D01*
X0217400Y0091075D02*
X0222600Y0091075D01*
X0222600Y0092673D02*
X0217400Y0092673D01*
X0217400Y0094272D02*
X0223332Y0094272D01*
X0224931Y0095870D02*
X0217400Y0095870D01*
X0217400Y0097469D02*
X0261152Y0097469D01*
X0262525Y0096700D02*
X0260724Y0095954D01*
X0259346Y0094576D01*
X0258600Y0092775D01*
X0258600Y0090825D01*
X0259346Y0089024D01*
X0260724Y0087646D01*
X0262525Y0086900D01*
X0271075Y0086900D01*
X0272876Y0087646D01*
X0274254Y0089024D01*
X0275000Y0090825D01*
X0275000Y0092775D01*
X0274254Y0094576D01*
X0272876Y0095954D01*
X0271075Y0096700D01*
X0262525Y0096700D01*
X0260641Y0095870D02*
X0228669Y0095870D01*
X0228540Y0097600D02*
X0225060Y0097600D01*
X0222600Y0100060D01*
X0222600Y0103540D01*
X0225060Y0106000D01*
X0228540Y0106000D01*
X0231000Y0103540D01*
X0231000Y0100060D01*
X0228540Y0097600D01*
X0230007Y0099068D02*
X0259328Y0099068D01*
X0258666Y0100666D02*
X0231000Y0100666D01*
X0231000Y0102265D02*
X0258600Y0102265D01*
X0258085Y0103863D02*
X0230677Y0103863D01*
X0229078Y0105462D02*
X0257286Y0105462D01*
X0256487Y0107060D02*
X0210400Y0107060D01*
X0210400Y0108659D02*
X0255687Y0108659D01*
X0254888Y0110257D02*
X0210400Y0110257D01*
X0210400Y0111856D02*
X0254089Y0111856D01*
X0253290Y0113454D02*
X0210400Y0113454D01*
X0210400Y0115053D02*
X0252490Y0115053D01*
X0251691Y0116651D02*
X0210400Y0116651D01*
X0210400Y0118250D02*
X0219411Y0118250D01*
X0220060Y0117600D02*
X0223540Y0117600D01*
X0226000Y0120060D01*
X0226000Y0123540D01*
X0223540Y0126000D01*
X0220060Y0126000D01*
X0217600Y0123540D01*
X0217600Y0120060D01*
X0220060Y0117600D01*
X0217812Y0119848D02*
X0210400Y0119848D01*
X0210400Y0121447D02*
X0217600Y0121447D01*
X0217600Y0123045D02*
X0210400Y0123045D01*
X0210400Y0124644D02*
X0218704Y0124644D01*
X0224896Y0124644D02*
X0238704Y0124644D01*
X0237600Y0123540D02*
X0237600Y0120060D01*
X0240060Y0117600D01*
X0243540Y0117600D01*
X0246000Y0120060D01*
X0246000Y0123540D01*
X0243540Y0126000D01*
X0240060Y0126000D01*
X0237600Y0123540D01*
X0237600Y0123045D02*
X0226000Y0123045D01*
X0226000Y0121447D02*
X0237600Y0121447D01*
X0237812Y0119848D02*
X0225788Y0119848D01*
X0224189Y0118250D02*
X0239411Y0118250D01*
X0244189Y0118250D02*
X0249411Y0118250D01*
X0247812Y0119848D02*
X0245788Y0119848D01*
X0246000Y0121447D02*
X0247600Y0121447D01*
X0247161Y0123045D02*
X0246000Y0123045D01*
X0245562Y0124644D02*
X0244896Y0124644D01*
X0243964Y0126242D02*
X0210400Y0126242D01*
X0210400Y0127841D02*
X0219820Y0127841D01*
X0218221Y0129439D02*
X0210400Y0129439D01*
X0210400Y0131038D02*
X0217471Y0131038D01*
X0215873Y0132636D02*
X0210400Y0132636D01*
X0221800Y0131800D02*
X0241800Y0131800D01*
X0251800Y0121800D01*
X0261800Y0101800D01*
X0266800Y0101800D01*
X0272448Y0097469D02*
X0319050Y0097469D01*
X0318622Y0099068D02*
X0274272Y0099068D01*
X0274934Y0100666D02*
X0318500Y0100666D01*
X0318500Y0102265D02*
X0275000Y0102265D01*
X0274549Y0103863D02*
X0318500Y0103863D01*
X0318871Y0105462D02*
X0273368Y0105462D01*
X0271461Y0107060D02*
X0319299Y0107060D01*
X0319783Y0108659D02*
X0273888Y0108659D01*
X0274765Y0110257D02*
X0320706Y0110257D01*
X0321629Y0111856D02*
X0275000Y0111856D01*
X0274719Y0113454D02*
X0322988Y0113454D01*
X0324587Y0115053D02*
X0273777Y0115053D01*
X0271193Y0116651D02*
X0326923Y0116651D01*
X0330349Y0118250D02*
X0256258Y0118250D01*
X0255788Y0119848D02*
X0405701Y0119848D01*
X0405701Y0118250D02*
X0341251Y0118250D01*
X0344677Y0116651D02*
X0405701Y0116651D01*
X0405701Y0115053D02*
X0347013Y0115053D01*
X0348612Y0113454D02*
X0405701Y0113454D01*
X0405701Y0111856D02*
X0349971Y0111856D01*
X0350894Y0110257D02*
X0405701Y0110257D01*
X0405701Y0108659D02*
X0351817Y0108659D01*
X0352301Y0107060D02*
X0405701Y0107060D01*
X0405701Y0105462D02*
X0352729Y0105462D01*
X0353100Y0103863D02*
X0405701Y0103863D01*
X0405701Y0102265D02*
X0353100Y0102265D01*
X0353100Y0100666D02*
X0405701Y0100666D01*
X0405701Y0099068D02*
X0352978Y0099068D01*
X0352550Y0097469D02*
X0405701Y0097469D01*
X0405701Y0095870D02*
X0352121Y0095870D01*
X0351430Y0094272D02*
X0405701Y0094272D01*
X0405701Y0092673D02*
X0350507Y0092673D01*
X0349541Y0091075D02*
X0405701Y0091075D01*
X0405701Y0063900D02*
X0338823Y0063900D01*
X0343550Y0062302D02*
X0405701Y0062302D01*
X0405701Y0060703D02*
X0346319Y0060703D01*
X0347961Y0059105D02*
X0405701Y0059105D01*
X0405701Y0057506D02*
X0349560Y0057506D01*
X0350518Y0055908D02*
X0405701Y0055908D01*
X0405701Y0054309D02*
X0351441Y0054309D01*
X0352127Y0052711D02*
X0405701Y0052711D01*
X0405701Y0051112D02*
X0352555Y0051112D01*
X0352983Y0049514D02*
X0405701Y0049514D01*
X0405701Y0047915D02*
X0353100Y0047915D01*
X0353100Y0046317D02*
X0405701Y0046317D01*
X0405701Y0044718D02*
X0353100Y0044718D01*
X0352724Y0043120D02*
X0405701Y0043120D01*
X0405701Y0041521D02*
X0352296Y0041521D01*
X0351806Y0039923D02*
X0405701Y0039923D01*
X0405701Y0038324D02*
X0350883Y0038324D01*
X0349960Y0036726D02*
X0405701Y0036726D01*
X0405701Y0035127D02*
X0379413Y0035127D01*
X0378540Y0036000D02*
X0375060Y0036000D01*
X0372600Y0033540D01*
X0372600Y0030060D01*
X0375060Y0027600D01*
X0378540Y0027600D01*
X0381000Y0030060D01*
X0381000Y0033540D01*
X0378540Y0036000D01*
X0381000Y0033529D02*
X0405701Y0033529D01*
X0405701Y0031930D02*
X0401453Y0031930D01*
X0403965Y0030332D02*
X0405701Y0030332D01*
X0405701Y0028733D02*
X0405564Y0028733D01*
X0392147Y0031930D02*
X0381000Y0031930D01*
X0381000Y0030332D02*
X0389635Y0030332D01*
X0388036Y0028733D02*
X0379673Y0028733D01*
X0373927Y0028733D02*
X0369673Y0028733D01*
X0368540Y0027600D02*
X0371000Y0030060D01*
X0371000Y0033540D01*
X0368540Y0036000D01*
X0365060Y0036000D01*
X0362600Y0033540D01*
X0362600Y0030060D01*
X0365060Y0027600D01*
X0368540Y0027600D01*
X0371000Y0030332D02*
X0372600Y0030332D01*
X0372600Y0031930D02*
X0371000Y0031930D01*
X0371000Y0033529D02*
X0372600Y0033529D01*
X0374187Y0035127D02*
X0369413Y0035127D01*
X0364187Y0035127D02*
X0348593Y0035127D01*
X0346994Y0033529D02*
X0362600Y0033529D01*
X0362600Y0031930D02*
X0344644Y0031930D01*
X0341181Y0030332D02*
X0362600Y0030332D01*
X0363927Y0028733D02*
X0224673Y0028733D01*
X0226000Y0030332D02*
X0330419Y0030332D01*
X0326956Y0031930D02*
X0271147Y0031930D01*
X0271075Y0031900D02*
X0272876Y0032646D01*
X0274254Y0034024D01*
X0275000Y0035825D01*
X0275000Y0037775D01*
X0274254Y0039576D01*
X0272876Y0040954D01*
X0271075Y0041700D01*
X0262525Y0041700D01*
X0260724Y0040954D01*
X0259346Y0039576D01*
X0258600Y0037775D01*
X0258600Y0035825D01*
X0259346Y0034024D01*
X0260724Y0032646D01*
X0262525Y0031900D01*
X0271075Y0031900D01*
X0273758Y0033529D02*
X0324606Y0033529D01*
X0323007Y0035127D02*
X0274711Y0035127D01*
X0275000Y0036726D02*
X0321640Y0036726D01*
X0320717Y0038324D02*
X0274772Y0038324D01*
X0273907Y0039923D02*
X0319794Y0039923D01*
X0319304Y0041521D02*
X0271507Y0041521D01*
X0262093Y0041521D02*
X0258553Y0041521D01*
X0259693Y0039923D02*
X0253757Y0039923D01*
X0258828Y0038324D02*
X0246718Y0038324D01*
X0245120Y0036726D02*
X0258600Y0036726D01*
X0258889Y0035127D02*
X0243573Y0035127D01*
X0241800Y0036800D02*
X0221800Y0031800D01*
X0217600Y0031930D02*
X0069200Y0031930D01*
X0069200Y0033529D02*
X0217600Y0033529D01*
X0219187Y0035127D02*
X0069200Y0035127D01*
X0069200Y0036726D02*
X0231607Y0036726D01*
X0232216Y0031930D02*
X0262453Y0031930D01*
X0259842Y0033529D02*
X0238610Y0033529D01*
X0238001Y0038324D02*
X0224264Y0038324D01*
X0224413Y0035127D02*
X0225213Y0035127D01*
X0219336Y0038324D02*
X0069200Y0038324D01*
X0069200Y0039923D02*
X0217738Y0039923D01*
X0217600Y0041521D02*
X0069915Y0041521D01*
X0071514Y0043120D02*
X0209903Y0043120D01*
X0209543Y0044718D02*
X0195167Y0044718D01*
X0197565Y0046317D02*
X0209543Y0046317D01*
X0209543Y0047915D02*
X0199963Y0047915D01*
X0202360Y0049514D02*
X0209543Y0049514D01*
X0210200Y0051112D02*
X0204758Y0051112D01*
X0207156Y0052711D02*
X0210200Y0052711D01*
X0210200Y0054309D02*
X0209465Y0054309D01*
X0218057Y0044718D02*
X0218778Y0044718D01*
X0217600Y0030332D02*
X0111808Y0030332D01*
X0111779Y0030361D02*
X0110235Y0031000D01*
X0103365Y0031000D01*
X0101821Y0030361D01*
X0100639Y0029179D01*
X0100000Y0027635D01*
X0100000Y0025965D01*
X0100639Y0024421D01*
X0101821Y0023239D01*
X0103365Y0022600D01*
X0110235Y0022600D01*
X0111779Y0023239D01*
X0112961Y0024421D01*
X0113600Y0025965D01*
X0113600Y0027635D01*
X0112961Y0029179D01*
X0111779Y0030361D01*
X0113145Y0028733D02*
X0218927Y0028733D01*
X0246800Y0041800D02*
X0256800Y0051800D01*
X0256800Y0071800D01*
X0260492Y0087878D02*
X0228818Y0087878D01*
X0230416Y0089476D02*
X0259159Y0089476D01*
X0258600Y0091075D02*
X0231000Y0091075D01*
X0231000Y0092673D02*
X0258600Y0092673D01*
X0259220Y0094272D02*
X0230268Y0094272D01*
X0223593Y0099068D02*
X0218057Y0099068D01*
X0218057Y0100666D02*
X0222600Y0100666D01*
X0222600Y0102265D02*
X0218057Y0102265D01*
X0218057Y0103863D02*
X0222923Y0103863D01*
X0224522Y0105462D02*
X0217716Y0105462D01*
X0203200Y0097469D02*
X0138692Y0097469D01*
X0136800Y0097469D02*
X0136800Y0097469D01*
X0136800Y0097400D02*
X0136800Y0101800D01*
X0136800Y0101800D01*
X0132400Y0101800D01*
X0132400Y0099977D01*
X0134977Y0097400D01*
X0136800Y0097400D01*
X0136800Y0099068D02*
X0136800Y0099068D01*
X0136800Y0100666D02*
X0136800Y0100666D01*
X0136800Y0102265D02*
X0136800Y0102265D01*
X0136800Y0103863D02*
X0136800Y0103863D01*
X0136800Y0105462D02*
X0136800Y0105462D01*
X0132400Y0100666D02*
X0021600Y0100666D01*
X0021600Y0099068D02*
X0133310Y0099068D01*
X0134908Y0097469D02*
X0021600Y0097469D01*
X0021600Y0095870D02*
X0203200Y0095870D01*
X0203200Y0094272D02*
X0021600Y0094272D01*
X0021600Y0092673D02*
X0203200Y0092673D01*
X0203200Y0091075D02*
X0068748Y0091075D01*
X0068623Y0091200D02*
X0066800Y0091200D01*
X0066800Y0086800D01*
X0071200Y0086800D01*
X0071200Y0088623D01*
X0068623Y0091200D01*
X0066800Y0091200D02*
X0064977Y0091200D01*
X0062400Y0088623D01*
X0062400Y0086800D01*
X0066800Y0086800D01*
X0066800Y0086800D01*
X0066800Y0086800D01*
X0071200Y0086800D01*
X0071200Y0084977D01*
X0068623Y0082400D01*
X0066800Y0082400D01*
X0066800Y0086800D01*
X0066800Y0086800D01*
X0066800Y0086800D01*
X0066800Y0091200D01*
X0066800Y0091075D02*
X0066800Y0091075D01*
X0066800Y0089476D02*
X0066800Y0089476D01*
X0066800Y0087878D02*
X0066800Y0087878D01*
X0066800Y0086800D02*
X0062400Y0086800D01*
X0062400Y0084977D01*
X0064977Y0082400D01*
X0066800Y0082400D01*
X0066800Y0086800D01*
X0066800Y0086279D02*
X0066800Y0086279D01*
X0066800Y0084681D02*
X0066800Y0084681D01*
X0066800Y0083082D02*
X0066800Y0083082D01*
X0069305Y0083082D02*
X0074578Y0083082D01*
X0072979Y0084681D02*
X0070903Y0084681D01*
X0071200Y0086279D02*
X0072600Y0086279D01*
X0072600Y0087878D02*
X0071200Y0087878D01*
X0070346Y0089476D02*
X0073537Y0089476D01*
X0076800Y0086800D02*
X0116800Y0086800D01*
X0117123Y0083082D02*
X0079022Y0083082D01*
X0080063Y0089476D02*
X0158537Y0089476D01*
X0131510Y0068696D02*
X0080844Y0068696D01*
X0081000Y0068540D02*
X0078540Y0071000D01*
X0075060Y0071000D01*
X0072600Y0068540D01*
X0072600Y0065060D01*
X0075060Y0062600D01*
X0078540Y0062600D01*
X0081000Y0065060D01*
X0081000Y0068540D01*
X0081000Y0067097D02*
X0133109Y0067097D01*
X0134707Y0065499D02*
X0081000Y0065499D01*
X0079840Y0063900D02*
X0136306Y0063900D01*
X0137904Y0062302D02*
X0051489Y0062302D01*
X0051643Y0062352D02*
X0052316Y0062695D01*
X0052927Y0063139D01*
X0053461Y0063673D01*
X0053905Y0064284D01*
X0054248Y0064957D01*
X0054482Y0065676D01*
X0054600Y0066422D01*
X0054600Y0066600D01*
X0047000Y0066600D01*
X0047000Y0067000D01*
X0046600Y0067000D01*
X0046600Y0071600D01*
X0043422Y0071600D01*
X0042676Y0071482D01*
X0041957Y0071248D01*
X0041284Y0070905D01*
X0040673Y0070461D01*
X0040139Y0069927D01*
X0039695Y0069316D01*
X0039352Y0068643D01*
X0039118Y0067924D01*
X0039000Y0067178D01*
X0039000Y0067000D01*
X0046600Y0067000D01*
X0046600Y0066600D01*
X0047000Y0066600D01*
X0047000Y0062000D01*
X0050178Y0062000D01*
X0050924Y0062118D01*
X0051643Y0062352D01*
X0050715Y0061400D02*
X0052406Y0060700D01*
X0053700Y0059406D01*
X0054400Y0057715D01*
X0054400Y0055885D01*
X0053700Y0054194D01*
X0052406Y0052900D01*
X0050715Y0052200D01*
X0042885Y0052200D01*
X0041194Y0052900D01*
X0039900Y0054194D01*
X0039200Y0055885D01*
X0039200Y0057715D01*
X0039900Y0059406D01*
X0041194Y0060700D01*
X0042885Y0061400D01*
X0050715Y0061400D01*
X0052397Y0060703D02*
X0139503Y0060703D01*
X0141101Y0059105D02*
X0053824Y0059105D01*
X0054400Y0057506D02*
X0142700Y0057506D01*
X0144298Y0055908D02*
X0054400Y0055908D01*
X0053747Y0054309D02*
X0145897Y0054309D01*
X0147495Y0052711D02*
X0051948Y0052711D01*
X0051410Y0051112D02*
X0149094Y0051112D01*
X0129912Y0070294D02*
X0079245Y0070294D01*
X0074355Y0070294D02*
X0069528Y0070294D01*
X0068623Y0071200D02*
X0071200Y0068623D01*
X0071200Y0066800D01*
X0066800Y0066800D01*
X0066800Y0066800D01*
X0066800Y0066800D01*
X0066800Y0071200D01*
X0068623Y0071200D01*
X0066800Y0071200D02*
X0064977Y0071200D01*
X0062400Y0068623D01*
X0062400Y0066800D01*
X0066800Y0066800D01*
X0071200Y0066800D01*
X0071200Y0064977D01*
X0068623Y0062400D01*
X0066800Y0062400D01*
X0066800Y0066800D01*
X0066800Y0066800D01*
X0066800Y0066800D01*
X0066800Y0071200D01*
X0066800Y0070294D02*
X0066800Y0070294D01*
X0066800Y0068696D02*
X0066800Y0068696D01*
X0066800Y0067097D02*
X0066800Y0067097D01*
X0066800Y0066800D02*
X0062400Y0066800D01*
X0062400Y0064977D01*
X0064977Y0062400D01*
X0066800Y0062400D01*
X0066800Y0066800D01*
X0066800Y0065499D02*
X0066800Y0065499D01*
X0066800Y0063900D02*
X0066800Y0063900D01*
X0070123Y0063900D02*
X0073760Y0063900D01*
X0072600Y0065499D02*
X0071200Y0065499D01*
X0071200Y0067097D02*
X0072600Y0067097D01*
X0072756Y0068696D02*
X0071127Y0068696D01*
X0064072Y0070294D02*
X0053094Y0070294D01*
X0052927Y0070461D02*
X0052316Y0070905D01*
X0051643Y0071248D01*
X0050924Y0071482D01*
X0050178Y0071600D01*
X0047000Y0071600D01*
X0047000Y0067000D01*
X0054600Y0067000D01*
X0054600Y0067178D01*
X0054482Y0067924D01*
X0054248Y0068643D01*
X0053905Y0069316D01*
X0053461Y0069927D01*
X0052927Y0070461D01*
X0054221Y0068696D02*
X0062473Y0068696D01*
X0062400Y0067097D02*
X0054600Y0067097D01*
X0054424Y0065499D02*
X0062400Y0065499D01*
X0063477Y0063900D02*
X0053626Y0063900D01*
X0047000Y0063900D02*
X0046600Y0063900D01*
X0046600Y0062302D02*
X0047000Y0062302D01*
X0046600Y0062000D02*
X0046600Y0066600D01*
X0039000Y0066600D01*
X0039000Y0066422D01*
X0039118Y0065676D01*
X0039352Y0064957D01*
X0039695Y0064284D01*
X0040139Y0063673D01*
X0040673Y0063139D01*
X0041284Y0062695D01*
X0041957Y0062352D01*
X0042676Y0062118D01*
X0043422Y0062000D01*
X0046600Y0062000D01*
X0042111Y0062302D02*
X0021600Y0062302D01*
X0021600Y0063900D02*
X0039974Y0063900D01*
X0039176Y0065499D02*
X0021600Y0065499D01*
X0021600Y0067097D02*
X0039000Y0067097D01*
X0039379Y0068696D02*
X0021600Y0068696D01*
X0021600Y0070294D02*
X0040506Y0070294D01*
X0041957Y0072352D02*
X0042676Y0072118D01*
X0043422Y0072000D01*
X0046600Y0072000D01*
X0046600Y0076600D01*
X0047000Y0076600D01*
X0047000Y0077000D01*
X0046600Y0077000D01*
X0046600Y0081600D01*
X0043422Y0081600D01*
X0042676Y0081482D01*
X0041957Y0081248D01*
X0041284Y0080905D01*
X0040673Y0080461D01*
X0040139Y0079927D01*
X0039695Y0079316D01*
X0039352Y0078643D01*
X0039118Y0077924D01*
X0039000Y0077178D01*
X0039000Y0077000D01*
X0046600Y0077000D01*
X0046600Y0076600D01*
X0039000Y0076600D01*
X0039000Y0076422D01*
X0039118Y0075676D01*
X0039352Y0074957D01*
X0039695Y0074284D01*
X0040139Y0073673D01*
X0040673Y0073139D01*
X0041284Y0072695D01*
X0041957Y0072352D01*
X0040320Y0073491D02*
X0021600Y0073491D01*
X0021600Y0071893D02*
X0128313Y0071893D01*
X0126715Y0073491D02*
X0053280Y0073491D01*
X0053461Y0073673D02*
X0053905Y0074284D01*
X0054248Y0074957D01*
X0054482Y0075676D01*
X0054600Y0076422D01*
X0054600Y0076600D01*
X0047000Y0076600D01*
X0047000Y0072000D01*
X0050178Y0072000D01*
X0050924Y0072118D01*
X0051643Y0072352D01*
X0052316Y0072695D01*
X0052927Y0073139D01*
X0053461Y0073673D01*
X0054291Y0075090D02*
X0125116Y0075090D01*
X0123518Y0076688D02*
X0047000Y0076688D01*
X0047000Y0077000D02*
X0054600Y0077000D01*
X0054600Y0077178D01*
X0054482Y0077924D01*
X0054248Y0078643D01*
X0053905Y0079316D01*
X0053461Y0079927D01*
X0052927Y0080461D01*
X0052316Y0080905D01*
X0051643Y0081248D01*
X0050924Y0081482D01*
X0050178Y0081600D01*
X0047000Y0081600D01*
X0047000Y0077000D01*
X0046600Y0076688D02*
X0021600Y0076688D01*
X0021600Y0075090D02*
X0039309Y0075090D01*
X0039236Y0078287D02*
X0021600Y0078287D01*
X0021600Y0079885D02*
X0040109Y0079885D01*
X0042689Y0081484D02*
X0021600Y0081484D01*
X0021600Y0083082D02*
X0064295Y0083082D01*
X0062697Y0084681D02*
X0021600Y0084681D01*
X0021600Y0086279D02*
X0062400Y0086279D01*
X0062400Y0087878D02*
X0021600Y0087878D01*
X0021600Y0089476D02*
X0063254Y0089476D01*
X0064852Y0091075D02*
X0021600Y0091075D01*
X0046600Y0081484D02*
X0047000Y0081484D01*
X0047000Y0079885D02*
X0046600Y0079885D01*
X0046600Y0078287D02*
X0047000Y0078287D01*
X0047000Y0075090D02*
X0046600Y0075090D01*
X0046600Y0073491D02*
X0047000Y0073491D01*
X0047000Y0070294D02*
X0046600Y0070294D01*
X0046600Y0068696D02*
X0047000Y0068696D01*
X0047000Y0067097D02*
X0046600Y0067097D01*
X0046600Y0065499D02*
X0047000Y0065499D01*
X0041203Y0060703D02*
X0021600Y0060703D01*
X0021600Y0059105D02*
X0039776Y0059105D01*
X0039200Y0057506D02*
X0021600Y0057506D01*
X0021600Y0055908D02*
X0039200Y0055908D01*
X0039853Y0054309D02*
X0021600Y0054309D01*
X0021600Y0052711D02*
X0041652Y0052711D01*
X0042190Y0051112D02*
X0021600Y0051112D01*
X0021600Y0049514D02*
X0040008Y0049514D01*
X0039283Y0047915D02*
X0021600Y0047915D01*
X0021600Y0046317D02*
X0039200Y0046317D01*
X0039683Y0044718D02*
X0021600Y0044718D01*
X0021600Y0043120D02*
X0040975Y0043120D01*
X0052625Y0043120D02*
X0064749Y0043120D01*
X0064400Y0041521D02*
X0021600Y0041521D01*
X0021600Y0039923D02*
X0064400Y0039923D01*
X0064400Y0038324D02*
X0021600Y0038324D01*
X0021600Y0036726D02*
X0064400Y0036726D01*
X0064400Y0035127D02*
X0021600Y0035127D01*
X0021600Y0033529D02*
X0064400Y0033529D01*
X0064400Y0031930D02*
X0031453Y0031930D01*
X0033965Y0030332D02*
X0061792Y0030332D01*
X0060455Y0028733D02*
X0035564Y0028733D01*
X0036536Y0027134D02*
X0060000Y0027134D01*
X0060178Y0025536D02*
X0037290Y0025536D01*
X0037718Y0023937D02*
X0061123Y0023937D01*
X0066800Y0026800D02*
X0066800Y0041800D01*
X0071800Y0046800D01*
X0071808Y0030332D02*
X0101792Y0030332D01*
X0100455Y0028733D02*
X0073145Y0028733D01*
X0073600Y0027134D02*
X0100000Y0027134D01*
X0100178Y0025536D02*
X0073422Y0025536D01*
X0072477Y0023937D02*
X0101123Y0023937D01*
X0112477Y0023937D02*
X0385882Y0023937D01*
X0385701Y0022339D02*
X0037899Y0022339D01*
X0037899Y0020740D02*
X0385701Y0020740D01*
X0386021Y0019142D02*
X0037579Y0019142D01*
X0037150Y0017543D02*
X0386450Y0017543D01*
X0386310Y0025536D02*
X0113422Y0025536D01*
X0113600Y0027134D02*
X0387064Y0027134D01*
X0362979Y0084681D02*
X0338753Y0084681D01*
X0343518Y0086279D02*
X0362600Y0086279D01*
X0362600Y0087878D02*
X0346286Y0087878D01*
X0347942Y0089476D02*
X0363537Y0089476D01*
X0325314Y0087878D02*
X0273108Y0087878D01*
X0274441Y0089476D02*
X0323658Y0089476D01*
X0322059Y0091075D02*
X0275000Y0091075D01*
X0275000Y0092673D02*
X0321093Y0092673D01*
X0320170Y0094272D02*
X0274380Y0094272D01*
X0272959Y0095870D02*
X0319479Y0095870D01*
X0356977Y0132636D02*
X0244358Y0132636D01*
X0245956Y0131038D02*
X0358575Y0131038D01*
X0356252Y0134235D02*
X0225305Y0134235D01*
X0223706Y0135833D02*
X0355780Y0135833D01*
X0355780Y0137432D02*
X0221259Y0137432D01*
X0219661Y0139030D02*
X0356113Y0139030D01*
X0367643Y0142227D02*
X0385799Y0142227D01*
X0384334Y0140629D02*
X0369108Y0140629D01*
X0369770Y0139030D02*
X0383672Y0139030D01*
X0383339Y0137432D02*
X0370104Y0137432D01*
X0370104Y0135833D02*
X0383339Y0135833D01*
X0383811Y0134235D02*
X0369631Y0134235D01*
X0368907Y0132636D02*
X0384536Y0132636D01*
X0386134Y0131038D02*
X0367308Y0131038D01*
X0394867Y0131038D02*
X0405701Y0131038D01*
X0405701Y0132636D02*
X0396466Y0132636D01*
X0397191Y0134235D02*
X0405701Y0134235D01*
X0405701Y0135833D02*
X0397663Y0135833D01*
X0397663Y0137432D02*
X0405701Y0137432D01*
X0405701Y0139030D02*
X0397329Y0139030D01*
X0396667Y0140629D02*
X0405701Y0140629D01*
X0405701Y0142227D02*
X0395202Y0142227D01*
X0405701Y0129439D02*
X0247555Y0129439D01*
X0249153Y0127841D02*
X0405701Y0127841D01*
X0405701Y0126242D02*
X0250752Y0126242D01*
X0254896Y0124644D02*
X0405701Y0124644D01*
X0405701Y0123045D02*
X0256000Y0123045D01*
X0256000Y0121447D02*
X0405701Y0121447D01*
X0262407Y0116651D02*
X0257058Y0116651D01*
X0257857Y0115053D02*
X0259823Y0115053D01*
X0258881Y0113454D02*
X0258656Y0113454D01*
X0261853Y0107060D02*
X0262139Y0107060D01*
X0242365Y0127841D02*
X0223780Y0127841D01*
X0121919Y0078287D02*
X0054364Y0078287D01*
X0053491Y0079885D02*
X0120321Y0079885D01*
X0118722Y0081484D02*
X0050911Y0081484D01*
X0048540Y0127600D02*
X0045060Y0127600D01*
X0042600Y0130060D01*
X0042600Y0133540D01*
X0045060Y0136000D01*
X0048540Y0136000D01*
X0051000Y0133540D01*
X0051000Y0130060D01*
X0048540Y0127600D01*
X0048780Y0127841D02*
X0054820Y0127841D01*
X0055060Y0127600D02*
X0052600Y0130060D01*
X0052600Y0133540D01*
X0055060Y0136000D01*
X0058540Y0136000D01*
X0061000Y0133540D01*
X0061000Y0130060D01*
X0058540Y0127600D01*
X0055060Y0127600D01*
X0053221Y0129439D02*
X0050379Y0129439D01*
X0051000Y0131038D02*
X0052600Y0131038D01*
X0052600Y0132636D02*
X0051000Y0132636D01*
X0050305Y0134235D02*
X0053295Y0134235D01*
X0054894Y0135833D02*
X0048706Y0135833D01*
X0044894Y0135833D02*
X0021600Y0135833D01*
X0021600Y0134235D02*
X0043295Y0134235D01*
X0042600Y0132636D02*
X0021600Y0132636D01*
X0021600Y0131038D02*
X0042600Y0131038D01*
X0043221Y0129439D02*
X0021600Y0129439D01*
X0021600Y0127841D02*
X0044820Y0127841D01*
X0058780Y0127841D02*
X0112320Y0127841D01*
X0110721Y0129439D02*
X0060379Y0129439D01*
X0061000Y0131038D02*
X0110100Y0131038D01*
X0110100Y0132636D02*
X0061000Y0132636D01*
X0060305Y0134235D02*
X0110795Y0134235D01*
X0112394Y0135833D02*
X0058706Y0135833D01*
X0022147Y0031930D02*
X0021600Y0031930D01*
X0254711Y0046317D02*
X0257760Y0046317D01*
X0258658Y0047915D02*
X0256309Y0047915D01*
X0257908Y0049514D02*
X0259320Y0049514D01*
X0259113Y0051112D02*
X0261106Y0051112D01*
X0260660Y0052711D02*
X0259200Y0052711D01*
X0259200Y0054309D02*
X0259228Y0054309D01*
X0274823Y0228547D02*
X0220400Y0228547D01*
X0220400Y0230145D02*
X0273882Y0230145D01*
X0265510Y0239737D02*
X0229803Y0239737D01*
X0228873Y0242934D02*
X0263550Y0242934D01*
X0262751Y0244532D02*
X0230472Y0244532D01*
X0231000Y0246131D02*
X0261951Y0246131D01*
X0259931Y0247729D02*
X0253669Y0247729D01*
X0253540Y0247600D02*
X0256000Y0250060D01*
X0256000Y0253540D01*
X0253540Y0256000D01*
X0250060Y0256000D01*
X0247600Y0253540D01*
X0247600Y0250060D01*
X0250060Y0247600D01*
X0253540Y0247600D01*
X0255267Y0249328D02*
X0258333Y0249328D01*
X0257600Y0250926D02*
X0256000Y0250926D01*
X0256000Y0252525D02*
X0257413Y0252525D01*
X0256614Y0254123D02*
X0255417Y0254123D01*
X0255814Y0255722D02*
X0253818Y0255722D01*
X0255015Y0257320D02*
X0238140Y0257320D01*
X0237074Y0255722D02*
X0249782Y0255722D01*
X0248183Y0254123D02*
X0236009Y0254123D01*
X0234943Y0252525D02*
X0247600Y0252525D01*
X0247600Y0250926D02*
X0233877Y0250926D01*
X0232812Y0249328D02*
X0248333Y0249328D01*
X0249931Y0247729D02*
X0231746Y0247729D01*
X0226426Y0241335D02*
X0264349Y0241335D01*
X0266800Y0241800D02*
X0261800Y0251800D01*
X0263864Y0255722D02*
X0275492Y0255722D01*
X0213458Y0238138D02*
X0174078Y0238138D01*
X0169522Y0238138D02*
X0119078Y0238138D01*
D16*
X0171800Y0251800D02*
X0216800Y0251800D01*
X0221800Y0246800D01*
X0226800Y0246800D01*
X0236800Y0261800D01*
X0256800Y0261800D01*
X0261800Y0251800D01*
X0226800Y0246800D02*
X0216800Y0236800D01*
X0216800Y0186800D01*
X0206800Y0176800D01*
X0206800Y0136800D01*
X0216800Y0136800D01*
X0221800Y0131800D01*
X0206800Y0136800D02*
X0206800Y0056800D01*
X0191800Y0046800D01*
X0156800Y0046800D01*
X0071800Y0046800D01*
X0046800Y0046800D01*
X0213800Y0046800D02*
X0213800Y0101800D01*
D17*
X0213800Y0101800D03*
X0213800Y0046800D03*
M02*
