%
M48
M72
T01C0.0320
T02C0.0354
T03C0.0400
T04C0.0440
T05C0.0472
T06C0.1260
T07C0.1300
%
T01
X6680Y2680
X10680Y2680
X7680Y6680
X6680Y6680
X6680Y8680
X7680Y8680
X8680Y10680
X8680Y11680
X11430Y13180
X12180Y12680
X12180Y13680
X8680Y14180
X8680Y15180
X5680Y13180
X4680Y13180
X13680Y11180
X13680Y10180
X16180Y10180
X16180Y11180
X16180Y8680
X16180Y7680
X18680Y8680
X19680Y8680
X22180Y7680
X22180Y6680
X24680Y7180
X25680Y7180
X22680Y9180
X22680Y10180
X22180Y12180
X22180Y13180
X24180Y12180
X25180Y12180
X22680Y15180
X22680Y16180
X22680Y17680
X22680Y18680
X20680Y19180
X19680Y19180
X17180Y19680
X17180Y20680
X14680Y20680
X14680Y19680
X11680Y20180
X11680Y21180
X13930Y22680
X14680Y23180
X14680Y22180
X17180Y24180
X17180Y25180
X22680Y24680
X22680Y23680
X22680Y22180
X22680Y21180
X25680Y19680
X25680Y18680
X17180Y17680
X17180Y16680
X16180Y14680
X16180Y13680
X22180Y4180
X22180Y3180
X36680Y3180
X37680Y3180
X37680Y8680
X36680Y8680
X37180Y17180
X38180Y17180
X38180Y22680
X37180Y22680
X26180Y25180
X25180Y25180
X11680Y25180
X11680Y24180
X9680Y24180
X8680Y24180
T02
X21380Y10180
X21380Y4680
T03
X4680Y4680
X4680Y5680
X4680Y6680
X4680Y7680
T04
X26680Y9180
X26680Y10180
X26680Y11180
X26680Y5680
X26680Y4680
X26680Y3680
X28180Y17680
X28180Y18680
X28180Y19680
X28180Y23180
X28180Y24180
X28180Y25180
T05
X36294Y13680
X39050Y13680
X4680Y18794
X4680Y21550
T06
X2680Y2180
X2680Y26180
X39680Y2180
X40180Y26180
T07
X35080Y24180
X35080Y18680
X33580Y10180
X33580Y4680
M30
